<?xml version="1.0" encoding="utf-8"?><svg xmlns="http://www.w3.org/2000/svg" xmlns:xlink="http://www.w3.org/1999/xlink"><symbol viewBox="0 0 16 31" id="arrow-down" xmlns="http://www.w3.org/2000/svg"><path d="M7.293 30.707a1 1 0 001.414 0l6.364-6.364a1 1 0 00-1.414-1.414L8 28.586l-5.657-5.657A1 1 0 00.93 24.343l6.364 6.364zM7 0v30h2V0H7z"/></symbol><symbol viewBox="0 0 22 22" id="close" xmlns="http://www.w3.org/2000/svg"><path d="M20.639 1.728a1.161 1.161 0 00-1.628 0l-7.82 7.675L2.965 1.33a1.167 1.167 0 00-1.628 0 1.116 1.116 0 000 1.599L9.562 11l-8.224 8.072a1.119 1.119 0 000 1.599c.217.213.513.332.82.328.306-.002.6-.119.82-.328l8.224-8.072 7.82 7.675c.217.214.513.332.82.328.306-.001.6-.119.82-.329.216-.212.338-.5.338-.799 0-.3-.122-.587-.338-.799L12.842 11l7.82-7.675a1.135 1.135 0 00-.023-1.598z"/></symbol><symbol viewBox="0 0 28 22" id="email" xmlns="http://www.w3.org/2000/svg"><path d="M25.7 1H2.3C1.582 1 1 1.584 1 2.304v17.392C1 20.416 1.582 21 2.3 21h23.4c.718 0 1.3-.584 1.3-1.304V2.304C27 1.584 26.418 1 25.7 1zm.433 18.696c0 .24-.194.434-.433.434H2.3a.434.434 0 01-.433-.434V2.304c0-.24.194-.434.433-.434h23.4c.24 0 .433.194.433.434v17.392z"/><path d="M24.871 2.74a.432.432 0 00-.316.1l-9.997 8.427a.865.865 0 01-1.116 0L3.445 2.841a.432.432 0 00-.705.257.436.436 0 00.148.409l9.997 8.426a1.727 1.727 0 002.23 0l9.997-8.426a.435.435 0 00-.241-.766zM9.334 11.873a.433.433 0 00-.417.135L2.85 18.53a.436.436 0 00.216.728.432.432 0 00.417-.135L9.55 12.6a.436.436 0 00-.216-.728zm9.75.135a.433.433 0 00-.74.165.436.436 0 00.106.428l6.067 6.522a.432.432 0 00.605.014.436.436 0 00.028-.608l-6.066-6.521z"/><path d="M25.7 1H2.3C1.582 1 1 1.584 1 2.304v17.392C1 20.416 1.582 21 2.3 21h23.4c.718 0 1.3-.584 1.3-1.304V2.304C27 1.584 26.418 1 25.7 1zm.433 18.696c0 .24-.194.434-.433.434H2.3a.434.434 0 01-.433-.434V2.304c0-.24.194-.434.433-.434h23.4c.24 0 .433.194.433.434v17.392z"/><path d="M24.871 2.74a.432.432 0 00-.316.1l-9.997 8.427a.865.865 0 01-1.116 0L3.445 2.841a.432.432 0 00-.705.257.436.436 0 00.148.409l9.997 8.426a1.727 1.727 0 002.23 0l9.997-8.426a.435.435 0 00-.241-.766zM9.334 11.873a.433.433 0 00-.417.135L2.85 18.53a.436.436 0 00.216.728.432.432 0 00.417-.135L9.55 12.6a.436.436 0 00-.216-.728zm9.75.135a.433.433 0 00-.74.165.436.436 0 00.106.428l6.067 6.522a.432.432 0 00.605.014.436.436 0 00.028-.608l-6.066-6.521z"/></symbol><symbol viewBox="0 0 80 80" id="icon-8" xmlns="http://www.w3.org/2000/svg"><path d="M9.334 57.333a1.332 1.332 0 01-.943-2.276l2.666-2.666a1.332 1.332 0 111.886 1.885l-2.667 2.667c-.26.26-.601.39-.942.39zM9.334 41.334a1.331 1.331 0 01-.943-2.276l2.666-2.668a1.332 1.332 0 111.886 1.886l-2.667 2.666a1.33 1.33 0 01-.942.392zM9.334 64a1.33 1.33 0 01-.944-.39l-2.666-2.668a1.331 1.331 0 010-1.884 1.331 1.331 0 011.885 0l2.667 2.666A1.332 1.332 0 019.334 64z"/><path d="M9.334 80A1.333 1.333 0 018 78.666V29.334a1.333 1.333 0 112.666 0v49.332c0 .738-.596 1.334-1.332 1.334z"/><path d="M9.334 69.334C4.186 69.334 0 65.144 0 60V29.334C0 24.188 4.186 20 9.334 20c5.146 0 9.332 4.188 9.332 9.334V60c0 5.145-4.186 9.334-9.332 9.334zm0-46.667a6.674 6.674 0 00-6.667 6.666V60a6.674 6.674 0 006.667 6.667A6.674 6.674 0 0016 60V29.334a6.674 6.674 0 00-6.666-6.667z"/><path d="M9.334 48a1.33 1.33 0 01-.944-.39l-2.666-2.667a1.332 1.332 0 111.885-1.885l2.667 2.666A1.332 1.332 0 019.334 48zM66.667 37.333a1.332 1.332 0 01-.943-2.276l2.666-2.666a1.332 1.332 0 111.886 1.885l-2.667 2.667c-.26.26-.6.39-.942.39zM66.667 21.334a1.331 1.331 0 01-.943-2.276l2.666-2.668a1.332 1.332 0 111.886 1.886l-2.667 2.666a1.33 1.33 0 01-.942.392zM66.667 44a1.33 1.33 0 01-.943-.39l-2.667-2.668a1.331 1.331 0 010-1.884 1.331 1.331 0 011.886 0l2.666 2.666A1.332 1.332 0 0166.667 44z"/><path d="M66.667 61a1.333 1.333 0 01-1.334-1.333V9.333a1.333 1.333 0 112.667 0v50.334c0 .737-.597 1.333-1.333 1.333z"/><path d="M66.667 49.334c-5.147 0-9.334-4.189-9.334-9.334V9.334C57.333 4.188 61.52 0 66.667 0 71.813 0 76 4.188 76 9.334V40c0 5.145-4.187 9.334-9.333 9.334zm0-46.667A6.674 6.674 0 0060 9.334V40a6.674 6.674 0 006.667 6.667A6.674 6.674 0 0073.333 40V9.334a6.674 6.674 0 00-6.666-6.667z"/><path d="M66.667 28a1.33 1.33 0 01-.943-.39l-2.667-2.667a1.332 1.332 0 010-1.886 1.332 1.332 0 011.886 0l2.666 2.667A1.332 1.332 0 0166.667 28zM42.667 80H16a1.333 1.333 0 01-1.18-1.953l13.333-25.333c.462-.876 1.899-.876 2.36 0l13.333 25.333A1.333 1.333 0 0142.666 80zm-24.459-2.667h22.25L29.334 56.196 18.208 77.333z"/><path d="M78.666 80h-36c-.494 0-.948-.275-1.18-.712L28.154 53.955A1.334 1.334 0 0129.333 52h33.334c.457 0 .882.233 1.126.62l16 25.334A1.334 1.334 0 0178.666 80zm-35.194-2.667h32.776L61.932 54.667h-30.39l11.93 22.666z"/><path d="M29.334 80A1.333 1.333 0 0128 78.666V53.333a1.333 1.333 0 112.666 0v25.333c0 .738-.596 1.334-1.332 1.334zM68 74.667H48c-.488 0-.938-.267-1.17-.695l-8-14.667A1.334 1.334 0 0140 57.333h18.666c.457 0 .88.233 1.126.617l9.333 14.667c.262.412.278.931.044 1.359-.234.425-.682.69-1.17.69zM48.792 72h16.779l-7.636-12H42.247l6.545 12zM29.334 41.334A1.333 1.333 0 0128 40a2.669 2.669 0 00-2.667-2.667 1.333 1.333 0 110-2.666A5.32 5.32 0 0129 36.13 8.005 8.005 0 0136 32a1.333 1.333 0 110 2.667A5.339 5.339 0 0030.666 40c0 .737-.596 1.334-1.332 1.334zM48 24H34.667a5.339 5.339 0 01-5.334-5.334c0-3.123 2.76-5.643 5.879-5.304a6.689 6.689 0 016.122-4.028 6.688 6.688 0 016.12 4.028c3.117-.335 5.88 2.18 5.88 5.304A5.339 5.339 0 0148 24zm-13.333-8A2.67 2.67 0 0032 18.666a2.67 2.67 0 002.667 2.668H48a2.67 2.67 0 002.666-2.668c0-1.783-1.806-3.18-3.622-2.478a1.335 1.335 0 01-1.79-.98A4.008 4.008 0 0041.333 12a4.008 4.008 0 00-3.92 3.208 1.333 1.333 0 01-1.791.98 2.646 2.646 0 00-.956-.188zM17.333 18.666a9.296 9.296 0 01-9.286-8.412A1.332 1.332 0 019.9 8.9c.67.288 1.376.434 2.1.434A5.339 5.339 0 0017.333 4a5.29 5.29 0 00-.432-2.1 1.329 1.329 0 01.15-1.312 1.337 1.337 0 011.206-.54 9.292 9.292 0 018.41 9.286c0 5.145-4.187 9.332-9.334 9.332zM11.2 11.96A6.64 6.64 0 0017.333 16 6.674 6.674 0 0024 9.334a6.64 6.64 0 00-4.04-6.135c.027.267.04.533.04.801 0 4.412-3.59 8-8 8-.268 0-.536-.013-.8-.04z"/><defs><linearGradient id="dpaint0_linear" x1="-.049" y1="80.236" x2="84.883" y2="73.428" gradientUnits="userSpaceOnUse"><stop stop-color="#D90017"/><stop offset="1" stop-color="#B4000D"/></linearGradient><linearGradient id="dpaint1_linear" x1="-.049" y1="80.236" x2="84.883" y2="73.428" gradientUnits="userSpaceOnUse"><stop stop-color="#D90017"/><stop offset="1" stop-color="#B4000D"/></linearGradient><linearGradient id="dpaint2_linear" x1="-.049" y1="80.236" x2="84.883" y2="73.428" gradientUnits="userSpaceOnUse"><stop stop-color="#D90017"/><stop offset="1" stop-color="#B4000D"/></linearGradient><linearGradient id="dpaint3_linear" x1="-.049" y1="80.236" x2="84.883" y2="73.428" gradientUnits="userSpaceOnUse"><stop stop-color="#D90017"/><stop offset="1" stop-color="#B4000D"/></linearGradient><linearGradient id="dpaint4_linear" x1="-.049" y1="80.236" x2="84.883" y2="73.428" gradientUnits="userSpaceOnUse"><stop stop-color="#D90017"/><stop offset="1" stop-color="#B4000D"/></linearGradient><linearGradient id="dpaint5_linear" x1="-.049" y1="80.236" x2="84.883" y2="73.428" gradientUnits="userSpaceOnUse"><stop stop-color="#D90017"/><stop offset="1" stop-color="#B4000D"/></linearGradient><linearGradient id="dpaint6_linear" x1="-.049" y1="80.236" x2="84.883" y2="73.428" gradientUnits="userSpaceOnUse"><stop stop-color="#D90017"/><stop offset="1" stop-color="#B4000D"/></linearGradient><linearGradient id="dpaint7_linear" x1="-.049" y1="80.236" x2="84.883" y2="73.428" gradientUnits="userSpaceOnUse"><stop stop-color="#D90017"/><stop offset="1" stop-color="#B4000D"/></linearGradient><linearGradient id="dpaint8_linear" x1="-.049" y1="80.236" x2="84.883" y2="73.428" gradientUnits="userSpaceOnUse"><stop stop-color="#D90017"/><stop offset="1" stop-color="#B4000D"/></linearGradient><linearGradient id="dpaint9_linear" x1="-.049" y1="80.236" x2="84.883" y2="73.428" gradientUnits="userSpaceOnUse"><stop stop-color="#D90017"/><stop offset="1" stop-color="#B4000D"/></linearGradient><linearGradient id="dpaint10_linear" x1="-.049" y1="80.236" x2="84.883" y2="73.428" gradientUnits="userSpaceOnUse"><stop stop-color="#D90017"/><stop offset="1" stop-color="#B4000D"/></linearGradient><linearGradient id="dpaint11_linear" x1="-.049" y1="80.236" x2="84.883" y2="73.428" gradientUnits="userSpaceOnUse"><stop stop-color="#D90017"/><stop offset="1" stop-color="#B4000D"/></linearGradient><linearGradient id="dpaint12_linear" x1="-.049" y1="80.236" x2="84.883" y2="73.428" gradientUnits="userSpaceOnUse"><stop stop-color="#D90017"/><stop offset="1" stop-color="#B4000D"/></linearGradient><linearGradient id="dpaint13_linear" x1="-.049" y1="80.236" x2="84.883" y2="73.428" gradientUnits="userSpaceOnUse"><stop stop-color="#D90017"/><stop offset="1" stop-color="#B4000D"/></linearGradient><linearGradient id="dpaint14_linear" x1="-.049" y1="80.236" x2="84.883" y2="73.428" gradientUnits="userSpaceOnUse"><stop stop-color="#D90017"/><stop offset="1" stop-color="#B4000D"/></linearGradient><linearGradient id="dpaint15_linear" x1="-.049" y1="80.236" x2="84.883" y2="73.428" gradientUnits="userSpaceOnUse"><stop stop-color="#D90017"/><stop offset="1" stop-color="#B4000D"/></linearGradient><linearGradient id="dpaint16_linear" x1="-.049" y1="80.236" x2="84.883" y2="73.428" gradientUnits="userSpaceOnUse"><stop stop-color="#D90017"/><stop offset="1" stop-color="#B4000D"/></linearGradient><linearGradient id="dpaint17_linear" x1="-.049" y1="80.236" x2="84.883" y2="73.428" gradientUnits="userSpaceOnUse"><stop stop-color="#D90017"/><stop offset="1" stop-color="#B4000D"/></linearGradient><linearGradient id="dpaint18_linear" x1="-.049" y1="80.236" x2="84.883" y2="73.428" gradientUnits="userSpaceOnUse"><stop stop-color="#D90017"/><stop offset="1" stop-color="#B4000D"/></linearGradient></defs></symbol><symbol viewBox="0 0 19 24" id="icon-pause" xmlns="http://www.w3.org/2000/svg"><rect width="5" height="24" rx="2"/><rect x="14" width="5" height="24" rx="2"/></symbol><symbol viewBox="0 0 14 16" id="icon-play" xmlns="http://www.w3.org/2000/svg"><path d="M12.41 8.872l-9.92 5.58A1 1 0 011 13.58V2.42a1 1 0 011.49-.872l9.92 5.58a1 1 0 010 1.744z"/></symbol><symbol viewBox="0 0 29 32" id="location" xmlns="http://www.w3.org/2000/svg"><path d="M17.916 23.39c2.529-4.194 5.725-10.09 5.725-13.12 0-5.113-4.157-9.27-9.27-9.27-5.112 0-9.269 4.157-9.269 9.27 0 3.03 3.196 8.926 5.724 13.12-3 .226-9.826 1.04-9.826 3.74C1 29.789 7.93 31 14.378 31c6.44 0 13.377-1.212 13.377-3.87-.006-2.7-6.839-3.514-9.839-3.74zM6.382 10.27c0-4.409 3.587-7.997 7.99-7.997 4.408 0 7.995 3.588 7.995 7.996 0 3.851-6.134 13.513-7.996 16.353-1.86-2.84-7.99-12.502-7.99-16.353zm7.99 19.45c-7.831 0-12.099-1.714-12.099-2.595 0-.68 2.817-2.143 9.307-2.517 1.218 1.965 2.142 3.355 2.265 3.52.165.221.649.484 1.06 0 .128-.152 1.046-1.555 2.264-3.52 6.49.374 9.306 1.83 9.306 2.517-.006.887-4.273 2.595-12.104 2.595z"/><path d="M18.406 10.27a4.034 4.034 0 10-8.069-.001 4.034 4.034 0 008.07 0zm-6.796 0a2.762 2.762 0 115.524 0 2.762 2.762 0 01-5.524 0z"/><path d="M17.916 23.39c2.529-4.194 5.725-10.09 5.725-13.12 0-5.113-4.157-9.27-9.27-9.27-5.112 0-9.269 4.157-9.269 9.27 0 3.03 3.196 8.926 5.724 13.12-3 .226-9.826 1.04-9.826 3.74C1 29.789 7.93 31 14.378 31c6.44 0 13.377-1.212 13.377-3.87-.006-2.7-6.839-3.514-9.839-3.74zM6.382 10.27c0-4.409 3.587-7.997 7.99-7.997 4.408 0 7.995 3.588 7.995 7.996 0 3.851-6.134 13.513-7.996 16.353-1.86-2.84-7.99-12.502-7.99-16.353zm7.99 19.45c-7.831 0-12.099-1.714-12.099-2.595 0-.68 2.817-2.143 9.307-2.517 1.218 1.965 2.142 3.355 2.265 3.52.165.221.649.484 1.06 0 .128-.152 1.046-1.555 2.264-3.52 6.49.374 9.306 1.83 9.306 2.517-.006.887-4.273 2.595-12.104 2.595z"/><path d="M18.406 10.27a4.034 4.034 0 10-8.069-.001 4.034 4.034 0 008.07 0zm-6.796 0a2.762 2.762 0 115.524 0 2.762 2.762 0 01-5.524 0z"/></symbol><symbol viewBox="0 0 30 30" id="phone" xmlns="http://www.w3.org/2000/svg"><path d="M23.722 18.584c-.615-.64-1.357-.982-2.143-.982-.78 0-1.528.336-2.169.976l-2.003 1.994c-.165-.089-.33-.17-.489-.253a7.926 7.926 0 01-.627-.336c-1.877-1.19-3.583-2.741-5.219-4.748-.793-1.001-1.325-1.843-1.712-2.698.52-.475 1.002-.969 1.471-1.444.178-.177.355-.36.533-.538 1.331-1.33 1.331-3.052 0-4.381L9.633 4.445c-.197-.196-.4-.399-.59-.601a29.5 29.5 0 00-1.192-1.178c-.615-.608-1.35-.93-2.124-.93s-1.522.322-2.156.93l-.013.013L1.402 4.85A4.63 4.63 0 00.026 7.795c-.152 1.849.393 3.57.812 4.698 1.027 2.767 2.561 5.331 4.85 8.08 2.778 3.31 6.12 5.926 9.937 7.768 1.458.69 3.405 1.507 5.58 1.646.133.007.272.013.4.013 1.464 0 2.694-.526 3.658-1.57.006-.013.019-.02.025-.032.33-.399.71-.76 1.11-1.146.273-.26.552-.532.824-.817.628-.652.958-1.412.958-2.19 0-.786-.336-1.54-.977-2.172l-3.48-3.49zm2.27 6.667c-.006.006-.006 0 0 0-.247.266-.5.507-.773.773-.413.392-.831.804-1.224 1.266-.64.684-1.395 1.007-2.384 1.007-.096 0-.197 0-.292-.007-1.883-.12-3.633-.854-4.946-1.481-3.589-1.735-6.74-4.198-9.36-7.32-2.161-2.602-3.607-5.008-4.565-7.591-.59-1.577-.805-2.805-.71-3.964.064-.74.349-1.355.875-1.88l2.162-2.16c.311-.29.64-.45.964-.45.4 0 .723.241.926.444l.02.019c.386.36.754.735 1.14 1.133.197.203.4.406.603.615l1.73 1.728c.673.671.673 1.292 0 1.963-.183.184-.36.367-.544.544a33.048 33.048 0 01-1.592 1.545c-.013.013-.025.02-.032.032-.545.545-.444 1.076-.33 1.437l.02.057c.45 1.09 1.084 2.115 2.048 3.337l.006.007c1.75 2.152 3.595 3.83 5.63 5.116.26.164.527.297.78.424.229.114.445.221.629.335.025.013.05.032.076.045.215.107.418.158.627.158.527 0 .856-.33.964-.437l2.169-2.165c.215-.216.558-.475.957-.475.393 0 .717.247.913.462l.013.013 3.494 3.488c.653.646.653 1.311.006 1.982zM16.215 7.136a8.045 8.045 0 014.375 2.267 8.067 8.067 0 012.27 4.369.85.85 0 00.843.709.856.856 0 00.85-1 9.761 9.761 0 00-2.746-5.287 9.785 9.785 0 00-5.294-2.742.86.86 0 00-.99.696.846.846 0 00.692.988zm13.772 6.098a16.06 16.06 0 00-4.521-8.706A16.098 16.098 0 0016.747.013a.853.853 0 10-.279 1.684c2.955.5 5.65 1.9 7.793 4.034a14.338 14.338 0 014.04 7.781.85.85 0 00.843.71c.05 0 .095-.007.145-.013a.839.839 0 00.698-.975z"/></symbol><symbol viewBox="0 0 12 14" id="text" xmlns="http://www.w3.org/2000/svg"><path d="M8.863 13.85a.63.63 0 00.632-.627.63.63 0 00-.632-.628H2.878a.96.96 0 01-.964-.954V2.359a.96.96 0 01.964-.954H9.42a.96.96 0 01.964.954v8.49a.63.63 0 00.632.628.63.63 0 00.632-.627V2.36c0-1.22-1-2.21-2.228-2.21H2.88C1.65.15.65 1.14.65 2.36v9.28c0 1.22 1 2.21 2.228 2.21h5.985zm.024-10.272h-5.48a.63.63 0 00-.632.627.63.63 0 00.632.627h5.48a.63.63 0 00.632-.627.63.63 0 00-.632-.627zm.632 3.264a.63.63 0 00-.632-.628h-5.48a.63.63 0 00-.632.628.63.63 0 00.632.627h5.48a.63.63 0 00.632-.627zm-6.112 2.01a.63.63 0 00-.632.627.63.63 0 00.632.627h3.328a.63.63 0 00.632-.627.63.63 0 00-.632-.628H3.407zm7.611 3.743a.63.63 0 00-.632.628.63.63 0 00.632.627.63.63 0 00.632-.627.63.63 0 00-.632-.628z"/></symbol></svg>