<svg width="26" height="26" viewBox="0 0 26 26" fill="none" xmlns="http://www.w3.org/2000/svg"><path d="M12.085 17.67a.936.936 0 01-.718-.326l-4.932-5.357a.977.977 0 01.065-1.371.977.977 0 011.372.065l4.246 4.605L23.877 3.56c.392-.392 1.013-.392 1.372 0 .36.392.392 1.013 0 1.372L12.77 17.377c-.163.196-.424.294-.686.294z" fill="#17C128"/><path d="M13 26C5.847 26 0 20.153 0 13S5.847 0 13 0c.555 0 .98.425.98.98 0 .555-.425.98-.98.98C6.925 1.96 1.96 6.925 1.96 13c0 6.075 4.965 11.04 11.04 11.04 6.075 0 11.04-4.965 11.04-11.04 0-.555.425-.98.98-.98.555 0 .98.425.98.98 0 7.153-5.847 13-13 13z" fill="#17C128"/></svg>