<svg width="160" height="162" viewBox="0 0 160 162" fill="none" xmlns="http://www.w3.org/2000/svg">
<g opacity="0.2">
<g clip-path="url(#clip0)">
<path d="M120.889 102.417L184.959 99.0663L171.603 85.7467L135.942 86.383L120.889 102.417Z" fill="url(#paint0_linear)"/>
<path d="M99.5602 49.8179L120.889 102.417L135.942 86.3829L116.394 38.8314L99.5602 49.8179Z" fill="url(#paint1_linear)"/>
<path d="M99.56 49.8179L89.8922 83.2016L104.055 103.266L110.33 76.3722L99.56 49.8179Z" fill="url(#paint2_linear)"/>
<path d="M89.8921 83.202L35.5317 85.7047L67.1218 104.284L104.055 103.266L89.8921 83.202Z" fill="url(#paint3_linear)"/>
<path d="M92.8601 119.427L35.5315 85.7043L42.5279 105.853L69.793 123.584L92.8601 119.427Z" fill="url(#paint4_linear)"/>
<path d="M86.5845 149.799L92.8601 119.427L69.793 123.584L57.4113 174.699L86.5845 149.799Z" fill="url(#paint5_linear)"/>
<path d="M57.4118 174.699L108.477 131.125L108.719 155.229L81.4118 174.699H57.4118Z" fill="url(#paint6_linear)"/>
<path d="M108.476 131.124L159.178 161.931L154.98 180.808L108.719 155.229L108.476 131.124Z" fill="url(#paint7_linear)"/>
</g>
<path d="M201.358 111.69C201.407 111.253 201.516 110.86 201.684 110.511C201.852 110.161 202.029 109.895 202.215 109.714C202.553 109.66 203.004 109.664 203.568 109.727C204.241 109.803 204.788 109.929 205.21 110.105C205.001 110.818 204.87 111.412 204.817 111.884C204.756 112.43 204.85 112.901 205.101 113.298C205.369 113.696 205.914 114.089 206.736 114.476C207.593 114.885 208.801 115.278 210.361 115.656C211.919 116.052 213.702 116.409 215.711 116.726L216.526 116.845C216.981 116.897 217.324 116.88 217.554 116.795C217.801 116.731 217.995 116.559 218.137 116.28C218.279 116.002 218.412 115.556 218.536 114.944C218.93 114.878 219.418 114.877 220 114.942C219.805 116.191 219.515 118.525 219.131 121.945C218.753 125.31 218.531 127.541 218.463 128.638C217.826 128.567 217.35 128.458 217.035 128.312C217.056 127.799 217.008 127.407 216.891 127.136C216.774 126.865 216.549 126.655 216.215 126.507C215.882 126.359 215.379 126.248 214.706 126.172L204.093 124.981C203.402 124.903 202.877 124.9 202.52 124.97C202.162 125.04 201.896 125.195 201.722 125.433C201.548 125.671 201.414 126.043 201.32 126.548C200.962 126.619 200.474 126.619 199.856 126.55C200.023 125.555 200.185 124.358 200.342 122.957C200.511 121.448 200.627 120.172 200.689 119.129C201.325 119.2 201.8 119.318 202.113 119.482C202.093 119.995 202.141 120.388 202.258 120.659C202.375 120.929 202.601 121.13 202.936 121.26C203.269 121.408 203.782 121.52 204.473 121.598L215.086 122.789C215.85 122.875 216.391 122.89 216.711 122.833C217.046 122.797 217.302 122.651 217.478 122.395C217.719 122.053 217.881 121.51 217.965 120.764C218.039 120.109 217.995 119.598 217.833 119.23C217.719 118.941 217.529 118.745 217.264 118.641C217 118.538 216.443 118.411 215.594 118.26C211.819 117.597 208.915 116.976 206.88 116.398C204.845 115.82 203.382 115.158 202.489 114.413C201.613 113.689 201.236 112.781 201.358 111.69Z" fill="url(#paint8_linear)"/>
<path d="M197.493 147.777C196.84 147.537 196.332 147.409 195.967 147.393C195.603 147.376 195.308 147.463 195.082 147.653C194.857 147.843 194.638 148.172 194.428 148.641C194.063 148.624 193.589 148.509 193.005 148.295C193.403 147.368 193.844 146.244 194.33 144.921C194.853 143.494 195.268 142.282 195.576 141.284C196.091 141.473 196.524 141.7 196.875 141.965C196.733 142.459 196.687 142.851 196.736 143.142C196.785 143.433 196.958 143.681 197.253 143.887C197.541 144.11 198.012 144.341 198.665 144.58L206.991 147.633L200.704 137.345C199.987 137.121 199.455 137.082 199.109 137.228C198.763 137.374 198.457 137.759 198.189 138.382C197.876 138.384 197.402 138.269 196.766 138.036C197.164 137.11 197.603 135.994 198.082 134.688C198.611 133.244 199.026 132.032 199.328 131.051C199.912 131.265 200.348 131.483 200.637 131.706C200.495 132.2 200.449 132.592 200.498 132.883C200.547 133.174 200.716 133.431 201.005 133.654C201.294 133.877 201.764 134.108 202.417 134.347L212.444 138.024C213.08 138.257 213.58 138.382 213.944 138.399C214.309 138.415 214.604 138.329 214.829 138.138C215.055 137.948 215.273 137.619 215.484 137.15C215.883 137.18 216.357 137.295 216.907 137.497C216.515 138.406 216.058 139.573 215.535 140.999C215.068 142.271 214.672 143.432 214.345 144.482C214.088 144.387 213.842 144.287 213.607 144.182C213.373 144.077 213.183 143.958 213.036 143.826C213.178 143.332 213.224 142.94 213.175 142.649C213.126 142.358 212.957 142.101 212.668 141.878C212.38 141.656 211.917 141.428 211.282 141.194L202.956 138.142L209.268 148.439C209.945 148.668 210.451 148.697 210.786 148.528C211.132 148.382 211.444 148.009 211.722 147.409C212.11 147.415 212.587 147.522 213.155 147.73C212.763 148.639 212.302 149.815 211.773 151.258C211.307 152.53 210.91 153.691 210.584 154.741C209.982 154.52 209.546 154.301 209.274 154.085C209.416 153.591 209.463 153.199 209.414 152.908C209.364 152.617 209.195 152.36 208.907 152.137C208.618 151.914 208.156 151.686 207.52 151.453L197.493 147.777Z" fill="url(#paint9_linear)"/>
<path d="M199.887 173.236C198.044 172.281 196.675 171.637 195.779 171.306C195.795 170.838 195.989 170.311 196.362 169.724C197.301 170.192 198.193 170.325 199.036 170.124C199.895 169.933 200.733 169.197 201.548 167.915L202.698 166.109L191.927 159.256C191.263 158.833 190.702 158.573 190.243 158.477C189.789 158.405 189.387 158.475 189.036 158.685C188.701 158.906 188.341 159.284 187.956 159.82C187.634 159.746 187.196 159.532 186.64 159.178C187.168 158.451 187.898 157.354 188.832 155.887C189.883 154.235 190.616 153.031 191.032 152.276C191.603 152.639 191.988 152.938 192.186 153.172C191.941 153.624 191.812 153.998 191.798 154.293C191.774 154.603 191.88 154.898 192.114 155.177C192.349 155.456 192.759 155.783 193.346 156.156L202.356 161.889C202.928 162.253 203.39 162.481 203.742 162.575C204.094 162.669 204.401 162.648 204.662 162.51C204.923 162.372 205.207 162.097 205.513 161.685C205.896 161.798 206.335 162.012 206.829 162.327C206.055 163.44 205.074 164.931 203.885 166.799C202.323 169.254 200.991 171.4 199.887 173.236Z" fill="url(#paint10_linear)"/>
<path d="M171.04 179.832C170.637 179.617 170.245 179.323 169.866 178.952C170.404 178.48 171.23 177.675 172.344 176.537C173.534 175.32 174.353 174.444 174.8 173.909C175.245 174.344 175.541 174.736 175.687 175.083C175.406 175.449 175.241 175.748 175.192 175.982C175.13 176.229 175.19 176.441 175.373 176.621C175.57 176.813 175.96 177.015 176.545 177.229L178.709 178.079C180.693 176.051 182.286 174.358 183.488 172.999L182.851 171.608C182.586 171.015 182.31 170.578 182.022 170.297C181.76 170.041 181.481 169.921 181.183 169.937C180.899 169.966 180.583 170.131 180.237 170.433C179.821 170.23 179.423 169.943 179.044 169.572C179.518 169.166 180.19 168.518 181.061 167.628C181.432 167.249 181.963 166.667 182.653 165.883C183.059 166.28 183.348 166.665 183.52 167.038C183.253 167.442 183.16 167.864 183.243 168.303C183.325 168.768 183.599 169.548 184.064 170.643L190.314 184.748C190.11 185.086 189.829 185.439 189.471 185.805L174.578 180.221C173.785 179.932 173.175 179.731 172.746 179.62C172.331 179.521 172.001 179.479 171.755 179.494C171.509 179.536 171.271 179.649 171.04 179.832ZM180.132 178.627L184.363 180.27C185.494 180.684 186.566 181.145 187.581 181.652C187.053 180.674 186.537 179.644 186.033 178.562L184.164 174.506L180.132 178.627Z" fill="url(#paint11_linear)"/>
<path d="M156.686 199.756C155.18 200.351 153.844 200.498 152.677 200.196C151.51 199.893 150.594 199.1 149.929 197.817C149.128 196.273 149.074 194.776 149.765 193.325C150.456 191.874 151.809 190.626 153.824 189.582C155.985 188.462 157.952 188.081 159.726 188.44C160.01 189.385 160.387 190.313 160.859 191.223L161.288 191.99C160.966 192.404 160.415 192.793 159.635 193.156C158.839 191.899 158.021 191.097 157.181 190.749C156.333 190.425 155.397 190.529 154.373 191.06C153.366 191.582 152.741 192.246 152.499 193.052C152.265 193.874 152.406 194.78 152.919 195.772C154.191 198.225 156.42 198.627 159.604 196.976C159.754 197.145 159.888 197.344 160.006 197.572C160.175 197.896 160.261 198.182 160.264 198.427C158.883 199.143 158.011 199.946 157.647 200.835C157.292 201.741 157.371 202.689 157.885 203.681C158.331 204.542 158.908 205.098 159.616 205.35C160.324 205.601 161.076 205.521 161.872 205.108C163.545 204.241 163.993 202.638 163.214 200.3C163.303 200.233 163.429 200.158 163.591 200.073C164.062 199.829 164.547 199.691 165.046 199.659C165.302 200.351 165.577 200.982 165.872 201.55C166.125 202.038 166.393 202.496 166.678 202.926C165.498 204.507 164.022 205.756 162.251 206.674C160.496 207.584 158.978 207.938 157.698 207.735C156.402 207.541 155.447 206.851 154.832 205.665C154.301 204.641 154.204 203.599 154.541 202.538C154.886 201.494 155.601 200.566 156.686 199.756Z" fill="url(#paint12_linear)"/>
<path d="M128.714 203.309C128.537 202.637 128.352 202.146 128.157 201.838C127.962 201.529 127.723 201.337 127.438 201.26C127.153 201.184 126.758 201.193 126.253 201.288C126.058 200.979 125.882 200.524 125.723 199.923C126.711 199.72 127.886 199.439 129.249 199.081C130.718 198.695 131.951 198.342 132.946 198.024C133.085 198.555 133.146 199.04 133.13 199.48C132.643 199.646 132.295 199.832 132.084 200.039C131.874 200.246 131.768 200.529 131.768 200.888C131.75 201.253 131.83 201.771 132.007 202.444L133.242 207.143C136.871 206.19 139.28 205.49 140.468 205.045L139.282 200.531C139.105 199.859 138.919 199.368 138.725 199.06C138.53 198.751 138.29 198.559 138.005 198.482C137.72 198.406 137.325 198.415 136.82 198.51C136.64 198.255 136.463 197.8 136.291 197.145C137.279 196.942 138.445 196.664 139.79 196.31C141.277 195.919 142.509 195.567 143.487 195.253C143.645 195.855 143.715 196.338 143.697 196.702C143.211 196.868 142.862 197.054 142.652 197.261C142.441 197.468 142.327 197.753 142.309 198.117C142.291 198.482 142.371 199 142.548 199.673L145.263 210.001C145.435 210.656 145.618 211.138 145.813 211.447C146.008 211.755 146.247 211.947 146.532 212.024C146.818 212.1 147.213 212.091 147.717 211.996C147.921 212.34 148.098 212.795 148.247 213.362C147.277 213.56 146.057 213.852 144.588 214.238C143.278 214.582 142.099 214.921 141.051 215.253C140.981 214.988 140.923 214.729 140.875 214.476C140.828 214.224 140.816 214 140.84 213.804C141.327 213.638 141.675 213.452 141.886 213.245C142.096 213.039 142.211 212.753 142.228 212.389C142.246 212.025 142.169 211.515 141.997 210.86L140.887 206.638L133.612 208.551L134.722 212.772C134.894 213.427 135.077 213.909 135.272 214.217C135.449 214.53 135.68 214.725 135.965 214.802C136.25 214.878 136.645 214.869 137.15 214.774C137.367 215.096 137.552 215.548 137.706 216.132C136.736 216.331 135.507 216.625 134.02 217.016C132.711 217.36 131.532 217.699 130.483 218.031C130.321 217.411 130.25 216.928 130.273 216.582C130.759 216.416 131.108 216.23 131.318 216.023C131.529 215.816 131.643 215.531 131.661 215.167C131.679 214.802 131.601 214.293 131.429 213.638L128.714 203.309Z" fill="url(#paint13_linear)"/>
<path d="M104.142 202.481C104.008 202.044 103.936 201.56 103.928 201.029C104.642 201.073 105.796 201.083 107.388 201.058C109.09 201.032 110.288 200.986 110.983 200.92C110.992 201.542 110.927 202.028 110.785 202.378C110.329 202.44 110.001 202.537 109.802 202.668C109.584 202.8 109.477 202.993 109.481 203.25C109.485 203.524 109.62 203.943 109.885 204.506L110.824 206.634C113.66 206.59 115.984 206.508 117.794 206.389L118.321 204.953C118.55 204.345 118.661 203.84 118.655 203.437C118.649 203.071 118.535 202.79 118.312 202.592C118.09 202.412 117.749 202.307 117.291 202.278C117.138 201.841 117.057 201.357 117.049 200.826C117.672 200.872 118.606 200.885 119.85 200.865C120.381 200.857 121.168 200.818 122.21 200.747C122.219 201.314 122.153 201.791 122.012 202.178C121.538 202.276 121.175 202.511 120.925 202.881C120.656 203.269 120.302 204.016 119.861 205.121L114.373 219.539C113.99 219.636 113.542 219.689 113.03 219.697L106.382 205.247C106.022 204.484 105.73 203.912 105.504 203.531C105.279 203.168 105.073 202.906 104.888 202.744C104.684 202.601 104.436 202.513 104.142 202.481ZM111.449 208.024L113.298 212.169C113.809 213.26 114.247 214.342 114.611 215.416C114.924 214.35 115.283 213.255 115.686 212.132L117.214 207.935L111.449 208.024Z" fill="url(#paint14_linear)"/>
<path d="M83.0718 201.257C83.228 200.579 83.2917 200.059 83.2629 199.695C83.234 199.332 83.1112 199.05 82.8944 198.85C82.6776 198.649 82.3236 198.474 81.8325 198.323C81.8036 197.96 81.8591 197.475 81.9989 196.868C82.9675 197.148 84.1384 197.446 85.5117 197.763C86.9919 198.104 88.2465 198.365 89.2754 198.546C89.1521 199.081 88.9807 199.539 88.7612 199.921C88.2536 199.841 87.8586 199.844 87.576 199.929C87.2934 200.014 87.0684 200.216 86.9011 200.534C86.716 200.848 86.5453 201.344 86.389 202.022L85.2971 206.757C88.9532 207.6 91.411 208.101 92.6703 208.26L93.719 203.712C93.8753 203.035 93.939 202.514 93.9101 202.15C93.8813 201.787 93.7584 201.505 93.5416 201.305C93.3249 201.105 92.9709 200.929 92.4798 200.778C92.4385 200.468 92.494 199.983 92.6462 199.323C93.6147 199.603 94.7767 199.899 96.1322 200.212C97.6303 200.557 98.8849 200.818 99.8959 200.995C99.7561 201.601 99.5936 202.062 99.4085 202.376C98.9009 202.296 98.5058 202.299 98.2232 202.384C97.9406 202.469 97.7068 202.669 97.5216 202.983C97.3365 203.297 97.1658 203.793 97.0095 204.471L94.6099 214.878C94.4577 215.537 94.3961 216.049 94.4249 216.413C94.4538 216.776 94.5766 217.058 94.7934 217.258C95.0102 217.459 95.3642 217.634 95.8553 217.785C95.876 218.184 95.8205 218.669 95.6889 219.24C94.7382 218.964 93.5227 218.656 92.0424 218.315C90.7226 218.01 89.5215 217.761 88.4391 217.568C88.5008 217.301 88.5694 217.044 88.6448 216.799C88.7202 216.553 88.8141 216.349 88.9266 216.187C89.4342 216.267 89.8293 216.264 90.1118 216.179C90.3944 216.094 90.6283 215.894 90.8134 215.58C90.9986 215.266 91.1672 214.779 91.3194 214.119L92.3002 209.865L84.9702 208.175L83.9894 212.429C83.8372 213.089 83.7756 213.6 83.8044 213.964C83.8155 214.323 83.9294 214.603 84.1462 214.803C84.363 215.003 84.7169 215.179 85.2081 215.33C85.2506 215.715 85.2041 216.202 85.0684 216.791C84.1177 216.515 82.8932 216.205 81.3951 215.859C80.0754 215.555 78.8743 215.306 77.7919 215.113C77.9358 214.489 78.0983 214.029 78.2793 213.732C78.7869 213.812 79.182 213.809 79.4646 213.724C79.7472 213.639 79.981 213.439 80.1662 213.125C80.3513 212.811 80.52 212.324 80.6721 211.664L83.0718 201.257Z" fill="url(#paint15_linear)"/>
<path d="M61.4852 191.854C61.803 191.235 61.9925 190.746 62.0537 190.386C62.1149 190.027 62.065 189.724 61.9039 189.476C61.7429 189.229 61.4428 188.972 61.0037 188.705C61.0649 188.346 61.2377 187.889 61.522 187.336C62.3923 187.844 63.4543 188.421 64.7079 189.065C66.0592 189.759 67.2114 190.32 68.1644 190.748C67.9136 191.236 67.635 191.638 67.3287 191.954C66.8561 191.752 66.4724 191.658 66.1775 191.671C65.8827 191.685 65.6152 191.825 65.3749 192.092C65.1183 192.352 64.8311 192.79 64.5133 193.409L60.4617 201.297L71.4436 196.321C71.7539 195.637 71.8578 195.114 71.7553 194.753C71.6528 194.391 71.3088 194.04 70.7231 193.698C70.7592 193.387 70.932 192.93 71.2414 192.328C72.1118 192.837 73.1656 193.409 74.4029 194.045C75.7704 194.747 76.9226 195.308 77.8594 195.728C77.5751 196.281 77.3046 196.687 77.0481 196.947C76.5755 196.745 76.1918 196.651 75.897 196.664C75.6021 196.677 75.3264 196.813 75.0699 197.072C74.8133 197.332 74.5261 197.77 74.2083 198.389L69.3287 207.889C69.0193 208.491 68.834 208.972 68.7728 209.332C68.7116 209.691 68.7615 209.994 68.9225 210.242C69.0836 210.489 69.3836 210.746 69.8228 211.013C69.7448 211.405 69.5721 211.861 69.3045 212.382C68.4504 211.882 67.3477 211.285 65.9965 210.591C64.7917 209.972 63.6884 209.436 62.6865 208.983C62.8119 208.739 62.9413 208.507 63.0747 208.287C63.208 208.068 63.3491 207.893 63.4978 207.764C63.9704 207.966 64.3541 208.06 64.6489 208.047C64.9437 208.033 65.2195 207.897 65.476 207.638C65.7326 207.379 66.0156 206.948 66.325 206.346L70.3767 198.458L59.3822 203.459C59.0723 204.102 58.981 204.6 59.1081 204.954C59.2106 205.315 59.5423 205.67 60.1033 206.02C60.0501 206.404 59.8854 206.865 59.6095 207.402C58.7554 206.902 57.6446 206.301 56.2771 205.598C55.0723 204.979 53.969 204.443 52.9671 203.99C53.2598 203.421 53.5302 203.014 53.7784 202.771C54.251 202.973 54.6347 203.067 54.9295 203.054C55.2243 203.041 55.5 202.905 55.7566 202.646C56.0132 202.386 56.2962 201.956 56.6056 201.353L61.4852 191.854Z" fill="url(#paint16_linear)"/>
<path d="M42.8591 177.411C43.3195 176.89 43.6238 176.463 43.7717 176.129C43.9197 175.796 43.9461 175.49 43.851 175.21C43.7559 174.931 43.5285 174.608 43.1687 174.241C43.3166 173.908 43.5966 173.508 44.0086 173.041C44.7266 173.749 45.6137 174.569 46.6699 175.503C47.8083 176.508 48.7867 177.336 49.6048 177.986C49.2413 178.397 48.8722 178.718 48.4974 178.949C48.0891 178.637 47.7405 178.451 47.4515 178.391C47.1626 178.331 46.8687 178.401 46.5698 178.601C46.2573 178.789 45.8708 179.144 45.4103 179.665L39.5391 186.31L51.4088 184.195C51.8782 183.609 52.1078 183.128 52.0976 182.752C52.0873 182.377 51.8405 181.951 51.3573 181.475C51.4689 181.183 51.7488 180.783 52.1972 180.276C52.9153 180.984 53.7955 181.798 54.8379 182.719C55.9901 183.737 56.9684 184.565 57.7729 185.202C57.3609 185.668 56.9986 185.995 56.686 186.183C56.2778 185.871 55.9291 185.686 55.6401 185.626C55.3512 185.566 55.0504 185.63 54.7379 185.818C54.4253 186.006 54.0388 186.36 53.5783 186.881L46.5074 194.885C46.059 195.392 45.7609 195.813 45.6129 196.146C45.465 196.479 45.4385 196.786 45.5336 197.065C45.6287 197.344 45.8562 197.667 46.216 198.034C46.0438 198.395 45.7638 198.795 45.376 199.234C44.6717 198.538 43.7503 197.688 42.6119 196.682C41.5969 195.785 40.6597 194.994 39.8004 194.308C39.9821 194.102 40.1647 193.909 40.3481 193.729C40.5314 193.549 40.7112 193.415 40.8872 193.326C41.2955 193.638 41.6441 193.824 41.9331 193.884C42.2221 193.944 42.5228 193.88 42.8354 193.692C43.1479 193.504 43.5284 193.156 43.9767 192.649L49.848 186.003L37.96 188.139C37.5011 188.686 37.2897 189.147 37.3258 189.521C37.3361 189.896 37.5699 190.322 38.0274 190.8C37.881 191.159 37.6079 191.565 37.208 192.017C36.5037 191.322 35.5754 190.465 34.4233 189.447C33.4082 188.55 32.4711 187.759 31.6117 187.073C32.0359 186.593 32.3982 186.266 32.6986 186.092C33.1069 186.404 33.4555 186.59 33.7445 186.65C34.0335 186.709 34.3342 186.645 34.6468 186.458C34.9593 186.27 35.3398 185.922 35.7881 185.414L42.8591 177.411ZM37.6982 194.282C38.9189 195.361 39.6549 196.463 39.906 197.588C40.1572 198.714 39.8708 199.743 39.0467 200.676C38.4487 200.44 37.889 200.092 37.3678 199.632C37.2581 199.535 37.0919 199.364 36.8692 199.118C37.4244 198.241 37.6889 197.485 37.6626 196.852C37.6364 196.218 37.301 195.616 36.6563 195.047C36.0116 194.477 35.3869 194.231 34.7822 194.307C34.1775 194.383 33.5016 194.775 32.7544 195.483C32.4832 195.292 32.2722 195.13 32.1214 194.997C31.5727 194.512 31.173 194.025 30.9222 193.534C31.7463 192.602 32.7657 192.208 33.9806 192.353C35.1834 192.512 36.4226 193.155 37.6982 194.282Z" fill="url(#paint17_linear)"/>
<path d="M22.599 175.862C26.4985 173.491 29.8306 171.356 32.5952 169.458C32.9445 169.675 33.341 170.075 33.7845 170.658C30.3034 173.699 27.2856 176.504 24.7309 179.07C24.3476 178.718 23.8836 178.335 23.3388 177.922C22.7794 177.519 22.3161 177.228 21.9487 177.048C21.8178 176.664 21.9271 176.339 22.2765 176.073C22.4076 175.974 22.5151 175.903 22.599 175.862ZM35.7742 165.657C36.2401 165.303 36.7296 165.16 37.2426 165.229C37.7411 165.31 38.1621 165.576 38.5059 166.027C38.8718 166.508 39.029 166.986 38.9776 167.463C38.915 167.924 38.6653 168.321 38.2285 168.654C37.7917 168.987 37.3185 169.105 36.8089 169.01C36.2849 168.926 35.8454 168.651 35.4906 168.185C35.158 167.749 35.0375 167.288 35.1291 166.804C35.2097 166.306 35.4247 165.924 35.7742 165.657Z" fill="url(#paint18_linear)"/>
<path d="M19.7461 139.261C20.0787 140.327 20.0178 141.238 19.5633 141.993C19.1088 142.748 18.4273 143.268 17.5187 143.551C16.6626 143.819 15.8596 143.734 15.1097 143.297C14.3423 142.865 13.8087 142.169 13.5088 141.208C13.198 140.212 13.2524 139.342 13.6719 138.597C14.0915 137.853 14.7206 137.35 15.5592 137.088C16.5027 136.794 17.3614 136.842 18.1354 137.233C18.9039 137.607 19.4408 138.283 19.7461 139.261Z" fill="url(#paint19_linear)"/>
<path d="M18.7226 110.447C18.6854 110.885 18.5874 111.28 18.4288 111.634C18.2701 111.988 18.1001 112.258 17.9189 112.445C17.5829 112.508 17.1323 112.516 16.5669 112.468C15.8922 112.41 15.3414 112.299 14.9145 112.134C15.1042 111.416 15.2193 110.819 15.2596 110.345C15.3061 109.798 15.199 109.33 14.9382 108.94C14.6592 108.549 14.1036 108.171 13.2713 107.806C12.404 107.42 11.1856 107.06 9.61611 106.724C8.04813 106.37 6.25587 106.062 4.23935 105.798L3.42102 105.701C2.9651 105.662 2.62307 105.688 2.39492 105.779C2.15008 105.85 1.96055 106.027 1.82631 106.31C1.69207 106.592 1.57123 107.041 1.46378 107.656C1.0715 107.733 0.583576 107.747 0 107.697C0.161736 106.444 0.388407 104.102 0.680014 100.674C0.966968 97.3001 1.12962 95.0638 1.16798 93.9649C1.80627 94.0192 2.28489 94.115 2.60384 94.2523C2.59689 94.7661 2.6555 95.1568 2.77967 95.4245C2.90385 95.6923 3.13454 95.8956 3.47173 96.0345C3.80892 96.1733 4.3149 96.2715 4.98966 96.3289L15.6308 97.2339C16.3238 97.2929 16.8482 97.2824 17.204 97.2024C17.5598 97.1225 17.8215 96.9611 17.9891 96.7181C18.1567 96.4752 18.2805 96.1 18.3604 95.5925C18.7162 95.5126 19.2041 95.4989 19.8242 95.5517C19.6842 96.5501 19.5544 97.7514 19.435 99.1556C19.3063 100.669 19.225 101.948 19.1913 102.992C18.553 102.938 18.0752 102.833 17.7578 102.677C17.7648 102.164 17.7061 101.773 17.582 101.505C17.4578 101.238 17.2263 101.043 16.8876 100.923C16.5504 100.784 16.0353 100.685 15.3423 100.626L4.70115 99.7209C3.93521 99.6558 3.39335 99.6556 3.07557 99.7204C2.7411 99.7654 2.48929 99.9185 2.32013 100.18C2.0885 100.527 1.94089 101.075 1.87729 101.823C1.82145 102.479 1.8791 102.989 2.05023 103.353C2.17286 103.639 2.36785 103.83 2.6352 103.926C2.90254 104.022 3.46245 104.134 4.31493 104.262C8.10625 104.823 11.0267 105.365 13.0762 105.889C15.1257 106.412 16.6066 107.034 17.5189 107.754C18.4144 108.455 18.8157 109.353 18.7226 110.447Z" fill="url(#paint20_linear)"/>
<path d="M21.6303 74.1944C22.2893 74.4166 22.8012 74.5312 23.1658 74.5382C23.5304 74.5452 23.823 74.4507 24.0436 74.2547C24.2642 74.0586 24.4737 73.7236 24.6721 73.2497C25.0367 73.2567 25.5138 73.3596 26.1035 73.5584C25.7299 74.4948 25.318 75.6307 24.8679 76.9661C24.3826 78.4057 23.9994 79.6285 23.7182 80.6346C23.1979 80.4592 22.7587 80.2436 22.4007 79.9877C22.5298 79.4904 22.5658 79.097 22.5089 78.8074C22.452 78.5178 22.2734 78.2741 21.9731 78.0763C21.6787 77.8612 21.2019 77.6425 20.5428 77.4203L12.1398 74.5878L18.6951 84.7068C19.4179 84.9118 19.9503 84.9367 20.2923 84.7816C20.6343 84.6265 20.9308 84.2339 21.1818 83.6039C21.4944 83.5934 21.9715 83.6963 22.6132 83.9126C22.2396 84.849 21.8307 85.9762 21.3864 87.2943C20.8953 88.7512 20.512 89.974 20.2367 90.9628C19.647 90.7641 19.2049 90.5571 18.9105 90.3419C19.0395 89.8446 19.0755 89.4512 19.0186 89.1616C18.9617 88.872 18.7861 88.6197 18.4916 88.4045C18.1971 88.1894 17.7204 87.9707 17.0613 87.7485L6.94125 84.3372C6.29953 84.1209 5.79637 84.0092 5.43176 84.0022C5.06715 83.9952 4.77455 84.0897 4.55395 84.2857C4.33335 84.4818 4.12386 84.8167 3.92547 85.2907C3.52618 85.272 3.04903 85.1691 2.49403 84.982C2.86176 84.063 3.28825 82.8837 3.7735 81.4442C4.20613 80.1607 4.57183 78.9899 4.87058 77.9318C5.13073 78.0195 5.37929 78.1129 5.61626 78.2121C5.85323 78.3113 6.04673 78.4248 6.19679 78.5526C6.06778 79.05 6.03172 79.4434 6.08862 79.733C6.14552 80.0226 6.3212 80.2749 6.61565 80.4901C6.9101 80.7052 7.37819 80.921 8.01991 81.1373L16.4229 83.9698L9.84165 73.8421C9.1594 73.6314 8.65302 73.6152 8.32251 73.7935C7.98051 73.9487 7.67826 74.3296 7.41575 74.9365C7.02796 74.9409 6.54788 74.8467 5.97554 74.6538C6.34328 73.7348 6.77269 72.5468 7.26378 71.09C7.69642 69.8065 8.06211 68.6357 8.36086 67.5775C8.96789 67.7822 9.40996 67.9891 9.68707 68.1984C9.55806 68.6957 9.522 69.0892 9.5789 69.3788C9.6358 69.6684 9.81148 69.9207 10.1059 70.1359C10.4004 70.351 10.8685 70.5667 11.5102 70.7831L21.6303 74.1944Z" fill="url(#paint21_linear)"/>
<path d="M18.5022 48.9079C20.3693 49.816 21.7548 50.4241 22.6586 50.7322C22.6552 51.1999 22.4745 51.7318 22.1163 52.328C21.1655 51.8849 20.271 51.7746 19.4328 51.997C18.5789 52.21 17.7608 52.9676 16.9786 54.2698L15.8759 56.1055L26.8192 62.6793C27.4939 63.0846 28.0619 63.3297 28.5232 63.4147C28.9783 63.4746 29.3786 63.3947 29.724 63.1752C30.0537 62.9462 30.4039 62.5588 30.7746 62.0128C31.0978 62.0789 31.5419 62.2816 32.1067 62.6209C31.5978 63.3614 30.8957 64.4769 30.0003 65.9674C28.9919 67.6461 28.2897 68.8684 27.8938 69.634C27.3133 69.2853 26.9211 68.9963 26.7172 68.7671C26.9497 68.3089 27.0692 67.9324 27.0756 67.6373C27.0914 67.3266 26.9786 67.0346 26.737 66.7614C26.4955 66.4882 26.0766 66.1725 25.4804 65.8143L16.3256 60.315C15.7451 59.9662 15.2776 59.7494 14.9229 59.6645C14.5683 59.5795 14.2622 59.6092 14.0047 59.7535C13.7473 59.8977 13.4709 60.1801 13.1756 60.6005C12.7896 60.4967 12.3456 60.294 11.8435 59.9924C12.588 58.8597 13.5305 57.3441 14.6709 55.4457C16.1694 52.9511 17.4465 50.7718 18.5022 48.9079Z" fill="url(#paint22_linear)"/>
<path d="M47.1763 41.5096C47.5852 41.7149 47.984 41.9982 48.3727 42.3597C47.8464 42.845 47.0412 43.6707 45.9569 44.8368C44.7978 46.0834 44.0015 46.98 43.5682 47.5267C43.1124 47.103 42.8071 46.7191 42.6521 46.375C42.9235 46.0026 43.0808 45.699 43.1241 45.4643C43.1798 45.2162 43.1139 45.0049 42.9262 44.8305C42.7252 44.6435 42.3297 44.4507 41.7397 44.252L39.5545 43.4573C37.6227 45.5348 36.0734 47.2682 34.9066 48.6575L35.5781 50.0317C35.8584 50.6172 36.146 51.0471 36.4409 51.3213C36.709 51.5705 36.9915 51.6833 37.2885 51.6595C37.5721 51.6233 37.8831 51.4502 38.2215 51.14C38.6429 51.3319 39.0479 51.6085 39.4366 51.97C38.9726 52.3883 38.3169 53.0532 37.4694 53.9646C37.108 54.3533 36.5922 54.9484 35.922 55.7498C35.5065 55.3634 35.2078 54.9857 35.0261 54.6168C35.2831 54.206 35.3648 53.7821 35.2712 53.3452C35.1767 52.8824 34.8831 52.1096 34.3905 51.0267L27.7841 37.0861C27.9788 36.7424 28.2506 36.3828 28.5996 36.0075L43.63 41.2111C44.4297 41.4799 45.0451 41.6648 45.4761 41.7656C45.8938 41.8541 46.2252 41.8873 46.4705 41.8655C46.7148 41.8177 46.9501 41.6991 47.1763 41.5096ZM38.1179 42.9461L33.8467 41.4114C32.706 41.0255 31.6218 40.5922 30.5942 40.1115C31.1473 41.0756 31.6893 42.092 32.2203 43.1605L34.192 47.1682L38.1179 42.9461Z" fill="url(#paint23_linear)"/>
<path d="M61.0638 21.1426C62.5537 20.5089 63.8857 20.328 65.06 20.5999C66.2342 20.8719 67.1705 21.6409 67.8689 22.907C68.7088 24.4294 68.8021 25.9248 68.1488 27.393C67.4955 28.8612 66.1753 30.1434 64.188 31.2396C62.0566 32.4154 60.0998 32.8468 58.3177 32.5339C58.0094 31.5961 57.6077 30.6785 57.1127 29.7811L56.6643 29.0251C56.9749 28.6029 57.5156 28.2001 58.2865 27.8167C59.1148 29.0529 59.9533 29.834 60.8021 30.1601C61.658 30.4614 62.5908 30.3335 63.6005 29.7766C64.5941 29.2285 65.2014 28.5485 65.4225 27.7368C65.6348 26.909 65.4713 26.0063 64.932 25.0287C63.5971 22.6088 61.3591 22.2652 58.218 23.9979C58.0638 23.8321 57.9249 23.6371 57.8011 23.4127C57.6243 23.0922 57.5309 22.8092 57.521 22.5639C58.8832 21.8125 59.7346 20.9875 60.075 20.089C60.4066 19.1745 60.3028 18.2284 59.7635 17.2508C59.295 16.4014 58.7038 15.8601 57.9898 15.6269C57.2759 15.3936 56.5263 15.4936 55.741 15.9268C54.0903 16.8373 53.6846 18.4512 54.5238 20.7683C54.4365 20.8374 54.3127 20.9161 54.1525 21.0045C53.6877 21.2609 53.2064 21.4114 52.7085 21.4561C52.435 20.7709 52.1436 20.1478 51.8341 19.5869C51.5689 19.1061 51.2885 18.6546 50.9929 18.2324C52.1319 16.6217 53.5749 15.3345 55.3217 14.3709C57.0525 13.4161 58.5603 13.0234 59.8451 13.1925C61.1459 13.3529 62.119 14.018 62.7643 15.1879C63.3213 16.1975 63.4452 17.237 63.1363 18.3062C62.8184 19.3595 62.1276 20.3049 61.0638 21.1426Z" fill="url(#paint24_linear)"/>
<path d="M88.4175 16.9992C88.6121 17.6669 88.8108 18.1523 89.0135 18.4555C89.2162 18.7586 89.4611 18.9446 89.7481 19.0135C90.035 19.0824 90.4297 19.0627 90.9319 18.9544C91.1346 19.2576 91.3231 19.7079 91.4972 20.3053C90.5154 20.5342 89.348 20.8459 87.9949 21.2402C86.5365 21.6652 85.3142 22.0501 84.328 22.3947C84.1743 21.8675 84.1001 21.384 84.1053 20.944C84.5871 20.7654 84.9305 20.57 85.1355 20.3578C85.3406 20.1455 85.4384 19.8596 85.4289 19.5002C85.437 19.1356 85.3438 18.6194 85.1492 17.9517L83.7896 13.2865C80.1874 14.3363 77.798 15.0994 76.6214 15.5757L77.9273 20.0565C78.1219 20.7242 78.3206 21.2096 78.5233 21.5127C78.726 21.8159 78.9709 22.0019 79.2578 22.0708C79.5448 22.1396 79.9394 22.12 80.4417 22.0117C80.629 22.2621 80.8175 22.7124 81.0069 23.3626C80.0251 23.5915 78.8665 23.9006 77.5311 24.2898C76.0551 24.7199 74.8327 25.1048 73.8641 25.4443C73.69 24.8468 73.607 24.3658 73.6151 24.0012C74.0969 23.8227 74.4403 23.6273 74.6453 23.415C74.8503 23.2028 74.9569 22.9143 74.9651 22.5498C74.9732 22.1852 74.8799 21.669 74.6853 21.0013L71.6972 10.7483C71.5077 10.0981 71.3116 9.62149 71.1089 9.31836C70.9062 9.01523 70.6613 8.82922 70.3744 8.76034C70.0874 8.69147 69.6928 8.71115 69.1905 8.8194C68.9776 8.48112 68.7891 8.03084 68.6253 7.46855C69.5895 7.24472 70.8008 6.92029 72.2593 6.49524C73.5596 6.11628 74.7292 5.74682 75.7681 5.38684C75.8449 5.65041 75.9104 5.90776 75.9645 6.15889C76.0186 6.41001 76.0362 6.63367 76.0171 6.82987C75.5353 7.0084 75.1919 7.2038 74.9869 7.41607C74.7819 7.62834 74.6753 7.91676 74.6671 8.28135C74.659 8.64594 74.7497 9.1533 74.9392 9.80345L76.1605 13.9943L83.3825 11.8895L82.1611 7.6987C81.9716 7.04855 81.7755 6.57191 81.5728 6.26878C81.3876 5.96052 81.1516 5.77196 80.8646 5.70308C80.5776 5.6342 80.183 5.65388 79.6808 5.76213C79.4553 5.44655 79.2581 4.99882 79.0891 4.41896C80.0534 4.19514 81.2735 3.86814 82.7495 3.43798C84.0498 3.05902 85.2194 2.68955 86.2583 2.32957C86.4376 2.94458 86.5206 3.42559 86.5073 3.7726C86.0256 3.95114 85.6822 4.14654 85.4771 4.3588C85.2721 4.57107 85.1655 4.8595 85.1574 5.22408C85.1492 5.58867 85.2399 6.09604 85.4294 6.74618L88.4175 16.9992Z" fill="url(#paint25_linear)"/>
<path d="M113.139 17.0441C113.286 17.4775 113.37 17.9594 113.393 18.4897C112.677 18.4651 111.524 18.4866 109.933 18.5542C108.233 18.6264 107.036 18.7047 106.344 18.7891C106.317 18.1674 106.37 17.6797 106.501 17.326C106.956 17.2517 107.281 17.1463 107.477 17.0098C107.691 16.8725 107.793 16.6758 107.782 16.4198C107.77 16.1455 107.624 15.7303 107.344 15.1744L106.348 13.0733C103.514 13.1937 101.193 13.3381 99.3869 13.5064L98.8989 14.956C98.6868 15.5696 98.5893 16.0775 98.6064 16.4798C98.6219 16.8455 98.7437 17.1243 98.9717 17.3161C99.1989 17.4896 99.5418 17.585 100.001 17.6021C100.165 18.0348 100.259 18.5163 100.282 19.0466C99.6576 19.0181 98.7239 19.0303 97.4804 19.0831C96.9501 19.1056 96.165 19.1665 95.125 19.2656C95.1009 18.6987 95.1539 18.2202 95.2839 17.83C95.7554 17.7183 96.1114 17.4742 96.3519 17.0976C96.6099 16.702 96.9442 15.9458 97.3547 14.8293L102.452 0.268899C102.832 0.161157 103.278 0.0964122 103.79 0.0746638L110.826 14.3395C111.206 15.0928 111.514 15.6567 111.75 16.0314C111.985 16.3878 112.197 16.6444 112.387 16.8012C112.594 16.939 112.845 17.0199 113.139 17.0441ZM105.685 11.7001L103.725 7.60657C103.185 6.53037 102.718 5.46021 102.325 4.39609C102.041 5.47067 101.712 6.57461 101.339 7.70793L99.9251 11.9447L105.685 11.7001Z" fill="url(#paint26_linear)"/>
<path d="M134.294 17.6395C134.156 18.3211 134.106 18.8433 134.144 19.2059C134.183 19.5685 134.313 19.847 134.535 20.0414C134.757 20.2358 135.116 20.4018 135.611 20.5395C135.649 20.9021 135.607 21.3884 135.483 21.9983C134.508 21.7445 133.329 21.4777 131.948 21.1978C130.459 20.8961 129.198 20.6686 128.165 20.5152C128.274 19.9771 128.433 19.5144 128.642 19.1273C129.151 19.1932 129.546 19.1799 129.827 19.0872C130.107 18.9946 130.326 18.787 130.485 18.4644C130.662 18.1453 130.819 17.645 130.957 16.9634L131.922 12.2008C128.245 11.4557 125.775 11.0204 124.512 10.8952L123.585 15.4694C123.447 16.151 123.397 16.6732 123.435 17.0358C123.474 17.3984 123.604 17.6769 123.826 17.8713C124.048 18.0657 124.407 18.2318 124.902 18.3694C124.951 18.6782 124.909 19.1645 124.774 19.8282C123.799 19.5745 122.629 19.3095 121.266 19.0332C119.759 18.7279 118.498 18.5003 117.483 18.3506C117.606 17.7407 117.756 17.2762 117.933 16.9572C118.442 17.0231 118.837 17.0098 119.118 16.9172C119.398 16.8245 119.626 16.6187 119.803 16.2997C119.98 15.9807 120.137 15.4804 120.275 14.7987L122.396 4.33191C122.531 3.6682 122.579 3.15503 122.54 2.7924C122.502 2.42977 122.371 2.15125 122.149 1.95686C121.927 1.76247 121.569 1.59644 121.074 1.45879C121.042 1.06028 121.085 0.574016 121.201 0C122.159 0.250102 123.382 0.526006 124.871 0.827709C126.198 1.0967 127.406 1.31334 128.493 1.47762C128.438 1.74669 128.377 2.00497 128.308 2.25247C128.239 2.49997 128.151 2.70614 128.043 2.87098C127.533 2.80507 127.138 2.81843 126.858 2.91104C126.578 3.00366 126.349 3.20947 126.173 3.52848C125.996 3.84749 125.84 4.33885 125.706 5.00256L124.839 9.28078L132.211 10.7748L133.078 6.49654C133.213 5.83283 133.261 5.31966 133.222 4.95703C133.202 4.59803 133.08 4.32134 132.858 4.12695C132.636 3.93255 132.278 3.76653 131.783 3.62887C131.73 3.24467 131.763 2.75659 131.883 2.16463C132.841 2.41474 134.073 2.69246 135.58 2.99779C136.907 3.26678 138.115 3.48342 139.202 3.64771C139.075 4.27554 138.925 4.73999 138.751 5.04106C138.242 4.97516 137.847 4.98851 137.567 5.08113C137.287 5.17374 137.058 5.37956 136.882 5.69857C136.705 6.01758 136.549 6.50894 136.415 7.17265L134.294 17.6395Z" fill="url(#paint27_linear)"/>
<path d="M156.003 26.3263C155.702 26.953 155.525 27.4468 155.473 27.8078C155.421 28.1688 155.479 28.4708 155.647 28.7138C155.814 28.9569 156.121 29.206 156.566 29.4613C156.515 29.8222 156.354 30.2831 156.084 30.8438C155.201 30.3578 154.124 29.8092 152.854 29.198C151.485 28.5392 150.319 28.0084 149.355 27.6054C149.593 27.1107 149.861 26.7014 150.159 26.3777C150.637 26.5669 151.023 26.6511 151.317 26.6303C151.612 26.6095 151.876 26.4623 152.109 26.1886C152.359 25.9229 152.634 25.4767 152.936 24.85L156.782 16.8596L145.932 22.1192C145.64 22.8112 145.55 23.3365 145.662 23.695C145.773 24.0535 146.126 24.3961 146.721 24.7227C146.693 25.0342 146.532 25.4951 146.238 26.1053C145.355 25.6193 144.287 25.0746 143.033 24.4714C141.648 23.8047 140.482 23.2738 139.534 22.8788C139.804 22.3181 140.064 21.9049 140.314 21.6391C140.791 21.8284 141.177 21.9126 141.472 21.8918C141.766 21.871 142.038 21.7277 142.288 21.462C142.538 21.1963 142.813 20.7501 143.115 20.1234L147.746 10.5003C148.04 9.89007 148.213 9.40449 148.265 9.04352C148.316 8.68255 148.259 8.38053 148.091 8.13747C147.924 7.89442 147.617 7.64528 147.171 7.39005C147.239 6.99609 147.4 6.53525 147.654 6.0075C148.521 6.48559 149.639 7.05402 151.007 7.71281C152.228 8.30017 153.345 8.80723 154.358 9.23398C154.239 9.48136 154.116 9.71653 153.988 9.93948C153.86 10.1624 153.724 10.3405 153.579 10.4737C153.101 10.2844 152.715 10.2002 152.42 10.221C152.126 10.2418 151.854 10.3851 151.604 10.6508C151.354 10.9165 151.083 11.3545 150.789 11.9647L146.943 19.9551L157.804 14.6708C158.098 14.0196 158.176 13.5191 158.04 13.1691C157.928 12.8106 157.587 12.4638 157.017 12.1286C157.06 11.7432 157.213 11.2784 157.475 10.7341C158.342 11.2122 159.468 11.7846 160.853 12.4513C162.073 13.0387 163.19 13.5457 164.204 13.9725C163.926 14.5497 163.666 14.9629 163.424 15.2122C162.947 15.0229 162.561 14.9387 162.266 14.9595C161.972 14.9803 161.7 15.1236 161.45 15.3893C161.2 15.6551 160.928 16.093 160.635 16.7032L156.003 26.3263Z" fill="url(#paint28_linear)"/>
<path d="M175.338 40.4047C174.891 40.9375 174.598 41.3724 174.458 41.7094C174.319 42.0463 174.3 42.3533 174.402 42.6301C174.505 42.907 174.74 43.2242 175.109 43.5816C174.97 43.9186 174.7 44.3254 174.3 44.8021C173.564 44.113 172.657 43.3155 171.577 42.4096C170.413 41.4331 169.414 40.6306 168.58 40.002C168.933 39.5814 169.294 39.251 169.662 39.0109C170.078 39.3123 170.432 39.4893 170.722 39.5418C171.012 39.5944 171.305 39.5169 171.598 39.3093C171.906 39.1135 172.283 38.7492 172.73 38.2164L178.43 31.4236L166.618 33.8403C166.164 34.4387 165.947 34.9254 165.967 35.3004C165.986 35.6754 166.244 36.0946 166.739 36.5579C166.635 36.8529 166.365 37.2597 165.93 37.7784C165.194 37.0893 164.293 36.2977 163.228 35.4035C162.05 34.4153 161.051 33.6128 160.231 32.996C160.631 32.5193 160.985 32.183 161.292 31.9872C161.708 32.2886 162.062 32.4656 162.352 32.5181C162.642 32.5707 162.941 32.4991 163.249 32.3033C163.557 32.1075 163.934 31.7432 164.381 31.2104L171.246 23.0295C171.681 22.5108 171.969 22.0829 172.108 21.7459C172.247 21.4089 172.266 21.102 172.164 20.8251C172.062 20.5483 171.826 20.2311 171.457 19.8736C171.62 19.5086 171.89 19.1018 172.266 18.6531C172.988 19.3305 173.931 20.1574 175.094 21.1339C176.132 22.0045 177.089 22.7718 177.966 23.4356C177.789 23.6459 177.611 23.8433 177.433 24.0278C177.254 24.2124 177.078 24.3512 176.904 24.4443C176.488 24.143 176.135 23.966 175.844 23.9135C175.554 23.8609 175.255 23.9325 174.947 24.1283C174.64 24.3241 174.268 24.6814 173.833 25.2002L168.133 31.993L179.962 29.5552C180.407 28.9967 180.607 28.531 180.561 28.1583C180.541 27.7832 180.297 27.3629 179.827 26.8973C179.964 26.5346 180.227 26.1219 180.615 25.6592C181.337 26.3366 182.287 27.1694 183.465 28.1576C184.502 29.0282 185.459 29.7955 186.336 30.4593C185.924 30.95 185.57 31.2863 185.274 31.468C184.858 31.1667 184.505 30.9897 184.214 30.9371C183.924 30.8846 183.625 30.9562 183.317 31.152C183.01 31.3478 182.638 31.7051 182.203 32.2238L175.338 40.4047ZM180.068 23.4076C178.82 22.3606 178.056 21.2776 177.776 20.1589C177.497 19.0401 177.757 18.004 178.557 17.0506C179.161 17.2706 179.729 17.6042 180.262 18.0512C180.374 18.1454 180.544 18.3123 180.773 18.5521C180.241 19.4432 179.995 20.2051 180.038 20.838C180.08 21.4708 180.431 22.0637 181.09 22.6167C181.749 23.1697 182.379 23.4003 182.982 23.3086C183.585 23.2169 184.25 22.8079 184.979 22.0816C185.255 22.2654 185.47 22.4219 185.624 22.5513C186.185 23.0219 186.597 23.4991 186.86 23.9827C186.06 24.9361 185.051 25.3556 183.833 25.2413C182.627 25.113 181.372 24.5018 180.068 23.4076Z" fill="url(#paint29_linear)"/>
<path d="M195.641 41.3895C191.803 43.8595 188.527 46.0784 185.812 48.0464C185.457 47.8383 185.05 47.4488 184.592 46.8778C187.994 43.7482 190.94 40.8681 193.428 38.2373C193.82 38.5797 194.294 38.9506 194.849 39.3499C195.419 39.7377 195.889 40.0171 196.261 40.188C196.402 40.568 196.301 40.8954 195.958 41.1704C195.83 41.2735 195.724 41.3465 195.641 41.3895ZM182.731 51.9272C182.274 52.2938 181.788 52.4489 181.274 52.3925C180.773 52.3247 180.346 52.0696 179.99 51.6271C179.612 51.156 179.443 50.6818 179.482 50.2044C179.533 49.7412 179.772 49.3378 180.201 48.9942C180.629 48.6505 181.099 48.5197 181.611 48.6018C182.137 48.6724 182.583 48.9361 182.95 49.3929C183.293 49.8211 183.425 50.2782 183.346 50.7643C183.278 51.2646 183.073 51.6523 182.731 51.9272Z" fill="url(#paint30_linear)"/>
<path d="M199.535 77.9801C199.175 76.9235 199.212 76.0116 199.646 75.2445C200.081 74.4774 200.748 73.9401 201.649 73.6327C202.498 73.343 203.303 73.4068 204.064 73.8238C204.842 74.235 205.394 74.9169 205.719 75.8696C206.056 76.857 206.025 77.7283 205.625 78.4836C205.225 79.2388 204.61 79.7584 203.778 80.0421C202.843 80.3614 201.983 80.3357 201.199 79.965C200.421 79.6117 199.867 78.9501 199.535 77.9801Z" fill="url(#paint31_linear)"/>
</g>
<defs>
<linearGradient id="paint0_linear" x1="120.943" y1="102.493" x2="184.959" y2="102.493" gradientUnits="userSpaceOnUse">
<stop stop-color="#BD0705"/>
<stop offset="1" stop-color="#FD0302"/>
</linearGradient>
<linearGradient id="paint1_linear" x1="117.742" y1="38.8314" x2="117.742" y2="102.493" gradientUnits="userSpaceOnUse">
<stop stop-color="#B4000E"/>
<stop offset="1" stop-color="#D70016"/>
</linearGradient>
<linearGradient id="paint2_linear" x1="110.33" y1="74.7886" x2="89.9477" y2="84.5612" gradientUnits="userSpaceOnUse">
<stop stop-color="#930105"/>
<stop offset="1" stop-color="#D30015"/>
</linearGradient>
<linearGradient id="paint3_linear" x1="104.097" y1="104.346" x2="35.5341" y2="86.4847" gradientUnits="userSpaceOnUse">
<stop stop-color="#D90017"/>
<stop offset="1" stop-color="#B4000D"/>
</linearGradient>
<linearGradient id="paint4_linear" x1="35.5315" y1="85.6515" x2="92.8005" y2="120.949" gradientUnits="userSpaceOnUse">
<stop stop-color="#D80118"/>
<stop offset="1" stop-color="#B3000D"/>
</linearGradient>
<linearGradient id="paint5_linear" x1="69.7079" y1="123.392" x2="86.2907" y2="150.012" gradientUnits="userSpaceOnUse">
<stop stop-color="#D80016"/>
<stop offset="1" stop-color="#B4000D"/>
</linearGradient>
<linearGradient id="paint6_linear" x1="57.4322" y1="174.745" x2="108.633" y2="131.111" gradientUnits="userSpaceOnUse">
<stop stop-color="#B3000D"/>
<stop offset="1" stop-color="#D60016"/>
</linearGradient>
<linearGradient id="paint7_linear" x1="108.476" y1="131.124" x2="159.177" y2="161.536" gradientUnits="userSpaceOnUse">
<stop stop-color="#B3000D"/>
<stop offset="1" stop-color="#D90017"/>
</linearGradient>
<linearGradient id="paint8_linear" x1="189.701" y1="86.7352" x2="186.411" y2="77.0928" gradientUnits="userSpaceOnUse">
<stop stop-color="#BD0705"/>
<stop offset="1" stop-color="#FD0302"/>
</linearGradient>
<linearGradient id="paint9_linear" x1="189.701" y1="86.7352" x2="186.411" y2="77.0928" gradientUnits="userSpaceOnUse">
<stop stop-color="#BD0705"/>
<stop offset="1" stop-color="#FD0302"/>
</linearGradient>
<linearGradient id="paint10_linear" x1="189.701" y1="86.7352" x2="186.411" y2="77.0928" gradientUnits="userSpaceOnUse">
<stop stop-color="#BD0705"/>
<stop offset="1" stop-color="#FD0302"/>
</linearGradient>
<linearGradient id="paint11_linear" x1="189.701" y1="86.7352" x2="186.411" y2="77.0928" gradientUnits="userSpaceOnUse">
<stop stop-color="#BD0705"/>
<stop offset="1" stop-color="#FD0302"/>
</linearGradient>
<linearGradient id="paint12_linear" x1="189.701" y1="86.7352" x2="186.411" y2="77.0928" gradientUnits="userSpaceOnUse">
<stop stop-color="#BD0705"/>
<stop offset="1" stop-color="#FD0302"/>
</linearGradient>
<linearGradient id="paint13_linear" x1="189.701" y1="86.7352" x2="186.411" y2="77.0928" gradientUnits="userSpaceOnUse">
<stop stop-color="#BD0705"/>
<stop offset="1" stop-color="#FD0302"/>
</linearGradient>
<linearGradient id="paint14_linear" x1="189.701" y1="86.7352" x2="186.411" y2="77.0928" gradientUnits="userSpaceOnUse">
<stop stop-color="#BD0705"/>
<stop offset="1" stop-color="#FD0302"/>
</linearGradient>
<linearGradient id="paint15_linear" x1="189.701" y1="86.7352" x2="186.411" y2="77.0928" gradientUnits="userSpaceOnUse">
<stop stop-color="#BD0705"/>
<stop offset="1" stop-color="#FD0302"/>
</linearGradient>
<linearGradient id="paint16_linear" x1="189.701" y1="86.7352" x2="186.411" y2="77.0928" gradientUnits="userSpaceOnUse">
<stop stop-color="#BD0705"/>
<stop offset="1" stop-color="#FD0302"/>
</linearGradient>
<linearGradient id="paint17_linear" x1="189.701" y1="86.7352" x2="186.411" y2="77.0928" gradientUnits="userSpaceOnUse">
<stop stop-color="#BD0705"/>
<stop offset="1" stop-color="#FD0302"/>
</linearGradient>
<linearGradient id="paint18_linear" x1="189.701" y1="86.7352" x2="186.411" y2="77.0928" gradientUnits="userSpaceOnUse">
<stop stop-color="#BD0705"/>
<stop offset="1" stop-color="#FD0302"/>
</linearGradient>
<linearGradient id="paint19_linear" x1="189.701" y1="86.7352" x2="186.411" y2="77.0928" gradientUnits="userSpaceOnUse">
<stop stop-color="#BD0705"/>
<stop offset="1" stop-color="#FD0302"/>
</linearGradient>
<linearGradient id="paint20_linear" x1="189.701" y1="86.7352" x2="186.411" y2="77.0928" gradientUnits="userSpaceOnUse">
<stop stop-color="#BD0705"/>
<stop offset="1" stop-color="#FD0302"/>
</linearGradient>
<linearGradient id="paint21_linear" x1="189.701" y1="86.7352" x2="186.411" y2="77.0928" gradientUnits="userSpaceOnUse">
<stop stop-color="#BD0705"/>
<stop offset="1" stop-color="#FD0302"/>
</linearGradient>
<linearGradient id="paint22_linear" x1="189.701" y1="86.7352" x2="186.411" y2="77.0928" gradientUnits="userSpaceOnUse">
<stop stop-color="#BD0705"/>
<stop offset="1" stop-color="#FD0302"/>
</linearGradient>
<linearGradient id="paint23_linear" x1="189.701" y1="86.7352" x2="186.411" y2="77.0928" gradientUnits="userSpaceOnUse">
<stop stop-color="#BD0705"/>
<stop offset="1" stop-color="#FD0302"/>
</linearGradient>
<linearGradient id="paint24_linear" x1="189.701" y1="86.7352" x2="186.411" y2="77.0928" gradientUnits="userSpaceOnUse">
<stop stop-color="#BD0705"/>
<stop offset="1" stop-color="#FD0302"/>
</linearGradient>
<linearGradient id="paint25_linear" x1="189.701" y1="86.7352" x2="186.411" y2="77.0928" gradientUnits="userSpaceOnUse">
<stop stop-color="#BD0705"/>
<stop offset="1" stop-color="#FD0302"/>
</linearGradient>
<linearGradient id="paint26_linear" x1="189.701" y1="86.7352" x2="186.411" y2="77.0928" gradientUnits="userSpaceOnUse">
<stop stop-color="#BD0705"/>
<stop offset="1" stop-color="#FD0302"/>
</linearGradient>
<linearGradient id="paint27_linear" x1="189.701" y1="86.7352" x2="186.411" y2="77.0928" gradientUnits="userSpaceOnUse">
<stop stop-color="#BD0705"/>
<stop offset="1" stop-color="#FD0302"/>
</linearGradient>
<linearGradient id="paint28_linear" x1="189.701" y1="86.7352" x2="186.411" y2="77.0928" gradientUnits="userSpaceOnUse">
<stop stop-color="#BD0705"/>
<stop offset="1" stop-color="#FD0302"/>
</linearGradient>
<linearGradient id="paint29_linear" x1="189.701" y1="86.7352" x2="186.411" y2="77.0928" gradientUnits="userSpaceOnUse">
<stop stop-color="#BD0705"/>
<stop offset="1" stop-color="#FD0302"/>
</linearGradient>
<linearGradient id="paint30_linear" x1="189.701" y1="86.7352" x2="186.411" y2="77.0928" gradientUnits="userSpaceOnUse">
<stop stop-color="#BD0705"/>
<stop offset="1" stop-color="#FD0302"/>
</linearGradient>
<linearGradient id="paint31_linear" x1="189.701" y1="86.7352" x2="186.411" y2="77.0928" gradientUnits="userSpaceOnUse">
<stop stop-color="#BD0705"/>
<stop offset="1" stop-color="#FD0302"/>
</linearGradient>
<clipPath id="clip0">
<rect width="149.428" height="141.976" transform="matrix(-1 0 0 1 184.959 38.8314)" fill="white"/>
</clipPath>
</defs>
</svg>
