<svg width="160" height="162" viewBox="0 0 160 162" fill="none" xmlns="http://www.w3.org/2000/svg"><g opacity=".2"><g clip-path="url(#clip0)"><path d="M120.889 102.417l64.07-3.35-13.356-13.32-35.661.636-15.053 16.034z" fill="url(#paint0_linear)"/><path d="M99.56 49.818l21.329 52.599 15.053-16.034-19.548-47.552L99.56 49.818z" fill="url(#paint1_linear)"/><path d="M99.56 49.818l-9.668 33.384 14.163 20.064 6.275-26.894-10.77-26.554z" fill="url(#paint2_linear)"/><path d="M89.892 83.202l-54.36 2.503 31.59 18.579 36.933-1.018-14.163-20.064z" fill="url(#paint3_linear)"/><path d="M92.86 119.427L35.532 85.704l6.996 20.149 27.265 17.731 23.067-4.157z" fill="url(#paint4_linear)"/><path d="M86.585 149.799l6.275-30.372-23.067 4.157-12.382 51.115 29.174-24.9z" fill="url(#paint5_linear)"/><path d="M57.412 174.699l51.065-43.574.242 24.104-27.307 19.47h-24z" fill="url(#paint6_linear)"/><path d="M108.476 131.124l50.702 30.807-4.198 18.877-46.261-25.579-.243-24.105z" fill="url(#paint7_linear)"/></g><path d="M201.358 111.69c.049-.437.158-.83.326-1.179.168-.35.345-.616.531-.797.338-.054.789-.05 1.353.013.673.076 1.22.202 1.642.378-.209.713-.34 1.307-.393 1.779-.061.546.033 1.017.284 1.414.268.398.813.791 1.635 1.178.857.409 2.065.802 3.625 1.18 1.558.396 3.341.753 5.35 1.07l.815.119c.455.052.798.035 1.028-.05.247-.064.441-.236.583-.515.142-.278.275-.724.399-1.336.394-.066.882-.067 1.464-.002-.195 1.249-.485 3.583-.869 7.003-.378 3.365-.6 5.596-.668 6.693-.637-.071-1.113-.18-1.428-.326.021-.513-.027-.905-.144-1.176-.117-.271-.342-.481-.676-.629-.333-.148-.836-.259-1.509-.335l-10.613-1.191c-.691-.078-1.216-.081-1.573-.011-.358.07-.624.225-.798.463-.174.238-.308.61-.402 1.115-.358.071-.846.071-1.464.002a67.66 67.66 0 00.486-3.593c.169-1.509.285-2.785.347-3.828.636.071 1.111.189 1.424.353-.02.513.028.906.145 1.177.117.27.343.471.678.601.333.148.846.26 1.537.338l10.613 1.191c.764.086 1.305.101 1.625.044.335-.036.591-.182.767-.438.241-.342.403-.885.487-1.631.074-.655.03-1.166-.132-1.534a.987.987 0 00-.569-.589c-.264-.103-.821-.23-1.67-.381-3.775-.663-6.679-1.284-8.714-1.862-2.035-.578-3.498-1.24-4.391-1.985-.876-.724-1.253-1.632-1.131-2.723z" fill="url(#paint8_linear)"/><path d="M197.493 147.777c-.653-.24-1.161-.368-1.526-.384-.364-.017-.659.07-.885.26-.225.19-.444.519-.654.988-.365-.017-.839-.132-1.423-.346a69.23 69.23 0 001.325-3.374 75.907 75.907 0 001.246-3.637 5.01 5.01 0 011.299.681c-.142.494-.188.886-.139 1.177.049.291.222.539.517.745.288.223.759.454 1.412.693l8.326 3.053-6.287-10.288c-.717-.224-1.249-.263-1.595-.117-.346.146-.652.531-.92 1.154-.313.002-.787-.113-1.423-.346.398-.926.837-2.042 1.316-3.348a75.414 75.414 0 001.246-3.637c.584.214 1.02.432 1.309.655-.142.494-.188.886-.139 1.177.049.291.218.548.507.771.289.223.759.454 1.412.693l10.027 3.677c.636.233 1.136.358 1.5.375.365.016.66-.07.885-.261.226-.19.444-.519.655-.988.399.03.873.145 1.423.347a70.008 70.008 0 00-1.372 3.502 74.198 74.198 0 00-1.19 3.483 12.055 12.055 0 01-.738-.3 2.193 2.193 0 01-.571-.356c.142-.494.188-.886.139-1.177-.049-.291-.218-.548-.507-.771-.288-.222-.751-.45-1.386-.684l-8.326-3.052 6.312 10.297c.677.229 1.183.258 1.518.089.346-.146.658-.519.936-1.119.388.006.865.113 1.433.321a70.383 70.383 0 00-1.382 3.528 74.105 74.105 0 00-1.189 3.483c-.602-.221-1.038-.44-1.31-.656.142-.494.189-.886.14-1.177-.05-.291-.219-.548-.507-.771-.289-.223-.751-.451-1.387-.684l-10.027-3.676z" fill="url(#paint9_linear)"/><path d="M199.887 173.236c-1.843-.955-3.212-1.599-4.108-1.93.016-.468.21-.995.583-1.582.939.468 1.831.601 2.674.4.859-.191 1.697-.927 2.512-2.209l1.15-1.806-10.771-6.853c-.664-.423-1.225-.683-1.684-.779-.454-.072-.856-.002-1.207.208-.335.221-.695.599-1.08 1.135-.322-.074-.76-.288-1.316-.642.528-.727 1.258-1.824 2.192-3.291 1.051-1.652 1.784-2.856 2.2-3.611.571.363.956.662 1.154.896-.245.452-.374.826-.388 1.121-.024.31.082.605.316.884.235.279.645.606 1.232.979l9.01 5.733c.572.364 1.034.592 1.386.686.352.094.659.073.92-.065s.545-.413.851-.825c.383.113.822.327 1.316.642a137.455 137.455 0 00-2.944 4.472 304.615 304.615 0 00-3.998 6.437z" fill="url(#paint10_linear)"/><path d="M171.04 179.832a5.173 5.173 0 01-1.174-.88c.538-.472 1.364-1.277 2.478-2.415 1.19-1.217 2.009-2.093 2.456-2.628.445.435.741.827.887 1.174-.281.366-.446.665-.495.899a.626.626 0 00.181.639c.197.192.587.394 1.172.608l2.164.85c1.984-2.028 3.577-3.721 4.779-5.08l-.637-1.391c-.265-.593-.541-1.03-.829-1.311-.262-.256-.541-.376-.839-.36-.284.029-.6.194-.946.496a4.594 4.594 0 01-1.193-.861c.474-.406 1.146-1.054 2.017-1.944a48.54 48.54 0 001.592-1.745c.406.397.695.782.867 1.155-.267.404-.36.826-.277 1.265.082.465.356 1.245.821 2.34l6.25 14.105a5.913 5.913 0 01-.843 1.057l-14.893-5.584c-.793-.289-1.403-.49-1.832-.601-.415-.099-.745-.141-.991-.126a1.58 1.58 0 00-.715.338zm9.092-1.205l4.231 1.643c1.131.414 2.203.875 3.218 1.382a58.51 58.51 0 01-1.548-3.09l-1.869-4.056-4.032 4.121z" fill="url(#paint11_linear)"/><path d="M156.686 199.756c-1.506.595-2.842.742-4.009.44-1.167-.303-2.083-1.096-2.748-2.379-.801-1.544-.855-3.041-.164-4.492s2.044-2.699 4.059-3.743c2.161-1.12 4.128-1.501 5.902-1.142a16.1 16.1 0 001.133 2.783l.429.767c-.322.414-.873.803-1.653 1.166-.796-1.257-1.614-2.059-2.454-2.407-.848-.324-1.784-.22-2.808.311-1.007.522-1.632 1.186-1.874 1.992-.234.822-.093 1.728.42 2.72 1.272 2.453 3.501 2.855 6.685 1.204.15.169.284.368.402.596.169.324.255.61.258.855-1.381.716-2.253 1.519-2.617 2.408-.355.906-.276 1.854.238 2.846.446.861 1.023 1.417 1.731 1.669.708.251 1.46.171 2.256-.242 1.673-.867 2.121-2.47 1.342-4.808.089-.067.215-.142.377-.227a3.644 3.644 0 011.455-.414c.256.692.531 1.323.826 1.891.253.488.521.946.806 1.376a12.798 12.798 0 01-4.427 3.748c-1.755.91-3.273 1.264-4.553 1.061-1.296-.194-2.251-.884-2.866-2.07-.531-1.024-.628-2.066-.291-3.127.345-1.044 1.06-1.972 2.145-2.782z" fill="url(#paint12_linear)"/><path d="M128.714 203.309c-.177-.672-.362-1.163-.557-1.471-.195-.309-.434-.501-.719-.578-.285-.076-.68-.067-1.185.028-.195-.309-.371-.764-.53-1.365a68.35 68.35 0 003.526-.842 75.278 75.278 0 003.697-1.057c.139.531.2 1.016.184 1.456-.487.166-.835.352-1.046.559-.21.207-.316.49-.316.849-.018.365.062.883.239 1.556l1.235 4.699c3.629-.953 6.038-1.653 7.226-2.098l-1.186-4.514c-.177-.672-.363-1.163-.557-1.471-.195-.309-.435-.501-.72-.578-.285-.076-.68-.067-1.185.028-.18-.255-.357-.71-.529-1.365a66.972 66.972 0 003.499-.835 74.071 74.071 0 003.697-1.057c.158.602.228 1.085.21 1.449-.486.166-.835.352-1.045.559-.211.207-.325.492-.343.856-.018.365.062.883.239 1.556l2.715 10.328c.172.655.355 1.137.55 1.446.195.308.434.5.719.577.286.076.681.067 1.185-.028.204.344.381.799.53 1.366-.97.198-2.19.49-3.659.876-1.31.344-2.489.683-3.537 1.015-.07-.265-.128-.524-.176-.777a2.223 2.223 0 01-.035-.672c.487-.166.835-.352 1.046-.559.21-.206.325-.492.342-.856.018-.364-.059-.874-.231-1.529l-1.11-4.222-7.275 1.913 1.11 4.221c.172.655.355 1.137.55 1.445.177.313.408.508.693.585.285.076.68.067 1.185-.028.217.322.402.774.556 1.358-.97.199-2.199.493-3.686.884a74.81 74.81 0 00-3.537 1.015c-.162-.62-.233-1.103-.21-1.449.486-.166.835-.352 1.045-.559.211-.207.325-.492.343-.856.018-.365-.06-.874-.232-1.529l-2.715-10.329z" fill="url(#paint13_linear)"/><path d="M104.142 202.481a5.208 5.208 0 01-.214-1.452c.714.044 1.868.054 3.46.029 1.702-.026 2.9-.072 3.595-.138.009.622-.056 1.108-.198 1.458-.456.062-.784.159-.983.29a.626.626 0 00-.321.582c.004.274.139.693.404 1.256l.939 2.128c2.836-.044 5.16-.126 6.97-.245l.527-1.436c.229-.608.34-1.113.334-1.516-.006-.366-.12-.647-.343-.845-.222-.18-.563-.285-1.021-.314a4.582 4.582 0 01-.242-1.452c.623.046 1.557.059 2.801.039a48.445 48.445 0 002.36-.118c.009.567-.057 1.044-.198 1.431-.474.098-.837.333-1.087.703-.269.388-.623 1.135-1.064 2.24l-5.488 14.418c-.383.097-.831.15-1.343.158l-6.648-14.45c-.36-.763-.652-1.335-.878-1.716-.225-.363-.431-.625-.616-.787a1.572 1.572 0 00-.746-.263zm7.307 5.543l1.849 4.145a31.494 31.494 0 011.313 3.247 58.696 58.696 0 011.075-3.284l1.528-4.197-5.765.089z" fill="url(#paint14_linear)"/><path d="M83.072 201.257c.156-.678.22-1.198.19-1.562-.028-.363-.15-.645-.368-.845-.216-.201-.57-.376-1.062-.527-.028-.363.027-.848.167-1.455.969.28 2.14.578 3.513.895 1.48.341 2.734.602 3.763.783a5.01 5.01 0 01-.514 1.375c-.507-.08-.902-.077-1.185.008-.283.085-.508.287-.675.605-.185.314-.356.81-.512 1.488l-1.092 4.735c3.656.843 6.114 1.344 7.373 1.503l1.049-4.548c.156-.677.22-1.198.191-1.562-.029-.363-.152-.645-.368-.845-.217-.2-.571-.376-1.062-.527-.041-.31.014-.795.166-1.455.969.28 2.13.576 3.486.889a74.74 74.74 0 003.764.783c-.14.606-.302 1.067-.487 1.381-.508-.08-.903-.077-1.186.008-.282.085-.516.285-.701.599-.186.314-.356.81-.513 1.488l-2.4 10.407c-.151.659-.213 1.171-.184 1.535.029.363.152.645.368.845.217.201.571.376 1.062.527.021.399-.035.884-.166 1.455a69.418 69.418 0 00-3.647-.925 73.237 73.237 0 00-3.603-.747c.062-.267.13-.524.206-.769.075-.246.17-.45.282-.612.507.08.902.077 1.185-.008.282-.085.516-.285.701-.599.186-.314.354-.801.506-1.461l.981-4.254-7.33-1.69-.98 4.254c-.153.66-.214 1.171-.186 1.535.011.359.125.639.342.839.217.2.57.376 1.062.527.043.385-.004.872-.14 1.461a70.865 70.865 0 00-3.673-.932 74.304 74.304 0 00-3.603-.746c.144-.624.306-1.084.487-1.381.508.08.903.077 1.186-.008.282-.085.516-.285.701-.599.185-.314.354-.801.506-1.461l2.4-10.407z" fill="url(#paint15_linear)"/><path d="M61.485 191.854c.318-.619.508-1.108.569-1.468.06-.359.011-.662-.15-.91-.161-.247-.461-.504-.9-.771.06-.359.234-.816.518-1.369.87.508 1.932 1.085 3.186 1.729a75.398 75.398 0 003.456 1.683c-.25.488-.529.89-.835 1.206-.473-.202-.857-.296-1.151-.283-.295.014-.563.154-.803.421-.257.26-.544.698-.862 1.317l-4.051 7.888 10.982-4.976c.31-.684.414-1.207.311-1.568-.102-.362-.446-.713-1.032-1.055.036-.311.209-.768.518-1.37a67.52 67.52 0 003.162 1.717 75.062 75.062 0 003.456 1.683c-.284.553-.554.959-.81 1.219-.474-.202-.857-.296-1.152-.283-.295.013-.57.149-.827.408-.257.26-.544.698-.862 1.317l-4.88 9.5c-.309.602-.494 1.083-.555 1.443-.061.359-.011.662.15.91.16.247.46.504.9.771-.078.392-.25.848-.518 1.369a70.604 70.604 0 00-3.309-1.791 74.233 74.233 0 00-3.31-1.608c.126-.244.255-.476.389-.696.133-.219.274-.394.423-.523.472.202.856.296 1.15.283.296-.014.572-.15.828-.409.257-.259.54-.69.849-1.292l4.052-7.888-10.995 5.001c-.31.643-.401 1.141-.274 1.495.103.361.434.716.995 1.066-.053.384-.218.845-.494 1.382a71.796 71.796 0 00-3.332-1.804 74.233 74.233 0 00-3.31-1.608c.293-.569.563-.976.811-1.219.473.202.857.296 1.151.283.295-.013.571-.149.828-.408.256-.26.54-.69.849-1.293l4.88-9.499z" fill="url(#paint16_linear)"/><path d="M42.86 177.411c.46-.521.764-.948.912-1.282.148-.333.174-.639.079-.919-.095-.279-.322-.602-.682-.969.148-.333.428-.733.84-1.2a68.243 68.243 0 002.66 2.462 76.159 76.159 0 002.936 2.483 5.023 5.023 0 01-1.108.963c-.408-.312-.757-.498-1.045-.558-.29-.06-.583.01-.882.21-.313.188-.7.543-1.16 1.064l-5.87 6.645 11.869-2.115c.47-.586.699-1.067.689-1.443-.01-.375-.258-.801-.74-1.277.11-.292.39-.692.84-1.199a67.115 67.115 0 002.64 2.443 73.576 73.576 0 002.935 2.483c-.412.466-.774.793-1.087.981-.408-.312-.757-.497-1.046-.557-.289-.06-.59.004-.902.192-.313.188-.7.542-1.16 1.063l-7.07 8.004c-.449.507-.747.928-.895 1.261-.148.333-.175.64-.08.919.096.279.323.602.683.969-.172.361-.452.761-.84 1.2a69.948 69.948 0 00-2.764-2.552 74.09 74.09 0 00-2.812-2.374c.182-.206.365-.399.548-.579.183-.18.363-.314.54-.403.407.312.756.498 1.045.558.29.06.59-.004.902-.192.313-.188.693-.536 1.142-1.043l5.871-6.646-11.888 2.136c-.459.547-.67 1.008-.634 1.382.01.375.244.801.701 1.279-.146.359-.42.765-.819 1.217a71.314 71.314 0 00-2.785-2.57 74.087 74.087 0 00-2.811-2.374c.424-.48.786-.807 1.087-.981.408.312.757.498 1.046.558.288.059.59-.005.902-.192.312-.188.693-.536 1.141-1.044l7.071-8.003zm-5.162 16.871c1.22 1.079 1.957 2.181 2.208 3.306.251 1.126-.035 2.155-.86 3.088a5.687 5.687 0 01-1.678-1.044 7.27 7.27 0 01-.499-.514c.555-.877.82-1.633.794-2.266-.027-.634-.362-1.236-1.007-1.805-.644-.57-1.27-.816-1.874-.74-.604.076-1.28.468-2.028 1.176a7.66 7.66 0 01-.633-.486c-.548-.485-.948-.972-1.199-1.463.824-.932 1.844-1.326 3.059-1.181 1.202.159 2.442.802 3.717 1.929z" fill="url(#paint17_linear)"/><path d="M22.599 175.862c3.9-2.371 7.232-4.506 9.996-6.404.35.217.746.617 1.19 1.2-3.482 3.041-6.5 5.846-9.054 8.412a19.41 19.41 0 00-1.392-1.148c-.56-.403-1.023-.694-1.39-.874-.131-.384-.022-.709.327-.975.132-.099.24-.17.323-.211zm13.175-10.205c.466-.354.956-.497 1.469-.428.498.081.92.347 1.263.798.366.481.523.959.472 1.436-.063.461-.313.858-.75 1.191-.436.333-.91.451-1.42.356-.523-.084-.963-.359-1.317-.825-.333-.436-.453-.897-.362-1.381.08-.498.296-.88.645-1.147z" fill="url(#paint18_linear)"/><path d="M19.746 139.261c.333 1.066.272 1.977-.183 2.732-.454.755-1.136 1.275-2.044 1.558-.856.268-1.66.183-2.41-.254-.767-.432-1.3-1.128-1.6-2.089-.311-.996-.257-1.866.163-2.611.42-.744 1.049-1.247 1.887-1.509.944-.294 1.802-.246 2.576.145.769.374 1.306 1.05 1.611 2.028z" fill="url(#paint19_linear)"/><path d="M18.723 110.447a3.633 3.633 0 01-.294 1.187c-.159.354-.329.624-.51.811-.336.063-.787.071-1.352.023-.675-.058-1.226-.169-1.652-.334.19-.718.304-1.315.345-1.789.046-.547-.061-1.015-.322-1.405-.279-.391-.834-.769-1.667-1.134-.867-.386-2.085-.746-3.655-1.082-1.568-.354-3.36-.662-5.377-.926l-.818-.097c-.456-.039-.798-.013-1.026.078-.245.071-.434.248-.569.531-.134.282-.255.731-.362 1.346-.393.077-.88.091-1.464.041.162-1.253.388-3.595.68-7.023.287-3.374.45-5.61.488-6.71.638.055 1.117.151 1.436.288-.007.514.051.905.176 1.172.124.268.355.472.692.61.337.14.843.237 1.518.295l10.64.905c.694.059 1.218.048 1.574-.032.356-.08.617-.24.785-.484.168-.243.291-.618.371-1.126.356-.08.844-.093 1.464-.04-.14.998-.27 2.2-.389 3.604a75.085 75.085 0 00-.244 3.836c-.638-.054-1.116-.159-1.433-.315.007-.513-.052-.904-.176-1.172-.124-.267-.356-.462-.694-.582-.338-.139-.853-.238-1.546-.297l-10.64-.905c-.767-.065-1.309-.065-1.626 0-.335.044-.587.197-.756.459-.232.347-.38.895-.443 1.643-.056.656.002 1.166.173 1.53a.987.987 0 00.585.573c.268.096.827.208 1.68.336 3.791.561 6.712 1.103 8.761 1.627 2.05.523 3.53 1.145 4.443 1.865.895.701 1.297 1.599 1.204 2.693z" fill="url(#paint20_linear)"/><path d="M21.63 74.194c.66.223 1.171.337 1.536.344.364.007.657-.087.878-.283.22-.196.43-.531.628-1.005.365.007.842.11 1.431.308a67.877 67.877 0 00-1.235 3.408 75.018 75.018 0 00-1.15 3.669 5.005 5.005 0 01-1.317-.647c.129-.498.165-.891.108-1.18-.057-.29-.236-.534-.536-.732-.294-.215-.771-.433-1.43-.656l-8.403-2.832 6.555 10.119c.723.205 1.255.23 1.597.075.342-.156.639-.548.89-1.178.312-.01.79.092 1.431.309a67.29 67.29 0 00-1.227 3.381 73.987 73.987 0 00-1.15 3.669c-.589-.199-1.031-.406-1.326-.621.13-.497.166-.89.109-1.18-.057-.29-.233-.542-.527-.758-.295-.215-.772-.433-1.43-.655l-10.12-3.412c-.642-.216-1.146-.328-1.51-.335-.365-.007-.657.088-.878.284-.22.196-.43.53-.629 1.005-.399-.019-.876-.122-1.431-.309.368-.919.794-2.098 1.28-3.538a74.302 74.302 0 001.097-3.512c.26.087.508.18.745.28.237.1.43.213.58.34-.128.498-.164.891-.107 1.181.057.29.232.542.527.757.294.215.762.431 1.404.647l8.403 2.833-6.581-10.128c-.683-.21-1.189-.227-1.52-.049-.341.156-.644.537-.906 1.143-.388.005-.868-.09-1.44-.282.367-.92.797-2.107 1.288-3.564a74.255 74.255 0 001.097-3.513c.607.205 1.049.412 1.326.621-.129.498-.165.891-.108 1.18.057.29.232.543.527.758.294.215.762.43 1.404.647l10.12 3.411z" fill="url(#paint21_linear)"/><path d="M18.502 48.908c1.867.908 3.253 1.516 4.157 1.824-.004.468-.184 1-.543 1.596-.95-.443-1.845-.553-2.683-.331-.854.213-1.672.97-2.454 2.273l-1.103 1.835 10.943 6.574c.675.406 1.243.65 1.704.736.455.06.856-.02 1.201-.24.33-.229.68-.616 1.05-1.162.324.066.768.269 1.333.608-.51.74-1.211 1.856-2.107 3.346-1.008 1.68-1.71 2.901-2.106 3.667-.58-.349-.973-.638-1.177-.867.233-.458.352-.835.359-1.13.015-.31-.097-.602-.339-.876-.241-.273-.66-.588-1.257-.947l-9.154-5.499c-.58-.349-1.048-.566-1.403-.65-.355-.085-.66-.056-.918.089-.258.144-.534.426-.83.846-.385-.103-.83-.306-1.332-.608a138.188 138.188 0 002.828-4.546 301.355 301.355 0 003.831-6.538z" fill="url(#paint22_linear)"/><path d="M47.176 41.51c.41.205.808.488 1.197.85-.527.485-1.332 1.31-2.416 2.477-1.16 1.246-1.956 2.143-2.389 2.69-.456-.424-.76-.808-.916-1.152.271-.372.429-.676.472-.91a.626.626 0 00-.198-.635c-.2-.186-.596-.38-1.186-.578l-2.186-.795c-1.931 2.078-3.48 3.811-4.647 5.2l.671 1.375c.28.585.568 1.015.863 1.29.268.248.55.361.847.337.284-.036.595-.209.934-.519.42.192.826.468 1.215.83-.464.418-1.12 1.083-1.968 1.995a48.99 48.99 0 00-1.547 1.785c-.415-.387-.714-.764-.896-1.133.257-.411.339-.835.245-1.272-.094-.463-.388-1.235-.88-2.318l-6.607-13.94c.195-.345.467-.704.816-1.08l15.03 5.204c.8.269 1.415.454 1.846.555.418.088.75.121.995.1.244-.048.48-.167.705-.356zm-9.058 1.436l-4.271-1.535a31.474 31.474 0 01-3.253-1.3 57.99 57.99 0 011.626 3.05l1.972 4.007 3.926-4.222z" fill="url(#paint23_linear)"/><path d="M61.064 21.143c1.49-.634 2.822-.815 3.996-.543 1.174.272 2.11 1.04 2.809 2.307.84 1.522.933 3.018.28 4.486s-1.974 2.75-3.961 3.847c-2.131 1.175-4.088 1.607-5.87 1.294a16.11 16.11 0 00-1.205-2.753l-.449-.756c.31-.422.852-.825 1.622-1.208.829 1.236 1.667 2.017 2.516 2.343.856.301 1.789.174 2.798-.383.994-.549 1.601-1.229 1.822-2.04.213-.828.05-1.73-.49-2.708-1.335-2.42-3.573-2.764-6.714-1.031a2.937 2.937 0 01-.417-.585c-.177-.32-.27-.604-.28-.85 1.362-.75 2.214-1.575 2.554-2.474.332-.915.228-1.86-.312-2.838-.468-.85-1.06-1.39-1.773-1.624-.714-.233-1.464-.133-2.249.3-1.65.91-2.056 2.524-1.217 4.841a2.65 2.65 0 01-.371.236 3.64 3.64 0 01-1.444.452 16.64 16.64 0 00-.875-1.87 15.25 15.25 0 00-.841-1.354 12.805 12.805 0 014.329-3.861c1.73-.955 3.238-1.348 4.523-1.178 1.3.16 2.274.825 2.92 1.995.556 1.01.68 2.049.371 3.118-.318 1.053-1.008 1.999-2.072 2.837z" fill="url(#paint24_linear)"/><path d="M88.418 17c.194.667.393 1.152.595 1.456.203.303.448.489.735.558.287.068.682.049 1.184-.06.203.304.391.754.565 1.351-.982.23-2.149.54-3.502.935-1.459.425-2.68.81-3.667 1.155a5.004 5.004 0 01-.223-1.451c.482-.179.825-.374 1.03-.586.206-.213.303-.498.294-.858.008-.364-.085-.88-.28-1.548l-1.36-4.666c-3.602 1.05-5.991 1.813-7.168 2.29l1.306 4.48c.195.668.394 1.154.596 1.457.203.303.448.489.735.558.287.069.681.049 1.184-.06.187.251.376.701.565 1.352a67.25 67.25 0 00-3.476.927c-1.476.43-2.698.815-3.667 1.154-.174-.597-.257-1.078-.249-1.443.482-.178.825-.374 1.03-.586.205-.212.312-.5.32-.865.008-.365-.085-.881-.28-1.549l-2.988-10.253c-.19-.65-.385-1.127-.588-1.43-.203-.303-.448-.489-.735-.558-.287-.069-.681-.049-1.183.06-.213-.339-.402-.79-.566-1.351a70.18 70.18 0 003.634-.974 74.24 74.24 0 003.51-1.108c.076.263.141.52.195.772.055.251.072.475.053.67-.482.18-.825.375-1.03.587-.205.212-.312.5-.32.865-.008.365.083.872.272 1.522l1.222 4.191 7.221-2.104-1.22-4.191c-.19-.65-.387-1.127-.59-1.43-.184-.308-.42-.497-.707-.566-.287-.069-.682-.05-1.184.06-.226-.316-.423-.764-.592-1.344.964-.224 2.184-.55 3.66-.981a74.89 74.89 0 003.51-1.108c.179.615.262 1.096.248 1.443-.481.178-.825.374-1.03.586-.205.212-.312.5-.32.865-.008.365.083.872.272 1.522L88.418 17z" fill="url(#paint25_linear)"/><path d="M113.139 17.044c.147.433.231.915.254 1.446-.716-.025-1.869-.003-3.46.064-1.7.072-2.897.15-3.589.235-.027-.622.026-1.11.157-1.463.455-.074.78-.18.976-.316a.626.626 0 00.305-.59c-.012-.275-.158-.69-.438-1.246l-.996-2.1c-2.834.12-5.155.264-6.961.432l-.488 1.45c-.212.614-.31 1.122-.293 1.524.016.366.138.644.366.836.227.174.57.269 1.029.286.164.433.258.914.281 1.445-.624-.029-1.558-.017-2.802.036a49.93 49.93 0 00-2.355.183c-.024-.567.029-1.046.159-1.436.471-.112.827-.356 1.068-.732.258-.396.592-1.152 1.003-2.269L102.452.27a5.85 5.85 0 011.338-.194l7.036 14.264c.38.754.688 1.318.924 1.692.235.357.447.613.637.77.207.138.458.219.752.243zm-7.454-5.344l-1.96-4.093a31.492 31.492 0 01-1.4-3.21 58.066 58.066 0 01-.986 3.31l-1.414 4.238 5.76-.245z" fill="url(#paint26_linear)"/><path d="M134.294 17.64c-.138.681-.188 1.203-.15 1.566.039.363.169.641.391.835.222.195.581.36 1.076.498.038.363-.004.85-.128 1.46a67.736 67.736 0 00-3.535-.801 75.175 75.175 0 00-3.783-.683c.109-.538.268-1 .477-1.388.509.066.904.053 1.185-.04.28-.092.499-.3.658-.623.177-.319.334-.819.472-1.5l.965-4.763c-3.677-.745-6.147-1.18-7.41-1.306l-.927 4.574c-.138.682-.188 1.204-.15 1.567.039.362.169.64.391.835.222.195.581.36 1.076.498.049.31.007.796-.128 1.46a67.267 67.267 0 00-3.508-.796 74.167 74.167 0 00-3.783-.682c.123-.61.273-1.075.45-1.394.509.066.904.053 1.185-.04.28-.093.508-.298.685-.617.177-.32.334-.82.472-1.501l2.121-10.467c.135-.664.183-1.177.144-1.54-.038-.362-.169-.64-.391-.835-.222-.195-.58-.36-1.075-.498-.032-.399.011-.885.127-1.459.958.25 2.181.526 3.67.828a74.2 74.2 0 003.622.65 11.27 11.27 0 01-.185.774 2.21 2.21 0 01-.265.619c-.51-.066-.905-.053-1.185.04s-.509.298-.685.617c-.177.32-.333.81-.467 1.475l-.867 4.278 7.372 1.494.867-4.278c.135-.664.183-1.177.144-1.54-.02-.359-.142-.636-.364-.83-.222-.194-.58-.36-1.075-.498-.053-.384-.02-.872.1-1.464.958.25 2.19.527 3.697.833 1.327.269 2.535.485 3.622.65-.127.628-.277 1.092-.451 1.393-.509-.066-.904-.052-1.184.04-.28.093-.509.299-.685.618-.177.319-.333.81-.467 1.474l-2.121 10.466z" fill="url(#paint27_linear)"/><path d="M156.003 26.326c-.301.627-.478 1.12-.53 1.482-.052.36.006.663.174.906.167.243.474.492.919.747-.051.361-.212.822-.482 1.383a67.833 67.833 0 00-3.23-1.646 75.108 75.108 0 00-3.499-1.593 5 5 0 01.804-1.227c.478.189.864.273 1.158.252.295-.02.559-.168.792-.441.25-.266.525-.712.827-1.339l3.846-7.99-10.85 5.26c-.292.691-.382 1.216-.27 1.575.111.358.464.701 1.059 1.028-.028.311-.189.772-.483 1.382a66.894 66.894 0 00-3.205-1.634 73.631 73.631 0 00-3.499-1.592c.27-.56.53-.974.78-1.24.477.19.863.274 1.158.253.294-.021.566-.164.816-.43s.525-.712.827-1.339l4.631-9.623c.294-.61.467-1.096.519-1.456.051-.361-.006-.663-.174-.907-.167-.243-.474-.492-.92-.747.068-.394.229-.855.483-1.382a70.63 70.63 0 003.353 1.705 74.71 74.71 0 003.351 1.521c-.119.247-.242.483-.37.705a2.22 2.22 0 01-.409.535c-.478-.19-.864-.274-1.159-.253-.294.02-.566.164-.816.43-.25.265-.521.704-.815 1.314l-3.846 7.99 10.861-5.284c.294-.651.372-1.152.236-1.502-.112-.358-.453-.705-1.023-1.04.043-.386.196-.85.458-1.395.867.478 1.993 1.05 3.378 1.717a73.716 73.716 0 003.351 1.521c-.278.578-.538.99-.78 1.24-.477-.19-.863-.273-1.158-.252-.294.02-.566.164-.816.43-.25.265-.522.703-.815 1.313l-4.632 9.623z" fill="url(#paint28_linear)"/><path d="M175.338 40.405c-.447.532-.74.967-.88 1.304-.139.337-.158.644-.056.921.103.277.338.594.707.952-.139.337-.409.743-.809 1.22a67.77 67.77 0 00-2.723-2.392 75.672 75.672 0 00-2.997-2.408c.353-.42.714-.751 1.082-.991.416.301.77.478 1.06.53.29.053.583-.024.876-.232.308-.195.685-.56 1.132-1.093l5.7-6.792-11.812 2.416c-.454.599-.671 1.085-.651 1.46.019.375.277.795.772 1.258-.104.295-.374.702-.809 1.22a67.889 67.889 0 00-2.702-2.374 74.646 74.646 0 00-2.997-2.408c.4-.477.754-.813 1.061-1.009.416.302.77.479 1.06.531.29.053.589-.019.897-.215.308-.195.685-.56 1.132-1.093l6.865-8.18c.435-.52.723-.947.862-1.284.139-.337.158-.644.056-.92-.102-.278-.338-.595-.707-.952.163-.365.433-.772.809-1.22a70.724 70.724 0 002.828 2.48 74.217 74.217 0 002.872 2.302c-.177.21-.355.407-.533.592a2.2 2.2 0 01-.529.416c-.416-.301-.769-.478-1.06-.53-.29-.053-.589.018-.897.214-.307.196-.679.553-1.114 1.072l-5.7 6.793 11.829-2.438c.445-.558.645-1.024.599-1.397-.02-.375-.264-.795-.734-1.26.137-.363.4-.776.788-1.239.722.678 1.672 1.51 2.85 2.499a73.482 73.482 0 002.871 2.301c-.412.491-.766.827-1.062 1.009-.416-.301-.769-.478-1.06-.53-.29-.053-.589.018-.897.214-.307.196-.679.553-1.114 1.072l-6.865 8.18zm4.73-16.997c-1.248-1.047-2.012-2.13-2.292-3.25-.279-1.118-.019-2.154.781-3.107.604.22 1.172.553 1.705 1 .112.094.282.261.511.501-.532.891-.778 1.653-.735 2.286.042.633.393 1.226 1.052 1.779.659.553 1.289.783 1.892.692.603-.092 1.268-.501 1.997-1.227.276.183.491.34.645.47.561.47.973.947 1.236 1.43-.8.954-1.809 1.374-3.027 1.26-1.206-.129-2.461-.74-3.765-1.834z" fill="url(#paint29_linear)"/><path d="M195.641 41.39c-3.838 2.47-7.114 4.688-9.829 6.656-.355-.208-.762-.597-1.22-1.168 3.402-3.13 6.348-6.01 8.836-8.64.392.342.866.713 1.421 1.112.57.388 1.04.667 1.412.838.141.38.04.707-.303.982a2.04 2.04 0 01-.317.22zm-12.91 10.537c-.457.367-.943.522-1.457.465-.501-.067-.928-.322-1.284-.765-.378-.471-.547-.945-.508-1.423.051-.463.29-.866.719-1.21.428-.343.898-.474 1.41-.392.526.07.972.334 1.339.79.343.43.475.886.396 1.372-.068.5-.273.888-.615 1.163z" fill="url(#paint30_linear)"/><path d="M199.535 77.98c-.36-1.056-.323-1.968.111-2.736.435-.767 1.102-1.304 2.003-1.611.849-.29 1.654-.226 2.415.19.778.412 1.33 1.094 1.655 2.047.337.987.306 1.858-.094 2.614-.4.755-1.015 1.274-1.847 1.558-.935.32-1.795.294-2.579-.077-.778-.353-1.332-1.015-1.664-1.985z" fill="url(#paint31_linear)"/></g><defs><linearGradient id="paint0_linear" x1="120.943" y1="102.493" x2="184.959" y2="102.493" gradientUnits="userSpaceOnUse"><stop stop-color="#BD0705"/><stop offset="1" stop-color="#FD0302"/></linearGradient><linearGradient id="paint1_linear" x1="117.742" y1="38.831" x2="117.742" y2="102.493" gradientUnits="userSpaceOnUse"><stop stop-color="#B4000E"/><stop offset="1" stop-color="#D70016"/></linearGradient><linearGradient id="paint2_linear" x1="110.33" y1="74.789" x2="89.948" y2="84.561" gradientUnits="userSpaceOnUse"><stop stop-color="#930105"/><stop offset="1" stop-color="#D30015"/></linearGradient><linearGradient id="paint3_linear" x1="104.097" y1="104.346" x2="35.534" y2="86.485" gradientUnits="userSpaceOnUse"><stop stop-color="#D90017"/><stop offset="1" stop-color="#B4000D"/></linearGradient><linearGradient id="paint4_linear" x1="35.532" y1="85.651" x2="92.8" y2="120.949" gradientUnits="userSpaceOnUse"><stop stop-color="#D80118"/><stop offset="1" stop-color="#B3000D"/></linearGradient><linearGradient id="paint5_linear" x1="69.708" y1="123.392" x2="86.291" y2="150.012" gradientUnits="userSpaceOnUse"><stop stop-color="#D80016"/><stop offset="1" stop-color="#B4000D"/></linearGradient><linearGradient id="paint6_linear" x1="57.432" y1="174.745" x2="108.633" y2="131.111" gradientUnits="userSpaceOnUse"><stop stop-color="#B3000D"/><stop offset="1" stop-color="#D60016"/></linearGradient><linearGradient id="paint7_linear" x1="108.476" y1="131.124" x2="159.177" y2="161.536" gradientUnits="userSpaceOnUse"><stop stop-color="#B3000D"/><stop offset="1" stop-color="#D90017"/></linearGradient><linearGradient id="paint8_linear" x1="189.701" y1="86.735" x2="186.411" y2="77.093" gradientUnits="userSpaceOnUse"><stop stop-color="#BD0705"/><stop offset="1" stop-color="#FD0302"/></linearGradient><linearGradient id="paint9_linear" x1="189.701" y1="86.735" x2="186.411" y2="77.093" gradientUnits="userSpaceOnUse"><stop stop-color="#BD0705"/><stop offset="1" stop-color="#FD0302"/></linearGradient><linearGradient id="paint10_linear" x1="189.701" y1="86.735" x2="186.411" y2="77.093" gradientUnits="userSpaceOnUse"><stop stop-color="#BD0705"/><stop offset="1" stop-color="#FD0302"/></linearGradient><linearGradient id="paint11_linear" x1="189.701" y1="86.735" x2="186.411" y2="77.093" gradientUnits="userSpaceOnUse"><stop stop-color="#BD0705"/><stop offset="1" stop-color="#FD0302"/></linearGradient><linearGradient id="paint12_linear" x1="189.701" y1="86.735" x2="186.411" y2="77.093" gradientUnits="userSpaceOnUse"><stop stop-color="#BD0705"/><stop offset="1" stop-color="#FD0302"/></linearGradient><linearGradient id="paint13_linear" x1="189.701" y1="86.735" x2="186.411" y2="77.093" gradientUnits="userSpaceOnUse"><stop stop-color="#BD0705"/><stop offset="1" stop-color="#FD0302"/></linearGradient><linearGradient id="paint14_linear" x1="189.701" y1="86.735" x2="186.411" y2="77.093" gradientUnits="userSpaceOnUse"><stop stop-color="#BD0705"/><stop offset="1" stop-color="#FD0302"/></linearGradient><linearGradient id="paint15_linear" x1="189.701" y1="86.735" x2="186.411" y2="77.093" gradientUnits="userSpaceOnUse"><stop stop-color="#BD0705"/><stop offset="1" stop-color="#FD0302"/></linearGradient><linearGradient id="paint16_linear" x1="189.701" y1="86.735" x2="186.411" y2="77.093" gradientUnits="userSpaceOnUse"><stop stop-color="#BD0705"/><stop offset="1" stop-color="#FD0302"/></linearGradient><linearGradient id="paint17_linear" x1="189.701" y1="86.735" x2="186.411" y2="77.093" gradientUnits="userSpaceOnUse"><stop stop-color="#BD0705"/><stop offset="1" stop-color="#FD0302"/></linearGradient><linearGradient id="paint18_linear" x1="189.701" y1="86.735" x2="186.411" y2="77.093" gradientUnits="userSpaceOnUse"><stop stop-color="#BD0705"/><stop offset="1" stop-color="#FD0302"/></linearGradient><linearGradient id="paint19_linear" x1="189.701" y1="86.735" x2="186.411" y2="77.093" gradientUnits="userSpaceOnUse"><stop stop-color="#BD0705"/><stop offset="1" stop-color="#FD0302"/></linearGradient><linearGradient id="paint20_linear" x1="189.701" y1="86.735" x2="186.411" y2="77.093" gradientUnits="userSpaceOnUse"><stop stop-color="#BD0705"/><stop offset="1" stop-color="#FD0302"/></linearGradient><linearGradient id="paint21_linear" x1="189.701" y1="86.735" x2="186.411" y2="77.093" gradientUnits="userSpaceOnUse"><stop stop-color="#BD0705"/><stop offset="1" stop-color="#FD0302"/></linearGradient><linearGradient id="paint22_linear" x1="189.701" y1="86.735" x2="186.411" y2="77.093" gradientUnits="userSpaceOnUse"><stop stop-color="#BD0705"/><stop offset="1" stop-color="#FD0302"/></linearGradient><linearGradient id="paint23_linear" x1="189.701" y1="86.735" x2="186.411" y2="77.093" gradientUnits="userSpaceOnUse"><stop stop-color="#BD0705"/><stop offset="1" stop-color="#FD0302"/></linearGradient><linearGradient id="paint24_linear" x1="189.701" y1="86.735" x2="186.411" y2="77.093" gradientUnits="userSpaceOnUse"><stop stop-color="#BD0705"/><stop offset="1" stop-color="#FD0302"/></linearGradient><linearGradient id="paint25_linear" x1="189.701" y1="86.735" x2="186.411" y2="77.093" gradientUnits="userSpaceOnUse"><stop stop-color="#BD0705"/><stop offset="1" stop-color="#FD0302"/></linearGradient><linearGradient id="paint26_linear" x1="189.701" y1="86.735" x2="186.411" y2="77.093" gradientUnits="userSpaceOnUse"><stop stop-color="#BD0705"/><stop offset="1" stop-color="#FD0302"/></linearGradient><linearGradient id="paint27_linear" x1="189.701" y1="86.735" x2="186.411" y2="77.093" gradientUnits="userSpaceOnUse"><stop stop-color="#BD0705"/><stop offset="1" stop-color="#FD0302"/></linearGradient><linearGradient id="paint28_linear" x1="189.701" y1="86.735" x2="186.411" y2="77.093" gradientUnits="userSpaceOnUse"><stop stop-color="#BD0705"/><stop offset="1" stop-color="#FD0302"/></linearGradient><linearGradient id="paint29_linear" x1="189.701" y1="86.735" x2="186.411" y2="77.093" gradientUnits="userSpaceOnUse"><stop stop-color="#BD0705"/><stop offset="1" stop-color="#FD0302"/></linearGradient><linearGradient id="paint30_linear" x1="189.701" y1="86.735" x2="186.411" y2="77.093" gradientUnits="userSpaceOnUse"><stop stop-color="#BD0705"/><stop offset="1" stop-color="#FD0302"/></linearGradient><linearGradient id="paint31_linear" x1="189.701" y1="86.735" x2="186.411" y2="77.093" gradientUnits="userSpaceOnUse"><stop stop-color="#BD0705"/><stop offset="1" stop-color="#FD0302"/></linearGradient><clipPath id="clip0"><path transform="matrix(-1 0 0 1 184.959 38.831)" fill="#fff" d="M0 0h149.428v141.976H0z"/></clipPath></defs></svg>