<svg width="77" height="77" viewBox="0 0 77 77" fill="none" xmlns="http://www.w3.org/2000/svg"><path d="M76.769 22.627c-.188-4.098-.839-6.897-1.79-9.346a18.868 18.868 0 00-4.441-6.819 18.875 18.875 0 00-6.82-4.442C61.27 1.07 58.472.42 54.374.233 50.268.045 48.956 0 38.5 0S26.733.045 22.627.231c-4.098.188-6.896.839-9.346 1.79a18.869 18.869 0 00-6.819 4.441 18.872 18.872 0 00-4.442 6.819C1.07 15.73.42 18.529.233 22.626.045 26.733 0 28.044 0 38.5c0 10.457.045 11.768.233 15.874.186 4.098.837 6.897 1.79 9.346a18.867 18.867 0 004.44 6.818 18.864 18.864 0 006.819 4.441c2.448.952 5.247 1.603 9.345 1.79 4.107.187 5.418.231 15.874.231 10.455 0 11.767-.044 15.873-.231 4.098-.187 6.896-.838 9.345-1.79 5.172-2 9.26-6.088 11.26-11.26.952-2.449 1.602-5.247 1.79-9.345.186-4.106.231-5.417.231-15.873s-.045-11.767-.231-15.873zm-6.93 31.43c-.172 3.755-.8 5.793-1.326 7.15a12.749 12.749 0 01-7.307 7.306c-1.356.527-3.395 1.155-7.149 1.326-4.059.186-5.276.224-15.557.224s-11.498-.038-15.558-.224c-3.753-.171-5.792-.799-7.149-1.326a11.93 11.93 0 01-4.426-2.88 11.927 11.927 0 01-2.88-4.426c-.527-1.357-1.155-3.395-1.326-7.15-.185-4.059-.224-5.276-.224-15.556 0-10.281.04-11.498.224-15.558.172-3.754.799-5.793 1.325-7.149a11.936 11.936 0 012.88-4.427 11.92 11.92 0 014.428-2.88c1.356-.527 3.395-1.154 7.149-1.326 4.06-.185 5.277-.224 15.557-.224 10.28 0 11.497.04 15.557.225 3.754.17 5.792.798 7.149 1.325a11.937 11.937 0 014.427 2.88 11.92 11.92 0 012.88 4.427c.527 1.356 1.154 3.395 1.325 7.149.185 4.06.225 5.277.225 15.557 0 10.28-.04 11.498-.225 15.558z" fill="url(#paint0_linear)"/><path d="M38.5 18.73c-10.92 0-19.77 8.851-19.77 19.77 0 10.919 8.85 19.77 19.77 19.77 10.919 0 19.77-8.851 19.77-19.77 0-10.919-8.851-19.77-19.77-19.77zm0 32.603c-7.088 0-12.834-5.746-12.833-12.834 0-7.087 5.745-12.833 12.833-12.833S51.333 31.412 51.333 38.5c0 7.088-5.746 12.834-12.834 12.834z" fill="url(#paint1_linear)"/><path d="M63.671 17.949a4.62 4.62 0 11-9.24 0 4.62 4.62 0 019.24 0z" fill="url(#paint2_linear)"/><defs><linearGradient id="paint0_linear" x1="6.462" y1="70.538" x2="70.538" y2="6.461" gradientUnits="userSpaceOnUse"><stop stop-color="#FFD600"/><stop offset=".5" stop-color="#FF0100"/><stop offset="1" stop-color="#D800B9"/></linearGradient><linearGradient id="paint1_linear" x1="24.52" y1="52.479" x2="52.479" y2="24.52" gradientUnits="userSpaceOnUse"><stop stop-color="#FF6400"/><stop offset=".5" stop-color="#FF0100"/><stop offset="1" stop-color="#FD0056"/></linearGradient><linearGradient id="paint2_linear" x1="55.784" y1="21.215" x2="62.318" y2="14.682" gradientUnits="userSpaceOnUse"><stop stop-color="#F30072"/><stop offset="1" stop-color="#E50097"/></linearGradient></defs></svg>