<svg width="306" height="79" viewBox="0 0 306 79" fill="none" xmlns="http://www.w3.org/2000/svg"><path d="M94.635 61.312c.887-.222.666-.832.444-1.11L68.124 46.504l-.72.777 27.231 14.032z" fill="url(#paint0_linear)"/><path d="M92.324 67.213c.897-.175.708-.795.5-1.084L66.628 51.034l-.761.737 26.458 15.442z" fill="url(#paint1_linear)"/><path d="M91.88 71.872c.898-.175.708-.796.501-1.084L66.183 55.693l-.76.737L91.88 71.872z" fill="url(#paint2_linear)"/><path d="M89.994 75.31c.898-.174.709-.795.502-1.084L64.297 59.131l-.76.738L89.994 75.31z" fill="url(#paint3_linear)"/><path d="M125.527 35.633c.089-.666-.591-.758-.942-.721L64.242 38.85 62.8 39.903c20.484-1.275 61.574-3.826 62.062-3.826.488 0 .647-.296.665-.444z" fill="url(#paint4_linear)"/><path d="M125.796 38.412c.094-.665-.625-.757-.997-.72l-63.802 3.932-1.525 1.052c21.659-1.273 65.105-3.821 65.621-3.821.516 0 .684-.295.703-.443z" fill="url(#paint5_linear)"/><path d="M125.908 41.518c.087-.665-.579-.757-.922-.72L65.985 44.73l-1.41 1.052c20.028-1.273 60.205-3.821 60.682-3.821.477 0 .633-.295.651-.443z" fill="url(#paint6_linear)"/><path d="M126.13 44.513c.087-.665-.579-.757-.922-.72l-59.001 3.932-1.41 1.052c20.028-1.273 60.205-3.821 60.682-3.821.477 0 .633-.296.651-.443z" fill="url(#paint7_linear)"/><path d="M126.019 47.618c.087-.664-.579-.756-.922-.72l-59.001 3.933-1.41 1.052c20.028-1.274 60.205-3.821 60.682-3.821.477 0 .633-.296.651-.444z" fill="url(#paint8_linear)"/><path d="M68.235 33.969l56.239-3.328c1.42-.222 1.775 1.017 1.775 1.664a2.035 2.035 0 01-1.775 1.608L94.802 35.8l-25.568 1.609c-6.123.399-9.54 5.564-10.483 8.097-1.952 3.106-1.072 7.543-.388 9.373 1.597 3.372 5.325 6.249 6.988 7.266l6.046 3.66L87.98 75.843c1.819.843 1.386 2.015.943 2.495-.577 1.199-2.052.5-2.718 0L62.911 64.474c-10.96-4.97-10.408-15.233-8.763-19.744 2.884-8.608 10.593-10.76 14.087-10.76z" fill="url(#paint9_radial)"/><path d="M46.952 34.996l35.243-1.844-7.348-7.33-19.615.35-8.28 8.824z" fill="url(#paint10_linear)"/><path d="M35.22 6.047l11.732 28.95 8.28-8.826L44.479 0l-9.26 6.047z" fill="url(#paint11_linear)"/><path d="M35.22 6.047L29.902 24.42l7.79 11.043 3.452-14.801L35.22 6.047z" fill="url(#paint12_linear)"/><path d="M29.902 24.42L0 25.798l17.377 10.226 20.315-.56-7.79-11.044z" fill="url(#paint13_linear)"/><path d="M31.534 44.358L0 25.798l3.849 11.09 14.997 9.758 12.688-2.288z" fill="url(#paint14_linear)"/><path d="M28.082 61.074l3.452-16.716-12.688 2.288-6.81 28.133 16.046-13.705z" fill="url(#paint15_linear)"/><path d="M12.035 74.779l28.09-23.983.133 13.267-15.021 10.716H12.035z" fill="url(#paint16_linear)"/><path d="M40.124 50.796l27.89 16.955-2.31 10.39-25.446-14.078-.134-13.267z" fill="url(#paint17_linear)"/><path d="M146.348 56.793h-6.845v-3.114h1.852v-13.1h-5.315v13.53l-2.685 2.684H130v-3.114h1.772l.966-.966V40.58h-1.664v-3.114h15.113v3.114h-1.53v13.1h1.691v3.113zm18.035 0h-6.576v-3.114h1.61v-7.623l-6.442 6.013v1.61h1.611v3.114h-6.577v-3.114h1.664v-13.1h-1.664v-3.113h6.577v3.114h-1.611v7.623l6.442-6.013v-1.61h-1.61v-3.114h6.576v3.114h-1.664v13.1h1.664v3.113zm14.452-13.69h-3.141V40.58h-4.671v13.1h2.013v3.113h-6.979v-3.114h1.664v-13.1h-1.664v-3.113h12.778v5.637zm17.235 13.69h-5.986v-3.114h1.852l-1.074-3.033H184.5l-1.073 3.033h1.852v3.114h-5.986v-3.114h1.208l5.637-16.213h3.06l5.664 16.213h1.208v3.114zm-6.147-8.805l-2.228-6.603h-.054l-2.201 6.603h4.483zm27.196 5.692l-3.302 3.113h-6.093l-3.302-3.114v-2.523h3.302v1.557l.966.966h4.161l.966-.966v-3.57l-.966-.967h-4.161V45.52h4.161l.966-.967v-3.006l-.966-.966h-4.161l-.966.966v1.557h-3.302V40.58l3.302-3.114h6.093l3.302 3.114v4.939l-1.449 1.288 1.449 1.37v5.502zm17.751 3.113h-6.818v-3.114h1.852v-5.503h-5.825v5.503h1.852v3.114h-6.818v-3.114h1.664v-13.1h-1.664v-3.113h6.818v3.114h-1.852v4.939h5.825v-4.94h-1.852v-3.113h6.818v3.114h-1.664v13.1h1.664v3.113zm17.795 0h-5.986v-3.114h1.852l-1.074-3.033h-6.362l-1.073 3.033h1.852v3.114h-5.986v-3.114h1.208l5.637-16.213h3.06l5.664 16.213h1.208v3.114zm-6.147-8.805l-2.228-6.603h-.054l-2.201 6.603h4.483zm22.928 8.805h-6.818v-3.114h1.852v-5.503h-5.825v5.503h1.852v3.114h-6.818v-3.114h1.664v-13.1h-1.664v-3.113h6.818v3.114h-1.852v4.939h5.825v-4.94h-1.852v-3.113h6.818v3.114h-1.664v13.1h1.664v3.113zm18.036 0h-6.576v-3.114h1.61v-7.623l-6.442 6.013v1.61h1.61v3.114h-6.576v-3.114h1.664v-13.1h-1.664v-3.113h6.576v3.114h-1.61v7.623l6.442-6.013v-1.61h-1.61v-3.114h6.576v3.114h-1.664v13.1h1.664v3.113zm13.888-22.2l-1.718 1.396h-4.617l-1.718-1.396v-2.2h2.899v1.422h2.255v-1.423h2.899v2.201zm4.16 22.2h-6.576v-3.114h1.61v-7.623l-6.442 6.013v1.61h1.61v3.114h-6.576v-3.114h1.664v-13.1h-1.664v-3.113h6.576v3.114h-1.61v7.623l6.442-6.013v-1.61h-1.61v-3.114h6.576v3.114h-1.664v13.1h1.664v3.113z" fill="#fff"/><path fill="url(#paint18_linear)" d="M130.222 21.741h174.594v2.329H130.222z"/><path fill="url(#paint19_linear)" d="M130.222 72.655h174.594v2.329H130.222z"/><defs><linearGradient id="paint0_linear" x1="95.301" y1="61.312" x2="70.065" y2="61.312" gradientUnits="userSpaceOnUse"><stop stop-color="#9F0002"/><stop offset="1" stop-color="#9F0002" stop-opacity="0"/></linearGradient><linearGradient id="paint1_linear" x1="92.988" y1="67.248" x2="67.788" y2="65.924" gradientUnits="userSpaceOnUse"><stop stop-color="#9F0002"/><stop offset=".906" stop-color="#9F0002" stop-opacity="0"/></linearGradient><linearGradient id="paint2_linear" x1="92.544" y1="71.907" x2="70.842" y2="69.797" gradientUnits="userSpaceOnUse"><stop stop-color="#9F0002"/><stop offset="1" stop-color="#9F0002" stop-opacity="0"/></linearGradient><linearGradient id="paint3_linear" x1="90.659" y1="75.346" x2="74.724" y2="75.399" gradientUnits="userSpaceOnUse"><stop stop-color="#9F0002"/><stop offset="1" stop-color="#9F0002" stop-opacity="0"/></linearGradient><linearGradient id="paint4_linear" x1="124.64" y1="39.904" x2="55.423" y2="39.903" gradientUnits="userSpaceOnUse"><stop stop-color="#A00002"/><stop offset="1" stop-color="#A00002" stop-opacity="0"/></linearGradient><linearGradient id="paint5_linear" x1="124.858" y1="42.676" x2="59.472" y2="42.676" gradientUnits="userSpaceOnUse"><stop stop-color="#A00002"/><stop offset=".922" stop-color="#A00002" stop-opacity="0"/></linearGradient><linearGradient id="paint6_linear" x1="125.04" y1="45.782" x2="64.575" y2="45.782" gradientUnits="userSpaceOnUse"><stop stop-color="#A00002"/><stop offset="1" stop-color="#A00002" stop-opacity="0"/></linearGradient><linearGradient id="paint7_linear" x1="125.262" y1="48.777" x2="64.797" y2="48.777" gradientUnits="userSpaceOnUse"><stop stop-color="#A00002"/><stop offset=".865" stop-color="#A00002" stop-opacity="0"/></linearGradient><linearGradient id="paint8_linear" x1="125.151" y1="51.883" x2="64.686" y2="51.883" gradientUnits="userSpaceOnUse"><stop stop-color="#A00002"/><stop offset=".737" stop-color="#A00002" stop-opacity="0"/></linearGradient><linearGradient id="paint10_linear" x1="46.982" y1="35.038" x2="82.195" y2="35.038" gradientUnits="userSpaceOnUse"><stop stop-color="#BD0705"/><stop offset="1" stop-color="#FD0302"/></linearGradient><linearGradient id="paint11_linear" x1="45.221" y1="0" x2="45.221" y2="35.038" gradientUnits="userSpaceOnUse"><stop stop-color="#B4000E"/><stop offset="1" stop-color="#D70016"/></linearGradient><linearGradient id="paint12_linear" x1="41.144" y1="19.79" x2="29.93" y2="25.164" gradientUnits="userSpaceOnUse"><stop stop-color="#930105"/><stop offset="1" stop-color="#D30015"/></linearGradient><linearGradient id="paint13_linear" x1="37.715" y1="36.058" x2="-.001" y2="26.238" gradientUnits="userSpaceOnUse"><stop stop-color="#D90017"/><stop offset="1" stop-color="#B4000D"/></linearGradient><linearGradient id="paint14_linear" x1="0" y1="25.769" x2="31.512" y2="45.18" gradientUnits="userSpaceOnUse"><stop stop-color="#D80118"/><stop offset="1" stop-color="#B3000D"/></linearGradient><linearGradient id="paint15_linear" x1="18.799" y1="46.541" x2="27.928" y2="61.187" gradientUnits="userSpaceOnUse"><stop stop-color="#D80016"/><stop offset="1" stop-color="#B4000D"/></linearGradient><linearGradient id="paint16_linear" x1="12.047" y1="74.804" x2="40.224" y2="50.804" gradientUnits="userSpaceOnUse"><stop stop-color="#B3000D"/><stop offset="1" stop-color="#D60016"/></linearGradient><linearGradient id="paint17_linear" x1="40.124" y1="50.796" x2="68.021" y2="67.52" gradientUnits="userSpaceOnUse"><stop stop-color="#B3000D"/><stop offset="1" stop-color="#D90017"/></linearGradient><linearGradient id="paint18_linear" x1="151.966" y1="24.077" x2="158.535" y2="-5.518" gradientUnits="userSpaceOnUse"><stop stop-color="#D90017"/><stop offset="1" stop-color="#B4000D"/></linearGradient><linearGradient id="paint19_linear" x1="151.966" y1="74.991" x2="158.535" y2="45.396" gradientUnits="userSpaceOnUse"><stop stop-color="#D90017"/><stop offset="1" stop-color="#B4000D"/></linearGradient><radialGradient id="paint9_radial" cx="0" cy="0" r="1" gradientUnits="userSpaceOnUse" gradientTransform="rotate(21.091 -91.138 157.421) scale(68.123 102.787)"><stop stop-color="#B0000E"/><stop offset="1" stop-color="#F0001B"/></radialGradient></defs></svg>