<svg version="1.1" id="Слой_1" xmlns="http://www.w3.org/2000/svg" x="0" y="0" width="26.5" height="26.5" viewBox="0 0 26.5 26.5" xml:space="preserve"><style>.st0{fill:#d90017}.st1{fill:none;stroke:#d90017;stroke-width:.5}</style><path class="st0" d="M20.2 13.2c0-.2-.1-.3-.2-.4-.1-.1-.3-.2-.4-.2H6.5c-.2 0-.3.1-.4.2-.1.1-.2.3-.2.4 0 .2.1.3.2.4.1.1.3.2.4.2h13.1c.4 0 .6-.2.6-.6z"/><path class="st0" d="M22.4 4.1C18.7.4 13.1-.7 8.2 1.3c-4.9 2-8 6.8-8 12 0 7.2 5.8 13 13 13s13-5.8 13-13c.1-3.5-1.3-6.8-3.8-9.2zM13.2 25C6.7 25 1.5 19.8 1.5 13.3c0-6.5 5.3-11.8 11.8-11.8C19.8 1.5 25 6.7 25 13.3 25 19.8 19.8 25 13.2 25z"/><path class="st1" d="M20.2 13.2c0-.2-.1-.3-.2-.4-.1-.1-.3-.2-.4-.2H6.5c-.2 0-.3.1-.4.2-.1.1-.2.3-.2.4 0 .2.1.3.2.4.1.1.3.2.4.2h13.1c.4 0 .6-.2.6-.6z"/><path class="st1" d="M22.4 4.1C18.7.4 13.1-.7 8.2 1.3c-4.9 2-8 6.8-8 12 0 7.2 5.8 13 13 13s13-5.8 13-13c.1-3.5-1.3-6.8-3.8-9.2zM13.2 25C6.7 25 1.5 19.8 1.5 13.3c0-6.5 5.3-11.8 11.8-11.8C19.8 1.5 25 6.7 25 13.3 25 19.8 19.8 25 13.2 25z"/></svg>