<svg xmlns="http://www.w3.org/2000/svg" width="201.1" height="200.8"><linearGradient id="a" gradientUnits="userSpaceOnUse" x1="94.604" y1="268.908" x2="243.744" y2="91.156" gradientTransform="matrix(1 0 0 -1 0 222.99)"><stop offset="0" stop-color="#fc8d03"/><stop offset="1" stop-color="#fd4505"/></linearGradient><path d="M182.9 68.5c-.5.2-.9.5-1.2.6-.2.2-.4.4-.4.7 0 .2 0 .6.2 1-.2.2-.6.4-1.1.6-.2-.6-.6-1.6-1.3-3.1-.6-1.4-1.1-2.5-1.5-3.2.5-.2.9-.4 1.2-.4.3.5.5.8.7 1.1.3.2.6.3.9.3.4 0 .9-.2 1.5-.4l2.8-1.2c-.7-.8-1.3-1.8-1.8-3-.6-1.3-.8-2.3-.6-3.1.1-.8.5-1.5 1.2-2.1.7-.6 1.7-1.2 3-1.8.6-.3.9-.5 1.2-.7.2-.1.3-.3.4-.6 0-.2 0-.6-.2-1 .3-.2.6-.4 1.1-.6.3.7.7 1.7 1.2 2.9.4 1 .9 1.9 1.3 2.7-.5.2-.9.3-1.2.4-.2-.4-.4-.6-.6-.7-.2-.1-.4-.2-.8-.1-.3.1-.8.2-1.3.5-1.1.5-1.9.9-2.4 1.4-.5.4-.8.9-.9 1.5-.1.5 0 1.1.4 1.9.3.8.7 1.5 1.2 2.2l4.1-1.8c.5-.2.9-.5 1.1-.7.2-.2.4-.4.4-.6 0-.2 0-.5-.2-.9.3-.2.6-.4 1.1-.6.3.7.7 1.7 1.2 2.8.5 1.1.9 2 1.3 2.8-.5.2-.9.3-1.2.4-.2-.4-.4-.6-.6-.8-.2-.1-.4-.2-.8-.1-.3.1-.7.2-1.2.4l-8.2 3.3z" fill="url(#a)"/><linearGradient id="b" gradientUnits="userSpaceOnUse" x1="90.991" y1="265.877" x2="240.131" y2="88.124" gradientTransform="matrix(1 0 0 -1 0 222.99)"><stop offset="0" stop-color="#fc8d03"/><stop offset="1" stop-color="#fd4505"/></linearGradient><path d="M200.1 84.8c-.4.1-.8.2-1.2.1-.2-.4-.5-.7-.9-.8-.4-.2-1.1-.4-2.1-.6l-9.2-2.1c-1.4-.3-2.5-.7-3.1-1.2-.6-.5-1-1.2-1.2-2-.2-.9-.1-1.6.3-2.2.2-.1.4-.2.7-.2.5-.1.8-.1 1.1-.1 0 .6.1 1.3.2 1.9.2.8.4 1.4.8 1.7.4.3.9.6 1.8.9 2.2-1.9 4.4-3.9 6.6-6l1.4-1.4c.3-.3.5-.6.6-.8.1-.2.1-.5.1-.8.3-.2.7-.3 1.2-.4.1.6.3 1.6.6 3 .2 1 .4 2 .7 3-.3.1-.8.1-1.2.1-.1-.4-.2-.7-.4-.9-.1-.2-.3-.2-.5-.2-.3.1-.7.3-1.2.8l-1.5 1.4c-1.4 1.3-2.5 2.3-3.3 3 1.9.5 3.8.9 5.6 1.2.6.1 1.1.2 1.4.1.3-.1.5-.2.5-.4.1-.2.1-.5.1-1 .3-.2.7-.3 1.2-.4.1.6.2 1.3.4 2.1.1.8.3 1.6.5 2.2z" fill="url(#b)"/><linearGradient id="c" gradientUnits="userSpaceOnUse" x1="82.938" y1="259.12" x2="232.078" y2="81.368" gradientTransform="matrix(1 0 0 -1 0 222.99)"><stop offset="0" stop-color="#fc8d03"/><stop offset="1" stop-color="#fd4505"/></linearGradient><path d="M201.1 102.5c-1.1 0-2.4.1-3.9.4-.2-.4-.3-.9-.3-1.5 1-.1 1.7-.4 2.1-.8.5-.4.7-1 .6-1.9v-1l-11 .3c-.6 0-1 .1-1.3.2-.3.1-.5.3-.6.6-.1.3-.2.7-.2 1.2-.3.1-.7.2-1.2.2v-3.4c0-1.5-.1-2.8-.2-3.7.5 0 1 0 1.2.1 0 .6.1 1 .3 1.2.1.3.3.5.6.6.3.1.7.2 1.3.1l11.1-.4v-.9c0-.7-.1-1.2-.4-1.6-.2-.4-.5-.6-.9-.8-.4-.2-.9-.3-1.6-.5 0-.7 0-1.1.2-1.5 1.5.2 2.8.3 3.9.3 0 1 0 3.1.1 6.3s.2 5.5.2 6.5z" fill="url(#c)"/><linearGradient id="d" gradientUnits="userSpaceOnUse" x1="74.161" y1="251.756" x2="223.301" y2="74.004" gradientTransform="matrix(1 0 0 -1 0 222.99)"><stop offset="0" stop-color="#fc8d03"/><stop offset="1" stop-color="#fd4505"/></linearGradient><path d="M193.2 113.5c-.3 2.1-.9 3.6-1.8 4.5-.8.9-2 1.3-3.5 1.1-1.4-.2-2.4-.9-3.1-1.9-.7-1.1-.8-2.6-.5-4.6.5-2.9.8-5.2 1-6.7.6.1 1 .2 1.2.3 0 .4 0 .8.1 1 .1.2.3.4.6.6.3.1.8.3 1.4.4l8.7 1.3c.6.1 1 .1 1.3.1.3 0 .5-.2.7-.4.2-.2.3-.5.4-.9.3-.1.7 0 1.2 0-.2.8-.4 2-.6 3.5-.2 1.4-.4 2.5-.5 3.3-.5-.1-.9-.2-1.2-.3.1-.6 0-1-.1-1.3-.1-.3-.3-.6-.6-.8-.3-.2-.8-.3-1.5-.4l-3.1-.5c0 .5 0 1.1-.1 1.7zm-7.6-1.2c-.2 1 0 1.9.4 2.4.4.6 1.1.9 2.1 1.1 1.2.2 2.1 0 2.8-.6.6-.6 1-1.4 1.2-2.4.1-.4.1-.8.1-1.3l-4-.6c-.6-.1-1.1-.1-1.4-.1-.3.1-.6.2-.7.4-.3.3-.4.7-.5 1.1z" fill="url(#d)"/><linearGradient id="e" gradientUnits="userSpaceOnUse" x1="55.834" y1="236.379" x2="204.974" y2="58.627" gradientTransform="matrix(1 0 0 -1 0 222.99)"><stop offset="0" stop-color="#fc8d03"/><stop offset="1" stop-color="#fd4505"/></linearGradient><path d="M180.4 129.3c.5.2.8.4 1 .7-.2.4-.2.7-.2 1 0 .2.1.5.4.7.2.2.6.4 1.1.7l8.1 3.9c.5.3.9.4 1.2.4.3.1.6 0 .8-.1.2-.1.4-.4.6-.8.3.1.7.2 1.2.4-.4.7-1.3 2.6-2.8 5.5l-1.3 2.7c-1.4 2.8-2.3 4.7-2.6 5.5-.5-.2-.8-.5-1-.7.2-.4.3-.7.2-1 0-.2-.1-.5-.4-.7-.2-.2-.6-.4-1.1-.7l-8.1-3.9c-.5-.3-.9-.4-1.2-.4-.3 0-.6 0-.8.1-.2.1-.4.4-.6.8-.3 0-.7-.2-1.2-.4.4-.8.9-1.7 1.4-2.7.6-1.2 1-2.1 1.4-2.9.5.2.8.5 1 .7-.2.4-.2.7-.2 1 0 .2.1.5.4.7.2.2.6.4 1.1.7l8.1 3.9c.5.2.9.4 1.2.4.3.1.6 0 .8-.1.2-.1.3-.3.5-.6s.4-.8.8-1.5c.3-.7.6-1.2.7-1.5.1-.3.2-.6.1-.8 0-.3-.2-.5-.4-.7-.2-.2-.6-.4-1.1-.6l-8.1-3.9c-.5-.3-.9-.4-1.2-.4-.3 0-.6 0-.8.1-.2.1-.4.4-.6.8-.3 0-.7-.2-1.2-.4.4-.7.9-1.6 1.4-2.7.6-1.5 1-2.4 1.4-3.2z" fill="url(#e)"/><linearGradient id="f" gradientUnits="userSpaceOnUse" x1="41.216" y1="224.114" x2="190.356" y2="46.362" gradientTransform="matrix(1 0 0 -1 0 222.99)"><stop offset="0" stop-color="#fc8d03"/><stop offset="1" stop-color="#fd4505"/></linearGradient><path d="M167.3 151.7c1-1.2 2.1-2.1 3.4-2.6 1.3-.5 2.6-.6 3.9-.4 1.4.3 2.6.9 3.9 1.8 1.2 1 2.1 2.1 2.6 3.3.5 1.3.7 2.6.5 3.9-.2 1.3-.8 2.6-1.7 3.7-.9 1.2-2 2-3.3 2.5-1.3.5-2.6.7-3.9.4-1.3-.2-2.6-.8-3.8-1.8-1.2-.9-2.1-2.1-2.7-3.4-.6-1.3-.8-2.6-.6-3.9.2-1 .7-2.3 1.7-3.5zm.8 1.1c-.5.7-.8 1.5-.8 2.3 0 .8.3 1.7.8 2.5.5.9 1.3 1.7 2.2 2.4 1 .8 2.1 1.4 3.3 1.7 1.1.3 2.2.4 3.2.2s1.8-.7 2.4-1.5c.5-.6.8-1.4.8-2.2 0-.8-.2-1.6-.7-2.5-.5-.8-1.2-1.6-2.2-2.4-1-.8-2.1-1.4-3.2-1.8-1.1-.4-2.2-.5-3.2-.3-1.1.3-2 .8-2.6 1.6z" fill="url(#f)"/><linearGradient id="g" gradientUnits="userSpaceOnUse" x1="26.222" y1="211.533" x2="175.362" y2="33.781" gradientTransform="matrix(1 0 0 -1 0 222.99)"><stop offset="0" stop-color="#fc8d03"/><stop offset="1" stop-color="#fd4505"/></linearGradient><path d="M149.8 170.4c-.4-.1-.7-.3-1-.6-.5-.9-1.3-2-2.3-3.2.1-.2.3-.5.6-.7.3-.2.5-.4.8-.5.8 1 1.7 1.9 2.7 2.8l8.3-6.7c-.7-1.1-1.4-2.2-2.2-3.2.2-.2.4-.5.7-.7.3-.2.5-.4.8-.5 1 1.2 1.9 2.2 2.7 2.9.3.3.4.7.4 1.1l-.3.2c-1 .8-1 2.2-.1 4.4.9 2.1 2.2 4.4 4 6.8.1.1.2.3.4.5.3.3.5.5.7.6.2.1.4.1.7 0l1-.5c.3.2.6.5.9.9-.8.6-2.4 1.9-4.7 3.7-2.2 1.8-3.6 2.9-4.2 3.5-.1-.2-.3-.4-.4-.5-.1-.2-.2-.3-.3-.5.3-.3.5-.6.6-.8.1-.2.1-.5 0-.8-.1-.3-.3-.6-.7-1.1l-5.7-7c-.4-.5-.7-.8-1-1-.3-.2-.5-.2-.7-.2-.2.1-.5.2-.9.5l-.8.6zm11.3 5.2c.3.4.6.7.8.9.2.2.5.3.7.2.3 0 .7-.2 1.2-.6.6-.5.9-.8.9-1.1 0-.2 0-.4-.1-.7-.1-.2-.4-.6-.7-1-1.7-2.4-3-4.4-3.9-6-.9-1.6-1.3-3-1.3-4.1l-3.1 2.5c-.5.4-.8.7-.9.9-.2.3-.2.5-.1.8.1.3.4.7.8 1.2l5.7 7z" fill="url(#g)"/><linearGradient id="h" gradientUnits="userSpaceOnUse" x1="11.812" y1="199.443" x2="160.952" y2="21.691" gradientTransform="matrix(1 0 0 -1 0 222.99)"><stop offset="0" stop-color="#fc8d03"/><stop offset="1" stop-color="#fd4505"/></linearGradient><path d="M143.3 180.9c-.8.4-1.2 1-1.5 1.7-.2.7-.1 1.7.5 2.8.6 1.1 1.3 1.8 2.1 2.2.8.4 1.8.3 2.9-.3l.9-.6-4.9-9.3c-.3-.6-.6-1-.9-1.3-.3-.2-.6-.4-1-.4-.3 0-.8.1-1.3.4-.2-.2-.4-.5-.7-1 .7-.3 1.7-.8 3-1.5 1.5-.8 2.5-1.3 3.1-1.7.3.5.4.9.5 1.1-.4.2-.6.4-.8.7-.1.2-.2.5-.1.8.1.3.2.7.5 1.2l4.1 7.9c.3.5.5.9.7 1.1.2.2.4.3.7.3.2 0 .6-.1 1-.2.2.2.5.6.7 1-.8.4-1.8.8-3 1.5l-1.7.9c-.3.2-.8.4-1.3.7-1.7.9-3.1 1.2-4.3.8-1.2-.3-2.1-1.1-2.7-2.3-.5-.9-.7-1.8-.7-2.7 0-.9.2-1.8.7-2.6.5-.8 1.3-1.5 2.3-2 .6-.3 1.1-.5 1.6-.5.1.1.2.3.2.4.1.2.2.4.2.7-.1-.1-.4 0-.8.2z" fill="url(#h)"/><linearGradient id="i" gradientUnits="userSpaceOnUse" x1="-1.947" y1="187.899" x2="147.193" y2="10.147" gradientTransform="matrix(1 0 0 -1 0 222.99)"><stop offset="0" stop-color="#fc8d03"/><stop offset="1" stop-color="#fd4505"/></linearGradient><path d="M124.7 181c1.5-.4 2.9-.5 4.2-.1 1.3.3 2.4 1 3.4 2 .9 1 1.6 2.2 2.1 3.7.4 1.5.5 2.9.2 4.3-.3 1.3-1 2.5-1.9 3.5-.9 1-2.1 1.7-3.5 2.1-1.4.4-2.8.5-4.1.2-1.3-.3-2.5-.9-3.4-1.9-1-.9-1.7-2.2-2.1-3.7-.4-1.5-.5-2.9-.2-4.3s.9-2.5 1.8-3.6 2.1-1.8 3.5-2.2zm0 1.3c-.8.2-1.5.7-2 1.4s-.7 1.5-.8 2.5c-.1 1 0 2.1.4 3.2.4 1.3.9 2.4 1.6 3.3.7.9 1.5 1.6 2.5 2 .9.4 1.9.5 2.8.2.8-.2 1.4-.7 1.9-1.3.5-.7.8-1.5.9-2.5.1-1 0-2.1-.4-3.2-.4-1.3-.9-2.4-1.6-3.3-.7-1-1.5-1.6-2.4-2.1-.9-.4-1.9-.5-2.9-.2z" fill="url(#i)"/><linearGradient id="j" gradientUnits="userSpaceOnUse" x1="-14.065" y1="177.732" x2="135.075" y2="-.021" gradientTransform="matrix(1 0 0 -1 0 222.99)"><stop offset="0" stop-color="#fc8d03"/><stop offset="1" stop-color="#fd4505"/></linearGradient><path d="M108.5 193.3c-2 .2-3.6-.1-4.7-.6-1.1-.6-1.7-1.6-1.8-3.1-.1-1.4.3-2.5 1.2-3.4.9-.9 2.3-1.4 4.3-1.6 3-.2 5.2-.4 6.7-.6 0 .6 0 1-.1 1.2-.4.1-.7.2-1 .3-.2.1-.4.4-.4.7-.1.3-.1.8 0 1.5l.6 8.8c0 .6.1 1 .2 1.3.1.3.3.5.5.6.2.1.6.2 1 .2.1.3.2.7.2 1.2-.9 0-2.4.1-4.5.3-2.4.2-4.6.4-6.5.6-.2-1.6-.5-2.9-.8-3.7.3-.2.8-.4 1.4-.4.2.9.5 1.6 1.1 2 .5.5 1.5.6 2.7.5l1.9-.1-.4-5.7c-.4-.1-.9 0-1.6 0zm-.8-7.6c-.9.1-1.6.4-2 .9-.5.6-.6 1.3-.6 2.2.1 1.2.5 2.1 1.3 2.5.7.5 1.5.7 2.4.6.4 0 .9-.1 1.4-.2l-.3-4c0-.6-.1-1.1-.3-1.4-.1-.3-.4-.5-.6-.6h-1.3z" fill="url(#j)"/><linearGradient id="k" gradientUnits="userSpaceOnUse" x1="-25.676" y1="167.989" x2="123.463" y2="-9.763" gradientTransform="matrix(1 0 0 -1 0 222.99)"><stop offset="0" stop-color="#fc8d03"/><stop offset="1" stop-color="#fd4505"/></linearGradient><path d="M83.9 186.8c.1-.6.1-1 0-1.3-.1-.3-.2-.5-.4-.7-.2-.1-.5-.3-.9-.4-.1-.3 0-.7 0-1.2.8.2 1.8.3 3 .5 1.3.2 2.3.3 3.2.3-.1.5-.2.9-.3 1.2-.4 0-.8 0-1 .1-.2.1-.4.3-.5.6-.1.3-.2.7-.3 1.3l-.5 4.1c3.1.4 5.2.6 6.3.6l.5-3.9c.1-.6.1-1 0-1.3-.1-.3-.2-.5-.4-.7-.2-.1-.5-.3-.9-.4-.1-.3-.1-.7 0-1.2.8.2 1.8.3 3 .5 1.3.2 2.4.3 3.2.3-.1.5-.2.9-.3 1.2-.4 0-.8 0-1 .1-.2.1-.4.3-.5.6-.1.3-.2.7-.3 1.3l-1.2 8.9c-.1.6-.1 1 0 1.3.1.3.2.5.4.7.2.1.5.3.9.4v1.2c-.8-.2-1.9-.3-3.1-.5-1.1-.1-2.2-.3-3.1-.3 0-.2.1-.4.1-.7 0-.2.1-.4.2-.5.4 0 .8 0 1-.1.2-.1.4-.3.5-.6.1-.3.2-.7.3-1.3l.5-3.6-6.3-.8-.5 3.6c-.1.6-.1 1 0 1.3 0 .3.2.5.4.7.2.1.5.3.9.4.1.3.1.7 0 1.2-.8-.2-1.9-.3-3.2-.5-1.1-.1-2.2-.3-3.1-.3.1-.5.2-.9.3-1.2.4 0 .8 0 1-.1.2-.1.4-.3.5-.6s.2-.7.3-1.3l1.3-8.9z" fill="url(#k)"/><linearGradient id="l" gradientUnits="userSpaceOnUse" x1="-34.278" y1="160.772" x2="114.862" y2="-16.98" gradientTransform="matrix(1 0 0 -1 0 222.99)"><stop offset="0" stop-color="#fc8d03"/><stop offset="1" stop-color="#fd4505"/></linearGradient><path d="M67.4 182.9c-.5-.3-.9-.6-1.1-1 .7-.9 1.3-1.9 1.9-3.2 1.3.5 3 1.1 4.9 1.7 2.9 1 4.9 1.7 6 2-.2.5-.4.9-.5 1.1-.4-.1-.8-.1-1-.1-.2 0-.5.2-.7.5-.2.3-.4.7-.6 1.3l-2.9 8.3c-.2.5-.3 1-.3 1.3 0 .3.1.6.3.7.2.2.4.4.8.5 0 .3-.1.7-.3 1.2-1-.4-2.4-.9-4.3-1.5-2.3-.8-4.4-1.5-6.1-2 .4-1.7.7-2.9.8-3.7.4-.1.9 0 1.4.2-.2.9-.1 1.6.2 2.3.3.7 1.1 1.2 2.3 1.6l1.8.6 2-5.7-1-.3c-.8-.3-1.5-.4-1.9-.3-.4.1-.7.5-1 1.2-.4 0-.8-.1-1.4-.3.3-.7.6-1.5.9-2.4.3-1 .6-1.8.8-2.6.5.2.9.4 1.2.6-.2.7-.2 1.3.1 1.6.2.4.8.7 1.6 1l1 .3 1.2-3.5c.2-.6.3-1.1.3-1.4 0-.3-.1-.6-.3-.9-.2-.2-.6-.4-1.1-.6l-.2-.1c-.9-.3-1.6-.4-2.1-.4-.6 0-1 .2-1.4.5-.3.5-.8.9-1.3 1.5z" fill="url(#l)"/><linearGradient id="m" gradientUnits="userSpaceOnUse" x1="-40.108" y1="155.88" x2="109.032" y2="-21.872" gradientTransform="matrix(1 0 0 -1 0 222.99)"><stop offset="0" stop-color="#fc8d03"/><stop offset="1" stop-color="#fd4505"/></linearGradient><path d="M52.9 175.7c-.5-.4-.8-.8-.9-1.2.8-.7 1.6-1.7 2.4-2.8 1.2.7 2.7 1.6 4.5 2.6 2.7 1.5 4.5 2.5 5.5 3-.3.5-.5.8-.7 1-.4-.2-.7-.3-1-.3-.2 0-.5.1-.7.4-.2.2-.5.6-.8 1.2l-4.4 7.7c-.3.5-.5.9-.5 1.2-.1.3 0 .6.1.8.1.2.4.4.7.7-.1.3-.2.7-.5 1.1-.9-.6-2.2-1.3-3.9-2.3-2.2-1.2-4-2.2-5.6-3.1.7-1.6 1.2-2.8 1.5-3.5.4 0 .8.1 1.4.4-.4.8-.4 1.6-.2 2.3.2.7.8 1.4 2 2l1.6.9 3-5.2-.9-.5c-.8-.4-1.4-.6-1.8-.6-.4.1-.8.4-1.2 1-.4-.1-.8-.2-1.3-.5.4-.6.9-1.4 1.3-2.2.5-.9.9-1.7 1.3-2.4.5.3.9.5 1.1.8-.3.7-.4 1.2-.2 1.6s.6.8 1.4 1.2l.9.5 1.8-3.2c.3-.6.5-1 .6-1.3.1-.3 0-.6-.2-.9-.2-.3-.5-.5-1-.8l-.2-.1c-.8-.4-1.5-.7-2-.8-.6-.1-1.1 0-1.5.2-.5.2-1 .5-1.6 1.1z" fill="url(#m)"/><linearGradient id="n" gradientUnits="userSpaceOnUse" x1="-43.776" y1="152.802" x2="105.363" y2="-24.95" gradientTransform="matrix(1 0 0 -1 0 222.99)"><stop offset="0" stop-color="#fc8d03"/><stop offset="1" stop-color="#fd4505"/></linearGradient><path d="M37.2 178.2c2.7-2.7 5-5.2 6.9-7.3.3.1.7.4 1.2.7-2.2 3.2-4.2 6.1-5.7 8.7l-1.4-.7c-.5-.2-1-.4-1.3-.4-.2-.3-.2-.6.1-.9 0 .1.1 0 .2-.1zm8.7-11c.3-.4.7-.6 1.1-.7.4 0 .8.1 1.2.4.4.3.6.7.7 1.1 0 .4-.1.8-.4 1.1-.3.4-.7.6-1.1.6-.4 0-.9-.1-1.2-.4-.4-.3-.6-.6-.6-1.1 0-.3.1-.7.3-1z" fill="url(#n)"/><linearGradient id="o" gradientUnits="userSpaceOnUse" x1="-42.941" y1="153.503" x2="106.199" y2="-24.249" gradientTransform="matrix(1 0 0 -1 0 222.99)"><stop offset="0" stop-color="#fc8d03"/><stop offset="1" stop-color="#fd4505"/></linearGradient><path d="M19 134.4c.5-.3.9-.5 1.1-.7.2-.2.3-.4.4-.7 0-.2 0-.6-.2-1 .2-.2.6-.4 1.1-.7.2.6.7 1.6 1.4 3s1.2 2.5 1.6 3.2c-.5.2-.9.4-1.2.4-.3-.5-.5-.8-.8-1-.3-.2-.6-.3-1-.3s-.9.2-1.5.5l-2.7 1.3c.7.8 1.4 1.8 1.9 2.9.6 1.2.8 2.3.7 3.1-.1.8-.5 1.5-1.2 2.1-.7.6-1.7 1.2-3 1.9-.5.3-.9.5-1.1.7-.2.2-.3.3-.4.6 0 .2 0 .6.2 1-.3.2-.6.4-1.1.7-.3-.7-.7-1.7-1.3-2.9-.5-1-.9-1.9-1.3-2.7.5-.2.9-.4 1.2-.4.2.4.4.6.6.7.2.1.5.2.8.1.3-.1.8-.2 1.3-.5 1-.5 1.8-1 2.3-1.4.5-.5.8-1 .9-1.5.1-.5-.1-1.1-.4-1.8-.4-.8-.8-1.5-1.2-2.1l-4.1 1.9c-.5.2-.9.5-1.1.7-.2.2-.4.4-.4.6 0 .2 0 .5.2.9-.3.2-.6.4-1.1.7-.3-.7-.7-1.7-1.2-2.8L7 138.1c.5-.2.9-.4 1.2-.4.2.4.4.6.6.8.2.1.4.2.8.1.3-.1.7-.2 1.2-.5l8.2-3.7z" fill="url(#o)"/><linearGradient id="p" gradientUnits="userSpaceOnUse" x1="-39.584" y1="156.32" x2="109.556" y2="-21.432" gradientTransform="matrix(1 0 0 -1 0 222.99)"><stop offset="0" stop-color="#fc8d03"/><stop offset="1" stop-color="#fd4505"/></linearGradient><path d="M1.5 118.5c.4-.1.8-.2 1.2-.2.2.4.5.7.9.8.4.1 1.1.3 2.1.5l9.3 1.9c1.4.3 2.5.7 3.1 1.2.6.5 1.1 1.1 1.3 2 .2.9.1 1.6-.2 2.2-.2.1-.4.2-.7.3-.5.1-.8.2-1.1.1 0-.6-.1-1.3-.2-1.9-.2-.8-.5-1.3-.8-1.7-.4-.3-1-.6-1.8-.8-2.2 2-4.3 4-6.4 6.2-.6.6-1.1 1.1-1.3 1.4-.3.3-.5.6-.6.9-.3.1-.3.4-.3.7-.3.2-.7.3-1.2.4-.1-.6-.3-1.6-.7-3-.2-1-.5-1.9-.8-3 .3-.1.8-.1 1.2-.2.1.4.3.7.4.9.1.2.3.2.5.2.3-.1.7-.4 1.2-.9l1.5-1.4c1.4-1.4 2.5-2.4 3.2-3-1.9-.4-3.8-.8-5.7-1.1-.6-.1-1.1-.1-1.4-.1-.3.1-.4.2-.5.4-.1.2-.1.5-.1 1-.3.2-.7.3-1.2.4-.1-.6-.2-1.3-.4-2.1s-.4-1.6-.5-2.1z" fill="url(#p)"/><linearGradient id="q" gradientUnits="userSpaceOnUse" x1="-31.859" y1="162.802" x2="117.281" y2="-14.95" gradientTransform="matrix(1 0 0 -1 0 222.99)"><stop offset="0" stop-color="#fc8d03"/><stop offset="1" stop-color="#fd4505"/></linearGradient><path d="M0 100.8c1.1 0 2.4-.2 3.9-.5.2.4.3.9.3 1.5-1 .1-1.7.4-2.1.9-.4.4-.6 1.1-.6 1.9l.1 1 11.1-.6c.6 0 1-.1 1.3-.2.3-.1.5-.3.6-.6.1-.3.2-.7.2-1.2.3-.1.7-.2 1.2-.2 0 1 0 2.1.1 3.4.1 1.5.2 2.8.3 3.7-.5 0-1 0-1.2-.1-.1-.6-.2-1-.3-1.2-.1-.3-.4-.4-.7-.5-.3-.1-.7-.1-1.3-.1l-11.1.6v.9c0 .7.2 1.2.4 1.5.2.4.6.6 1 .8.4.2.9.3 1.6.4 0 .7 0 1.1-.2 1.5-1.5-.2-2.8-.3-3.9-.2 0-1-.1-3.1-.2-6.2-.3-3.4-.4-5.5-.5-6.5z" fill="url(#q)"/><linearGradient id="r" gradientUnits="userSpaceOnUse" x1="-23.27" y1="170.008" x2="125.87" y2="-7.744" gradientTransform="matrix(1 0 0 -1 0 222.99)"><stop offset="0" stop-color="#fc8d03"/><stop offset="1" stop-color="#fd4505"/></linearGradient><path d="M7.7 89.5c.3-2.1.8-3.6 1.7-4.6.8-1 2-1.3 3.5-1.1 1.4.2 2.4.8 3.1 1.9.7 1.1.9 2.6.6 4.6-.4 3-.7 5.2-.9 6.7-.6-.1-1-.2-1.2-.3 0-.4 0-.8-.1-1-.1-.2-.3-.4-.6-.6-.3-.1-.8-.2-1.4-.3l-8.7-1.1c-.6-.1-1-.1-1.3 0-.4 0-.6.1-.7.3-.2.2-.3.5-.4.9-.3.1-.7 0-1.2 0 .2-.8.3-2 .6-3.5.1-1.5.3-2.6.3-3.3.6.1.9.2 1.2.3 0 .6 0 1 .1 1.3.1.3.3.6.7.8.3.2.8.3 1.5.4l3.1.4c0-.6 0-1.2.1-1.8zm7.6 1c.1-1.1 0-1.9-.4-2.4-.5-.6-1.1-.9-2.1-1-1.2-.2-2.1.1-2.8.7-.6.6-1 1.4-1.1 2.4-.1.4-.1.8-.1 1.3l4 .5c.6.1 1.1.1 1.4 0 .3-.1.6-.2.7-.5.2-.2.4-.5.4-1z" fill="url(#r)"/><linearGradient id="s" gradientUnits="userSpaceOnUse" x1="-5.385" y1="185.014" x2="143.755" y2="7.262" gradientTransform="matrix(1 0 0 -1 0 222.99)"><stop offset="0" stop-color="#fc8d03"/><stop offset="1" stop-color="#fd4505"/></linearGradient><path d="M20 73.7c-.5-.2-.8-.4-1.1-.6.2-.4.2-.7.2-1 0-.2-.1-.5-.4-.7-.2-.2-.6-.4-1.1-.7L9.5 67c-.5-.2-1-.4-1.3-.4-.3 0-.6 0-.8.2-.2.1-.4.4-.6.8-.3-.1-.7-.2-1.2-.4.4-.7 1.3-2.6 2.6-5.6l1.3-2.7c1.3-2.9 2.2-4.7 2.5-5.6.5.2.8.4 1.1.6-.2.4-.2.7-.2 1 0 .2.1.5.4.7.2.2.6.4 1.1.7l8.2 3.7c.5.2 1 .4 1.3.4.3 0 .6 0 .8-.2.2-.1.4-.4.6-.8.3 0 .7.2 1.2.4-.4.8-.9 1.7-1.3 2.7-.5 1.2-1 2.2-1.3 3-.5-.2-.8-.4-1-.7.2-.4.2-.7.2-1 0-.2-.1-.5-.4-.7-.2-.2-.6-.4-1.1-.7l-8.1-3.7c-.5-.2-.9-.4-1.2-.4-.3-.1-.6 0-.8.1-.2.1-.3.3-.5.6s-.4.8-.8 1.5c-.3.7-.6 1.2-.7 1.6-.1.3-.2.6-.1.8 0 .3.2.5.4.7.2.2.6.4 1.1.6l8.1 3.7c.5.2 1 .4 1.3.4.3 0 .6 0 .8-.2.2-.1.4-.4.6-.8.3 0 .7.1 1.2.4-.4.8-.8 1.7-1.3 2.7-.8 1.5-1.3 2.5-1.6 3.3z" fill="url(#s)"/><linearGradient id="t" gradientUnits="userSpaceOnUse" x1="8.998" y1="197.082" x2="158.138" y2="19.33" gradientTransform="matrix(1 0 0 -1 0 222.99)"><stop offset="0" stop-color="#fc8d03"/><stop offset="1" stop-color="#fd4505"/></linearGradient><path d="M32.5 51.1c-.9 1.2-2 2.1-3.3 2.6-1.3.5-2.6.7-3.9.4-1.4-.2-2.7-.8-3.9-1.7-1.3-.9-2.2-2-2.7-3.3-.5-1.3-.7-2.6-.5-3.9.2-1.3.7-2.6 1.6-3.8.9-1.2 2-2.1 3.2-2.6 1.2-.6 2.5-.7 3.9-.5 1.3.2 2.6.7 3.9 1.7 1.2.9 2.1 2 2.7 3.3.6 1.3.8 2.6.7 3.9-.3 1.4-.8 2.6-1.7 3.9zm-.8-1.2c.5-.7.8-1.5.7-2.3 0-.8-.3-1.7-.9-2.5-.5-.9-1.3-1.6-2.3-2.4-1.1-.8-2.2-1.3-3.3-1.6-1.1-.3-2.2-.3-3.2-.1-1 .2-1.8.8-2.4 1.5-.5.7-.7 1.4-.7 2.2 0 .8.3 1.6.8 2.5.5.8 1.3 1.6 2.2 2.3 1 .8 2.1 1.4 3.3 1.7 1.1.3 2.2.4 3.2.2 1.1-.1 1.9-.6 2.6-1.5z" fill="url(#t)"/><linearGradient id="u" gradientUnits="userSpaceOnUse" x1="24.303" y1="209.924" x2="173.443" y2="32.172" gradientTransform="matrix(1 0 0 -1 0 222.99)"><stop offset="0" stop-color="#fc8d03"/><stop offset="1" stop-color="#fd4505"/></linearGradient><path d="M49.7 31.7c.4.1.7.3 1 .6.5.9 1.3 2 2.3 3.2-.1.2-.3.5-.6.7-.3.2-.5.4-.8.5-.8-1-1.7-1.9-2.7-2.8l-8.2 6.9c.7 1.1 1.4 2.2 2.3 3.1-.2.3-.4.5-.7.7-.3.2-.5.4-.8.5-1-1.2-2-2.1-2.8-2.8-.3-.3-.4-.7-.4-1.1l.3-.3c1-.8 1-2.3 0-4.4-.9-2.1-2.3-4.3-4.1-6.7-.1-.1-.2-.3-.4-.5-.3-.3-.5-.5-.7-.6-.2-.1-.4-.1-.7 0l-1 .5c-.3-.2-.6-.5-.9-.8.8-.6 2.4-1.9 4.6-3.8l4.2-3.6c.1.2.3.3.4.5.1.2.2.3.3.5-.3.3-.5.6-.6.8-.1.2-.1.5 0 .8.1.3.4.6.7 1.1l5.8 6.8c.4.5.7.8 1 1 .3.2.5.2.7.2.2-.1.5-.2.8-.5l1-.5zm-11.4-4.9c-.4-.4-.6-.7-.9-.9-.2-.2-.5-.2-.7-.2-.3 0-.7.2-1.2.6-.6.5-.9.9-.9 1.2 0 .2 0 .4.1.7.1.2.4.6.7 1 1.8 2.3 3.1 4.3 4 5.9.9 1.6 1.4 3 1.3 4.1l3.1-2.6.9-.9c.2-.3.2-.6.1-.8-.1-.3-.4-.7-.8-1.2l-5.7-6.9z" fill="url(#u)"/><linearGradient id="v" gradientUnits="userSpaceOnUse" x1="38.327" y1="221.69" x2="187.467" y2="43.938" gradientTransform="matrix(1 0 0 -1 0 222.99)"><stop offset="0" stop-color="#fc8d03"/><stop offset="1" stop-color="#fd4505"/></linearGradient><path d="M55.6 21.3c.7-.4 1.2-1 1.4-1.7.2-.7 0-1.7-.6-2.8-.6-1.1-1.3-1.8-2.2-2.1-.8-.3-1.8-.2-2.8.4-.3.2-.6.4-.9.7l5.1 9.2c.3.6.6 1 .9 1.3.3.2.6.3 1 .3.3 0 .8-.2 1.3-.4.2.2.4.5.7 1-.7.3-1.7.8-3 1.6-1.4.8-2.5 1.4-3.1 1.8-.3-.5-.4-.9-.5-1.1.4-.2.6-.5.7-.7.1-.2.2-.5.1-.8-.1-.3-.2-.7-.5-1.2l-4.2-8c-.3-.5-.5-.9-.7-1.1-.2-.2-.5-.3-.7-.3-.2 0-.6.1-1 .3-.2-.2-.5-.6-.7-1 .8-.4 1.7-.9 2.9-1.5l1.7-1c.3-.2.8-.4 1.2-.7 1.7-.9 3.1-1.2 4.3-.9 1.2.3 2.1 1 2.7 2.2.5.9.7 1.8.8 2.7 0 .9-.2 1.8-.7 2.7-.5.8-1.2 1.5-2.2 2.1-.6.3-1.1.5-1.5.6-.1-.1-.2-.3-.3-.4-.1-.2-.2-.4-.2-.7.3-.2.6-.3 1-.5z" fill="url(#v)"/><linearGradient id="w" gradientUnits="userSpaceOnUse" x1="52.217" y1="233.344" x2="201.356" y2="55.592" gradientTransform="matrix(1 0 0 -1 0 222.99)"><stop offset="0" stop-color="#fc8d03"/><stop offset="1" stop-color="#fd4505"/></linearGradient><path d="M74.2 20.7c-1.5.5-2.9.5-4.2.2-1.3-.3-2.5-.9-3.4-1.9-1-1-1.7-2.2-2.1-3.7-.5-1.5-.6-2.9-.3-4.3.3-1.3.9-2.5 1.8-3.5s2.1-1.7 3.5-2.2c1.4-.5 2.8-.5 4.1-.3 1.3.4 2.4 1 3.4 1.9 1 .9 1.7 2.1 2.2 3.6.5 1.5.6 2.9.3 4.3s-.8 2.6-1.7 3.6c-1 1.1-2.2 1.8-3.6 2.3zm0-1.4c.8-.3 1.5-.8 1.9-1.5s.7-1.6.8-2.6c.1-1-.1-2.1-.5-3.2-.4-1.3-1-2.3-1.7-3.2-.7-.9-1.6-1.5-2.5-1.9-.9-.4-1.9-.4-2.8-.1-.8.2-1.4.7-1.9 1.3-.5.7-.7 1.5-.8 2.5-.1 1 .1 2.1.4 3.2.4 1.2.9 2.3 1.7 3.3.7.9 1.5 1.6 2.5 2 .9.5 1.9.5 2.9.2z" fill="url(#w)"/><linearGradient id="x" gradientUnits="userSpaceOnUse" x1="64.722" y1="243.836" x2="213.862" y2="66.084" gradientTransform="matrix(1 0 0 -1 0 222.99)"><stop offset="0" stop-color="#fc8d03"/><stop offset="1" stop-color="#fd4505"/></linearGradient><path d="M90.5 7.8c2-.2 3.6 0 4.7.5 1.1.6 1.8 1.6 1.9 3.1.1 1.4-.2 2.5-1.1 3.4-.9.9-2.3 1.5-4.3 1.7-3 .3-5.2.5-6.7.7-.1-.6 0-1 0-1.2.4-.1.7-.2.9-.3.2-.1.4-.4.4-.7.1-.3.1-.8 0-1.5l-.8-8.7c-.1-.6-.1-1-.3-1.3 0-.2-.2-.4-.4-.5-.2-.1-.6-.1-1-.1-.1-.3-.2-.7-.3-1.2.9 0 2.4-.2 4.5-.4 2.4-.2 4.6-.5 6.5-.7.3 1.6.5 2.9.8 3.7-.3.2-.8.4-1.3.4-.2-.9-.6-1.5-1.1-2-.6-.5-1.5-.6-2.7-.5l-1.9.2.5 5.6c.4 0 1-.1 1.7-.2zm.9 7.6c.9-.1 1.6-.4 2-1 .4-.6.6-1.3.5-2.3-.1-1.2-.5-2-1.3-2.5-.7-.5-1.6-.6-2.4-.5-.4 0-.9.1-1.4.2l.4 4c.1.6.2 1.1.3 1.4.2.3.4.5.7.6.3.2.7.2 1.2.1z" fill="url(#x)"/><linearGradient id="y" gradientUnits="userSpaceOnUse" x1="76.439" y1="253.667" x2="225.579" y2="75.915" gradientTransform="matrix(1 0 0 -1 0 222.99)"><stop offset="0" stop-color="#fc8d03"/><stop offset="1" stop-color="#fd4505"/></linearGradient><path d="M114.9 13.7c-.1.6-.1 1 0 1.3.1.3.2.5.4.7.2.1.5.3.9.3.1.3.1.7 0 1.2-.8-.1-1.8-.3-3-.4-1.3-.1-2.4-.2-3.2-.3.1-.5.2-.9.3-1.2.4 0 .8 0 1-.1.2-.1.4-.3.5-.6.1-.3.2-.7.3-1.3l.5-4.1c-3.1-.3-5.3-.5-6.3-.5l-.4 3.9c-.1.6-.1 1 0 1.3.1.3.2.5.4.7.2.1.5.3.9.3.1.3.1.7 0 1.2-.8-.1-1.8-.3-3-.4-1.3-.1-2.4-.2-3.2-.3.1-.5.2-.9.3-1.2.4 0 .8 0 1-.1.2-.1.4-.3.5-.6.1-.3.2-.7.3-1.3l1-8.9c.1-.6.1-1 0-1.3-.1-.3-.2-.5-.4-.7-.2-.1-.5-.3-.9-.3-.1-.3-.1-.7 0-1.2.8.1 1.9.3 3.1.4 1.1.1 2.2.2 3.1.3 0 .2-.1.5-.1.7 0 .2-.1.4-.2.5-.4 0-.8 0-1 .1-.2.1-.4.3-.5.6s-.2.7-.3 1.3l-.4 3.6 6.3.7.4-3.6c.1-.6.1-1 0-1.3 0-.3-.2-.5-.4-.7-.2-.1-.5-.3-.9-.3-.1-.3-.1-.7 0-1.2.8.1 1.9.3 3.2.4 1.1.1 2.2.2 3.1.3-.1.5-.2.9-.3 1.2-.4 0-.8 0-1 .1-.2.1-.4.3-.5.6-.1.3-.2.7-.3 1.3l-1.2 8.9z" fill="url(#y)"/><linearGradient id="z" gradientUnits="userSpaceOnUse" x1="85.41" y1="261.194" x2="234.55" y2="83.442" gradientTransform="matrix(1 0 0 -1 0 222.99)"><stop offset="0" stop-color="#fc8d03"/><stop offset="1" stop-color="#fd4505"/></linearGradient><path d="M131.7 17.2c.5.3.9.6 1.1 1-.6.9-1.3 2-1.8 3.2-1.3-.5-3-1-5-1.6-2.9-.9-4.9-1.5-6-1.9.2-.5.3-.9.5-1.1.4.1.8.1 1 .1.2-.1.5-.2.7-.5.2-.3.4-.7.6-1.3l2.7-8.4c.2-.5.3-1 .3-1.3 0-.3-.1-.6-.3-.7-.2-.2-.5-.4-.9-.5 0-.3.1-.7.3-1.2 1 .4 2.4.8 4.3 1.4 2.4.8 4.4 1.4 6.1 1.9-.4 1.7-.6 3-.7 3.8-.4.1-.9 0-1.4-.1.2-.9.1-1.6-.2-2.3-.3-.7-1.1-1.2-2.3-1.6l-1.8-.6-1.9 5.7 1 .3c.9.3 1.5.3 1.9.2.4-.1.7-.6 1-1.2.4 0 .8.1 1.4.2-.3.7-.6 1.5-.9 2.4-.3 1-.6 1.8-.8 2.6-.5-.2-.9-.4-1.2-.5.2-.7.1-1.3-.1-1.6-.2-.4-.8-.7-1.6-.9l-1-.3-1.2 3.5c-.2.6-.3 1.1-.3 1.4 0 .3.1.6.4.8.2.2.6.4 1.2.6l.2.1c.9.3 1.6.4 2.1.3.6 0 1-.2 1.4-.5.3-.3.7-.8 1.2-1.4z" fill="url(#z)"/><linearGradient id="A" gradientUnits="userSpaceOnUse" x1="91.519" y1="266.32" x2="240.659" y2="88.568" gradientTransform="matrix(1 0 0 -1 0 222.99)"><stop offset="0" stop-color="#fc8d03"/><stop offset="1" stop-color="#fd4505"/></linearGradient><path d="M146.3 24.1c.5.4.8.8.9 1.2-.8.8-1.6 1.7-2.4 2.9-1.2-.7-2.7-1.5-4.6-2.5-2.7-1.4-4.6-2.4-5.6-2.9.3-.5.5-.8.7-1 .4.2.7.3 1 .3.2 0 .5-.1.7-.4.2-.2.5-.6.8-1.2l4.2-7.7c.3-.5.4-.9.5-1.2.1-.3 0-.6-.1-.8-.1-.2-.4-.4-.7-.7.1-.3.2-.7.5-1.1.9.5 2.2 1.3 4 2.2 2.2 1.2 4.1 2.2 5.7 3-.7 1.6-1.2 2.8-1.4 3.6-.4 0-.8-.1-1.4-.4.3-.8.4-1.6.2-2.3-.2-.7-.9-1.4-2-2l-1.6-.9-2.9 5.3.9.5c.8.4 1.4.6 1.8.5.4-.1.8-.4 1.2-1 .4.1.8.2 1.3.5-.4.6-.8 1.4-1.3 2.2-.5.9-.9 1.7-1.2 2.4-.5-.3-.9-.5-1.1-.7.3-.7.4-1.2.2-1.6-.2-.4-.6-.8-1.4-1.2l-.9-.5-1.8 3.3c-.3.6-.5 1-.5 1.3 0 .3 0 .6.2.9.2.2.5.5 1 .8l.2.1c.8.4 1.5.7 2 .7.6.1 1.1 0 1.5-.3.3-.4.9-.7 1.4-1.3z" fill="url(#A)"/><linearGradient id="B" gradientUnits="userSpaceOnUse" x1="95.487" y1="269.649" x2="244.627" y2="91.897" gradientTransform="matrix(1 0 0 -1 0 222.99)"><stop offset="0" stop-color="#fc8d03"/><stop offset="1" stop-color="#fd4505"/></linearGradient><path d="M162.1 21.2c-2.7 2.8-4.9 5.3-6.7 7.4-.3-.1-.7-.3-1.2-.7 2.2-3.2 4-6.2 5.5-8.8.4.2.9.4 1.4.6.5.2 1 .3 1.3.4.2.3.2.6-.1.9 0 .1-.1.2-.2.2zm-8.5 11.2c-.3.4-.7.6-1.1.7-.4 0-.8-.1-1.2-.4-.4-.3-.6-.7-.7-1.1-.1-.4.1-.8.3-1.1.3-.4.6-.6 1.1-.6.4 0 .9.1 1.3.4.4.3.6.6.6 1 0 .5-.1.8-.3 1.1z" fill="url(#B)"/></svg>