<svg xmlns="http://www.w3.org/2000/svg" width="86" height="86" viewBox="0 0 86 86"><linearGradient id="a" gradientUnits="userSpaceOnUse" x1="93.187" y1="62.009" x2="-3.945" y2="46.493" gradientTransform="matrix(1 0 0 -1 0 107)"><stop offset="0" stop-color="red"/><stop offset="1" stop-color="#d90017"/></linearGradient><path d="M79.3 43.1c.2 0 .4.1.5.1 0 .2 0 .3.1.4 0 .1.1.2.2.2.1.1.3.1.6.1l3.8.4h.6c.1 0 .2-.1.3-.2.1-.1.1-.2.1-.4h.5c-.1.4-.2 1.2-.3 2.6l-.1 1.3c-.1 1.3-.2 2.2-.2 2.6-.2 0-.4-.1-.5-.1v-.4c0-.1-.1-.2-.2-.2-.1-.1-.3-.1-.6-.1l-4-.4h-.6c-.1 0-.2.1-.3.2-.1.1-.1.2-.1.4h-.5c.1-.4.1-.8.2-1.3s.1-1 .1-1.4c.2 0 .4.1.5.1 0 .2 0 .3.1.4 0 .1.1.2.2.2.1.1.3.1.6.1l3.8.4h.5c.1 0 .2-.1.3-.2.1.1.1 0 .1-.2 0-.1.1-.4.1-.7 0-.3.1-.6.1-.7 0-.1 0-.3-.1-.3 0-.1-.1-.2-.3-.2-.1 0-.3-.1-.5-.1l-3.8-.4h-.6c-.1 0-.2.1-.3.2-.1.1-.1.2-.1.4H79c.1-.4.1-.8.2-1.3 0-.6.1-1.1.1-1.5z" fill="url(#a)"/><linearGradient id="b" gradientUnits="userSpaceOnUse" x1="94.447" y1="54.118" x2="-2.685" y2="38.603" gradientTransform="matrix(1 0 0 -1 0 107)"><stop offset="0" stop-color="red"/><stop offset="1" stop-color="#d90017"/></linearGradient><path d="M77.3 54c.2-.6.5-1.1 1-1.5.4-.4.9-.6 1.5-.7.6-.1 1.2 0 1.8.2.6.2 1.2.5 1.6 1 .4.4.7.9.8 1.5.1.6.1 1.2-.1 1.7-.2.6-.5 1.1-.9 1.5-.4.4-.9.6-1.5.7-.6.1-1.2.1-1.8-.2-.6-.2-1.1-.5-1.6-1-.4-.4-.7-.9-.8-1.5s-.2-1.1 0-1.7zm.5.3c-.1.4-.1.7 0 1 .1.3.4.6.7.9.3.3.8.5 1.2.7.5.2 1.1.3 1.6.2.5 0 .9-.2 1.3-.4s.6-.5.8-1c.1-.3.1-.7 0-1-.1-.3-.3-.6-.7-.9-.3-.3-.7-.5-1.2-.7-.5 0-1.1-.1-1.6-.1s-.9.1-1.3.4c-.4.2-.6.5-.8.9z" fill="url(#b)"/><linearGradient id="c" gradientUnits="userSpaceOnUse" x1="95.435" y1="47.934" x2="-1.697" y2="32.418" gradientTransform="matrix(1 0 0 -1 0 107)"><stop offset="0" stop-color="red"/><stop offset="1" stop-color="#d90017"/></linearGradient><path d="M73.2 64c-.2 0-.3 0-.5-.1-.3-.3-.8-.6-1.4-1 0-.1.1-.2.1-.4l.3-.3c.5.3 1 .5 1.5.7l2.3-3.9c-.4-.4-.9-.7-1.4-1 0-.1.1-.3.2-.4.1-.1.2-.2.2-.3.6.3 1.1.6 1.5.8.2.1.3.2.3.4l-.1.1c-.3.5-.1 1.1.6 1.8s1.5 1.4 2.6 2.1c.1 0 .1.1.2.1.2.1.3.1.4.2.1 0 .2 0 .3-.1.1-.1.2-.2.3-.4.1 0 .3.1.5.2-.2.4-.7 1.1-1.3 2.2-.6 1-1 1.7-1.2 2-.1-.1-.2-.1-.2-.2l-.2-.2c.1-.2.1-.3.1-.4 0-.1 0-.2-.1-.3-.1-.1-.2-.2-.4-.3l-3.3-2c-.2-.1-.4-.2-.5-.3h-.3l-.3.3-.2.7zm5.3.4c.2.1.4.2.5.2h.3c.1-.1.3-.2.4-.4.2-.3.2-.5.2-.6 0-.1-.1-.2-.2-.3-.1-.1-.2-.2-.4-.3-1-.7-1.9-1.3-2.5-1.9-.6-.5-1-1-1.1-1.5l-.9 1.5c-.1.2-.2.4-.2.5 0 .1 0 .2.1.4.1.1.3.2.5.4l3.3 2z" fill="url(#c)"/><linearGradient id="d" gradientUnits="userSpaceOnUse" x1="96.369" y1="42.086" x2="-.763" y2="26.57" gradientTransform="matrix(1 0 0 -1 0 107)"><stop offset="0" stop-color="red"/><stop offset="1" stop-color="#d90017"/></linearGradient><path d="M72.3 68.9c-.2.3-.4.6-.3.9 0 .3.2.7.6 1 .4.4.8.5 1.2.6.4 0 .8-.2 1.1-.5.1-.1.2-.2.3-.4l-3.4-3c-.2-.2-.4-.3-.6-.4-.2-.1-.3-.1-.4 0-.1.1-.3.2-.4.3-.1 0-.3-.1-.4-.3.2-.2.6-.6 1-1.1.5-.5.8-.9 1-1.2l.4.4c-.1.1-.2.3-.2.4 0 .1 0 .2.1.3.1.1.2.3.4.4l2.9 2.6c.2.2.3.3.5.3.1.1.2.1.3 0 .1 0 .2-.1.3-.2.1.1.3.2.4.3l-1 1-.6.6c-.1.1-.2.3-.4.5-.5.6-1.1.9-1.6 1-.5 0-1-.1-1.4-.5-.3-.3-.5-.6-.7-1-.1-.4-.2-.8-.1-1.2.1-.4.3-.8.6-1.2.2-.2.4-.4.5-.4.1 0 .1.1.2.1.1.1.1.2.2.2-.2.3-.3.4-.5.5z" fill="url(#d)"/><linearGradient id="e" gradientUnits="userSpaceOnUse" x1="97.1" y1="37.511" x2="-.032" y2="21.996" gradientTransform="matrix(1 0 0 -1 0 107)"><stop offset="0" stop-color="red"/><stop offset="1" stop-color="#d90017"/></linearGradient><path d="M65.1 71.5c.5-.4 1.1-.6 1.7-.7.6-.1 1.1 0 1.7.3.5.3 1 .6 1.4 1.2.4.5.7 1.1.7 1.7.1.6 0 1.1-.2 1.7-.2.5-.6 1-1.1 1.4-.5.4-1 .6-1.6.7-.6.1-1.1 0-1.7-.2-.5-.2-1-.6-1.4-1.1-.4-.5-.6-1.1-.7-1.7-.1-.6 0-1.2.2-1.7.2-.7.5-1.2 1-1.6zm.2.6c-.3.2-.5.5-.6.9-.1.4-.1.7.1 1.1.1.4.3.8.7 1.2.3.5.7.8 1.2 1.1.4.3.9.4 1.3.4s.8-.1 1.2-.4c.3-.2.5-.5.5-.8.1-.3.1-.7 0-1.1-.1-.4-.3-.8-.7-1.2-.3-.4-.7-.8-1.2-1.1-.4-.3-.9-.4-1.3-.5-.4 0-.8.1-1.2.4z" fill="url(#e)"/><linearGradient id="f" gradientUnits="userSpaceOnUse" x1="97.574" y1="34.546" x2=".442" y2="19.03" gradientTransform="matrix(1 0 0 -1 0 107)"><stop offset="0" stop-color="red"/><stop offset="1" stop-color="#d90017"/></linearGradient><path d="M60.7 78.9c-.8.4-1.4.5-2 .5-.5-.1-.9-.4-1.2-1-.3-.5-.3-1.1-.1-1.6.2-.5.7-.9 1.5-1.3 1.1-.6 2-1 2.6-1.3.1.2.2.4.2.5-.2.1-.3.2-.3.3-.1.1-.1.2-.1.3 0 .1.1.3.2.6l1.6 3.4c.1.2.2.4.3.5.1.1.2.1.3.2.1 0 .2 0 .4-.1.1.1.2.2.3.4-.3.1-.9.4-1.7.8-.9.5-1.8.9-2.5 1.2-.3-.6-.6-1.1-.9-1.4.1-.1.3-.3.5-.4.2.3.5.5.8.6.3.1.7 0 1.2-.2l.7-.4-1.1-2.2c-.2.3-.4.5-.7.6zM59.2 76c-.3.2-.6.4-.7.7-.1.3 0 .6.1 1 .2.5.5.7.9.8.4.1.7 0 1.1-.1.2-.1.3-.2.5-.3l-.8-1.6c-.1-.2-.2-.4-.3-.5-.1-.1-.2-.1-.3-.1-.1-.1-.3 0-.5.1z" fill="url(#f)"/><linearGradient id="g" gradientUnits="userSpaceOnUse" x1="97.84" y1="32.878" x2=".708" y2="17.362" gradientTransform="matrix(1 0 0 -1 0 107)"><stop offset="0" stop-color="red"/><stop offset="1" stop-color="#d90017"/></linearGradient><path d="M50.2 80c-.1-.2-.1-.4-.2-.5-.1-.1-.2-.2-.3-.2h-.4c-.1-.1-.1-.3-.2-.5.4-.1.8-.2 1.3-.3.5-.1 1-.3 1.3-.4 0 .2.1.4.1.5-.2.1-.3.1-.4.2-.1.1-.1.2-.1.3 0 .1 0 .3.1.6l.4 1.7c1.3-.3 2.2-.6 2.6-.7l-.4-1.6c-.1-.2-.1-.4-.2-.5-.1-.1-.2-.2-.3-.2h-.4c-.1-.1-.1-.3-.2-.5.4-.1.8-.2 1.3-.3.5-.1 1-.3 1.3-.4.1.2.1.4.1.5-.2.1-.3.1-.4.2-.1.1-.1.2-.1.3 0 .1 0 .3.1.6l1 3.7c.1.2.1.4.2.5.1.1.2.2.3.2h.4c.1.1.1.3.2.5-.3.1-.8.2-1.3.3-.5.1-.9.2-1.3.4 0-.1 0-.2-.1-.3v-.2c.2-.1.3-.1.4-.2.1-.1.1-.2.1-.3 0-.1 0-.3-.1-.6l-.4-1.5-2.6.7.4 1.5c.1.2.1.4.2.5.1.1.1.2.2.2h.4c.1.1.1.3.2.5-.3.1-.8.2-1.3.3-.5.1-.9.2-1.3.4-.1-.2-.1-.4-.1-.5.2-.1.3-.1.4-.2.1-.1.1-.2.1-.3 0-.1 0-.3-.1-.6l-.9-3.8z" fill="url(#g)"/><linearGradient id="h" gradientUnits="userSpaceOnUse" x1="97.846" y1="32.838" x2=".715" y2="17.322" gradientTransform="matrix(1 0 0 -1 0 107)"><stop offset="0" stop-color="red"/><stop offset="1" stop-color="#d90017"/></linearGradient><path d="M43.3 81.1c-.3 0-.5-.1-.6-.2.1-.5.2-1 .2-1.6.6 0 1.3-.1 2.2-.1 1.3-.1 2.2-.1 2.7-.2v.5c-.2 0-.3.1-.4.1-.1.1-.2.2-.2.3v.6l.2 3.8c0 .2 0 .4.1.6 0 .1.1.2.2.3.1 0 .2.1.4.1 0 .1.1.3.1.5-.4 0-1.1 0-1.9.1-1.1.1-2 .1-2.7.2-.1-.7-.2-1.3-.3-1.6.1-.1.3-.1.6-.2.1.4.2.7.4.9.2.2.6.3 1.2.3h.8l-.1-2.6h-.5c-.4 0-.6.1-.8.2-.1.1-.2.3-.2.6-.2.1-.3.1-.6.1v-1.1c0-.4-.1-.8-.1-1.2h.6c0 .3.1.5.3.6.2.1.4.1.8.1h.5l-.2-1.6c0-.3 0-.5-.1-.6l-.3-.3c-.1 0-.3-.1-.5 0H45c-.4 0-.7.1-.9.2-.2.1-.4.2-.5.4-.1.2-.2.4-.3.8z" fill="url(#h)"/><linearGradient id="i" gradientUnits="userSpaceOnUse" x1="97.637" y1="34.148" x2=".505" y2="18.632" gradientTransform="matrix(1 0 0 -1 0 107)"><stop offset="0" stop-color="red"/><stop offset="1" stop-color="#d90017"/></linearGradient><path d="M36.4 80.5l-.6-.3c.2-.4.4-.9.5-1.5.6.1 1.3.2 2.2.3 1.3.2 2.2.3 2.7.3 0 .2-.1.4-.1.5h-.4c-.1 0-.2.1-.2.3-.1.1-.1.3-.1.6l-.5 3.7v.6c0 .1.1.2.2.3.1.1.2.1.4.2v.5c-.4-.1-1.1-.2-1.9-.3-1.1-.1-2-.2-2.7-.3v-1.6c.2-.1.4-.1.6-.1 0 .4.1.7.3.9.2.3.6.4 1.1.5l.8.1.3-2.6-.5-.1c-.4 0-.6 0-.8.1-.2.1-.3.3-.3.6h-.6c.1-.3.1-.7.2-1.1.1-.4.1-.8.1-1.2.2 0 .4.1.6.1 0 .3 0 .6.2.7.1.1.4.2.8.3l.5.1.2-1.6v-.6c0-.1-.1-.3-.2-.3-.1-.1-.3-.1-.5-.1h-1l-.6.3c-.4.2-.6.4-.7.7z" fill="url(#i)"/><linearGradient id="j" gradientUnits="userSpaceOnUse" x1="97.314" y1="36.171" x2=".182" y2="20.656" gradientTransform="matrix(1 0 0 -1 0 107)"><stop offset="0" stop-color="red"/><stop offset="1" stop-color="#d90017"/></linearGradient><path d="M30.7 84.1c.6-1.5 1.1-2.9 1.5-4 .1 0 .3 0 .6.1-.4 1.6-.6 3.1-.8 4.4h-1.2c-.1-.1-.2-.2-.1-.4v-.1zm1.7-5.8c.1-.2.2-.3.3-.4.2-.1.3-.1.5 0s.4.2.4.3c.1.1.1.3 0 .5s-.2.3-.3.4c-.2.1-.4.1-.6 0-.2-.1-.3-.2-.4-.3 0-.2 0-.3.1-.5z" fill="url(#j)"/><linearGradient id="k" gradientUnits="userSpaceOnUse" x1="96.102" y1="43.761" x2="-1.03" y2="28.245" gradientTransform="matrix(1 0 0 -1 0 107)"><stop offset="0" stop-color="red"/><stop offset="1" stop-color="#d90017"/></linearGradient><path d="M24.8 74.5c-.1.2-.2.3-.4.4-.2-.1-.3-.2-.4-.2-.1 0-.2 0-.3.1l-.4.4-2.3 3.1c-.1.2-.2.4-.3.5v.3c0 .1.1.2.3.3 0 .1-.1.3-.3.5-.3-.2-1-.7-2.1-1.6l-1-.7c-1.1-.8-1.8-1.3-2.1-1.5.1-.2.3-.3.4-.4.2.1.3.2.4.2.1 0 .2 0 .3-.1l.4-.4 2.3-3.1c.1-.2.2-.4.3-.5v-.3c0-.1-.1-.2-.3-.3 0-.1.1-.3.3-.5.3.2.6.5 1 .8.4.3.8.6 1.1.8-.1.2-.3.3-.4.4-.2-.1-.3-.2-.4-.2-.1 0-.2 0-.3.1l-.4.4-2.2 3.1c-.1.2-.2.3-.3.5-.1.1-.1.2 0 .3 0 .1.1.2.2.3.1.1.3.2.6.4s.5.3.6.4c.1.1.2.1.3.1.1 0 .2 0 .3-.1l.4-.4 2.2-3.1c.1-.2.2-.4.3-.5v-.3c0-.1-.1-.2-.3-.3 0-.1.1-.3.3-.5.3.2.6.5 1 .8.5.4.9.6 1.2.8z" fill="url(#k)"/><linearGradient id="l" gradientUnits="userSpaceOnUse" x1="95.082" y1="50.147" x2="-2.05" y2="34.632" gradientTransform="matrix(1 0 0 -1 0 107)"><stop offset="0" stop-color="red"/><stop offset="1" stop-color="#d90017"/></linearGradient><path d="M16.5 67.5c.4.5.7 1 .8 1.6.1.6.1 1.1-.1 1.7-.2.6-.6 1.1-1 1.5-.5.5-1 .7-1.6.9-.6.1-1.1.1-1.7-.1-.6-.2-1-.5-1.5-1-.4-.5-.7-1-.8-1.6-.1-.6-.1-1.1.1-1.7.2-.6.5-1.1 1-1.5.5-.4 1-.7 1.6-.9.6-.1 1.1-.1 1.7 0 .5.3 1 .6 1.5 1.1zm-.6.2c-.3-.3-.6-.4-.9-.5-.4-.1-.7 0-1.1.2-.4.2-.8.4-1.2.8-.4.4-.7.8-1 1.3-.2.5-.3.9-.3 1.3s.2.8.5 1.1c.2.3.5.4.9.5.3.1.7 0 1.1-.1.4-.2.8-.4 1.2-.8.4-.4.7-.8 1-1.2.2-.4.4-.9.3-1.3 0-.5-.2-.9-.5-1.3z" fill="url(#l)"/><linearGradient id="m" gradientUnits="userSpaceOnUse" x1="93.792" y1="58.219" x2="-3.34" y2="42.704" gradientTransform="matrix(1 0 0 -1 0 107)"><stop offset="0" stop-color="red"/><stop offset="1" stop-color="#d90017"/></linearGradient><path d="M9.9 59c.1-.2.2-.3.3-.4.4-.1.9-.4 1.5-.7.1.1.2.2.2.3.1.1.1.3.2.4-.5.3-.9.6-1.4.9l2.3 4c.5-.2 1-.4 1.5-.7l.3.3c.1.1.1.3.1.4-.6.3-1.1.7-1.4 1-.2.1-.3.1-.5.1v-.2c-.3-.5-.9-.6-1.8-.3-1 .2-2 .6-3.1 1.2-.1 0-.1.1-.2.1-.2.1-.3.2-.3.2-.1.1-.1.2 0 .3 0 .1.1.3.2.4-.1.1-.2.2-.4.3-.2-.4-.6-1.1-1.2-2.2-.6-1-1-1.7-1.2-2 .1 0 .2-.1.3-.1.1 0 .2-.1.2-.1.1.2.2.3.3.3.1.1.2.1.3 0 .1 0 .3-.1.5-.2l3.3-1.9c.2-.1.4-.2.5-.3.1-.1.1-.2.1-.3 0-.1-.1-.2-.1-.4l-.5-.4zm-3 4.4c-.2.1-.4.2-.4.3-.1.1-.1.2-.1.3 0 .1 0 .3.2.5.2.3.3.4.4.5h.3c.1 0 .3-.1.5-.2 1.1-.6 2.1-1 2.8-1.2.8-.3 1.4-.3 1.8-.3l-.9-1.5c-.1-.2-.2-.4-.3-.5-.1-.1-.2-.1-.4-.1-.1 0-.3.1-.6.2l-3.3 2z" fill="url(#m)"/><linearGradient id="n" gradientUnits="userSpaceOnUse" x1="92.791" y1="64.489" x2="-4.341" y2="48.973" gradientTransform="matrix(1 0 0 -1 0 107)"><stop offset="0" stop-color="red"/><stop offset="1" stop-color="#d90017"/></linearGradient><path d="M6 55.8c-.1-.3-.3-.6-.6-.7-.3-.2-.7-.1-1.2 0-.5.2-.9.4-1.1.8-.2.3-.2.7-.1 1.2 0 .1.1.3.2.4L7.5 56c.3 0 .5-.1.6-.2.1-.1.2-.2.2-.4 0-.1 0-.3-.1-.6.1-.1.3-.1.5-.2.1.3.3.8.5 1.4.2.7.4 1.1.5 1.4-.2.1-.4.1-.5.1-.1-.1-.2-.2-.2-.3-.1-.1-.2-.1-.3-.1-.1 0-.3 0-.6.1l-3.6 1.2c-.2.1-.4.2-.5.2-.1.1-.2.2-.2.3v.4c-.1.1-.3.2-.5.2-.1-.4-.2-.8-.4-1.4l-.3-.8c-.1-.2-.1-.4-.2-.6-.3-.8-.3-1.4-.1-1.9.2-.5.6-.8 1.2-1 .4-.1.8-.2 1.2-.1.4.1.8.2 1.1.5.3.3.5.6.7 1.1.1.3.1.5.1.7-.1 0-.1.1-.2.1h-.3s0-.1-.1-.3z" fill="url(#n)"/><linearGradient id="o" gradientUnits="userSpaceOnUse" x1="91.533" y1="72.36" x2="-5.598" y2="56.844" gradientTransform="matrix(1 0 0 -1 0 107)"><stop offset="0" stop-color="red"/><stop offset="1" stop-color="#d90017"/></linearGradient><path d="M7.3 48.2c.1.7 0 1.3-.2 1.8s-.6 1-1.1 1.3c-.5.3-1.1.5-1.7.6-.7.1-1.3.1-1.8-.2-.5-.2-1-.6-1.3-1-.4-.5-.6-1-.7-1.6-.1-.6 0-1.2.2-1.8.2-.5.6-1 1-1.3.5-.3 1-.6 1.7-.7.7-.1 1.3 0 1.8.2.6.2 1 .5 1.4 1 .4.5.6 1.1.7 1.7zm-.6-.1c0-.4-.2-.7-.5-.9-.3-.2-.6-.4-1-.5-.4-.1-.9-.1-1.4 0-.6.1-1.1.2-1.5.5-.4.2-.8.6-1 .9-.2.3-.3.7-.3 1.1 0 .3.2.6.4.9.2.2.6.4 1 .5.4.1.9.1 1.4 0 .6-.1 1.1-.2 1.5-.5.4-.2.8-.5 1-.9.4-.2.5-.7.4-1.1z" fill="url(#o)"/><linearGradient id="p" gradientUnits="userSpaceOnUse" x1="90.346" y1="79.795" x2="-6.786" y2="64.279" gradientTransform="matrix(1 0 0 -1 0 107)"><stop offset="0" stop-color="red"/><stop offset="1" stop-color="#d90017"/></linearGradient><path d="M3.1 40.7c.1-.9.2-1.5.6-2 .3-.4.8-.6 1.4-.6.6 0 1.1.3 1.4.7.3.4.5 1.1.4 1.9-.1 1.3-.1 2.3-.2 3-.2 0-.4 0-.5-.1 0-.2 0-.3-.1-.4 0-.2-.1-.2-.2-.3-.1 0-.3-.1-.6-.1l-3.8-.2H.9c-.1 0-.2.1-.3.2-.1.1-.1.2-.1.4H0c0-.4.1-1 .2-1.9.1-1 .1-2 .2-2.8.7 0 1.2 0 1.6-.1v.6c-.4 0-.7.1-.9.3-.2.2-.4.6-.4 1.1l-.1.8 2.4.2c.1-.2.1-.4.1-.7zm3.3.1c0-.4-.1-.7-.3-.9-.2-.2-.5-.4-.9-.4-.5 0-.9.1-1.1.4-.2.3-.4.6-.4 1v.6l1.7.1H6c.1 0 .2-.1.3-.2 0-.2.1-.4.1-.6z" fill="url(#p)"/><linearGradient id="q" gradientUnits="userSpaceOnUse" x1="89.093" y1="87.635" x2="-8.039" y2="72.12" gradientTransform="matrix(1 0 0 -1 0 107)"><stop offset="0" stop-color="red"/><stop offset="1" stop-color="#d90017"/></linearGradient><path d="M7.3 30.9c.2.1.4.1.6.1.1 0 .2 0 .3-.1.1-.1.1-.2.2-.4.1 0 .3 0 .5.1-.1.3-.2.8-.4 1.3-.1.5-.3 1-.3 1.3-.2-.1-.3-.2-.5-.3v-.4c0-.1-.1-.2-.2-.3-.1 0-.3-.1-.5-.2l-1.7-.5c-.4 1.3-.6 2.2-.7 2.6l1.6.4c.2.1.4.1.6.1.1 0 .2 0 .3-.1.1-.1.1-.2.2-.4.1 0 .3 0 .5.1-.1.3-.2.8-.4 1.2-.1.5-.3 1-.3 1.3-.2-.1-.4-.1-.5-.2v-.4c0-.1-.1-.2-.2-.3 0 .2-.2.1-.4 0l-3.7-1c-.2-.1-.4-.1-.5-.1-.1 0-.2 0-.3.1-.1.1-.1.2-.2.4-.1 0-.3 0-.5-.1.1-.3.2-.8.4-1.3.1-.5.2-.9.3-1.3.1 0 .2.1.3.1.1 0 .2.1.2.1v.4c0 .1.1.2.2.3.1.1.3.1.5.2l1.5.4.7-2.6-1.6-.4c-.2-.1-.4-.1-.5-.1-.1 0-.2 0-.3.1-.1.1-.1.2-.2.4-.1 0-.3 0-.5-.1 0-.3.1-.7.3-1.3.1-.5.2-.9.3-1.3.2.1.4.1.5.2v.4c0 .1.1.2.2.3.1.1.3.1.5.2l3.7 1.1z" fill="url(#q)"/><linearGradient id="r" gradientUnits="userSpaceOnUse" x1="88.059" y1="94.109" x2="-9.073" y2="78.594" gradientTransform="matrix(1 0 0 -1 0 107)"><stop offset="0" stop-color="red"/><stop offset="1" stop-color="#d90017"/></linearGradient><path d="M9.8 24.4c.2-.2.3-.3.5-.4.3.3.8.7 1.2 1-.3.5-.6 1.2-1 2l-1.2 2.4c-.2-.1-.4-.2-.4-.3.1-.2.1-.3.1-.4 0-.1-.1-.2-.2-.3-.1-.1-.3-.2-.5-.3l-3.4-1.7c-.2-.1-.4-.2-.5-.2-.1 0-.2 0-.3.1l-.3.3c-.1 0-.3-.1-.5-.2.2-.4.5-1 .9-1.7.5-1 .9-1.8 1.2-2.5.7.3 1.2.5 1.5.5 0 .2 0 .4-.2.6-.4-.1-.7-.2-1 0-.3.1-.6.4-.8.9l-.4.7L7 26l.2-.4c.2-.3.2-.6.2-.8 0-.2-.2-.3-.5-.5.1-.1.1-.3.2-.5.3.2.6.3 1 .5s.7.4 1 .5c-.1.2-.2.4-.3.5-.3-.1-.5-.1-.7-.1s-.3.3-.5.6l-.2.4 1.4.8c.2.1.4.2.6.2.1 0 .3 0 .4-.1.1-.1.2-.2.3-.5v-.1c.2-.3.3-.6.3-.9 0-.2 0-.5-.1-.6-.1-.1-.3-.4-.5-.6z" fill="url(#r)"/><linearGradient id="s" gradientUnits="userSpaceOnUse" x1="87.199" y1="99.493" x2="-9.933" y2="83.977" gradientTransform="matrix(1 0 0 -1 0 107)"><stop offset="0" stop-color="red"/><stop offset="1" stop-color="#d90017"/></linearGradient><path d="M13.7 18.8c.2-.2.4-.3.6-.3.3.4.6.8 1.1 1.2-.4.5-.8 1.1-1.4 1.8-.8 1-1.3 1.8-1.6 2.2-.2-.1-.3-.3-.4-.4.1-.2.2-.3.2-.4 0-.1 0-.2-.1-.3-.1-.1-.2-.3-.5-.4l-3-2.3c-.2-.1-.4-.2-.5-.3h-.3c-.1 0-.2.1-.3.3-.1 0-.3-.1-.4-.3.3-.3.7-.9 1.2-1.5.6-.8 1.2-1.6 1.6-2.2.6.4 1.1.7 1.4.8 0 .2-.1.4-.3.6-.3-.2-.6-.3-.9-.2-.3 0-.6.3-1 .7l-.5.6 2.1 1.6.3-.4c.2-.3.3-.5.4-.7 0-.2-.1-.4-.4-.6.1-.2.1-.3.3-.5.2.2.5.4.9.7.4.3.7.5.9.7-.1.2-.3.3-.4.4-.3-.2-.5-.2-.7-.2-.2 0-.4.2-.6.5l-.4.2 1.3 1c.2.2.4.3.5.3h.4l.4-.4.1-.1c.2-.3.4-.6.4-.8.1-.2.1-.4 0-.6-.1-.2-.2-.5-.4-.7z" fill="url(#s)"/><linearGradient id="t" gradientUnits="userSpaceOnUse" x1="86.529" y1="103.691" x2="-10.603" y2="88.175" gradientTransform="matrix(1 0 0 -1 0 107)"><stop offset="0" stop-color="red"/><stop offset="1" stop-color="#d90017"/></linearGradient><path d="M13.3 12.1c1 1.3 1.9 2.4 2.7 3.3-.1.1-.2.3-.4.5-1.2-1.1-2.4-2.1-3.4-2.9.1-.2.2-.3.4-.5.1-.2.2-.4.3-.5.1-.1.3 0 .4.1 0-.1 0 0 0 0zm4.2 4.3c.1.2.2.3.2.5s-.1.3-.2.5c-.2.2-.3.2-.5.2s-.3-.1-.5-.2c-.1-.1-.2-.3-.2-.5s.1-.4.2-.5c.1-.1.3-.2.5-.2.3 0 .4.1.5.2z" fill="url(#t)"/><linearGradient id="u" gradientUnits="userSpaceOnUse" x1="85.624" y1="109.352" x2="-11.508" y2="93.837" gradientTransform="matrix(1 0 0 -1 0 107)"><stop offset="0" stop-color="red"/><stop offset="1" stop-color="#d90017"/></linearGradient><path d="M24.6 11.6c-.1-.2-.1-.4-.2-.5.2-.1.3-.2.3-.3.1-.1.1-.2.1-.3 0-.1-.1-.3-.2-.5L23 6.4c-.1-.2-.2-.4-.3-.5-.1-.1-.2-.2-.3-.2-.1 0-.2 0-.4.1-.1-.1-.2-.3-.3-.5.3-.1 1.1-.5 2.4-1.1l1.2-.5c1.2-.6 2-.9 2.4-1.1.1.2.2.4.2.5-.2.1-.3.2-.3.3-.1.1-.1.2-.1.3 0 .1.1.3.2.5l1.6 3.5c.1.2.2.4.3.5.1.1.2.2.3.2.1 0 .2 0 .4-.1.1.1.2.2.3.5-.3.1-.7.3-1.2.5s-.9.4-1.2.6c-.1-.2-.1-.4-.2-.5.2-.1.3-.2.3-.3.1-.1.1-.2.1-.3 0-.1-.1-.3-.2-.5l-1.6-3.5c-.1-.2-.2-.4-.3-.5-.1-.1-.2-.2-.3-.2-.1 0-.2 0-.3.1-.1 0-.4.1-.7.3-.3.1-.5.2-.6.3-.2.2-.3.2-.4.3v.4c0 .1.1.3.2.5l1.6 3.5c.1.2.2.4.3.5.1.1.2.2.3.2.1 0 .2 0 .4-.1.1.1.2.2.3.5-.3.1-.7.3-1.2.5-.6.1-1 .3-1.3.5z" fill="url(#u)"/><linearGradient id="v" gradientUnits="userSpaceOnUse" x1="85.392" y1="110.806" x2="-11.74" y2="95.29" gradientTransform="matrix(1 0 0 -1 0 107)"><stop offset="0" stop-color="red"/><stop offset="1" stop-color="#d90017"/></linearGradient><path d="M34.8 7.8c-.6.1-1.2.1-1.8-.1-.5-.2-1-.5-1.4-1-.4-.5-.6-1-.8-1.7-.1-.7-.1-1.3 0-1.8.2-.6.5-1 .9-1.4.4-.4.9-.7 1.6-.8.6-.1 1.2-.1 1.8.1.6.2 1 .5 1.4.9.4.4.6 1 .8 1.6.1.6.1 1.3 0 1.8-.2.6-.4 1.1-.9 1.5-.5.4-1 .7-1.6.9zm0-.6c.4-.1.7-.3.9-.5.2-.3.4-.6.4-1.1.1-.4 0-.9-.1-1.4-.1-.6-.3-1-.6-1.5-.3-.4-.6-.7-1-.9-.4-.2-.8-.3-1.2-.2-.3.1-.6.2-.8.5-.2.3-.4.6-.4 1-.1.4 0 .9.1 1.4.1.5.3 1 .6 1.5.3.4.6.7 1 1 .3.2.7.3 1.1.2z" fill="url(#v)"/><linearGradient id="w" gradientUnits="userSpaceOnUse" x1="85.585" y1="109.599" x2="-11.547" y2="94.083" gradientTransform="matrix(1 0 0 -1 0 107)"><stop offset="0" stop-color="red"/><stop offset="1" stop-color="#d90017"/></linearGradient><path d="M45.6 6.2c.1.1.2.3.2.5-.1.4-.1 1-.1 1.7-.1 0-.2.1-.4.1-.1 0-.3 0-.4-.1 0-.5 0-1.1-.1-1.7h-4.6c-.2.6-.2 1.1-.2 1.7-.1 0-.3.1-.4.1-.2 0-.3 0-.4-.1 0-.7 0-1.2-.1-1.7 0-.2.1-.3.2-.5h.2c.5 0 .9-.5 1.2-1.4.3-1 .4-2.1.5-3.3v-.3c0-.2 0-.3-.1-.4 0-.1-.1-.1-.2-.2-.1 0-.3-.1-.5-.1 0-.1-.1-.3-.1-.5h4.8v.5c-.2 0-.3 0-.4.1-.1.1-.2.1-.2.3 0 .1-.1.3-.1.6v3.9c0 .3 0 .5.1.6 0 .1.1.2.2.3.1 0 .2.1.4.1h.5zm-2.3-4.8V.9c0-.1-.1-.2-.2-.3-.1-.1-.3-.1-.6-.1s-.5 0-.6.1c-.1.1-.1.1-.1.3v.5c-.1 1.3-.2 2.3-.3 3.1-.2.8-.4 1.4-.7 1.7h1.7c.3 0 .4 0 .6-.1.1 0 .2-.1.3-.3 0-.1.1-.3.1-.6V1.4z" fill="url(#w)"/><linearGradient id="x" gradientUnits="userSpaceOnUse" x1="85.678" y1="109.016" x2="-11.454" y2="93.501" gradientTransform="matrix(1 0 0 -1 0 107)"><stop offset="0" stop-color="red"/><stop offset="1" stop-color="#d90017"/></linearGradient><path d="M50.2 4.4c.4.1.7 0 .9-.2.3-.2.5-.5.6-1.1.1-.5.1-1-.1-1.3-.2-.3-.5-.6-1-.7h-.5l-.9 4.4c-.1.3-.1.5 0 .7 0 .2.1.3.2.4.1.1.3.2.5.2v.5c-.3-.1-.8-.2-1.4-.3-.7 0-1.2-.1-1.5-.1 0-.2.1-.4.1-.5h.4c.1 0 .2-.1.3-.2.1-.2.2-.4.2-.6l.7-3.8c0-.2.1-.4 0-.6 0-.1-.1-.2-.1-.3-.1-.1-.2-.1-.4-.2V.2c.4.1.8.2 1.4.3l.8.2c.2 0 .4.1.6.1.8.2 1.4.5 1.7.9.3.4.4.9.3 1.5-.1.4-.2.8-.5 1.1-.2.3-.5.5-.9.7-.4.1-.8.2-1.3.1-.3-.1-.5-.1-.7-.2v-.2c0-.1.1-.2.1-.3h.5z" fill="url(#x)"/><linearGradient id="y" gradientUnits="userSpaceOnUse" x1="86.25" y1="105.436" x2="-10.882" y2="89.921" gradientTransform="matrix(1 0 0 -1 0 107)"><stop offset="0" stop-color="red"/><stop offset="1" stop-color="#d90017"/></linearGradient><path d="M56.2 9.3c-.6-.3-1.1-.6-1.4-1.1-.3-.5-.5-1-.6-1.6-.1-.6 0-1.2.3-1.8.3-.6.6-1.1 1.1-1.5.5-.4 1-.6 1.6-.7.6-.1 1.2 0 1.7.2.6.2 1.1.6 1.4 1 .4.5.6 1 .6 1.5.1.6 0 1.2-.3 1.8-.2.9-.6 1.4-1.1 1.8-.5.4-1 .6-1.6.7-.5.1-1.1 0-1.7-.3zm.4-.4c.4.1.7.1 1 0 .3-.1.7-.3.9-.6.3-.3.5-.7.7-1.2.2-.5.3-1 .3-1.5s-.1-.9-.3-1.3c-.2-.4-.5-.7-.9-.8-.3-.1-.7-.2-1-.1-.3.1-.7.3-.9.6-.3.3-.5.7-.7 1.2-.2.5-.3 1-.4 1.5 0 .5.1 1 .3 1.3.3.4.6.7 1 .9z" fill="url(#y)"/><linearGradient id="z" gradientUnits="userSpaceOnUse" x1="86.906" y1="101.33" x2="-10.226" y2="85.814" gradientTransform="matrix(1 0 0 -1 0 107)"><stop offset="0" stop-color="red"/><stop offset="1" stop-color="#d90017"/></linearGradient><path d="M64.6 9.3c.7.5 1.2 1 1.4 1.5.2.5.2 1-.2 1.6-.3.5-.8.8-1.3.9-.5.1-1.2-.1-1.9-.6-1.1-.7-1.9-1.2-2.4-1.6.1-.2.2-.3.3-.4.2.1.3.1.4.1.1 0 .2 0 .3-.1.1-.1.2-.3.4-.5L63.8 7c.2-.2.2-.4.3-.5v-.3c0-.1-.1-.2-.3-.3 0-.1.1-.3.2-.5.3.2.8.6 1.6 1.1.9.5 1.6 1.1 2.3 1.5-.3.6-.6 1.1-.7 1.5-.2 0-.4-.1-.6-.2.2-.3.2-.7.2-1-.1-.3-.3-.6-.8-1l-.7-.4-1.3 2c.2.1.4.3.6.4zm-1.7 2.8c.3.2.6.3.9.2.3-.1.6-.3.8-.6.3-.4.4-.8.2-1.2-.1-.4-.3-.6-.7-.8-.1-.1-.3-.2-.5-.3l-1 1.5c-.2.2-.2.4-.3.6 0 .1 0 .3.1.4.2 0 .3.1.5.2z" fill="url(#z)"/><linearGradient id="A" gradientUnits="userSpaceOnUse" x1="87.905" y1="95.075" x2="-9.227" y2="79.559" gradientTransform="matrix(1 0 0 -1 0 107)"><stop offset="0" stop-color="red"/><stop offset="1" stop-color="#d90017"/></linearGradient><path d="M71.1 17.9l-.4.4c-.1.1-.1.2 0 .3 0 .1.1.2.2.4-.1.1-.2.3-.3.4-.2-.3-.5-.6-.9-.9l-1-1c.1-.1.3-.2.4-.3.1.1.3.2.4.2.1 0 .2 0 .3-.1.1-.1.3-.2.4-.4l1.2-1.2c-1-1-1.6-1.6-2-1.9L68.2 15l-.4.4c-.1.1-.1.2 0 .3 0 .1.1.2.2.4 0 .1-.2.2-.3.4-.2-.3-.5-.6-.9-.9l-1-1c.2-.2.3-.3.4-.3.1.1.3.2.4.2h.3c.1-.1.3-.2.4-.4l2.7-2.7c.2-.2.3-.3.3-.4.1-.1.1-.2 0-.3 0-.1-.1-.2-.2-.4.1-.1.2-.3.3-.4.2.3.6.6.9 1 .3.3.7.7 1 .9l-.2.2c-.1.1-.1.1-.2.1.1 0 0-.1-.1-.1h-.3c-.1.1-.3.2-.4.4L70 13.5l1.9 1.9 1.1-1.1c.2-.2.3-.3.3-.4.1-.1.1-.2.1-.3s-.1-.2-.2-.4c.1-.1.2-.3.3-.4.2.3.6.6.9 1 .3.3.7.7 1 .9-.2.2-.3.3-.4.3-.1-.1-.3-.2-.4-.2h-.3c-.1.1-.3.2-.4.4l-2.8 2.7z" fill="url(#A)"/><linearGradient id="B" gradientUnits="userSpaceOnUse" x1="88.942" y1="88.582" x2="-8.19" y2="73.067" gradientTransform="matrix(1 0 0 -1 0 107)"><stop offset="0" stop-color="red"/><stop offset="1" stop-color="#d90017"/></linearGradient><path d="M75.5 23.2c.1.2.1.5.1.6-.5.1-.9.3-1.5.6-.3-.5-.7-1.1-1.2-1.9-.7-1.1-1.2-1.8-1.5-2.2.2-.1.4-.2.5-.2l.3.3c.1.1.2 0 .3 0 .1 0 .3-.1.6-.3l3.1-2.1c.2-.1.3-.3.4-.4.1-.1.1-.2.1-.3 0-.1-.1-.2-.1-.4.1-.1.2-.2.4-.3.2.4.6.9 1.1 1.6.6.9 1.1 1.6 1.6 2.3-.6.5-1 .8-1.2 1.1-.2-.1-.3-.2-.4-.4.3-.2.5-.5.5-.8.1-.3-.1-.7-.4-1.2l-.4-.7-2.3 1.5.3.4c.2.3.4.5.6.6.2.1.4 0 .6-.2l.4.4-.9.6c-.4.2-.7.5-.9.7-.1-.2-.2-.4-.3-.5.3-.2.4-.4.4-.6 0-.2-.1-.4-.3-.7l-.3-.4-1.3.9c-.2.2-.4.3-.5.4-.1.1-.1.2-.1.4 0 .1.1.3.2.5v.1c.2.3.4.6.6.7.2.1.4.2.6.2.3-.1.5-.2.9-.3z" fill="url(#B)"/><linearGradient id="C" gradientUnits="userSpaceOnUse" x1="90.002" y1="81.945" x2="-7.13" y2="66.429" gradientTransform="matrix(1 0 0 -1 0 107)"><stop offset="0" stop-color="red"/><stop offset="1" stop-color="#d90017"/></linearGradient><path d="M78.5 29.4c.1.3.1.5 0 .7-.5 0-1 .2-1.5.3-.2-.6-.5-1.2-.9-2.1-.5-1.2-.9-2-1.1-2.5.2-.1.4-.1.5-.2.1.2.2.3.3.3.1.1.2.1.3.1.1 0 .3-.1.6-.2l3.5-1.5c.2-.1.4-.2.5-.3.1-.1.2-.2.2-.3 0-.1 0-.2-.1-.4.1-.1.3-.2.5-.3.2.4.4 1 .7 1.8.4 1 .8 1.8 1.1 2.5-.7.4-1.1.6-1.4.8-.1-.1-.3-.3-.4-.5.3-.2.5-.4.7-.7.1-.3.1-.7-.1-1.2l-.3-.7-2.4 1 .2.4c.2.4.3.6.5.7.2.1.4.1.7 0 .1.1.2.3.3.5-.3.1-.6.2-1 .4s-.8.3-1.1.5c-.1-.2-.2-.4-.2-.5.3-.2.5-.3.5-.5s0-.4-.2-.8l-.2-.4-1.5.6c-.2.1-.4.2-.5.3-.1.1-.2.2-.2.4 0 .1 0 .3.1.5v.1c.2.4.3.6.5.8.2.2.4.3.6.3.2.2.5.2.8.1z" fill="url(#C)"/><linearGradient id="D" gradientUnits="userSpaceOnUse" x1="90.95" y1="76.012" x2="-6.182" y2="60.496" gradientTransform="matrix(1 0 0 -1 0 107)"><stop offset="0" stop-color="red"/><stop offset="1" stop-color="#d90017"/></linearGradient><path d="M84.5 32.4c-1.6.2-3 .5-4.2.7-.1-.1-.2-.3-.2-.6 1.6-.5 3-1 4.2-1.5l.3.6c.1.2.2.4.3.5 0 .1-.1.2-.2.3h-.2zM78.7 34c-.2.1-.4 0-.5-.1-.2-.1-.3-.2-.3-.4-.1-.2 0-.4 0-.5.1-.1.2-.2.4-.3.2 0 .4 0 .5.1.2.1.3.3.3.5s0 .4-.1.5c-.1 0-.2.1-.3.2z" fill="url(#D)"/></svg>