<svg version="1.1" id="Слой_1" xmlns="http://www.w3.org/2000/svg" x="0" y="0" width="36.5" height="36.5" viewBox="0 0 36.5 36.5" xml:space="preserve"><style>.st0{fill:#17c128}.st1{fill:none;stroke:#17c128;stroke-width:.5}</style><path class="st0" d="M27.9 18.2c0-.2-.1-.4-.2-.6-.2-.2-.4-.2-.6-.2h-8V9c0-.5-.4-.8-.8-.8-.5 0-.8.4-.8.8v8.4H9.1c-.2 0-.4.1-.6.2-.2.2-.2.4-.2.6 0 .2.1.4.2.6 0 .2.3.3.5.3h8.4v8c0 .2.1.4.2.6.2.2.4.2.6.2.2 0 .4-.1.6-.2.2-.2.2-.4.2-.6v-8h8c.6 0 .9-.4.9-.9z"/><path class="st0" d="M31 5.5C25.9.4 18.1-1.2 11.4 1.6 4.6 4.4.2 11 .3 18.3c0 9.9 8.1 18 18 18s18-8.1 18-18c0-4.8-1.9-9.4-5.3-12.8zM18.2 34.6c-9 0-16.3-7.3-16.3-16.3S9.2 2 18.2 2s16.3 7.3 16.3 16.3c.1 9-7.2 16.3-16.3 16.3z"/><path class="st1" d="M27.9 18.2c0-.2-.1-.4-.2-.6-.2-.2-.4-.2-.6-.2h-8V9c0-.5-.4-.8-.8-.8-.5 0-.8.4-.8.8v8.4H9.1c-.2 0-.4.1-.6.2-.2.2-.2.4-.2.6 0 .2.1.4.2.6 0 .2.3.3.5.3h8.4v8c0 .2.1.4.2.6.2.2.4.2.6.2.2 0 .4-.1.6-.2.2-.2.2-.4.2-.6v-8h8c.6 0 .9-.4.9-.9z"/><path class="st1" d="M31 5.5C25.9.4 18.1-1.2 11.4 1.6 4.6 4.4.2 11 .3 18.3c0 9.9 8.1 18 18 18s18-8.1 18-18c0-4.8-1.9-9.4-5.3-12.8zM18.2 34.6c-9 0-16.3-7.3-16.3-16.3S9.2 2 18.2 2s16.3 7.3 16.3 16.3c.1 9-7.2 16.3-16.3 16.3z"/></svg>