<?xml version="1.0" encoding="utf-8"?>
<!-- Generator: Adobe Illustrator 21.1.0, SVG Export Plug-In . SVG Version: 6.00 Build 0)  -->
<svg version="1.1" id="Слой_1" xmlns="http://www.w3.org/2000/svg" xmlns:xlink="http://www.w3.org/1999/xlink" x="0px" y="0px"
	 width="36.5px" height="36.5px" viewBox="0 0 36.5 36.5" style="enable-background:new 0 0 36.5 36.5;" xml:space="preserve">
<style type="text/css">
	.st0{fill:#17C128;}
	.st1{fill:none;stroke:#17C128;stroke-width:0.5;}
</style>
<path class="st0" d="M27.9,18.2c0-0.2-0.1-0.4-0.2-0.6c-0.2-0.2-0.4-0.2-0.6-0.2l-8,0V9c0-0.5-0.4-0.8-0.8-0.8
	c-0.5,0-0.8,0.4-0.8,0.8v8.4l-8.4,0c-0.2,0-0.4,0.1-0.6,0.2c-0.2,0.2-0.2,0.4-0.2,0.6c0,0.2,0.1,0.4,0.2,0.6C8.5,19,8.8,19.1,9,19.1
	h8.4v8c0,0.2,0.1,0.4,0.2,0.6c0.2,0.2,0.4,0.2,0.6,0.2c0.2,0,0.4-0.1,0.6-0.2c0.2-0.2,0.2-0.4,0.2-0.6l0-8h8
	C27.6,19.1,27.9,18.7,27.9,18.2z"/>
<path class="st0" d="M31,5.5c-5.1-5.1-12.9-6.7-19.6-3.9C4.6,4.4,0.2,11,0.3,18.3c0,9.9,8.1,18,18,18c9.9,0,18-8.1,18-18
	C36.3,13.5,34.4,8.9,31,5.5z M18.2,34.6c-9,0-16.3-7.3-16.3-16.3c0-9,7.3-16.3,16.3-16.3c9,0,16.3,7.3,16.3,16.3
	C34.6,27.3,27.3,34.6,18.2,34.6z"/>
<path class="st1" d="M27.9,18.2c0-0.2-0.1-0.4-0.2-0.6c-0.2-0.2-0.4-0.2-0.6-0.2l-8,0V9c0-0.5-0.4-0.8-0.8-0.8
	c-0.5,0-0.8,0.4-0.8,0.8v8.4l-8.4,0c-0.2,0-0.4,0.1-0.6,0.2c-0.2,0.2-0.2,0.4-0.2,0.6c0,0.2,0.1,0.4,0.2,0.6C8.5,19,8.8,19.1,9,19.1
	h8.4v8c0,0.2,0.1,0.4,0.2,0.6c0.2,0.2,0.4,0.2,0.6,0.2c0.2,0,0.4-0.1,0.6-0.2c0.2-0.2,0.2-0.4,0.2-0.6l0-8h8
	C27.6,19.1,27.9,18.7,27.9,18.2z"/>
<path class="st1" d="M31,5.5c-5.1-5.1-12.9-6.7-19.6-3.9C4.6,4.4,0.2,11,0.3,18.3c0,9.9,8.1,18,18,18c9.9,0,18-8.1,18-18
	C36.3,13.5,34.4,8.9,31,5.5z M18.2,34.6c-9,0-16.3-7.3-16.3-16.3c0-9,7.3-16.3,16.3-16.3c9,0,16.3,7.3,16.3,16.3
	C34.6,27.3,27.3,34.6,18.2,34.6z"/>
</svg>
