<svg width="28" height="28" viewBox="0 0 28 28" fill="none" xmlns="http://www.w3.org/2000/svg"><path d="M18.93 9.043a.602.602 0 00-.853 0l-4.094 4.093-4.305-4.305a.603.603 0 10-.853.853l4.306 4.305-4.306 4.305a.602.602 0 00.43 1.028c.16 0 .314-.063.429-.175l4.305-4.305 4.094 4.093a.594.594 0 00.43.176.602.602 0 00.43-1.028l-4.095-4.094 4.094-4.094a.613.613 0 00-.012-.852z" fill="#D90017"/><path d="M14.001 1A12.999 12.999 0 004.81 23.192c5.076 5.077 13.307 5.077 18.383 0 5.076-5.076 5.076-13.306 0-18.382A12.918 12.918 0 0014 1zm8.34 21.34c-4.596 4.596-12.077 4.596-16.678 0-4.604-4.605-4.604-12.07 0-16.676 4.606-4.604 12.071-4.604 16.676 0 4.605 4.605 4.606 12.07.001 16.676z" fill="#D90017"/><path d="M18.93 9.043a.602.602 0 00-.853 0l-4.094 4.093-4.305-4.305a.603.603 0 10-.853.853l4.306 4.305-4.306 4.305a.602.602 0 00.43 1.028c.16 0 .314-.063.429-.175l4.305-4.305 4.094 4.093a.594.594 0 00.43.176.602.602 0 00.43-1.028l-4.095-4.094 4.094-4.094a.613.613 0 00-.012-.852z" stroke="#D90017" stroke-width=".5"/><path d="M14.001 1A12.999 12.999 0 004.81 23.192c5.076 5.077 13.307 5.077 18.383 0 5.076-5.076 5.076-13.306 0-18.382A12.918 12.918 0 0014 1zm8.34 21.34c-4.596 4.596-12.077 4.596-16.678 0-4.604-4.605-4.604-12.07 0-16.676 4.606-4.604 12.071-4.604 16.676 0 4.605 4.605 4.606 12.07.001 16.676z" stroke="#D90017" stroke-width=".5"/></svg>