<svg width="305" height="305" viewBox="0 0 305 305" fill="none" xmlns="http://www.w3.org/2000/svg"><g clip-path="url(#clip0)"><path d="M167.368 141.796l88.705-4.64-18.492-18.441-49.372.881-20.841 22.2z" fill="url(#paint0_linear)"/><path d="M137.839 68.972l29.529 72.823 20.841-22.199-27.064-65.834-23.306 15.21z" fill="url(#paint1_linear)"/><path d="M137.839 68.972l-13.385 46.219 19.608 27.779 8.688-37.234-14.911-36.764z" fill="url(#paint2_linear)"/><path d="M124.454 115.191l-75.261 3.465 43.736 25.723 51.133-1.409-19.608-27.779z" fill="url(#paint3_linear)"/><path d="M128.563 165.346l-79.37-46.689 9.686 27.896 37.748 24.548 31.936-5.755z" fill="url(#paint4_linear)"/><path d="M119.875 207.395l8.688-42.05-31.936 5.756-17.142 70.767 40.39-34.473z" fill="url(#paint5_linear)"/><path d="M79.485 241.868l70.699-60.328.335 33.372-37.806 26.956H79.485z" fill="url(#paint6_linear)"/><path d="M150.184 181.54l70.196 42.651-5.812 26.134-64.049-35.413-.335-33.372z" fill="url(#paint7_linear)"/></g><path d="M278.777 154.633a5.058 5.058 0 01.451-1.633c.233-.484.479-.851.736-1.103.468-.075 1.092-.069 1.872.019.932.105 1.69.279 2.275.523-.29.988-.471 1.809-.545 2.463-.084.756.046 1.408.393 1.957.371.551 1.126 1.095 2.265 1.631 1.185.567 2.858 1.111 5.018 1.634 2.157.548 4.626 1.042 7.407 1.482l1.129.165c.629.071 1.104.047 1.423-.07.341-.089.61-.327.806-.713.197-.385.381-1.002.552-1.85.546-.092 1.222-.092 2.028-.002-.271 1.729-.672 4.961-1.203 9.695-.523 4.658-.832 7.747-.926 9.267-.881-.099-1.54-.25-1.976-.452.029-.71-.038-1.253-.2-1.628-.162-.376-.473-.666-.935-.87-.461-.205-1.158-.36-2.09-.464l-14.693-1.65c-.957-.107-1.683-.112-2.179-.015-.495.098-.863.311-1.104.641-.241.33-.427.845-.556 1.544-.496.098-1.171.098-2.027.002.231-1.376.455-3.034.673-4.973.234-2.09.394-3.857.48-5.301.881.099 1.539.262 1.972.489-.029.711.038 1.254.2 1.629s.475.652.939.832c.462.205 1.171.361 2.128.468l14.693 1.65c1.058.119 1.808.139 2.25.061.464-.05.819-.252 1.062-.607.334-.473.559-1.225.675-2.258.101-.906.041-1.614-.183-2.124-.159-.4-.422-.672-.788-.815-.366-.143-1.137-.319-2.312-.527-5.226-.919-9.248-1.778-12.065-2.579-2.817-.8-4.843-1.716-6.079-2.747-1.213-1.004-1.735-2.261-1.566-3.771z" fill="url(#paint8_linear)"/><path d="M273.426 204.595c-.904-.332-1.608-.509-2.112-.532-.505-.023-.913.097-1.225.36-.313.263-.615.719-.907 1.368-.504-.023-1.161-.183-1.97-.479a94.71 94.71 0 001.835-4.672 102.759 102.759 0 001.724-5.035c.714.262 1.314.576 1.8.943-.197.684-.261 1.227-.193 1.63.069.403.307.747.715 1.031.4.309 1.052.629 1.956.96l11.527 4.227-8.704-14.244c-.993-.31-1.729-.364-2.208-.161-.479.202-.904.734-1.274 1.597-.433.003-1.09-.157-1.97-.479a93.715 93.715 0 001.821-4.636c.733-1.998 1.308-3.677 1.725-5.035.809.296 1.413.599 1.813.907-.197.684-.261 1.227-.193 1.63.069.403.303.759.702 1.067.4.309 1.052.629 1.956.96l13.882 5.09c.88.323 1.572.496 2.077.519.504.023.912-.097 1.225-.36.312-.264.615-.72.906-1.368.552.04 1.209.2 1.97.479-.542 1.259-1.175 2.875-1.9 4.85a102.995 102.995 0 00-1.646 4.821 15.637 15.637 0 01-1.022-.415 3.04 3.04 0 01-.791-.493c.197-.683.261-1.227.193-1.629-.068-.403-.302-.759-.702-1.067-.4-.309-1.04-.625-1.92-.947l-11.526-4.227 8.739 14.257c.937.316 1.637.357 2.101.122.479-.202.911-.718 1.296-1.548.537.008 1.198.156 1.983.443-.542 1.259-1.18 2.887-1.913 4.886a102.995 102.995 0 00-1.646 4.821c-.833-.305-1.437-.608-1.813-.908.197-.683.261-1.226.193-1.629s-.302-.759-.702-1.067c-.4-.309-1.04-.624-1.92-.947l-13.882-5.09z" fill="url(#paint9_linear)"/><path d="M276.741 239.843c-2.552-1.323-4.448-2.214-5.688-2.673.022-.647.291-1.377.808-2.189 1.3.647 2.534.832 3.702.554 1.189-.265 2.349-1.284 3.478-3.059l1.591-2.501-14.912-9.488c-.919-.585-1.696-.944-2.332-1.078-.628-.099-1.185-.003-1.67.288-.465.305-.963.829-1.496 1.572-.445-.103-1.052-.4-1.822-.889.731-1.007 1.742-2.526 3.035-4.557 1.455-2.288 2.47-3.954 3.046-5 .791.504 1.323.917 1.597 1.242-.338.626-.517 1.143-.536 1.551-.033.429.113.838.437 1.224.325.387.893.839 1.706 1.356l12.474 7.937c.792.503 1.431.82 1.919.95s.912.1 1.274-.09c.361-.191.754-.572 1.177-1.143.531.157 1.138.454 1.822.889-1.07 1.541-2.429 3.605-4.075 6.192a417.933 417.933 0 00-5.535 8.912z" fill="url(#paint10_linear)"/><path d="M236.803 248.975a7.175 7.175 0 01-1.626-1.218c.745-.654 1.889-1.768 3.431-3.344 1.648-1.684 2.781-2.897 3.4-3.639.616.603 1.025 1.145 1.228 1.627-.389.505-.617.92-.686 1.243a.868.868 0 00.252.885c.272.265.812.546 1.622.842l2.996 1.177c2.747-2.807 4.952-5.152 6.616-7.034l-.881-1.925c-.367-.821-.75-1.426-1.149-1.816-.362-.354-.749-.52-1.161-.498-.394.041-.83.269-1.309.687a6.344 6.344 0 01-1.653-1.192c.657-.562 1.588-1.46 2.793-2.691.514-.525 1.249-1.331 2.205-2.416.561.549.961 1.082 1.2 1.599-.371.56-.499 1.143-.384 1.751.114.644.493 1.724 1.137 3.24l8.653 19.527c-.282.469-.671.957-1.167 1.464l-20.619-7.731c-1.098-.4-1.943-.677-2.536-.832-.575-.137-1.033-.195-1.373-.173-.34.057-.669.213-.989.467zm12.588-1.669l5.857 2.275a43.711 43.711 0 014.456 1.913 79.997 79.997 0 01-2.143-4.277l-2.588-5.616-5.582 5.705z" fill="url(#paint11_linear)"/><path d="M216.929 276.56c-2.085.824-3.935 1.026-5.55.608-1.616-.419-2.884-1.517-3.805-3.294-1.108-2.137-1.184-4.21-.227-6.219.957-2.008 2.83-3.736 5.62-5.182 2.992-1.55 5.716-2.077 8.171-1.581a22.307 22.307 0 001.569 3.854l.593 1.062c-.445.573-1.207 1.111-2.288 1.614-1.102-1.74-2.235-2.852-3.398-3.333-1.174-.448-2.469-.304-3.886.43-1.395.723-2.26 1.643-2.595 2.758-.324 1.138-.13 2.394.582 3.766 1.76 3.397 4.846 3.953 9.255 1.667.207.235.393.51.556.825.233.45.352.845.357 1.185-1.912.991-3.12 2.102-3.623 3.334-.492 1.253-.382 2.566.329 3.939.618 1.192 1.417 1.962 2.397 2.311.98.348 2.021.237 3.123-.335 2.317-1.201 2.937-3.42 1.858-6.657.123-.092.298-.197.523-.313a5.024 5.024 0 012.014-.574 23.16 23.16 0 001.143 2.619c.35.674.722 1.309 1.116 1.904a17.722 17.722 0 01-6.129 5.19c-2.43 1.259-4.531 1.749-6.303 1.469-1.795-.269-3.117-1.224-3.969-2.867-.734-1.417-.869-2.86-.403-4.329.478-1.446 1.468-2.73 2.97-3.851z" fill="url(#paint12_linear)"/><path d="M178.203 281.479c-.245-.932-.502-1.611-.771-2.038-.27-.427-.602-.693-.996-.799-.395-.106-.942-.093-1.641.038-.27-.427-.514-1.057-.733-1.89a94.32 94.32 0 004.882-1.165c2.034-.535 3.74-1.023 5.117-1.464.193.736.278 1.408.255 2.016-.673.23-1.156.488-1.447.774-.292.286-.438.678-.438 1.176-.025.504.086 1.222.33 2.153l1.711 6.507c5.024-1.321 8.359-2.289 10.004-2.905l-1.642-6.249c-.245-.932-.502-1.611-.772-2.038-.269-.427-.601-.693-.996-.799-.394-.106-.941-.093-1.64.038-.25-.353-.495-.983-.733-1.89a93.203 93.203 0 004.845-1.156c2.058-.541 3.764-1.029 5.117-1.463.219.833.316 1.502.292 2.007-.674.229-1.156.487-1.448.773-.291.286-.449.681-.474 1.186-.025.504.086 1.222.33 2.153l3.759 14.3c.239.907.492 1.574.762 2.001.269.427.601.693.996.799.395.106.942.093 1.641-.038.282.476.526 1.106.732 1.89-1.342.274-3.031.679-5.065 1.214a102.18 102.18 0 00-4.897 1.405 15.439 15.439 0 01-.243-1.076 3.028 3.028 0 01-.048-.931c.673-.229 1.155-.487 1.447-.773.291-.286.45-.682.474-1.186.025-.504-.082-1.21-.32-2.116l-1.537-5.845-10.072 2.647 1.536 5.845c.239.907.493 1.574.762 2.001.245.433.565.703.959.809.395.106.942.093 1.641-.038.3.445.557 1.072.769 1.88-1.342.275-3.043.682-5.102 1.224-1.813.476-3.445.945-4.897 1.405-.225-.858-.322-1.527-.291-2.007.673-.229 1.156-.487 1.447-.773.292-.286.45-.682.474-1.186.025-.504-.082-1.21-.32-2.117l-3.759-14.299z" fill="url(#paint13_linear)"/><path d="M144.184 280.332a7.158 7.158 0 01-.297-2.01c.989.06 2.586.074 4.79.04 2.356-.037 4.015-.1 4.977-.191.013.861-.078 1.534-.273 2.019-.632.086-1.086.219-1.362.401a.864.864 0 00-.444.805c.006.38.192.96.559 1.74l1.3 2.945c3.927-.06 7.144-.173 9.65-.339l.73-1.988c.316-.841.47-1.54.462-2.098-.008-.506-.166-.897-.475-1.171-.308-.249-.779-.393-1.413-.434a6.335 6.335 0 01-.335-2.01c.863.063 2.155.081 3.878.054.735-.011 1.824-.066 3.267-.164.012.785-.079 1.446-.274 1.981-.656.137-1.158.461-1.505.973-.372.538-.863 1.572-1.473 3.102l-7.599 19.961c-.53.135-1.149.208-1.859.219l-9.204-20.006c-.498-1.056-.903-1.848-1.215-2.376-.312-.502-.596-.865-.853-1.089a2.171 2.171 0 00-1.032-.364zm10.116 7.675l2.559 5.738a43.367 43.367 0 011.818 4.496c.434-1.477.93-2.992 1.489-4.547l2.115-5.811-7.981.124z" fill="url(#paint14_linear)"/><path d="M115.012 278.638c.216-.939.304-1.659.264-2.163-.04-.503-.21-.893-.51-1.171-.3-.277-.79-.52-1.47-.729-.04-.503.037-1.174.23-2.014 1.341.387 2.962.8 4.864 1.239 2.049.472 3.786.834 5.211 1.084-.171.741-.409 1.375-.712 1.903-.703-.11-1.25-.106-1.641.012-.392.118-.703.397-.935.838-.256.435-.492 1.121-.709 2.06l-1.511 6.555c5.061 1.168 8.464 1.861 10.208 2.081l1.452-6.296c.216-.938.304-1.659.264-2.163-.04-.503-.21-.893-.51-1.17-.3-.278-.79-.521-1.47-.729-.057-.43.02-1.101.23-2.015a92.62 92.62 0 004.827 1.23c2.074.478 3.811.84 5.21 1.085-.193.839-.418 1.477-.674 1.911-.703-.11-1.25-.106-1.641.012-.392.118-.715.394-.972.829-.256.435-.492 1.122-.709 2.06l-3.322 14.408c-.211.914-.296 1.622-.256 2.125.04.504.21.894.51 1.171.3.277.79.52 1.47.729.029.553-.048 1.224-.23 2.014-1.316-.381-2.999-.808-5.049-1.281-1.827-.421-3.49-.766-4.988-1.033.085-.37.18-.726.284-1.066.105-.34.235-.622.391-.846.702.11 1.249.106 1.641-.012.391-.117.715-.394.971-.829.256-.435.49-1.109.7-2.023l1.358-5.889-10.148-2.34-1.358 5.889c-.211.914-.296 1.622-.256 2.126.015.497.173.885.473 1.162.3.277.79.52 1.47.729.059.534-.005 1.208-.193 2.023-1.316-.382-3.012-.812-5.086-1.29-1.827-.421-3.49-.766-4.988-1.033.199-.864.424-1.502.675-1.912.702.11 1.249.106 1.641-.012.391-.117.715-.394.971-.829.256-.435.49-1.109.7-2.023l3.323-14.407z" fill="url(#paint15_linear)"/><path d="M85.125 265.619c.44-.857.703-1.534.787-2.032.085-.497.016-.918-.207-1.26-.223-.342-.638-.698-1.246-1.067.084-.498.324-1.13.717-1.897a93.043 93.043 0 004.411 2.394c1.871.961 3.466 1.738 4.786 2.33-.348.676-.733 1.233-1.157 1.671-.655-.279-1.186-.41-1.594-.392-.408.019-.779.213-1.111.583-.356.359-.753.967-1.193 1.823l-5.61 10.921 15.205-6.89c.43-.947.573-1.671.431-2.171-.142-.5-.618-.987-1.429-1.46.05-.431.29-1.063.718-1.897a92.732 92.732 0 004.377 2.377c1.893.973 3.488 1.749 4.785 2.33-.393.766-.768 1.329-1.123 1.688-.654-.279-1.186-.41-1.594-.392-.408.019-.79.207-1.145.566s-.753.966-1.193 1.823l-6.755 13.152c-.429.834-.685 1.5-.77 1.997-.085.498-.016.918.207 1.261.223.342.639.698 1.247 1.067-.108.543-.347 1.175-.718 1.896-1.182-.692-2.709-1.519-4.58-2.48a102.498 102.498 0 00-4.582-2.226c.173-.338.352-.659.537-.963.185-.304.38-.546.586-.725.654.279 1.185.41 1.593.391.409-.018.79-.206 1.146-.565.355-.359.747-.955 1.175-1.789l5.61-10.921-15.222 6.923c-.43.891-.556 1.581-.38 2.07.142.5.602.993 1.378 1.477-.074.532-.302 1.17-.684 1.914-1.182-.693-2.72-1.526-4.613-2.498a102.498 102.498 0 00-4.583-2.226c.405-.789.78-1.352 1.123-1.688.655.279 1.186.41 1.594.391.408-.018.79-.206 1.145-.565s.747-.955 1.176-1.789l6.755-13.152z" fill="url(#paint16_linear)"/><path d="M59.338 245.623c.637-.722 1.059-1.313 1.263-1.775.205-.461.242-.885.11-1.272s-.447-.834-.945-1.342c.205-.461.593-1.015 1.163-1.661a94.04 94.04 0 003.685 3.408 104.983 104.983 0 004.063 3.438c-.503.569-1.014 1.014-1.533 1.333-.565-.432-1.048-.689-1.448-.772-.4-.083-.807.014-1.22.291-.433.26-.969.751-1.606 1.473l-8.129 9.2 16.434-2.928c.65-.812.968-1.478.953-1.998-.014-.52-.356-1.109-1.025-1.768.155-.404.543-.958 1.163-1.661a92.88 92.88 0 003.656 3.383c1.596 1.409 2.95 2.555 4.064 3.437-.57.646-1.072 1.099-1.505 1.359-.565-.432-1.048-.689-1.448-.772-.4-.083-.817.006-1.25.266-.432.26-.967.751-1.605 1.472l-9.79 11.081c-.62.703-1.033 1.285-1.238 1.746-.204.462-.241.886-.11 1.273.132.386.447.834.945 1.342-.238.499-.626 1.053-1.163 1.66-.975-.963-2.25-2.14-3.827-3.533a102.664 102.664 0 00-3.892-3.287c.252-.285.504-.552.758-.801s.503-.435.747-.557c.565.431 1.048.689 1.448.772.4.083.816-.006 1.249-.266.433-.26.96-.742 1.58-1.444l8.129-9.201-16.459 2.957c-.635.757-.928 1.395-.878 1.912.014.52.338 1.11.971 1.771-.202.498-.58 1.06-1.134 1.686-.975-.963-2.26-2.149-3.856-3.558A102.742 102.742 0 0043.766 259c.587-.665 1.089-1.117 1.505-1.359.565.432 1.048.69 1.448.773.4.082.816-.006 1.249-.266.433-.26.96-.742 1.58-1.444l9.79-11.081zm-7.145 23.358c1.69 1.493 2.709 3.019 3.056 4.577.348 1.558-.049 2.983-1.19 4.274a7.812 7.812 0 01-2.324-1.445 10.075 10.075 0 01-.69-.711c.769-1.214 1.135-2.26 1.098-3.138-.036-.877-.5-1.71-1.393-2.499-.892-.788-1.757-1.13-2.594-1.024-.838.106-1.774.648-2.808 1.628a10.37 10.37 0 01-.877-.673c-.76-.671-1.312-1.346-1.66-2.025 1.141-1.291 2.553-1.836 4.235-1.635 1.665.22 3.38 1.111 5.147 2.671z" fill="url(#paint17_linear)"/><path d="M31.288 243.479c5.399-3.283 10.012-6.238 13.84-8.866.483.3 1.032.854 1.646 1.66-4.82 4.211-8.998 8.094-12.535 11.647a26.72 26.72 0 00-1.927-1.59c-.774-.557-1.416-.96-1.924-1.21-.182-.531-.03-.981.453-1.349a2.84 2.84 0 01.447-.292zm18.24-14.129c.646-.491 1.324-.688 2.034-.592.69.111 1.273.48 1.749 1.105.506.665.724 1.327.653 1.987-.087.639-.432 1.189-1.037 1.649-.605.461-1.26.625-1.966.493-.725-.116-1.334-.497-1.825-1.142-.46-.605-.627-1.242-.5-1.912.111-.69.409-1.219.893-1.588z" fill="url(#paint18_linear)"/><path d="M27.338 192.805c.46 1.476.376 2.737-.253 3.782-.63 1.046-1.573 1.765-2.83 2.158-1.186.37-2.298.252-3.336-.353-1.062-.597-1.801-1.561-2.216-2.892-.43-1.379-.355-2.583.226-3.614.58-1.031 1.452-1.727 2.613-2.09 1.306-.407 2.495-.34 3.566.201 1.064.518 1.808 1.454 2.23 2.808z" fill="url(#paint19_linear)"/><path d="M25.921 152.912a5.035 5.035 0 01-.407 1.644c-.22.49-.455.864-.706 1.122-.465.088-1.089.099-1.871.032-.934-.08-1.697-.233-2.288-.462.263-.995.422-1.82.478-2.477.064-.757-.084-1.406-.445-1.945-.386-.541-1.156-1.065-2.308-1.569-1.2-.535-2.888-1.034-5.06-1.499-2.171-.49-4.653-.917-7.445-1.282l-1.133-.134c-.63-.054-1.104-.018-1.42.108-.34.098-.602.343-.787.734-.186.391-.354 1.013-.502 1.865-.544.106-1.219.125-2.027.056.224-1.736.538-4.977.941-9.723.398-4.671.623-7.768.676-9.289.884.075 1.546.208 1.988.398-.01.711.071 1.252.243 1.623s.492.652.959.844c.466.193 1.167.328 2.101.408l14.733 1.253c.96.082 1.685.067 2.178-.044.492-.11.855-.334 1.087-.67.232-.336.403-.856.514-1.559.492-.11 1.168-.129 2.026-.056a93.909 93.909 0 00-.539 4.989c-.178 2.096-.29 3.867-.337 5.312-.884-.075-1.545-.22-1.985-.436.01-.711-.071-1.252-.243-1.622-.172-.371-.492-.64-.961-.807-.467-.192-1.18-.329-2.14-.411L6.51 138.062c-1.06-.09-1.811-.09-2.25-.001-.464.063-.813.275-1.047.636-.32.482-.525 1.24-.613 2.275-.077.909.003 1.615.24 2.119.17.395.44.66.81.793.37.133 1.145.288 2.325.465 5.249.777 9.292 1.528 12.13 2.252 2.837.725 4.888 1.586 6.15 2.583 1.24.971 1.796 2.213 1.667 3.728z" fill="url(#paint20_linear)"/><path d="M29.947 102.721c.912.308 1.62.466 2.126.476.505.01.91-.121 1.215-.393.305-.271.595-.735.87-1.391.505.01 1.166.152 1.982.428a94.24 94.24 0 00-1.71 4.717 104.22 104.22 0 00-1.593 5.079c-.72-.242-1.328-.541-1.824-.895.18-.689.229-1.233.15-1.634-.079-.401-.326-.739-.742-1.012-.407-.298-1.067-.601-1.98-.909l-11.634-3.921 9.076 14.009c1 .284 1.738.319 2.211.104.474-.215.884-.758 1.232-1.631.433-.014 1.093.128 1.982.428a93.076 93.076 0 00-1.699 4.682c-.68 2.017-1.21 3.71-1.592 5.079-.816-.275-1.428-.562-1.836-.86.179-.688.229-1.233.15-1.634-.079-.401-.322-.75-.73-1.048-.407-.298-1.067-.601-1.98-.908l-14.01-4.723c-.89-.3-1.586-.454-2.09-.464-.506-.01-.91.121-1.216.392-.306.272-.596.736-.87 1.392-.553-.026-1.214-.169-1.982-.428.51-1.272 1.1-2.905 1.771-4.898a102.842 102.842 0 001.52-4.863c.36.122.704.251 1.032.389.328.137.596.294.803.471-.178.689-.228 1.233-.15 1.634.08.401.323.75.73 1.048.408.298 1.056.597 1.944.896l11.634 3.922-9.111-14.022c-.945-.291-1.646-.314-2.104-.067-.473.215-.892.742-1.255 1.582-.537.007-1.202-.124-1.994-.391.51-1.272 1.104-2.917 1.784-4.934a102.76 102.76 0 001.518-4.863c.84.283 1.453.57 1.837.86-.179.688-.229 1.233-.15 1.634.079.4.322.75.73 1.048.407.298 1.055.597 1.944.896l14.01 4.723z" fill="url(#paint21_linear)"/><path d="M25.616 67.712c2.585 1.257 4.503 2.1 5.755 2.526-.005.647-.255 1.384-.751 2.21-1.317-.614-2.555-.767-3.716-.459-1.182.295-2.314 1.344-3.397 3.147l-1.527 2.541 15.15 9.102c.935.56 1.721.9 2.36 1.018.63.083 1.184-.028 1.662-.332.457-.317.942-.853 1.455-1.61.447.092 1.062.373 1.844.843-.704 1.025-1.676 2.57-2.916 4.633-1.396 2.324-2.368 4.016-2.916 5.076-.804-.483-1.347-.883-1.63-1.2.322-.634.488-1.156.497-1.564.022-.43-.134-.835-.469-1.213-.334-.378-.914-.815-1.74-1.311l-12.674-7.614c-.804-.483-1.451-.783-1.942-.9-.492-.118-.915-.077-1.272.123-.356.2-.739.59-1.148 1.172-.534-.143-1.149-.424-1.844-.841 1.03-1.569 2.336-3.667 3.915-6.295a417.018 417.018 0 005.304-9.052z" fill="url(#paint22_linear)"/><path d="M65.315 57.47a7.177 7.177 0 011.656 1.176c-.728.672-1.843 1.816-3.344 3.43-1.605 1.726-2.708 2.967-3.308 3.724-.63-.587-1.053-1.118-1.268-1.594.376-.516.594-.936.654-1.261a.867.867 0 00-.274-.878c-.279-.259-.826-.526-1.643-.8l-3.025-1.101c-2.675 2.876-4.82 5.276-6.435 7.2l.93 1.902c.387.81.786 1.406 1.194 1.786.371.345.762.5 1.173.468.393-.05.824-.29 1.292-.72a6.34 6.34 0 011.682 1.15c-.642.579-1.55 1.5-2.723 2.761-.5.538-1.215 1.362-2.142 2.472-.576-.535-.99-1.058-1.24-1.569.355-.569.468-1.155.339-1.76-.131-.641-.538-1.711-1.22-3.21l-9.146-19.3c.27-.477.646-.974 1.129-1.494l20.809 7.204c1.107.372 1.96.628 2.556.768.578.122 1.037.168 1.377.138.338-.066.664-.23.977-.493zm-12.541 1.988l-5.914-2.125a43.564 43.564 0 01-4.503-1.8 80.187 80.187 0 012.252 4.222l2.73 5.549 5.435-5.846z" fill="url(#paint23_linear)"/><path d="M84.542 29.272c2.063-.878 3.907-1.128 5.533-.752 1.625.377 2.922 1.442 3.888 3.194 1.163 2.108 1.292 4.178.388 6.211-.904 2.033-2.732 3.808-5.484 5.326-2.95 1.628-5.66 2.225-8.127 1.792a22.3 22.3 0 00-1.668-3.812l-.621-1.046c.43-.585 1.179-1.142 2.246-1.673 1.147 1.711 2.307 2.793 3.483 3.244 1.185.417 2.476.24 3.874-.53 1.376-.76 2.216-1.701 2.522-2.825.294-1.146.068-2.396-.679-3.75-1.848-3.35-4.946-3.825-9.295-1.426a4.06 4.06 0 01-.577-.81c-.245-.444-.374-.836-.388-1.176 1.886-1.04 3.065-2.182 3.536-3.426.46-1.266.315-2.576-.431-3.93-.649-1.175-1.468-1.925-2.456-2.248-.988-.323-2.026-.184-3.113.415-2.286 1.261-2.847 3.495-1.686 6.703a3.72 3.72 0 01-.514.327 5.038 5.038 0 01-1.999.626 23.064 23.064 0 00-1.21-2.588 20.703 20.703 0 00-1.165-1.875 17.728 17.728 0 015.993-5.347c2.396-1.322 4.484-1.865 6.263-1.631 1.8.222 3.148 1.143 4.041 2.762.771 1.398.943 2.837.515 4.318-.44 1.458-1.396 2.767-2.869 3.927z" fill="url(#paint24_linear)"/><path d="M122.413 23.535c.269.925.544 1.597.825 2.016.281.42.62.678 1.017.773.397.095.944.068 1.639-.082.281.42.541 1.043.782 1.87a94.017 94.017 0 00-4.848 1.295 103.887 103.887 0 00-5.077 1.598c-.213-.73-.316-1.4-.308-2.008.667-.248 1.142-.518 1.426-.812.284-.294.419-.69.406-1.187.011-.505-.118-1.22-.387-2.144l-1.883-6.46c-4.987 1.454-8.295 2.51-9.924 3.17l1.808 6.204c.27.924.545 1.596.825 2.016.281.42.62.677 1.017.773.398.095.944.068 1.639-.082.26.347.521.97.783 1.87a93.363 93.363 0 00-4.812 1.284c-2.044.595-3.736 1.128-5.077 1.598-.241-.827-.356-1.493-.345-1.998.667-.247 1.142-.517 1.426-.811.284-.294.432-.693.443-1.198.011-.505-.118-1.22-.387-2.144l-4.137-14.195c-.263-.9-.534-1.56-.815-1.98-.28-.42-.62-.677-1.017-.772-.397-.096-.943-.069-1.639.081-.295-.468-.556-1.091-.782-1.87 1.335-.31 3.012-.759 5.031-1.347 1.8-.525 3.419-1.037 4.858-1.535.106.365.197.721.272 1.069.075.348.099.657.073.929-.667.247-1.143.518-1.427.811-.284.294-.431.694-.442 1.198-.012.505.114 1.208.376 2.108l1.691 5.802 9.999-2.914-1.691-5.802c-.263-.9-.534-1.56-.815-1.98-.256-.427-.583-.688-.98-.783-.397-.096-.944-.068-1.639.082-.312-.437-.585-1.057-.819-1.86 1.335-.31 3.024-.763 5.067-1.358a102.39 102.39 0 004.858-1.535c.249.852.363 1.518.345 1.998-.667.247-1.142.518-1.426.812-.284.294-.432.693-.443 1.198-.011.504.114 1.207.377 2.107l4.137 14.195z" fill="url(#paint25_linear)"/><path d="M156.639 23.597c.203.6.321 1.267.352 2.002-.991-.034-2.587-.005-4.79.089-2.354.1-4.011.208-4.97.325-.036-.86.036-1.536.218-2.025.63-.103 1.08-.25 1.351-.438a.865.865 0 00.422-.817c-.016-.38-.218-.955-.606-1.724l-1.379-2.91c-3.924.168-7.136.367-9.637.6l-.676 2.007c-.294.85-.429 1.553-.405 2.11.022.506.19.892.506 1.158.314.24.789.372 1.424.396.229.599.358 1.265.39 2-.864-.04-2.157-.023-3.879.05-.734.031-1.821.116-3.261.253-.033-.785.04-1.447.22-1.988.653-.154 1.146-.492 1.479-1.014.357-.547.82-1.594 1.388-3.14L141.843.372c.526-.149 1.144-.239 1.853-.269l9.741 19.75c.526 1.043.952 1.823 1.279 2.342.325.494.619.849.882 1.066.287.19.634.303 1.041.336zM146.32 16.2l-2.714-5.668a43.724 43.724 0 01-1.939-4.445 79.754 79.754 0 01-1.365 4.585l-1.957 5.866 7.975-.338z" fill="url(#paint26_linear)"/><path d="M185.928 24.422c-.192.943-.26 1.666-.207 2.168.053.502.234.888.541 1.157.308.27.804.5 1.489.69.054.502-.005 1.175-.176 2.02a94.168 94.168 0 00-4.895-1.109 103.846 103.846 0 00-5.238-.945c.151-.745.371-1.386.661-1.921.705.09 1.252.072 1.64-.056.388-.128.692-.416.912-.862.244-.442.462-1.135.653-2.079l1.337-6.593c-5.092-1.032-8.512-1.634-10.26-1.808l-1.284 6.333c-.191.944-.26 1.667-.207 2.169.054.502.234.888.542 1.157.307.269.804.499 1.489.69.068.427.009 1.1-.177 2.019a93.327 93.327 0 00-4.857-1.1c-2.086-.424-3.832-.739-5.238-.946.171-.844.379-1.487.623-1.929.706.091 1.253.073 1.641-.055.388-.129.704-.414.948-.855.245-.442.463-1.135.654-2.078l2.937-14.492c.186-.918.252-1.629.199-2.131-.053-.502-.234-.888-.541-1.157-.308-.269-.804-.499-1.489-.69-.044-.551.015-1.224.176-2.019 1.326.346 3.02.728 5.081 1.146 1.838.372 3.509.672 5.015.9-.076.372-.161.73-.257 1.073a3.03 3.03 0 01-.367.856c-.705-.091-1.252-.073-1.64.055-.388.129-.704.413-.949.855s-.46 1.122-.646 2.041l-1.201 5.923 10.208 2.069 1.2-5.924c.186-.919.253-1.629.199-2.131-.028-.497-.196-.88-.504-1.15-.307-.268-.804-.498-1.489-.689-.073-.532-.027-1.208.139-2.027 1.326.346 3.032.73 5.119 1.153 1.837.373 3.509.673 5.014.9-.176.87-.384 1.512-.624 1.93-.705-.092-1.252-.073-1.64.055-.388.128-.704.413-.949.855-.244.441-.46 1.122-.646 2.04l-2.936 14.492z" fill="url(#paint27_linear)"/><path d="M215.984 36.448c-.417.868-.662 1.552-.734 2.051-.071.5.009.918.24 1.255.232.336.657.681 1.274 1.035-.072.5-.295 1.137-.668 1.914a93.789 93.789 0 00-4.472-2.279 104.177 104.177 0 00-4.844-2.205c.33-.685.701-1.251 1.113-1.7.662.263 1.196.38 1.604.35.407-.029.773-.232 1.095-.611.346-.368.728-.986 1.146-1.854l5.324-11.062-15.021 7.282c-.405.958-.53 1.685-.375 2.181.155.497.644.971 1.467 1.423-.039.431-.262 1.07-.668 1.914a93.019 93.019 0 00-4.438-2.262c-1.918-.923-3.532-1.658-4.844-2.205.374-.776.733-1.348 1.079-1.716.661.262 1.196.379 1.603.35.408-.029.785-.227 1.13-.595.346-.368.728-.986 1.146-1.854l6.412-13.322c.406-.845.645-1.518.717-2.017.072-.5-.008-.918-.24-1.255-.232-.336-.656-.681-1.273-1.035.093-.545.316-1.183.668-1.914 1.2.662 2.747 1.45 4.642 2.361 1.69.813 3.236 1.515 4.639 2.106-.165.343-.335.668-.512.977a3.061 3.061 0 01-.567.74c-.661-.262-1.196-.379-1.603-.35-.408.029-.784.227-1.13.595-.346.368-.722.974-1.129 1.819l-5.324 11.063 15.037-7.317c.406-.901.514-1.594.326-2.078-.155-.497-.627-.977-1.416-1.441.06-.534.271-1.177.634-1.93 1.2.661 2.759 1.454 4.677 2.377 1.689.813 3.236 1.515 4.639 2.106-.385.799-.745 1.371-1.08 1.716-.661-.262-1.195-.379-1.603-.35-.407.03-.784.227-1.13.595-.346.368-.722.974-1.128 1.82l-6.413 13.322z" fill="url(#paint28_linear)"/><path d="M242.753 55.94c-.619.737-1.025 1.34-1.218 1.806-.193.466-.219.892-.077 1.275.141.383.467.822.978 1.317-.193.467-.566 1.03-1.12 1.69a93.963 93.963 0 00-3.77-3.313 103.324 103.324 0 00-4.15-3.333c.489-.582.988-1.04 1.499-1.372.576.417 1.065.662 1.467.735.402.073.807-.034 1.213-.322.426-.27.949-.775 1.567-1.513l7.892-9.404-16.353 3.345c-.629.829-.93 1.503-.903 2.022.028.52.384 1.1 1.07 1.74-.144.41-.518.973-1.12 1.69a93.521 93.521 0 00-3.741-3.287c-1.631-1.369-3.014-2.48-4.15-3.334.554-.66 1.044-1.125 1.47-1.396.576.417 1.065.662 1.467.735.402.073.816-.026 1.242-.298.426-.27.948-.775 1.567-1.513l9.505-11.326c.602-.718 1-1.31 1.193-1.777.193-.467.219-.892.077-1.275-.141-.383-.467-.822-.978-1.317.225-.506.599-1.069 1.12-1.69.999.938 2.305 2.083 3.916 3.435a102.107 102.107 0 003.975 3.186 16.03 16.03 0 01-.738.82 3.028 3.028 0 01-.732.577c-.576-.417-1.065-.662-1.467-.735-.402-.073-.816.026-1.242.297-.426.271-.94.766-1.543 1.484l-7.892 9.405 16.378-3.375c.616-.773.892-1.418.829-1.934-.027-.52-.366-1.101-1.016-1.746.19-.502.554-1.074 1.091-1.714 1 .938 2.315 2.09 3.945 3.459a103.638 103.638 0 003.975 3.186c-.57.68-1.06 1.145-1.47 1.397-.576-.417-1.065-.662-1.467-.735-.402-.073-.816.026-1.242.297-.426.272-.94.766-1.543 1.484l-9.504 11.327zm6.548-23.532c-1.728-1.45-2.785-2.95-3.172-4.498-.388-1.55-.027-2.984 1.08-4.304a7.842 7.842 0 012.361 1.386c.155.13.391.361.708.693-.738 1.234-1.077 2.289-1.018 3.165.058.876.544 1.697 1.456 2.462.912.766 1.786 1.085 2.62.958.834-.127 1.756-.693 2.765-1.698.382.254.68.47.893.65.777.651 1.347 1.312 1.712 1.982-1.108 1.32-2.505 1.9-4.192 1.742-1.67-.177-3.408-1.024-5.213-2.538z" fill="url(#paint29_linear)"/><path d="M270.862 57.303c-5.313 3.42-9.849 6.492-13.609 9.216-.491-.288-1.054-.827-1.688-1.617 4.711-4.333 8.788-8.32 12.233-11.963.543.474 1.199.987 1.968 1.54.788.537 1.44.924 1.955 1.16.194.527.054.98-.42 1.36a2.86 2.86 0 01-.439.304zm-17.874 14.59c-.633.507-1.305.722-2.017.644-.693-.094-1.285-.447-1.777-1.06-.523-.652-.758-1.309-.703-1.97.07-.641.401-1.2.994-1.675.593-.476 1.244-.657 1.952-.543.729.097 1.347.462 1.854 1.095.476.593.659 1.225.549 1.898-.094.693-.378 1.23-.852 1.61z" fill="url(#paint30_linear)"/><path d="M276.254 107.962c-.499-1.463-.448-2.725.153-3.787.602-1.062 1.526-1.806 2.773-2.232 1.175-.401 2.289-.312 3.343.265 1.078.569 1.842 1.513 2.292 2.832.467 1.367.423 2.574-.13 3.619-.554 1.046-1.406 1.765-2.557 2.158-1.295.442-2.485.407-3.571-.107-1.077-.489-1.845-1.405-2.303-2.748z" fill="url(#paint31_linear)"/><defs><linearGradient id="paint0_linear" x1="167.443" y1="141.901" x2="256.073" y2="141.901" gradientUnits="userSpaceOnUse"><stop stop-color="#BD0705"/><stop offset="1" stop-color="#FD0302"/></linearGradient><linearGradient id="paint1_linear" x1="163.012" y1="53.762" x2="163.012" y2="141.901" gradientUnits="userSpaceOnUse"><stop stop-color="#B4000E"/><stop offset="1" stop-color="#D70016"/></linearGradient><linearGradient id="paint2_linear" x1="152.749" y1="103.544" x2="124.531" y2="117.074" gradientUnits="userSpaceOnUse"><stop stop-color="#930105"/><stop offset="1" stop-color="#D30015"/></linearGradient><linearGradient id="paint3_linear" x1="144.12" y1="144.465" x2="49.196" y2="119.736" gradientUnits="userSpaceOnUse"><stop stop-color="#D90017"/><stop offset="1" stop-color="#B4000D"/></linearGradient><linearGradient id="paint4_linear" x1="49.193" y1="118.584" x2="128.481" y2="167.453" gradientUnits="userSpaceOnUse"><stop stop-color="#D80118"/><stop offset="1" stop-color="#B3000D"/></linearGradient><linearGradient id="paint5_linear" x1="96.509" y1="170.835" x2="119.468" y2="207.689" gradientUnits="userSpaceOnUse"><stop stop-color="#D80016"/><stop offset="1" stop-color="#B4000D"/></linearGradient><linearGradient id="paint6_linear" x1="79.513" y1="241.931" x2="150.4" y2="181.52" gradientUnits="userSpaceOnUse"><stop stop-color="#B3000D"/><stop offset="1" stop-color="#D60016"/></linearGradient><linearGradient id="paint7_linear" x1="150.184" y1="181.54" x2="220.378" y2="223.644" gradientUnits="userSpaceOnUse"><stop stop-color="#B3000D"/><stop offset="1" stop-color="#D90017"/></linearGradient><linearGradient id="paint8_linear" x1="262.639" y1="120.084" x2="258.083" y2="106.734" gradientUnits="userSpaceOnUse"><stop stop-color="#BD0705"/><stop offset="1" stop-color="#FD0302"/></linearGradient><linearGradient id="paint9_linear" x1="262.639" y1="120.084" x2="258.083" y2="106.734" gradientUnits="userSpaceOnUse"><stop stop-color="#BD0705"/><stop offset="1" stop-color="#FD0302"/></linearGradient><linearGradient id="paint10_linear" x1="262.639" y1="120.084" x2="258.083" y2="106.734" gradientUnits="userSpaceOnUse"><stop stop-color="#BD0705"/><stop offset="1" stop-color="#FD0302"/></linearGradient><linearGradient id="paint11_linear" x1="262.639" y1="120.084" x2="258.083" y2="106.734" gradientUnits="userSpaceOnUse"><stop stop-color="#BD0705"/><stop offset="1" stop-color="#FD0302"/></linearGradient><linearGradient id="paint12_linear" x1="262.639" y1="120.084" x2="258.083" y2="106.734" gradientUnits="userSpaceOnUse"><stop stop-color="#BD0705"/><stop offset="1" stop-color="#FD0302"/></linearGradient><linearGradient id="paint13_linear" x1="262.639" y1="120.084" x2="258.083" y2="106.734" gradientUnits="userSpaceOnUse"><stop stop-color="#BD0705"/><stop offset="1" stop-color="#FD0302"/></linearGradient><linearGradient id="paint14_linear" x1="262.639" y1="120.084" x2="258.083" y2="106.734" gradientUnits="userSpaceOnUse"><stop stop-color="#BD0705"/><stop offset="1" stop-color="#FD0302"/></linearGradient><linearGradient id="paint15_linear" x1="262.639" y1="120.084" x2="258.083" y2="106.734" gradientUnits="userSpaceOnUse"><stop stop-color="#BD0705"/><stop offset="1" stop-color="#FD0302"/></linearGradient><linearGradient id="paint16_linear" x1="262.639" y1="120.084" x2="258.083" y2="106.734" gradientUnits="userSpaceOnUse"><stop stop-color="#BD0705"/><stop offset="1" stop-color="#FD0302"/></linearGradient><linearGradient id="paint17_linear" x1="262.639" y1="120.084" x2="258.083" y2="106.734" gradientUnits="userSpaceOnUse"><stop stop-color="#BD0705"/><stop offset="1" stop-color="#FD0302"/></linearGradient><linearGradient id="paint18_linear" x1="262.639" y1="120.084" x2="258.083" y2="106.734" gradientUnits="userSpaceOnUse"><stop stop-color="#BD0705"/><stop offset="1" stop-color="#FD0302"/></linearGradient><linearGradient id="paint19_linear" x1="262.639" y1="120.084" x2="258.083" y2="106.734" gradientUnits="userSpaceOnUse"><stop stop-color="#BD0705"/><stop offset="1" stop-color="#FD0302"/></linearGradient><linearGradient id="paint20_linear" x1="262.639" y1="120.084" x2="258.083" y2="106.734" gradientUnits="userSpaceOnUse"><stop stop-color="#BD0705"/><stop offset="1" stop-color="#FD0302"/></linearGradient><linearGradient id="paint21_linear" x1="262.639" y1="120.084" x2="258.083" y2="106.734" gradientUnits="userSpaceOnUse"><stop stop-color="#BD0705"/><stop offset="1" stop-color="#FD0302"/></linearGradient><linearGradient id="paint22_linear" x1="262.639" y1="120.084" x2="258.083" y2="106.734" gradientUnits="userSpaceOnUse"><stop stop-color="#BD0705"/><stop offset="1" stop-color="#FD0302"/></linearGradient><linearGradient id="paint23_linear" x1="262.639" y1="120.084" x2="258.083" y2="106.734" gradientUnits="userSpaceOnUse"><stop stop-color="#BD0705"/><stop offset="1" stop-color="#FD0302"/></linearGradient><linearGradient id="paint24_linear" x1="262.639" y1="120.084" x2="258.083" y2="106.734" gradientUnits="userSpaceOnUse"><stop stop-color="#BD0705"/><stop offset="1" stop-color="#FD0302"/></linearGradient><linearGradient id="paint25_linear" x1="262.639" y1="120.084" x2="258.083" y2="106.734" gradientUnits="userSpaceOnUse"><stop stop-color="#BD0705"/><stop offset="1" stop-color="#FD0302"/></linearGradient><linearGradient id="paint26_linear" x1="262.639" y1="120.084" x2="258.083" y2="106.734" gradientUnits="userSpaceOnUse"><stop stop-color="#BD0705"/><stop offset="1" stop-color="#FD0302"/></linearGradient><linearGradient id="paint27_linear" x1="262.639" y1="120.084" x2="258.083" y2="106.734" gradientUnits="userSpaceOnUse"><stop stop-color="#BD0705"/><stop offset="1" stop-color="#FD0302"/></linearGradient><linearGradient id="paint28_linear" x1="262.639" y1="120.084" x2="258.083" y2="106.734" gradientUnits="userSpaceOnUse"><stop stop-color="#BD0705"/><stop offset="1" stop-color="#FD0302"/></linearGradient><linearGradient id="paint29_linear" x1="262.639" y1="120.084" x2="258.083" y2="106.734" gradientUnits="userSpaceOnUse"><stop stop-color="#BD0705"/><stop offset="1" stop-color="#FD0302"/></linearGradient><linearGradient id="paint30_linear" x1="262.639" y1="120.084" x2="258.083" y2="106.734" gradientUnits="userSpaceOnUse"><stop stop-color="#BD0705"/><stop offset="1" stop-color="#FD0302"/></linearGradient><linearGradient id="paint31_linear" x1="262.639" y1="120.084" x2="258.083" y2="106.734" gradientUnits="userSpaceOnUse"><stop stop-color="#BD0705"/><stop offset="1" stop-color="#FD0302"/></linearGradient><clipPath id="clip0"><path transform="matrix(-1 0 0 1 256.073 53.762)" fill="#fff" d="M0 0h206.88v196.564H0z"/></clipPath></defs></svg>