<svg width="12" height="14" viewBox="0 0 12 14" fill="none" xmlns="http://www.w3.org/2000/svg">
<path d="M8.8633 13.85C9.21156 13.85 9.49532 13.57 9.49532 13.2227C9.49532 12.8753 9.21156 12.5953 8.8633 12.5953H2.87808C2.3458 12.5953 1.91404 12.1661 1.91404 11.6406V2.35938C1.91404 1.83391 2.3458 1.40469 2.87808 1.40469H9.41901C9.9513 1.40469 10.3831 1.83391 10.3831 2.35938V10.8496C10.3831 11.1969 10.6668 11.477 11.0151 11.477C11.3632 11.477 11.6471 11.197 11.6471 10.8496V2.35938C11.6471 1.14017 10.6468 0.15 9.41901 0.15H2.87808C1.65023 0.15 0.65 1.14017 0.65 2.35938V11.6406C0.65 12.8598 1.65023 13.85 2.87808 13.85H8.8633ZM8.88699 3.57774H3.40719C3.05894 3.57774 2.77517 3.85775 2.77517 4.20508C2.77517 4.55241 3.05894 4.83242 3.40719 4.83242H8.88699C9.23513 4.83242 9.51901 4.55243 9.51901 4.20508C9.51901 3.85773 9.23513 3.57774 8.88699 3.57774ZM9.51901 6.8418C9.51901 6.49445 9.23513 6.21446 8.88699 6.21446H3.40719C3.05894 6.21446 2.77517 6.49446 2.77517 6.8418C2.77517 7.18913 3.05894 7.46914 3.40719 7.46914H8.88699C9.23513 7.46914 9.51901 7.18915 9.51901 6.8418ZM3.40719 8.85117C3.05894 8.85117 2.77517 9.13118 2.77517 9.47852C2.77517 9.82585 3.05894 10.1059 3.40719 10.1059H6.73522C7.08348 10.1059 7.36724 9.82585 7.36724 9.47852C7.36724 9.13118 7.08348 8.85117 6.73522 8.85117H3.40719ZM11.018 12.5953C10.6698 12.5953 10.386 12.8754 10.386 13.2227C10.386 13.57 10.6698 13.85 11.018 13.85C11.3662 13.85 11.65 13.57 11.65 13.2227C11.65 12.8754 11.3662 12.5953 11.018 12.5953Z" fill="white" stroke="white" stroke-width="0.2"/>
</svg>
