<svg width="30" height="30" viewBox="0 0 30 30" fill="none" xmlns="http://www.w3.org/2000/svg"><g clip-path="url(#clip0)" fill="#00E676"><path d="M14.273.017C6.35.395.097 6.993.12 14.925c.008 2.416.59 4.696 1.62 6.71l-1.58 7.67a.58.58 0 00.7.68l7.514-1.78a14.81 14.81 0 006.393 1.552c8.099.123 14.85-6.306 15.103-14.402C30.14 6.678 22.98-.396 14.272.018zm8.965 23.1A11.574 11.574 0 0115 26.529c-1.822 0-3.567-.409-5.185-1.215l-1.046-.521-4.607 1.091.97-4.707-.516-1.01A11.52 11.52 0 013.35 14.88c0-3.112 1.212-6.038 3.412-8.238A11.671 11.671 0 0115 3.229a11.57 11.57 0 018.238 3.412c2.2 2.2 3.412 5.126 3.412 8.238a11.67 11.67 0 01-3.412 8.238z"/><path d="M22.22 18.106l-2.881-.828a1.074 1.074 0 00-1.063.28l-.705.718a1.05 1.05 0 01-1.141.241c-1.364-.552-4.232-3.101-4.964-4.377a1.05 1.05 0 01.083-1.164l.616-.796c.24-.312.291-.73.132-1.09l-1.213-2.743a1.075 1.075 0 00-1.678-.385c-.804.68-1.758 1.715-1.874 2.86-.205 2.02.661 4.565 3.936 7.621 3.783 3.531 6.813 3.997 8.785 3.52 1.119-.271 2.013-1.358 2.577-2.247a1.075 1.075 0 00-.61-1.61z"/></g><defs><clipPath id="clip0"><path fill="#fff" d="M0 0h30v30H0z"/></clipPath></defs></svg>