<?xml version="1.0" encoding="UTF-8"?> <svg xmlns="http://www.w3.org/2000/svg" width="60" height="60" viewBox="0 0 60 60" fill="none"><path d="M55.9996 14.1V11.0001C55.9996 8.79089 54.2088 7.00012 51.9997 7.00012H50.9999V4.94888C52.256 4.69116 53.1139 3.52478 52.9848 2.24854C52.8557 0.972748 51.7822 0.0013733 50.5 0H43.4999C42.2173 0.0013733 41.1438 0.972748 41.0147 2.24854C40.8861 3.52478 41.7435 4.69116 43 4.94888V7.00012H41.9998C39.7907 7.00012 37.9999 8.79089 37.9999 11.0001V14.1C35.6735 14.5784 34.0027 16.6251 34 18.9999V28.9998C34.0009 30.2948 34.5067 31.5381 35.4099 32.466C34.5772 32.9874 34.0535 33.8846 34.01 34.866C33.8429 34.8459 33.6809 34.8088 33.5097 34.8051C33.1224 32.5937 31.4937 30.8043 29.328 30.2115C27.1623 29.6187 24.8493 30.3291 23.3899 32.0352C22.9271 32.0682 22.4707 32.1584 22.0299 32.303C21.7923 29.8778 20.5481 27.6636 18.5999 26.2001C18.1581 25.8687 17.531 25.9579 17.2 26.4001C16.8686 26.8419 16.9579 27.4686 17.3996 27.8C18.8484 28.8913 19.7951 30.5219 20.024 32.3209C19.341 32.075 18.6159 31.9656 17.8908 32C16.8183 32.0764 15.8313 32.6138 15.1849 33.4731C14.2337 32.5685 13.0957 31.8837 11.8506 31.4671C12.3276 30.4587 12.9534 29.5285 13.7077 28.7068C14.0982 28.3163 14.0982 27.6828 13.7073 27.2923C13.3164 26.9019 12.6833 26.9023 12.2928 27.2928C11.8726 27.7332 11.489 28.2069 11.1447 28.7091C10.8161 28.1795 10.3359 27.7611 9.76594 27.5089C7.78795 26.6492 5.50371 28.1708 5.24965 28.347C4.86467 28.6139 4.71635 29.1129 4.89396 29.5468C5.16862 30.2422 5.50828 30.9096 5.90791 31.5408C3.22999 32.5209 1.17463 34.7118 0.367597 37.4469C-0.438982 40.182 0.0984322 43.1378 1.81596 45.4138C1.47767 45.6029 1.17921 45.8556 0.936597 46.1581C0.372633 46.8709 0.171217 47.8047 0.390943 48.6868C1.68275 53.7524 5.34669 57.8796 10.2237 59.762C10.6 59.919 11.0042 60 11.4116 60H32.59C32.9961 60 33.3989 59.9194 33.7738 59.7629C34.4495 59.474 35.1087 59.1476 35.7477 58.7851C36.6513 59.5665 37.8053 59.9977 38.9996 60H54.9999C57.7597 59.9968 59.9964 57.7602 60 54.9998V45C59.9986 43.7064 59.4937 42.4635 58.5919 41.5361C58.7792 41.4198 58.9522 41.2825 59.1078 41.1259C59.6819 40.5679 60.0037 39.8003 60 39.0001C59.9973 38.2594 59.7189 37.5467 59.22 37.0001C59.8178 36.3469 60.0929 35.4616 59.9712 34.585C59.8494 33.7079 59.3431 32.9311 58.5896 32.466C59.4928 31.5381 59.9986 30.2948 60 28.9998V18.9999C59.9968 16.6251 58.3264 14.5784 55.9996 14.1ZM43.4999 1.99997H50.5C50.7761 1.99997 50.9999 2.22382 50.9999 2.49985C50.9999 2.77634 50.7761 3.00018 50.5 3.00018H43.4999C43.2239 3.00018 43 2.77634 43 2.49985C43 2.22382 43.2239 1.99997 43.4999 1.99997ZM45 5.00015H49V7.00012H45V5.00015ZM39.9999 11.0001C39.9999 9.89548 40.8952 9.00009 41.9998 9.00009H51.9997C53.1043 9.00009 53.9996 9.89548 53.9996 11.0001V13.9998H39.9999V11.0001ZM35.9999 18.9999C35.9999 17.3433 37.343 16.0002 38.9996 16.0002H54.9999C56.6565 16.0002 58 17.3433 58 18.9999V28.9998C58 30.6569 56.6565 32 54.9999 32H38.9996C37.343 32 35.9999 30.6569 35.9999 28.9998V18.9999ZM56.9998 33.9999C57.5519 33.9999 58 34.4476 58 35.0002C58 35.5522 57.5519 35.9999 56.9998 35.9999H36.9997C36.4476 35.9999 35.9999 35.5522 35.9999 35.0002C35.9999 34.4476 36.4476 33.9999 36.9997 33.9999H56.9998ZM58 39.0001C58.0005 39.2693 57.8897 39.5274 57.6938 39.7119C57.5116 39.8987 57.2608 40.0026 56.9998 39.9998H38.3858C38.3858 39.933 38.4 39.8662 38.4 39.7998C38.3972 39.1837 38.2796 38.573 38.053 37.9999H56.9998C57.5519 37.9999 58 38.4476 58 39.0001ZM31.5999 35.88C31.5999 36.1784 31.7331 36.4609 31.9629 36.6508C32.1932 36.8408 32.4957 36.9182 32.7887 36.8619C32.9901 36.8221 33.1947 36.8015 33.3998 36.8001C35.0565 36.8001 36.4 38.1432 36.4 39.7998C36.3977 40.0978 36.3551 40.3935 36.2737 40.6801C36.1519 41.1333 36.362 41.6107 36.779 41.8268C37.5229 42.2044 37.9944 42.9657 37.9999 43.8002C37.9999 44.2273 37.8726 44.6452 37.6337 45H30.7247C30.9046 44.2804 30.9966 43.5416 30.9998 42.8C30.9792 40.1244 29.8288 37.5819 27.833 35.7999C27.7638 35.4666 27.6727 35.1384 27.5597 34.817C27.2479 33.8965 26.6382 33.1064 25.827 32.5708C26.4189 32.2018 27.1019 32.0041 27.8 32C28.8199 32.0059 29.7949 32.4188 30.509 33.1476C31.2227 33.8763 31.6155 34.8601 31.5999 35.88ZM12.9117 45C12.1861 42.7199 12.6306 40.2287 14.0996 38.34C14.1811 38.8188 14.3303 39.2834 14.5436 39.7202C14.8279 40.2859 15.2385 40.7785 15.7439 41.1598C16.3422 41.597 17.0348 41.8877 17.7658 42.0081C17.8542 42.0094 17.9421 41.998 18.0267 41.9742C18.3348 41.8803 18.5829 41.6505 18.6997 41.3512V41.3402C18.712 41.3058 19.5996 39.0001 20.9999 39.0001C22.3998 39.0001 23.2846 41.3058 23.2997 41.3402V41.3512C23.4169 41.6505 23.665 41.8803 23.9726 41.9742C24.0578 41.998 24.1457 42.0094 24.234 42.0081C24.9655 41.8872 25.659 41.5965 26.2578 41.1589C26.7627 40.778 27.1733 40.2859 27.4576 39.7211C27.6022 39.424 27.7171 39.1136 27.8009 38.7941C29.0094 40.627 29.3244 42.9085 28.6569 45H12.9117ZM16.826 40.649C16.8462 40.5945 16.8714 40.5423 16.9006 40.4919C16.8787 40.5501 16.8599 40.605 16.843 40.6558L16.826 40.649ZM25.0987 40.4919C25.128 40.5423 25.1532 40.5945 25.1738 40.649L25.1569 40.6558C25.1399 40.6 25.1207 40.5501 25.0997 40.4919H25.0987ZM18.0057 33.9999C18.7308 33.9693 19.4476 34.1647 20.0569 34.5589C20.04 34.6989 20.024 34.7859 20.0189 34.8102C19.9146 35.3481 20.2629 35.8699 20.7999 35.9802C20.8658 35.994 20.9326 36.0004 20.9999 35.9999C21.4746 35.9995 21.8839 35.6653 21.9786 35.2002C22.023 34.9585 22.0546 34.715 22.0738 34.4701C22.6584 34.1345 23.3263 33.9716 23.9996 33.9999C24.8021 34.1281 25.4581 34.709 25.6819 35.49C25.7849 35.7797 25.8646 36.0773 25.92 36.3799C25.92 36.3922 25.925 36.4018 25.9259 36.4142C26.0971 37.2258 26.0083 38.0708 25.6719 38.8289C25.5354 39.104 25.34 39.3457 25.0997 39.537C25.0379 39.576 24.8996 39.651 24.7518 39.7311C24.1118 38.5469 22.863 37.0001 20.9999 37.0001C19.1368 37.0001 17.8867 38.5478 17.2518 39.7289C17.1108 39.6561 16.9908 39.5901 16.9446 39.5622C16.6869 39.3668 16.4772 39.1145 16.333 38.8252C15.8899 37.7568 15.8867 36.5575 16.3239 35.4872C16.5482 34.7067 17.2041 34.1267 18.0057 33.9999ZM8.97081 29.3449C9.50456 29.7185 9.83964 30.314 9.88267 30.9641L9.85063 31.041C9.25187 30.9869 8.64854 30.9924 8.0507 31.0579C7.66755 30.6198 7.34895 30.1291 7.10588 29.5999C7.67167 29.279 8.33955 29.1879 8.97081 29.3449ZM7.84196 33.0899C8.29881 33.0226 8.76115 32.9951 9.22303 33.007C9.07792 33.6617 9.00285 34.3295 8.99965 35.0002C8.99965 35.5522 9.44734 35.9999 9.99986 35.9999C10.5519 35.9999 10.9996 35.5522 10.9996 35.0002C11.0028 34.4531 11.0669 33.9079 11.191 33.3751C12.3605 33.7633 13.4056 34.4563 14.2186 35.3819C11.9307 37.1654 10.5863 39.8991 10.5698 42.8C10.573 43.5416 10.6654 44.2804 10.8449 45H4.11577C2.22658 43.1612 1.53215 40.4164 2.3195 37.9001C3.1064 35.3842 5.24141 33.5243 7.84196 33.0899ZM32.9947 57.9208C32.8679 57.9735 32.7319 58 32.5946 58H11.4116C11.2706 58.0009 11.1305 57.9739 10.9996 57.9199C6.68977 56.3031 3.44835 52.6721 2.32866 48.2071C2.25725 47.9214 2.32362 47.6193 2.50764 47.39C2.6999 47.1432 2.99516 46.9991 3.30781 47H40.6879C41.0005 46.9991 41.2958 47.1432 41.4876 47.39C41.6721 47.6193 41.7384 47.9214 41.667 48.2071C40.5213 52.6588 37.289 56.2798 32.9947 57.9208ZM58 54.9998C58 56.657 56.6565 58 54.9999 58H38.9996C38.497 57.9955 38.004 57.8636 37.5659 57.6169C40.5666 55.4425 42.7057 52.2812 43.6089 48.6868C43.8286 47.8047 43.6267 46.8709 43.0628 46.1581C42.4928 45.4253 41.6162 44.9977 40.6879 45H39.8049C40.1262 44.0103 40.0488 42.9341 39.5897 41.9998H54.9999C56.6565 41.9998 58 43.3434 58 45V54.9998Z" fill="url(#paint0_linear)"></path><path d="M38.9996 20.9999C39.5522 20.9999 39.9999 20.5522 39.9999 20.0002V18.9999C39.9999 18.4479 39.5522 18.0002 38.9996 18.0002C38.4476 18.0002 37.9999 18.4479 37.9999 18.9999V20.0002C37.9999 20.5522 38.4476 20.9999 38.9996 20.9999Z" fill="url(#paint1_linear)"></path><path d="M38.9996 30C39.5522 30 39.9999 29.5523 39.9999 28.9998V24.0001C39.9999 23.4476 39.5522 22.9999 38.9996 22.9999C38.4476 22.9999 37.9999 23.4476 37.9999 24.0001V28.9998C37.9999 29.5523 38.4476 30 38.9996 30Z" fill="url(#paint2_linear)"></path><path d="M6.99968 48.9999H5.99992C5.4474 48.9999 4.99971 49.4476 4.99971 50.0002C4.99971 50.5522 5.4474 50.9999 5.99992 50.9999H6.99968C7.5522 50.9999 7.99989 50.5522 7.99989 50.0002C7.99989 49.4476 7.5522 48.9999 6.99968 48.9999Z" fill="url(#paint3_linear)"></path><path d="M38.9996 50.0002C38.9996 49.4476 38.552 48.9999 37.9999 48.9999H10.9996C10.4476 48.9999 9.99986 49.4476 9.99986 50.0002C9.99986 50.5522 10.4476 50.9999 10.9996 50.9999H37.9999C38.552 50.9999 38.9996 50.5522 38.9996 50.0002Z" fill="url(#paint4_linear)"></path><defs><linearGradient id="paint0_linear" x1="-0.0366707" y1="60.1767" x2="63.6631" y2="55.0711" gradientUnits="userSpaceOnUse"><stop stop-color="#D90017"></stop><stop offset="1" stop-color="#B4000D"></stop></linearGradient><linearGradient id="paint1_linear" x1="-0.0366707" y1="60.1767" x2="63.6631" y2="55.0711" gradientUnits="userSpaceOnUse"><stop stop-color="#D90017"></stop><stop offset="1" stop-color="#B4000D"></stop></linearGradient><linearGradient id="paint2_linear" x1="-0.0366707" y1="60.1767" x2="63.6631" y2="55.0711" gradientUnits="userSpaceOnUse"><stop stop-color="#D90017"></stop><stop offset="1" stop-color="#B4000D"></stop></linearGradient><linearGradient id="paint3_linear" x1="-0.0366707" y1="60.1767" x2="63.6631" y2="55.0711" gradientUnits="userSpaceOnUse"><stop stop-color="#D90017"></stop><stop offset="1" stop-color="#B4000D"></stop></linearGradient><linearGradient id="paint4_linear" x1="-0.0366707" y1="60.1767" x2="63.6631" y2="55.0711" gradientUnits="userSpaceOnUse"><stop stop-color="#D90017"></stop><stop offset="1" stop-color="#B4000D"></stop></linearGradient></defs></svg> 