<?xml version="1.0" encoding="UTF-8"?> <svg xmlns="http://www.w3.org/2000/svg" width="65" height="60" viewBox="0 0 65 60" fill="none"><path d="M63.8489 58.0892H61.7565V31.465H63.8489C64.196 31.465 64.5155 31.275 64.6827 30.9693C64.8497 30.6636 64.8376 30.2907 64.6514 29.9966L57.55 18.7864C57.3754 18.5107 57.0728 18.3438 56.7475 18.3438H37.8663L33.3511 13.8082V10.0637H42.5448C42.8956 10.0637 43.2179 9.86981 43.3834 9.55911C43.5489 9.24854 43.5308 8.87146 43.3361 8.57834L41.6589 6.05096L43.3362 3.52357C43.5309 3.23045 43.5489 2.85338 43.3835 2.5428C43.2179 2.2321 42.8956 2.03822 42.5448 2.03822H33.3511V0.955414C33.3511 0.427771 32.9252 0 32.4 0C31.8748 0 31.4489 0.427771 31.4489 0.955414V13.8082L26.9337 18.3439H8.05246C7.72732 18.3439 7.42463 18.5108 7.25001 18.7865L0.148645 29.9967C-0.0376392 30.2908 -0.0496861 30.6637 0.117323 30.9694C0.284458 31.275 0.60402 31.465 0.951099 31.465H3.04347V58.0892H0.951099C0.425852 58.0892 2.34286e-05 58.5169 2.34286e-05 59.0446C2.34286e-05 59.5722 0.425852 60 0.951099 60H63.8489C64.3742 60 64.8 59.5722 64.8 59.0446C64.8 58.5169 64.3742 58.0892 63.8489 58.0892ZM56.2255 20.2548L62.1164 29.5541H49.0256L39.7684 20.2548H56.2255ZM40.7677 3.94904L39.7244 5.52102C39.5114 5.84191 39.5114 6.26 39.7244 6.58089L40.7677 8.15287H33.3511V3.94904H40.7677ZM8.57454 20.2548H25.0314L15.7743 29.5541H2.68371L8.57454 20.2548ZM4.94562 31.465H16.1681C16.1995 31.465 16.231 31.4633 16.2624 31.4601C16.2758 31.4589 16.289 31.4563 16.3023 31.4544C16.3197 31.4518 16.3371 31.4498 16.3545 31.4464C16.3699 31.4433 16.3849 31.439 16.4001 31.4352C16.415 31.4315 16.4299 31.428 16.4446 31.4237C16.4596 31.4191 16.4742 31.4134 16.4889 31.4082C16.5035 31.4029 16.5181 31.3981 16.5325 31.3921C16.5463 31.3864 16.5595 31.3796 16.573 31.3732C16.5875 31.3662 16.6024 31.3597 16.6167 31.352C16.6298 31.345 16.6421 31.3369 16.6548 31.3294C16.6687 31.3211 16.6829 31.3131 16.6965 31.3039C16.7107 31.2944 16.724 31.2838 16.7376 31.2735C16.7487 31.2651 16.7603 31.2573 16.771 31.2483C16.7954 31.2283 16.8187 31.2071 16.8409 31.1847L32.4 15.5549L47.9591 31.1848C47.9813 31.2071 48.0047 31.2283 48.029 31.2484C48.0397 31.2573 48.0512 31.2651 48.0623 31.2735C48.076 31.2838 48.0895 31.2945 48.1037 31.3041C48.1171 31.3131 48.1312 31.321 48.145 31.3293C48.1578 31.3371 48.1702 31.3451 48.1834 31.3521C48.1976 31.3597 48.2122 31.3662 48.2268 31.3731C48.2404 31.3796 48.2538 31.3864 48.2677 31.3922C48.282 31.3981 48.2964 31.4028 48.3107 31.408C48.3256 31.4134 48.3403 31.4191 48.3555 31.4238C48.37 31.4283 48.3847 31.4315 48.3993 31.4352C48.4147 31.4391 48.4299 31.4434 48.4457 31.4465C48.4624 31.4498 48.4793 31.4518 48.4961 31.4543C48.51 31.4563 48.5237 31.4589 48.5377 31.4603C48.5689 31.4633 48.6002 31.465 48.6316 31.465H59.8544V58.0892H39.438V44.7771C39.438 43.1264 38.1011 41.7834 36.4579 41.7834H28.3421C26.6989 41.7834 25.362 43.1264 25.362 44.7771V58.0892H4.94562V31.465ZM37.5358 45.8599H27.2642V44.7771C27.2642 44.18 27.7477 43.6943 28.3421 43.6943H36.4579C37.0523 43.6943 37.5358 44.18 37.5358 44.7771V45.8599ZM27.2642 47.7707H31.4489V58.0892H27.2642V47.7707ZM33.3511 47.7707H37.5358V58.0892H33.3511V47.7707Z" fill="url(#paint0_linear)"></path><path d="M32.4 38.5987C36.2808 38.5987 39.438 35.4271 39.438 31.5287C39.438 27.6302 36.2808 24.4586 32.4 24.4586C28.5192 24.4586 25.362 27.6302 25.362 31.5287C25.362 35.4271 28.5192 38.5987 32.4 38.5987ZM32.4 26.3694C35.2319 26.3694 37.5358 28.6838 37.5358 31.5287C37.5358 34.3735 35.2319 36.6879 32.4 36.6879C29.5681 36.6879 27.2642 34.3735 27.2642 31.5287C27.2642 28.6838 29.5681 26.3694 32.4 26.3694Z" fill="url(#paint1_linear)"></path><path d="M32.4 32.4841C32.9252 32.4841 33.3511 32.0563 33.3511 31.5287V28.4713C33.3511 27.9437 32.9252 27.5159 32.4 27.5159C31.8748 27.5159 31.4489 27.9437 31.4489 28.4713V30.5732H29.3566C28.8313 30.5732 28.4055 31.001 28.4055 31.5287C28.4055 32.0563 28.8313 32.4841 29.3566 32.4841H32.4Z" fill="url(#paint2_linear)"></path><path d="M22.2552 46.879H17.1828C16.6575 46.879 16.2317 47.3068 16.2317 47.8344V53.949C16.2317 54.4767 16.6575 54.9045 17.1828 54.9045H22.2552C22.7804 54.9045 23.2063 54.4767 23.2063 53.949V47.8344C23.2063 47.3068 22.7804 46.879 22.2552 46.879ZM21.3041 48.7898V49.9363H18.1339V48.7898H21.3041ZM18.1339 52.9936V51.8471H21.3041V52.9936H18.1339Z" fill="url(#paint3_linear)"></path><path d="M13.1249 46.879H8.05246C7.52722 46.879 7.10139 47.3068 7.10139 47.8344V53.949C7.10139 54.4767 7.52722 54.9045 8.05246 54.9045H13.1249C13.6501 54.9045 14.0759 54.4767 14.0759 53.949V47.8344C14.0759 47.3068 13.6501 46.879 13.1249 46.879ZM12.1738 48.7898V49.9363H9.00354V48.7898H12.1738ZM9.00354 52.9936V51.8471H12.1738V52.9936H9.00354Z" fill="url(#paint4_linear)"></path><path d="M21.9382 34.6497H17.4998C16.8006 34.6497 16.2317 35.2211 16.2317 35.9236V42.7389C16.2317 43.2665 16.6575 43.6943 17.1828 43.6943H22.2552C22.7804 43.6943 23.2063 43.2665 23.2063 42.7389V35.9236C23.2063 35.2211 22.6374 34.6497 21.9382 34.6497ZM21.3041 36.5605V38.7261H18.1339V36.5605H21.3041ZM18.1339 41.7834V40.6369H21.3041V41.7834H18.1339Z" fill="url(#paint5_linear)"></path><path d="M12.8078 34.6497H8.36949C7.67026 34.6497 7.10139 35.2211 7.10139 35.9236V42.7389C7.10139 43.2665 7.52722 43.6943 8.05246 43.6943H13.1249C13.6501 43.6943 14.0759 43.2665 14.0759 42.7389V35.9236C14.0759 35.2211 13.5071 34.6497 12.8078 34.6497ZM12.1738 36.5605V38.7261H9.00354V36.5605H12.1738ZM9.00354 41.7834V40.6369H12.1738V41.7834H9.00354Z" fill="url(#paint6_linear)"></path><path d="M51.6751 54.9045H56.7475C57.2728 54.9045 57.6986 54.4767 57.6986 53.949V47.8344C57.6986 47.3068 57.2728 46.879 56.7475 46.879H51.6751C51.1499 46.879 50.7241 47.3068 50.7241 47.8344V53.949C50.7241 54.4767 51.1499 54.9045 51.6751 54.9045ZM52.6262 52.9936V51.8471H55.7965V52.9936H52.6262ZM55.7965 48.7898V49.9363H52.6262V48.7898H55.7965Z" fill="url(#paint7_linear)"></path><path d="M42.5448 54.9045H47.6172C48.1425 54.9045 48.5683 54.4767 48.5683 53.949V47.8344C48.5683 47.3068 48.1425 46.879 47.6172 46.879H42.5448C42.0196 46.879 41.5937 47.3068 41.5937 47.8344V53.949C41.5937 54.4767 42.0196 54.9045 42.5448 54.9045ZM43.4959 52.9936V51.8471H46.6661V52.9936H43.4959ZM46.6661 48.7898V49.9363H43.4959V48.7898H46.6661Z" fill="url(#paint8_linear)"></path><path d="M51.6751 43.6943H56.7475C57.2728 43.6943 57.6986 43.2665 57.6986 42.7389V35.9236C57.6986 35.2211 57.1297 34.6497 56.4305 34.6497H51.9922C51.2929 34.6497 50.7241 35.2211 50.7241 35.9236V42.7389C50.7241 43.2665 51.1499 43.6943 51.6751 43.6943ZM52.6262 41.7834V40.6369H55.7965V41.7834H52.6262ZM55.7965 36.5605V38.7261H52.6262V36.5605H55.7965Z" fill="url(#paint9_linear)"></path><path d="M42.5448 43.6943H47.6172C48.1425 43.6943 48.5683 43.2665 48.5683 42.7389V35.9236C48.5683 35.2211 47.9994 34.6497 47.3002 34.6497H42.8618C42.1626 34.6497 41.5937 35.2211 41.5937 35.9236V42.7389C41.5937 43.2665 42.0196 43.6943 42.5448 43.6943ZM43.4959 41.7834V40.6369H46.6661V41.7834H43.4959ZM46.6661 36.5605V38.7261H43.4959V36.5605H46.6661Z" fill="url(#paint10_linear)"></path><defs><linearGradient id="paint0_linear" x1="-0.0396044" y1="60.1767" x2="68.6831" y2="54.2279" gradientUnits="userSpaceOnUse"><stop stop-color="#D90017"></stop><stop offset="1" stop-color="#B4000D"></stop></linearGradient><linearGradient id="paint1_linear" x1="-0.0396044" y1="60.1767" x2="68.6831" y2="54.2279" gradientUnits="userSpaceOnUse"><stop stop-color="#D90017"></stop><stop offset="1" stop-color="#B4000D"></stop></linearGradient><linearGradient id="paint2_linear" x1="-0.0396044" y1="60.1767" x2="68.6831" y2="54.2279" gradientUnits="userSpaceOnUse"><stop stop-color="#D90017"></stop><stop offset="1" stop-color="#B4000D"></stop></linearGradient><linearGradient id="paint3_linear" x1="-0.0396044" y1="60.1767" x2="68.6831" y2="54.2279" gradientUnits="userSpaceOnUse"><stop stop-color="#D90017"></stop><stop offset="1" stop-color="#B4000D"></stop></linearGradient><linearGradient id="paint4_linear" x1="-0.0396044" y1="60.1767" x2="68.6831" y2="54.2279" gradientUnits="userSpaceOnUse"><stop stop-color="#D90017"></stop><stop offset="1" stop-color="#B4000D"></stop></linearGradient><linearGradient id="paint5_linear" x1="-0.0396044" y1="60.1767" x2="68.6831" y2="54.2279" gradientUnits="userSpaceOnUse"><stop stop-color="#D90017"></stop><stop offset="1" stop-color="#B4000D"></stop></linearGradient><linearGradient id="paint6_linear" x1="-0.0396044" y1="60.1767" x2="68.6831" y2="54.2279" gradientUnits="userSpaceOnUse"><stop stop-color="#D90017"></stop><stop offset="1" stop-color="#B4000D"></stop></linearGradient><linearGradient id="paint7_linear" x1="-0.0396044" y1="60.1767" x2="68.6831" y2="54.2279" gradientUnits="userSpaceOnUse"><stop stop-color="#D90017"></stop><stop offset="1" stop-color="#B4000D"></stop></linearGradient><linearGradient id="paint8_linear" x1="-0.0396044" y1="60.1767" x2="68.6831" y2="54.2279" gradientUnits="userSpaceOnUse"><stop stop-color="#D90017"></stop><stop offset="1" stop-color="#B4000D"></stop></linearGradient><linearGradient id="paint9_linear" x1="-0.0396044" y1="60.1767" x2="68.6831" y2="54.2279" gradientUnits="userSpaceOnUse"><stop stop-color="#D90017"></stop><stop offset="1" stop-color="#B4000D"></stop></linearGradient><linearGradient id="paint10_linear" x1="-0.0396044" y1="60.1767" x2="68.6831" y2="54.2279" gradientUnits="userSpaceOnUse"><stop stop-color="#D90017"></stop><stop offset="1" stop-color="#B4000D"></stop></linearGradient></defs></svg> 