<?xml version="1.0" encoding="UTF-8"?> <svg xmlns="http://www.w3.org/2000/svg" width="62" height="60" viewBox="0 0 62 60" fill="none"><path d="M37.9983 28.3534H37.6301V27.0188C37.6301 26.3863 37.9109 25.7941 38.4007 25.3945C39.3117 24.6511 39.8344 23.5504 39.8344 22.3746V9.98912C39.8344 8.57331 38.6825 7.4214 37.2667 7.4214C36.9995 7.4214 36.7421 7.46273 36.4998 7.53833V4.01922C36.4998 2.60341 35.3479 1.4515 33.9321 1.4515C33.5982 1.4515 33.2803 1.51725 32.9873 1.6337C32.6126 0.679027 31.6842 0 30.598 0C29.5119 0 28.583 0.679027 28.2087 1.6337C27.9157 1.51725 27.5973 1.4515 27.2635 1.4515C26.0064 1.4515 24.9592 2.36063 24.7399 3.55527C24.4849 3.47027 24.2125 3.4219 23.9294 3.4219C22.5136 3.4219 21.3617 4.57381 21.3617 5.98962V15.612C21.3617 16.1093 21.7646 16.5127 22.2619 16.5127C22.7592 16.5127 23.1625 16.1098 23.1625 15.612V5.98962C23.1625 5.56699 23.5063 5.22325 23.9294 5.22325C24.352 5.22325 24.6957 5.56699 24.6957 5.98962V13.1485C24.6957 13.6458 25.0991 14.0492 25.5964 14.0492C26.0937 14.0492 26.4971 13.6463 26.4971 13.1485V4.01922C26.4971 3.59612 26.8408 3.25238 27.2635 3.25238C27.6866 3.25238 28.0303 3.59612 28.0303 4.01922V13.1485C28.0303 13.6458 28.4337 14.0492 28.931 14.0492C29.4283 14.0492 29.8312 13.6463 29.8312 13.1485V2.56772C29.8312 2.14462 30.1754 1.80088 30.598 1.80088C31.0207 1.80088 31.3649 2.14462 31.3649 2.56772V13.1485C31.3649 13.6458 31.7678 14.0492 32.2651 14.0492C32.7624 14.0492 33.1657 13.6463 33.1657 13.1485V4.01922C33.1657 3.59612 33.5095 3.25238 33.9326 3.25238C34.3552 3.25238 34.6989 3.59612 34.6989 4.01922V16.029C34.6989 16.5521 34.3857 17.017 33.9011 17.2142L31.7316 18.0957C30.6938 18.5169 30.0232 19.5129 30.0232 20.6329V21.4396C30.0232 21.9374 30.4266 22.3403 30.9239 22.3403C31.4212 22.3403 31.8246 21.9374 31.8246 21.4396V20.6329C31.8246 20.2492 32.0542 19.9083 32.4092 19.7641L34.5792 18.8827C35.7461 18.4089 36.5003 17.2884 36.5003 16.029V9.98912C36.5003 9.56649 36.844 9.22228 37.2667 9.22228C37.6898 9.22228 38.0335 9.56649 38.0335 9.98912V22.3746C38.0335 23.0071 37.7527 23.5993 37.2624 23.9989C36.3514 24.7422 35.8293 25.843 35.8293 27.0188V28.3534H25.2517V26.9704C25.2517 25.8345 24.7582 24.7582 23.8913 24.0116C23.4283 23.6129 23.163 23.0339 23.163 22.4229V19.6143C23.163 19.117 22.7596 18.7136 22.2623 18.7136C21.765 18.7136 21.3617 19.117 21.3617 19.6143V22.4229C21.3617 23.5589 21.8557 24.6352 22.7225 25.3818C23.1855 25.7805 23.4509 26.3595 23.4509 26.9704V28.3585C22.2905 28.4121 21.3617 29.37 21.3617 30.5435V59.0993C21.3617 59.5966 21.765 60 22.2623 60C22.7596 60 23.163 59.5966 23.163 59.0993V37.292H38.3881V59.0993C38.3881 59.5966 38.7914 60 39.2887 60C39.786 60 40.1894 59.5966 40.1894 59.0993V30.5435C40.1889 29.3358 39.2061 28.3534 37.9983 28.3534ZM23.1625 35.4907V30.544C23.1625 30.3289 23.3372 30.1543 23.5518 30.1543H37.9988C38.2134 30.1543 38.3881 30.3289 38.3881 30.544V35.4907H23.1625Z" fill="url(#paint0_linear)"></path><path d="M59.3595 43.4653H58.9913V42.1307C58.9913 41.4981 59.2721 40.906 59.7624 40.5064C60.6729 39.763 61.1956 38.6623 61.1956 37.4864V25.101C61.1956 23.6852 60.0437 22.5333 58.6279 22.5333C58.3607 22.5333 58.1033 22.5746 57.861 22.6502V19.1306C57.861 17.7153 56.7091 16.5634 55.2933 16.5634C54.9594 16.5634 54.641 16.6291 54.3485 16.7456C53.9737 15.7909 53.0454 15.1119 51.9592 15.1119C50.873 15.1119 49.9442 15.7909 49.5695 16.7456C49.2769 16.6291 48.9585 16.5634 48.6246 16.5634C47.3671 16.5634 46.3204 17.472 46.1011 18.6671C45.8456 18.5817 45.5737 18.5338 45.2901 18.5338C43.8743 18.5338 42.7224 19.6857 42.7224 21.1015V37.5348C42.7224 38.6707 43.2164 39.747 44.071 40.4829C44.0729 40.4848 44.0814 40.4918 44.0832 40.4937C44.5463 40.8924 44.8116 41.4714 44.8116 42.0823V43.47C43.6507 43.5235 42.7224 44.4819 42.7224 45.6554V59.0993C42.7224 59.5966 43.1257 60 43.623 60C44.1203 60 44.5237 59.5966 44.5237 59.0993V52.4034H59.7488V59.0993C59.7488 59.5966 60.1521 60 60.6494 60C61.1467 60 61.5501 59.5966 61.5501 59.0993V45.6554C61.5501 44.4476 60.5673 43.4653 59.3595 43.4653ZM44.5237 50.6026V45.6559C44.5237 45.4408 44.6984 45.2661 44.913 45.2661H52.1362C52.6335 45.2661 53.0369 44.8632 53.0369 44.3655C53.0369 43.8682 52.6335 43.4653 52.1362 43.4653H46.6129V42.0823C46.6129 40.9464 46.1194 39.8701 45.2643 39.1342C45.2624 39.1324 45.2544 39.1253 45.2525 39.1234C44.789 38.7248 44.5237 38.1457 44.5237 37.5348V21.1015C44.5237 20.6789 44.8679 20.3347 45.2906 20.3347C45.7132 20.3347 46.0569 20.6789 46.0569 21.1015V28.2604C46.0569 28.7577 46.4603 29.1611 46.9576 29.1611C47.4549 29.1611 47.8583 28.7582 47.8583 28.2604V19.1306C47.8583 18.708 48.202 18.3643 48.6251 18.3643C49.0477 18.3643 49.3915 18.708 49.3915 19.1306V28.2604C49.3915 28.7577 49.7949 29.1611 50.2922 29.1611C50.7895 29.1611 51.1928 28.7582 51.1928 28.2604V17.6796C51.1928 17.2565 51.5366 16.9128 51.9592 16.9128C52.3823 16.9128 52.726 17.2565 52.726 17.6796V28.2604C52.726 28.7577 53.129 29.1611 53.6267 29.1611C54.124 29.1611 54.5269 28.7582 54.5269 28.2604V19.1306C54.5269 18.708 54.8711 18.3643 55.2938 18.3643C55.7164 18.3643 56.0606 18.708 56.0606 19.1306V31.1409C56.0606 31.664 55.7474 32.1289 55.2623 32.3261L53.0928 33.2075C52.055 33.6288 51.3844 34.6248 51.3844 35.7447V36.5515C51.3844 37.0488 51.7878 37.4522 52.2851 37.4522C52.7824 37.4522 53.1858 37.0493 53.1858 36.5515V35.7447C53.1858 35.3611 53.4154 35.0202 53.7704 34.876L55.9404 33.9946C57.1073 33.5208 57.8615 32.4003 57.8615 31.1409V25.101C57.8615 24.6784 58.2052 24.3342 58.6283 24.3342C59.051 24.3342 59.3947 24.6784 59.3947 25.101V37.4869C59.3947 38.119 59.1139 38.7111 58.6236 39.1112C57.7126 39.8546 57.1904 40.9548 57.1904 42.1307V43.4653H55.9498C55.4525 43.4653 55.0496 43.8682 55.0496 44.3659C55.0496 44.8632 55.4525 45.2661 55.9498 45.2661H59.3599C59.5745 45.2661 59.7492 45.4408 59.7492 45.6559V50.6026H44.5237Z" fill="url(#paint1_linear)"></path><path d="M16.6371 43.4653H16.2685V42.1307C16.2685 41.4981 16.5493 40.906 17.0395 40.5064C17.9506 39.763 18.4727 38.6623 18.4727 37.4864V25.101C18.4727 23.6852 17.3213 22.5333 15.905 22.5333C15.6383 22.5333 15.3805 22.5746 15.1386 22.6502V19.1306C15.1386 17.7153 13.9867 16.5634 12.5709 16.5634C12.237 16.5634 11.9187 16.6291 11.6256 16.7456C11.2514 15.7909 10.3225 15.1119 9.23637 15.1119C8.15021 15.1119 7.22136 15.7909 6.84709 16.7456C6.55407 16.6291 6.23569 16.5634 5.90181 16.5634C4.64472 16.5634 3.59753 17.472 3.37823 18.6671C3.12324 18.5817 2.85135 18.5338 2.56772 18.5338C1.1519 18.5338 0 19.6857 0 21.1015V37.5348C0 38.6707 0.493539 39.747 1.34866 40.4829C1.35054 40.4848 1.35852 40.4918 1.3604 40.4937C1.82342 40.8924 2.08921 41.4714 2.08921 42.0823V43.47C0.928379 43.5235 0 44.4819 0 45.6554V59.0993C0 59.5966 0.403378 60 0.900674 60C1.39797 60 1.80088 59.5966 1.80088 59.0993V52.4034H3.16034C3.65764 52.4034 4.06102 52.0005 4.06102 51.5032C4.06102 51.0059 3.65764 50.6026 3.16034 50.6026H1.80088V45.6554C1.80088 45.4408 1.97557 45.2661 2.19017 45.2661H16.6371C16.8517 45.2661 17.0264 45.4408 17.0264 45.6554V50.6026H6.68227C6.18497 50.6026 5.78159 51.0055 5.78159 51.5032C5.78159 52.0005 6.18497 52.4034 6.68227 52.4034H17.0264V59.0993C17.0264 59.5966 17.4298 60 17.9271 60C18.4244 60 18.8273 59.5966 18.8273 59.0993V45.6554C18.8273 44.4476 17.8449 43.4653 16.6371 43.4653ZM3.89008 43.4653V42.0823C3.89008 40.9464 3.39655 39.8701 2.54142 39.1342C2.53954 39.1324 2.53156 39.1253 2.52968 39.1234C2.06667 38.7248 1.80088 38.1457 1.80088 37.5348V21.1015C1.80088 20.6789 2.14509 20.3347 2.56772 20.3347C2.99082 20.3347 3.33456 20.6789 3.33456 21.1015V28.2604C3.33456 28.7577 3.73747 29.1611 4.23476 29.1611C4.73206 29.1611 5.13544 28.7582 5.13544 28.2604V19.1306C5.13544 18.708 5.47918 18.3643 5.90228 18.3643C6.32491 18.3643 6.66865 18.708 6.66865 19.1306V28.2604C6.66865 28.7577 7.07203 29.1611 7.56932 29.1611C8.06662 29.1611 8.47 28.7582 8.47 28.2604V17.6796C8.47 17.2565 8.81374 16.9128 9.23684 16.9128C9.65947 16.9128 10.0032 17.2565 10.0032 17.6796V28.2604C10.0032 28.7577 10.4066 29.1611 10.9039 29.1611C11.4012 29.1611 11.8041 28.7582 11.8041 28.2604V19.1306C11.8041 18.708 12.1483 18.3643 12.5709 18.3643C12.994 18.3643 13.3378 18.708 13.3378 19.1306V31.1409C13.3378 31.664 13.0246 32.1289 12.5399 32.3261L10.37 33.2075C9.33263 33.6288 8.66206 34.6248 8.66206 35.7447V36.5515C8.66206 37.0488 9.06497 37.4522 9.56226 37.4522C10.0596 37.4522 10.4629 37.0493 10.4629 36.5515V35.7447C10.4629 35.3611 10.6926 35.0202 11.0476 34.876L13.2176 33.9946C14.3845 33.5208 15.1386 32.4003 15.1386 31.1409V25.101C15.1386 24.6784 15.4824 24.3342 15.9055 24.3342C16.3281 24.3342 16.6719 24.6784 16.6719 25.101V37.4869C16.6719 38.119 16.391 38.7111 15.9013 39.1112C14.9903 39.8546 14.4676 40.9548 14.4676 42.1307V43.4653H3.89008Z" fill="url(#paint2_linear)"></path><defs><linearGradient id="paint0_linear" x1="-0.0376181" y1="60.1767" x2="65.286" y2="54.8057" gradientUnits="userSpaceOnUse"><stop stop-color="#D90017"></stop><stop offset="1" stop-color="#B4000D"></stop></linearGradient><linearGradient id="paint1_linear" x1="-0.0376181" y1="60.1767" x2="65.286" y2="54.8057" gradientUnits="userSpaceOnUse"><stop stop-color="#D90017"></stop><stop offset="1" stop-color="#B4000D"></stop></linearGradient><linearGradient id="paint2_linear" x1="-0.0376181" y1="60.1767" x2="65.286" y2="54.8057" gradientUnits="userSpaceOnUse"><stop stop-color="#D90017"></stop><stop offset="1" stop-color="#B4000D"></stop></linearGradient></defs></svg> 