<?xml version="1.0" encoding="UTF-8"?> <svg xmlns="http://www.w3.org/2000/svg" width="59" height="60" viewBox="0 0 59 60" fill="none"><path d="M13.6427 22.2377L15.5891 27.1445C15.8354 27.7657 16.4264 28.1667 17.0943 28.1667C17.7626 28.1667 18.3536 27.7657 18.5999 27.1445L20.5463 22.2377C21.1533 21.866 21.5607 21.1986 21.5607 20.4359V16.2854C21.5607 15.7997 21.1674 15.4065 20.6818 15.4065C20.1961 15.4065 19.8029 15.7997 19.8029 16.2854V20.4359C19.8029 20.6319 19.6436 20.7916 19.4472 20.7916H14.7418C14.5454 20.7916 14.3861 20.6319 14.3861 20.4359V5.44281C14.3861 5.24689 14.5454 5.08759 14.7418 5.08759H19.4472C19.6436 5.08759 19.8029 5.24689 19.8029 5.44281V12.4576C19.8029 12.9433 20.1961 13.3365 20.6818 13.3365C21.1674 13.3365 21.5607 12.9433 21.5607 12.4576V5.44281C21.5607 4.85458 21.3185 4.3222 20.9294 3.93906V2.12814C20.9294 0.963135 19.9814 0.0151061 18.8164 0.0151061H15.3726C14.2076 0.0151061 13.2596 0.962677 13.2596 2.12814V3.93906C12.8705 4.32266 12.6283 4.85504 12.6283 5.44327V20.4359C12.6283 21.1986 13.0357 21.866 13.6427 22.2377ZM17.0943 26.1722L15.6573 22.549H18.5316L17.0943 26.1722ZM15.3726 1.77292H18.8164C19.0123 1.77292 19.1716 1.93222 19.1716 2.12814V3.32977H15.0174V2.12814C15.0174 1.93222 15.1767 1.77292 15.3726 1.77292Z" fill="url(#paint0_linear)"></path><path d="M2.99652 46.3316H8.06488C9.29581 46.3316 10.2974 45.3305 10.2974 44.0996V8.65036C10.2974 7.9184 9.94171 7.26929 9.39514 6.86188L7.10266 1.08261C6.8454 0.43396 6.22833 0.0151061 5.5307 0.0151061C4.83307 0.0151061 4.21646 0.43396 3.9592 1.08261L1.66672 6.86188C1.12061 7.26929 0.764465 7.9184 0.764465 8.65036V44.0996C0.764465 45.3305 1.76559 46.3316 2.99652 46.3316ZM8.06488 8.17612C8.32672 8.17612 8.53958 8.38898 8.53958 8.65036V39.4061C8.47366 39.3906 8.40546 39.3814 8.33496 39.3814H6.40961V8.17612H8.06488ZM4.65179 39.3814H2.72644C2.65594 39.3814 2.58774 39.3906 2.52228 39.4061V8.65036C2.52228 8.38898 2.73514 8.17612 2.99652 8.17612H4.65179V39.3814ZM8.06488 44.5738H2.99652C2.73514 44.5738 2.52228 44.3614 2.52228 44.0996V41.114C2.5882 41.1301 2.65594 41.1392 2.72644 41.1392H8.33496C8.40546 41.1392 8.47366 41.1296 8.53958 41.114V44.0996C8.53958 44.3614 8.32672 44.5738 8.06488 44.5738ZM5.5307 1.88736L7.32788 6.4183H3.73352L5.5307 1.88736Z" fill="url(#paint1_linear)"></path><path d="M14.3266 46.3326H19.8624C21.0933 46.3326 22.0944 45.331 22.0944 44.1V36.6481C22.0944 35.9399 21.7621 35.3091 21.2466 34.8999V33.4744C21.2466 32.244 20.2451 31.2424 19.0141 31.2424H15.1749C13.9439 31.2424 12.9424 32.2435 12.9424 33.4744V34.8999C12.4265 35.3091 12.0941 35.9399 12.0941 36.6481V44.1C12.0941 45.331 13.0957 46.3326 14.3266 46.3326ZM20.3366 44.1C20.3366 44.3619 20.1242 44.5747 19.8624 44.5747H14.3266C14.0652 44.5747 13.8519 44.3619 13.8519 44.1V36.6481C13.8519 36.3863 14.0648 36.1734 14.3266 36.1734H19.8624C20.1237 36.1734 20.3366 36.3863 20.3366 36.6481V44.1ZM15.1749 33.0002H19.0141C19.276 33.0002 19.4888 33.213 19.4888 33.4744V34.416H14.7002V33.4744C14.7002 33.213 14.913 33.0002 15.1749 33.0002Z" fill="url(#paint2_linear)"></path><path d="M26.3164 45.6152H28.9517C29.2282 46.1732 29.8022 46.5582 30.466 46.5582H31.8878C32.5516 46.5582 33.1256 46.1732 33.4021 45.6152H54.137C56.1145 45.6152 57.7226 44.0067 57.7226 42.0296V4.52866C57.7226 2.55157 56.1145 0.942993 54.137 0.942993H33.4021C33.1256 0.385437 32.5516 0 31.8878 0H30.466C29.8022 0 29.2282 0.385437 28.9517 0.942993H26.3164C25.0854 0.942993 24.0839 1.94458 24.0839 3.17551V12.458C24.0839 12.9433 24.4775 13.3369 24.9628 13.3369C25.4485 13.3369 25.8417 12.9433 25.8417 12.458V3.17551C25.8417 2.91367 26.0545 2.70081 26.3164 2.70081H28.775V43.8574H26.3164C26.055 43.8574 25.8417 43.6446 25.8417 43.3827V16.2854C25.8417 15.7997 25.4485 15.4065 24.9628 15.4065C24.4775 15.4065 24.0839 15.7997 24.0839 16.2854V43.3827C24.0839 44.6136 25.0854 45.6152 26.3164 45.6152ZM55.9648 4.52866V42.0296C55.9648 43.0376 55.145 43.8574 54.137 43.8574H33.5788V2.70081H54.1374C55.145 2.70081 55.9648 3.52112 55.9648 4.52866ZM30.5328 1.75781H31.821V44.8004H30.5328V1.75781Z" fill="url(#paint3_linear)"></path><path d="M48.5307 41.0532H51.5652C52.0505 41.0532 52.4442 40.6595 52.4442 40.1743C52.4442 39.6886 52.0505 39.2953 51.5652 39.2953H48.5307C48.045 39.2953 47.6518 39.6886 47.6518 40.1743C47.6518 40.6595 48.045 41.0532 48.5307 41.0532Z" fill="url(#paint4_linear)"></path><path d="M51.4696 38.7836H51.4746C51.9598 38.7813 52.3512 38.3858 52.3489 37.9001C52.3462 37.4162 51.953 37.0258 51.47 37.0258C51.4682 37.0258 51.4668 37.0258 51.465 37.0258H51.4545C50.9692 37.0285 50.5829 37.424 50.5856 37.9097C50.5884 38.3936 50.9866 38.7836 51.4696 38.7836Z" fill="url(#paint5_linear)"></path><path d="M56.255 48.024H2.23251C1.00159 48.024 0 49.0256 0 50.2565V57.7675C0 58.9984 1.00159 60 2.23251 60H44.6219C45.1076 60 45.5008 59.6063 45.5008 59.1211C45.5008 58.6359 45.1076 58.2422 44.6219 58.2422H2.23251C1.97067 58.2422 1.75781 58.0293 1.75781 57.7675V50.2565C1.75781 49.9947 1.97067 49.7818 2.23251 49.7818H5.50598V51.1075C5.50598 51.5927 5.89966 51.9864 6.38489 51.9864C6.87057 51.9864 7.26379 51.5927 7.26379 51.1075V49.7818H9.66248V51.1075C9.66248 51.5927 10.0557 51.9864 10.5414 51.9864C11.0266 51.9864 11.4203 51.5927 11.4203 51.1075V49.7818H13.8185V51.1075C13.8185 51.5927 14.2117 51.9864 14.6974 51.9864C15.1831 51.9864 15.5763 51.5927 15.5763 51.1075V49.7818H17.9745V51.1075C17.9745 51.5927 18.3678 51.9864 18.8535 51.9864C19.3391 51.9864 19.7324 51.5927 19.7324 51.1075V49.7818H22.1306V51.1075C22.1306 51.5927 22.5243 51.9864 23.0095 51.9864C23.4952 51.9864 23.8884 51.5927 23.8884 51.1075V49.7818H26.2871V51.1075C26.2871 51.5927 26.6803 51.9864 27.166 51.9864C27.6512 51.9864 28.0449 51.5927 28.0449 51.1075V49.7818H30.4431V51.1075C30.4431 51.5927 30.8363 51.9864 31.322 51.9864C31.8072 51.9864 32.2009 51.5927 32.2009 51.1075V49.7818H34.5992V51.1075C34.5992 51.5927 34.9924 51.9864 35.4781 51.9864C35.9637 51.9864 36.357 51.5927 36.357 51.1075V49.7818H38.7552V51.1075C38.7552 51.5927 39.1489 51.9864 39.6341 51.9864C40.1198 51.9864 40.513 51.5927 40.513 51.1075V49.7818H42.9112V51.1075C42.9112 51.5927 43.3049 51.9864 43.7901 51.9864C44.2758 51.9864 44.669 51.5927 44.669 51.1075V49.7818H47.0677V51.1075C47.0677 51.5927 47.4609 51.9864 47.9466 51.9864C48.4319 51.9864 48.8255 51.5927 48.8255 51.1075V49.7818H51.2238V51.1075C51.2238 51.5927 51.617 51.9864 52.1027 51.9864C52.5883 51.9864 52.9816 51.5927 52.9816 51.1075V49.7818H56.2555C56.5169 49.7818 56.7297 49.9947 56.7297 50.2565V57.7675C56.7297 58.0293 56.5169 58.2422 56.2555 58.2422H48.4497C47.964 58.2422 47.5708 58.6359 47.5708 59.1211C47.5708 59.6063 47.964 60 48.4497 60H56.2555C57.4864 60 58.4875 58.9984 58.4875 57.7675V50.2565C58.4875 49.0256 57.486 48.024 56.255 48.024Z" fill="url(#paint6_linear)"></path><defs><linearGradient id="paint0_linear" x1="-0.0357463" y1="60.1767" x2="62.078" y2="55.3237" gradientUnits="userSpaceOnUse"><stop stop-color="#D90017"></stop><stop offset="1" stop-color="#B4000D"></stop></linearGradient><linearGradient id="paint1_linear" x1="-0.0357463" y1="60.1767" x2="62.078" y2="55.3237" gradientUnits="userSpaceOnUse"><stop stop-color="#D90017"></stop><stop offset="1" stop-color="#B4000D"></stop></linearGradient><linearGradient id="paint2_linear" x1="-0.0357463" y1="60.1767" x2="62.078" y2="55.3237" gradientUnits="userSpaceOnUse"><stop stop-color="#D90017"></stop><stop offset="1" stop-color="#B4000D"></stop></linearGradient><linearGradient id="paint3_linear" x1="-0.0357463" y1="60.1767" x2="62.078" y2="55.3237" gradientUnits="userSpaceOnUse"><stop stop-color="#D90017"></stop><stop offset="1" stop-color="#B4000D"></stop></linearGradient><linearGradient id="paint4_linear" x1="-0.0357463" y1="60.1767" x2="62.078" y2="55.3237" gradientUnits="userSpaceOnUse"><stop stop-color="#D90017"></stop><stop offset="1" stop-color="#B4000D"></stop></linearGradient><linearGradient id="paint5_linear" x1="-0.0357463" y1="60.1767" x2="62.078" y2="55.3237" gradientUnits="userSpaceOnUse"><stop stop-color="#D90017"></stop><stop offset="1" stop-color="#B4000D"></stop></linearGradient><linearGradient id="paint6_linear" x1="-0.0357463" y1="60.1767" x2="62.078" y2="55.3237" gradientUnits="userSpaceOnUse"><stop stop-color="#D90017"></stop><stop offset="1" stop-color="#B4000D"></stop></linearGradient></defs></svg> 