<?xml version="1.0" encoding="UTF-8"?> <svg xmlns="http://www.w3.org/2000/svg" width="60" height="60" viewBox="0 0 60 60" fill="none"><path d="M58 53.1839V51.107C57.9913 50.1416 57.5253 49.2371 56.7439 48.6699C54.0459 46.6452 54.0001 42.0442 54.0001 41.9998V37.9999C55.573 38.0026 56.8799 36.7873 56.9911 35.218C57.1019 33.6488 55.979 32.2614 54.4208 32.043C56.6162 29.6507 56.51 25.946 54.1814 23.6838C51.8532 21.4211 48.1471 21.4211 45.8185 23.6838C43.4903 25.946 43.3841 29.6507 45.5791 32.043C44.0208 32.2614 42.8979 33.6488 43.0092 35.218C43.12 36.7873 44.4269 38.0026 46.0002 37.9999V41.9998C46.0002 42.0451 45.954 46.6461 43.255 48.6722C42.4745 49.2389 42.0085 50.1421 41.9998 51.107V53.1839C41.8369 53.2425 41.6794 53.3153 41.5288 53.4009C41.1694 52.836 40.6311 52.4075 39.9998 52.1841V49.4211C39.9907 48.3032 39.4464 47.2577 38.5359 46.609C35.056 44.0392 35.0002 38.2329 35.0002 38.1761V26.9998C36.6014 27.0035 37.9216 25.7451 37.9953 24.1452C38.0685 22.5453 36.8692 21.1711 35.2739 21.0278L36.974 14.2429C37.0271 14.0309 37.0093 13.8071 36.9232 13.6061C36.4833 12.816 35.7784 12.2072 34.9329 11.8872C34.8143 9.60663 33.2167 7.67303 31.0002 7.12601V5.00015H33.0002C33.5522 5.00015 33.9999 4.55246 33.9999 3.99994C33.9999 3.44788 33.5522 3.00018 33.0002 3.00018H31.0002V1.00021C31.0002 0.447693 30.5521 0 30 0C29.4479 0 28.9998 0.447693 28.9998 1.00021V3.00018H26.9998C26.4478 3.00018 26.0001 3.44788 26.0001 3.99994C26.0001 4.55246 26.4478 5.00015 26.9998 5.00015H28.9998V7.12601C26.7847 7.67441 25.1889 9.608 25.0708 11.8872C24.2253 12.2072 23.5204 12.816 23.0809 13.6061C22.9948 13.8071 22.977 14.0309 23.0301 14.2429L24.7302 21.0278C23.1358 21.1711 21.9365 22.5439 22.0088 24.1429C22.0811 25.7423 23.399 27.0012 24.9998 26.9998V38.1761C24.9998 38.2338 24.9591 44.0268 21.4641 46.609C20.5536 47.2577 20.0093 48.3032 20.0002 49.4211V52.1841C19.3689 52.4075 18.8306 52.8355 18.4712 53.4C18.3206 53.3144 18.1631 53.2425 18.0002 53.1839V51.107C17.9915 50.1416 17.5259 49.2375 16.745 48.6699C14.046 46.6452 13.9998 42.0442 13.9998 41.9998V37.9999C15.5731 38.0026 16.88 36.7873 16.9908 35.218C17.1021 33.6488 15.9792 32.2614 14.4209 32.043C16.6159 29.6507 16.5097 25.946 14.1815 23.6838C11.8529 21.4211 8.14682 21.4211 5.81863 23.6838C3.48999 25.946 3.38379 29.6507 5.57922 32.043C4.021 32.2614 2.8981 33.6488 3.00888 35.218C3.12012 36.7873 4.42703 38.0026 5.99991 37.9999V41.9998C5.99991 42.0451 5.95413 46.6461 3.25516 48.6722C2.47421 49.2389 2.00867 50.1421 1.99997 51.107V53.1839C0.805664 53.6064 0.00503541 54.7334 0 56.0001V58.9998C0 59.5523 0.447693 60 1.00021 60H58.9998C59.5523 60 60 59.5523 60 58.9998V56.0001C59.995 54.7334 59.1943 53.6064 58 53.1839ZM50.0002 24.0001C52.2093 24.0001 54.0001 25.7909 54.0001 28C54.0001 30.2092 52.2093 32 50.0002 32C47.791 32 46.0002 30.2092 46.0002 28C46.0002 25.7909 47.791 24.0001 50.0002 24.0001ZM45 35.0002C45 34.4476 45.4477 33.9999 46.0002 33.9999H54.0001C54.5522 33.9999 54.9998 34.4476 54.9998 35.0002C54.9998 35.5522 54.5522 35.9999 54.0001 35.9999H46.0002C45.4477 35.9999 45 35.5522 45 35.0002ZM43.9998 51.107C44.0117 50.7715 44.1811 50.4611 44.4571 50.2698C47.9599 47.6399 48.0002 42.2292 48.0002 41.9998V37.9999H52.0001V41.9998C52.0001 42.2292 52.0399 47.6399 55.5432 50.2698C55.8192 50.4611 55.9886 50.7715 56.0001 51.107V52.9999H43.9998V51.107ZM26.781 20.9999L25.0809 14.2232C25.5148 13.8208 26.7819 13 30 13C33.2492 13 34.5099 13.8368 34.9159 14.214L33.219 20.9999H26.781ZM29.9908 9.00009C31.2936 9.06555 32.406 9.96277 32.7461 11.2221C30.9274 10.9259 29.0726 10.9259 27.2539 11.2221C27.5903 9.9678 28.6945 9.0715 29.9908 9.00009ZM24.0001 24.0001C24.0001 23.4476 24.4478 22.9999 24.9998 22.9999H35.0002C35.5522 22.9999 35.9999 23.4476 35.9999 24.0001C35.9999 24.5522 35.5522 24.9998 35.0002 24.9998H24.9998C24.4478 24.9998 24.0001 24.5522 24.0001 24.0001ZM22.0001 49.4211C22.0139 48.94 22.256 48.4941 22.652 48.2208C26.9508 45.043 26.9998 38.4549 26.9998 38.1761V26.9998H33.0002V38.1761C33.0002 38.4549 33.0492 45.043 37.348 48.2181C37.744 48.4914 37.9861 48.9368 37.9999 49.4179V52.0001H22.0001V49.4211ZM9.99985 24.0001C12.209 24.0001 13.9998 25.7909 13.9998 28C13.9998 30.2092 12.209 32 9.99985 32C7.79068 32 5.99991 30.2092 5.99991 28C5.99991 25.7909 7.79068 24.0001 9.99985 24.0001ZM5.00015 35.0002C5.00015 34.4476 5.44785 33.9999 5.99991 33.9999H13.9998C14.5523 33.9999 15 34.4476 15 35.0002C15 35.5522 14.5523 35.9999 13.9998 35.9999H5.99991C5.44785 35.9999 5.00015 35.5522 5.00015 35.0002ZM3.99994 51.107C4.01184 50.7715 4.18121 50.4611 4.45679 50.2698C7.96005 47.6399 7.99988 42.2292 7.99988 41.9998V37.9999H11.9998V41.9998C11.9998 42.2292 12.0401 47.6399 15.5429 50.2698C15.8189 50.4611 15.9883 50.7715 16.0002 51.107V52.9999H3.99994V51.107ZM1.99997 56.0001C1.99997 55.4475 2.44766 54.9998 3.00018 54.9998H17C17.5525 54.9998 18.0002 55.4475 18.0002 56.0001V58H1.99997V56.0001ZM20.0002 54.9998C20.0002 54.4478 20.4478 54.0001 20.9999 54.0001H39.0001C39.5522 54.0001 39.9998 54.4478 39.9998 54.9998V58H20.0002V54.9998ZM58 58H41.9998V56.0001C41.9998 55.4475 42.4475 54.9998 43 54.9998H56.9998C57.5523 54.9998 58 55.4475 58 56.0001V58Z" fill="url(#paint0_linear)"></path><defs><linearGradient id="paint0_linear" x1="-0.0366707" y1="60.1767" x2="63.6631" y2="55.0711" gradientUnits="userSpaceOnUse"><stop stop-color="#D90017"></stop><stop offset="1" stop-color="#B4000D"></stop></linearGradient></defs></svg> 