<?xml version="1.0" encoding="UTF-8"?> <svg xmlns="http://www.w3.org/2000/svg" width="54" height="60" viewBox="0 0 54 60" fill="none"><path d="M49.2102 43.791C49.3203 43.6442 49.3874 43.4696 49.4039 43.2868C49.4204 43.104 49.3856 42.9202 49.3035 42.756C49.2214 42.5918 49.0953 42.4538 48.9391 42.3573C48.783 42.2608 48.6031 42.2097 48.4195 42.2097H37.4488C37.2195 41.0942 36.6126 40.0919 35.7304 39.3717C34.8482 38.6516 33.7447 38.2576 32.6059 38.2563H29.6408V35.8728C33.1103 35.1729 36.3262 33.5485 38.9485 31.1714L40.8017 33.0245L42.1995 31.6268L40.3452 29.7726C40.8676 29.1964 41.3558 28.59 41.8072 27.9565L40.1968 26.8104C39.8092 27.354 39.3915 27.8755 38.9455 28.3725L37.54 26.9669C40.2008 23.9519 41.6124 20.0359 41.487 16.0166C41.3617 11.9973 39.709 8.17688 36.8655 5.33344C34.022 2.49 30.2016 0.837381 26.1823 0.712161C22.1629 0.586942 18.247 1.99854 15.232 4.65946L13.8265 3.25378C14.3234 2.8079 14.845 2.3902 15.3887 2.00265L14.2424 0.392129C13.6092 0.843606 13.003 1.33183 12.427 1.85427L10.5727 0L9.17491 1.39778L11.0281 3.25094C4.0104 11.0006 4.23723 23.0171 11.7099 30.4899C14.931 33.7171 19.173 35.7253 23.7107 36.1712V38.2563H20.7457C19.4355 38.2577 18.1794 38.7789 17.2529 39.7053C16.3265 40.6317 15.8054 41.8878 15.8039 43.198C15.8039 43.4601 15.908 43.7115 16.0934 43.8969C16.2787 44.0822 16.5301 44.1864 16.7923 44.1864H20.365C19.9706 45.1251 19.7674 46.1332 19.7674 47.1514C19.7674 48.1697 19.9706 49.1777 20.365 50.1165H8.7472C8.19641 49.2256 7.90466 48.1988 7.90466 47.1514C7.90466 46.104 8.19641 45.0773 8.7472 44.1864H13.8272V42.2097H2.29647C2.14304 42.2097 1.99171 42.2454 1.85447 42.314C1.71723 42.3826 1.59786 42.4823 1.50579 42.605C0.528047 43.9191 0 45.5135 0 47.1514C0 48.7894 0.528047 50.3837 1.50579 51.6978C1.59786 51.8206 1.71723 51.9202 1.85447 51.9888C1.99171 52.0575 2.14304 52.0932 2.29647 52.0932H4.5514C4.03597 53.316 3.8486 54.6521 4.00782 55.9695C4.16703 57.2869 4.66731 58.5399 5.4592 59.6047C5.55126 59.7274 5.67064 59.827 5.80788 59.8957C5.94512 59.9643 6.09645 60 6.24988 60H52.3729C52.5565 60 52.7364 59.9489 52.8925 59.8524C53.0487 59.7559 53.1749 59.6178 53.2569 59.4537C53.339 59.2895 53.3738 59.1057 53.3573 58.9229C53.3408 58.7401 53.2737 58.5655 53.1636 58.4186C52.441 57.4473 52.0507 56.2689 52.0507 55.0582C52.0507 53.8476 52.441 52.6692 53.1636 51.6978C53.2737 51.551 53.3408 51.3764 53.3573 51.1936C53.3738 51.0108 53.339 50.827 53.2569 50.6628C53.1749 50.4987 53.0487 50.3606 52.8925 50.2641C52.7364 50.1676 52.5565 50.1165 52.3729 50.1165H48.9401C48.3462 49.1564 48.0544 48.0401 48.1025 46.9122C48.1507 45.7843 48.5366 44.6969 49.2102 43.791ZM46.7207 44.1864C46.4552 44.8183 46.2765 45.4832 46.1894 46.1631H28.7476C28.8707 45.462 29.127 44.791 29.5026 44.1864H46.7207ZM31.2369 58.0233H26.5375C25.9867 57.1324 25.695 56.1057 25.695 55.0582C25.695 54.0108 25.9867 52.9841 26.5375 52.0932H31.2369C30.8424 53.0319 30.6393 54.04 30.6393 55.0582C30.6393 56.0765 30.8424 57.0845 31.2369 58.0233ZM12.7006 52.0932H24.3184C23.924 53.0319 23.7208 54.04 23.7208 55.0582C23.7208 56.0765 23.924 57.0845 24.3184 58.0233H12.7006C12.1498 57.1324 11.8581 56.1057 11.8581 55.0582C11.8581 54.0108 12.1498 52.9841 12.7006 52.0932ZM39.5244 16.5125C39.5242 17.174 39.4768 17.8345 39.3825 18.4892H36.8585L34.5826 16.972V13.5475C34.5825 13.3683 34.5339 13.1926 34.4418 13.039L31.6175 8.33193V4.01246C33.9818 5.13622 35.9793 6.90678 37.3786 9.11906C38.778 11.3313 39.5219 13.8948 39.5244 16.5125ZM29.6408 3.25205V8.6057C29.6409 8.78483 29.6896 8.96058 29.7817 9.11421L32.6059 13.8212V17.5009C32.6059 17.6636 32.6461 17.8237 32.7228 17.9672C32.7996 18.1106 32.9106 18.2329 33.046 18.3232L36.011 20.2999C36.1734 20.4081 36.3642 20.4659 36.5593 20.4659H38.9479C37.95 23.8155 35.7215 26.6634 32.7101 28.4374C29.6986 30.2114 26.1274 30.78 22.714 30.0291C19.3005 29.2781 16.2977 27.2632 14.3088 24.3892C12.3199 21.5152 11.4923 17.995 11.9923 14.5358H14.0439L14.8451 17.7405C14.8985 17.9544 15.0219 18.1442 15.1957 18.2799C15.3694 18.4155 15.5835 18.4892 15.8039 18.4892H18.769V21.4543C18.769 21.6494 18.8267 21.8402 18.935 22.0026L20.7457 24.7186V27.3844C20.7457 27.6465 20.8498 27.8979 21.0351 28.0833C21.2205 28.2686 21.4719 28.3727 21.734 28.3727H25.6874C25.8356 28.3728 25.9819 28.3395 26.1155 28.2753C26.2491 28.2112 26.3666 28.1178 26.4592 28.0021L30.4126 23.0603C30.529 22.915 30.602 22.7397 30.6231 22.5546C30.6442 22.3696 30.6126 22.1824 30.5319 22.0145C30.4513 21.8467 30.3248 21.705 30.1672 21.6059C30.0095 21.5068 29.8271 21.4542 29.6408 21.4543H27.6641V17.5009C27.6641 17.2387 27.56 16.9874 27.3747 16.802C27.1893 16.6166 26.9379 16.5125 26.6758 16.5125H20.7457V14.835L22.2629 12.5591H25.6874C25.8559 12.5591 26.0216 12.516 26.1687 12.434C26.3159 12.3519 26.4396 12.2336 26.5282 12.0903C26.6167 11.947 26.6672 11.7834 26.6747 11.6151C26.6823 11.4468 26.6467 11.2794 26.5714 11.1287L24.5947 7.17531C24.5126 7.01115 24.3864 6.8731 24.2303 6.77661C24.0742 6.68012 23.8943 6.629 23.7107 6.629H20.7457V3.58858C23.5927 2.4997 26.7197 2.38139 29.6408 3.25205ZM26.6758 23.431H27.5844L25.2124 26.396H22.7224V24.4193C22.7224 24.2242 22.6646 24.0334 22.5563 23.871L20.7457 21.1551V18.4892H25.6874V22.4426C25.6874 22.7048 25.7916 22.9561 25.9769 23.1415C26.1623 23.3269 26.4137 23.431 26.6758 23.431ZM18.769 4.53308V7.61735C18.769 7.87948 18.8731 8.13087 19.0584 8.31622C19.2438 8.50157 19.4952 8.6057 19.7573 8.6057H23.0999L24.0883 10.5824H21.734C21.5713 10.5824 21.4111 10.6226 21.2677 10.6993C21.1242 10.7761 21.002 10.8871 20.9117 11.0225L18.935 13.9875C18.8267 14.1499 18.769 14.3407 18.769 14.5358V16.5125H16.5756L15.7744 13.3078C15.7209 13.0939 15.5975 12.9041 15.4238 12.7685C15.2501 12.6328 15.036 12.5591 14.8156 12.5591H12.427C13.444 9.17491 15.7117 6.30507 18.769 4.53308ZM12.4286 4.65143L13.8344 6.05711C11.1709 9.0718 9.75723 12.9887 9.88146 17.0095C10.0057 21.0303 11.6585 24.8524 14.503 27.697C17.3475 30.5415 21.1696 32.1942 25.1904 32.3185C29.2113 32.4427 33.1281 31.029 36.1428 28.3656L37.5485 29.7714C30.572 36.0199 19.8097 35.794 13.1078 29.0919C6.40592 22.3898 6.17983 11.6278 12.4286 4.65143ZM25.6874 36.2703C26.3473 36.2703 27.0062 36.2373 27.6641 36.1715V38.2563H25.6874V36.2703ZM20.7457 40.233H32.6059C33.2189 40.2337 33.8167 40.424 34.3172 40.778C34.8177 41.1319 35.1965 41.632 35.4016 42.2097H17.95C18.155 41.632 18.5338 41.1319 19.0343 40.778C19.5349 40.424 20.1327 40.2337 20.7457 40.233ZM22.5841 44.1864H27.2835C26.889 45.1251 26.6859 46.1332 26.6859 47.1514C26.6859 48.1697 26.889 49.1777 27.2835 50.1165H22.5841C22.0333 49.2256 21.7416 48.1988 21.7416 47.1514C21.7416 46.104 22.0333 45.0773 22.5841 44.1864ZM6.5281 44.1864C6.13364 45.1251 5.93046 46.1332 5.93046 47.1514C5.93046 48.1697 6.13364 49.1777 6.5281 50.1165H2.81659C2.26586 49.2255 1.97414 48.1988 1.97414 47.1514C1.97414 46.104 2.26586 45.0773 2.81659 44.1864H6.5281ZM10.482 52.0932C10.0875 53.0319 9.88437 54.04 9.88437 55.0582C9.88437 56.0765 10.0875 57.0845 10.482 58.0233H6.77C6.21926 57.1324 5.92755 56.1057 5.92755 55.0582C5.92755 54.0108 6.21926 52.9841 6.77 52.0932H10.482ZM33.456 58.0233C33.0804 57.4186 32.8241 56.7477 32.701 56.0466H50.1425C50.2296 56.7264 50.4083 57.3914 50.6737 58.0233H33.456ZM50.1425 54.0699H32.701C32.8241 53.3688 33.0804 52.6978 33.456 52.0932H50.6741C50.4085 52.7251 50.2297 53.39 50.1425 54.0699ZM29.5026 50.1165C29.127 49.5118 28.8707 48.8408 28.7476 48.1398H46.1891C46.2762 48.8196 46.4549 49.4846 46.7203 50.1165H29.5026Z" fill="url(#paint0_linear)"></path><defs><linearGradient id="paint0_linear" x1="-0.0326133" y1="60.1767" x2="56.6947" y2="56.133" gradientUnits="userSpaceOnUse"><stop stop-color="#D90017"></stop><stop offset="1" stop-color="#B4000D"></stop></linearGradient></defs></svg> 