<?xml version="1.0" encoding="UTF-8"?> <svg xmlns="http://www.w3.org/2000/svg" width="73" height="42" viewBox="0 0 73 42" fill="none"><path d="M22.4064 29.4387C18.9472 29.4387 16.133 32.2562 16.133 35.7194C16.133 39.1826 18.9472 42 22.4064 42C25.8657 42 28.6799 39.1826 28.6799 35.7194C28.6799 32.2562 25.8657 29.4387 22.4064 29.4387ZM22.4064 39.1452C20.5197 39.1452 18.9846 37.6083 18.9846 35.7194C18.9846 33.8305 20.5197 32.2936 22.4064 32.2936C24.2932 32.2936 25.8283 33.8305 25.8283 35.7194C25.8283 37.6083 24.2932 39.1452 22.4064 39.1452Z" fill="url(#paint0_linear)"></path><path d="M65.194 0.000420678H57.8867C57.0993 0.000420678 56.4609 0.639475 56.4609 1.42784C56.4609 2.2162 57.0993 2.85525 57.8867 2.85525H65.194C67.474 2.85525 69.3978 4.40543 69.9725 6.50801H57.8867C57.0993 6.50801 56.4609 7.14706 56.4609 7.93543V20.77C56.4609 21.5584 57.0993 22.1975 57.8867 22.1975H70.1484V34.3182H65.9649C65.327 31.5278 62.8288 29.4389 59.8509 29.4389C56.873 29.4389 54.3747 31.5276 53.7368 34.3182H53.6094V7.94799C53.6094 7.15963 52.9711 6.52057 52.1836 6.52057H40.7773C39.9899 6.52057 39.3516 7.15963 39.3516 7.94799V19.4133H12.8795C12.092 19.4133 11.4537 20.0523 11.4537 20.8407C11.4537 21.6291 12.092 22.2681 12.8795 22.2681H39.3516V34.3179H32.0801C31.2926 34.3179 30.6543 34.957 30.6543 35.7453C30.6543 36.5337 31.2926 37.1728 32.0801 37.1728H53.7488C54.4058 39.9371 56.8914 41.9999 59.8509 41.9999C62.8104 41.9999 65.2959 39.9371 65.9529 37.1728H71.5742C72.3617 37.1728 73 36.5337 73 35.7453V7.81538C73 3.50615 69.4983 0.000420678 65.194 0.000420678ZM50.7578 20.4252H49.8566C49.0691 20.4252 48.4308 21.0642 48.4308 21.8526C48.4308 22.6409 49.0691 23.28 49.8566 23.28H50.7578V34.3179H42.2031V9.3754H50.7578V20.4252ZM59.8507 39.1452C57.964 39.1452 56.4289 37.6083 56.4289 35.7194C56.4289 33.8305 57.964 32.2936 59.8507 32.2936C61.7375 32.2936 63.2726 33.8305 63.2726 35.7194C63.2726 37.6083 61.7376 39.1452 59.8507 39.1452ZM70.1484 19.3425H59.3125V9.3627H70.1484V19.3425Z" fill="url(#paint1_linear)"></path><path d="M53.1916 0.418233C52.9264 0.152734 52.5586 0 52.1836 0C51.8086 0 51.4408 0.152734 51.1756 0.418233C50.9104 0.683732 50.7578 1.05201 50.7578 1.42742C50.7578 1.80283 50.9104 2.1711 51.1756 2.4366C51.4408 2.7021 51.8086 2.85483 52.1836 2.85483C52.5586 2.85483 52.9264 2.7021 53.1916 2.4366C53.4568 2.1711 53.6094 1.80283 53.6094 1.42742C53.6094 1.05201 53.4568 0.683732 53.1916 0.418233Z" fill="url(#paint2_linear)"></path><path d="M46.4805 0.000420678H7.80601C3.89737 0.000420678 0.651012 2.89165 0.0872578 6.65004C0.0317949 6.80234 0 6.96607 0 7.1375V35.7453C0 36.5337 0.638322 37.1728 1.42578 37.1728H12.1588C12.9462 37.1728 13.5846 36.5337 13.5846 35.7453C13.5846 34.957 12.9462 34.3181 12.1588 34.3181H2.85156V16.5584H7.69922C8.48668 16.5584 9.125 15.9194 9.125 15.131V7.1375C9.125 6.34914 8.48668 5.71009 7.69922 5.71009H3.32121C4.11366 4.02488 5.82546 2.85525 7.80587 2.85525H46.4805C47.2679 2.85525 47.9062 2.2162 47.9062 1.42784C47.9062 0.639475 47.2679 0.000420678 46.4805 0.000420678ZM6.27344 8.56492V13.7036H2.85156V8.56492H6.27344Z" fill="url(#paint3_linear)"></path><path d="M8.70725 19.8311C8.44205 19.5656 8.0742 19.4129 7.69922 19.4129C7.32424 19.4129 6.95639 19.5656 6.69119 19.8311C6.426 20.0966 6.27344 20.4649 6.27344 20.8403C6.27344 21.2171 6.426 21.584 6.69119 21.8495C6.95639 22.1164 7.32424 22.2677 7.69922 22.2677C8.0742 22.2677 8.44205 22.1164 8.70725 21.8495C8.97244 21.584 9.125 21.2157 9.125 20.8403C9.125 20.4649 8.97244 20.0966 8.70725 19.8311Z" fill="url(#paint4_linear)"></path><path d="M35.0742 5.71009H27.0898C26.3024 5.71009 25.6641 6.34914 25.6641 7.1375V15.131C25.6641 15.9194 26.3024 16.5584 27.0898 16.5584H35.0742C35.8617 16.5584 36.5 15.9194 36.5 15.131V7.1375C36.5 6.34914 35.8617 5.71009 35.0742 5.71009ZM33.6484 13.7036H28.5156V8.56492H33.6484V13.7036Z" fill="url(#paint5_linear)"></path><path d="M21.3867 5.71009H13.4023C12.6149 5.71009 11.9766 6.34914 11.9766 7.1375V15.131C11.9766 15.9194 12.6149 16.5584 13.4023 16.5584H21.3867C22.1742 16.5584 22.8125 15.9194 22.8125 15.131V7.1375C22.8125 6.34914 22.1742 5.71009 21.3867 5.71009ZM19.9609 13.7036H14.8281V8.56492H19.9609V13.7036Z" fill="url(#paint6_linear)"></path><defs><linearGradient id="paint0_linear" x1="-0.044616" y1="42.1237" x2="76.4697" y2="31.4645" gradientUnits="userSpaceOnUse"><stop stop-color="#D90017"></stop><stop offset="1" stop-color="#B4000D"></stop></linearGradient><linearGradient id="paint1_linear" x1="-0.044616" y1="42.1237" x2="76.4697" y2="31.4645" gradientUnits="userSpaceOnUse"><stop stop-color="#D90017"></stop><stop offset="1" stop-color="#B4000D"></stop></linearGradient><linearGradient id="paint2_linear" x1="-0.044616" y1="42.1237" x2="76.4697" y2="31.4645" gradientUnits="userSpaceOnUse"><stop stop-color="#D90017"></stop><stop offset="1" stop-color="#B4000D"></stop></linearGradient><linearGradient id="paint3_linear" x1="-0.044616" y1="42.1237" x2="76.4697" y2="31.4645" gradientUnits="userSpaceOnUse"><stop stop-color="#D90017"></stop><stop offset="1" stop-color="#B4000D"></stop></linearGradient><linearGradient id="paint4_linear" x1="-0.044616" y1="42.1237" x2="76.4697" y2="31.4645" gradientUnits="userSpaceOnUse"><stop stop-color="#D90017"></stop><stop offset="1" stop-color="#B4000D"></stop></linearGradient><linearGradient id="paint5_linear" x1="-0.044616" y1="42.1237" x2="76.4697" y2="31.4645" gradientUnits="userSpaceOnUse"><stop stop-color="#D90017"></stop><stop offset="1" stop-color="#B4000D"></stop></linearGradient><linearGradient id="paint6_linear" x1="-0.044616" y1="42.1237" x2="76.4697" y2="31.4645" gradientUnits="userSpaceOnUse"><stop stop-color="#D90017"></stop><stop offset="1" stop-color="#B4000D"></stop></linearGradient></defs></svg> 