<svg width="22" height="22" viewBox="0 0 22 22" fill="none" xmlns="http://www.w3.org/2000/svg">
<path d="M20.639 1.72796C20.4233 1.51564 20.1303 1.39634 19.8246 1.39634C19.5189 1.39634 19.2263 1.51564 19.0106 1.72796L11.1903 9.40258L2.96621 1.331C2.51653 0.889665 1.78721 0.889665 1.33789 1.331C0.888213 1.7727 0.888213 2.48814 1.33789 2.92984L9.56197 11.0014L1.33789 19.0726C1.12155 19.2843 1 19.5722 1 19.8722C1 20.1719 1.12155 20.4592 1.33789 20.6715C1.55459 20.8852 1.85052 21.0038 2.15766 20.9999C2.46408 20.9985 2.75819 20.881 2.97815 20.6715L11.2022 12.5999L19.0219 20.2745C19.2386 20.4886 19.5345 20.6072 19.842 20.6033C20.1484 20.6019 20.4425 20.484 20.6621 20.2745C20.8784 20.0625 21 19.7749 21 19.4753C21 19.1756 20.8784 18.8877 20.6621 18.676L12.8421 11.0014L20.6621 3.32644C21.0948 2.87445 21.0843 2.16753 20.639 1.72796Z" fill="#1E1E1E" stroke="#1E1E1E"/>
</svg>
