<svg width="28" height="22" viewBox="0 0 28 22" fill="none" xmlns="http://www.w3.org/2000/svg">
<path d="M25.7 1H2.3C1.58205 1 1 1.58395 1 2.30435V19.6957C1 20.416 1.582 21 2.3 21H25.7C26.4179 21 27 20.416 27 19.6957V2.30435C27 1.584 26.418 1 25.7 1ZM26.1333 19.6957C26.1333 19.9358 25.9393 20.1305 25.7 20.1305H2.3C2.06067 20.1305 1.86668 19.9358 1.86668 19.6957V2.30435C1.86668 2.06422 2.06067 1.86958 2.3 1.86958H25.7C25.9393 1.86958 26.1333 2.06422 26.1333 2.30435V19.6957Z" fill="#D90017"/>
<path d="M24.871 2.74075C24.7565 2.73071 24.6427 2.76673 24.5547 2.84091L14.5577 11.267C14.2353 11.5389 13.7647 11.5389 13.4423 11.267L3.44532 2.84086C3.32675 2.741 3.16404 2.71216 3.01855 2.76525C2.87307 2.81834 2.76683 2.94531 2.73992 3.09832C2.713 3.25133 2.76947 3.40708 2.88805 3.50695L12.885 11.9326C13.5294 12.4769 14.4706 12.4769 15.115 11.9326L25.112 3.507C25.2 3.43287 25.2551 3.32668 25.2651 3.21179C25.2751 3.09689 25.2392 2.98271 25.1652 2.89441C25.0914 2.80601 24.9856 2.75078 24.871 2.74075Z" fill="#D90017"/>
<path d="M9.33442 11.8728C9.18101 11.8385 9.02115 11.8901 8.91654 12.0078L2.84986 18.5296C2.74007 18.6424 2.69975 18.806 2.74454 18.9572C2.78933 19.1083 2.91217 19.2233 3.06553 19.2576C3.21894 19.292 3.3788 19.2403 3.48341 19.1226L9.55009 12.6009C9.65988 12.4881 9.7002 12.3244 9.65541 12.1733C9.61062 12.0222 9.48783 11.9072 9.33442 11.8728Z" fill="#D90017"/>
<path d="M19.0835 12.0078C18.9789 11.8901 18.819 11.8385 18.6656 11.8728C18.5122 11.9072 18.3894 12.0222 18.3446 12.1733C18.2998 12.3244 18.3401 12.4881 18.4499 12.6009L24.5166 19.1226C24.6811 19.2917 24.9501 19.298 25.1223 19.1368C25.2945 18.9756 25.3069 18.7059 25.1501 18.5295L19.0835 12.0078Z" fill="#D90017"/>
<path d="M25.7 1H2.3C1.58205 1 1 1.58395 1 2.30435V19.6957C1 20.416 1.582 21 2.3 21H25.7C26.4179 21 27 20.416 27 19.6957V2.30435C27 1.584 26.418 1 25.7 1ZM26.1333 19.6957C26.1333 19.9358 25.9393 20.1305 25.7 20.1305H2.3C2.06067 20.1305 1.86668 19.9358 1.86668 19.6957V2.30435C1.86668 2.06422 2.06067 1.86958 2.3 1.86958H25.7C25.9393 1.86958 26.1333 2.06422 26.1333 2.30435V19.6957Z" stroke="#D90017" stroke-width="0.7"/>
<path d="M24.871 2.74075C24.7565 2.73071 24.6427 2.76673 24.5547 2.84091L14.5577 11.267C14.2353 11.5389 13.7647 11.5389 13.4423 11.267L3.44532 2.84086C3.32675 2.741 3.16404 2.71216 3.01855 2.76525C2.87307 2.81834 2.76683 2.94531 2.73992 3.09832C2.713 3.25133 2.76947 3.40708 2.88805 3.50695L12.885 11.9326C13.5294 12.4769 14.4706 12.4769 15.115 11.9326L25.112 3.507C25.2 3.43287 25.2551 3.32668 25.2651 3.21179C25.2751 3.09689 25.2392 2.98271 25.1652 2.89441C25.0914 2.80601 24.9856 2.75078 24.871 2.74075Z" stroke="#D90017" stroke-width="0.7"/>
<path d="M9.33442 11.8728C9.18101 11.8385 9.02115 11.8901 8.91654 12.0078L2.84986 18.5296C2.74007 18.6424 2.69975 18.806 2.74454 18.9572C2.78933 19.1083 2.91217 19.2233 3.06553 19.2576C3.21894 19.292 3.3788 19.2403 3.48341 19.1226L9.55009 12.6009C9.65988 12.4881 9.7002 12.3244 9.65541 12.1733C9.61062 12.0222 9.48783 11.9072 9.33442 11.8728Z" stroke="#D90017" stroke-width="0.7"/>
<path d="M19.0835 12.0078C18.9789 11.8901 18.819 11.8385 18.6656 11.8728C18.5122 11.9072 18.3894 12.0222 18.3446 12.1733C18.2998 12.3244 18.3401 12.4881 18.4499 12.6009L24.5166 19.1226C24.6811 19.2917 24.9501 19.298 25.1223 19.1368C25.2945 18.9756 25.3069 18.7059 25.1501 18.5295L19.0835 12.0078Z" stroke="#D90017" stroke-width="0.7"/>
</svg>
