<svg width="80" height="80" viewBox="0 0 80 80" fill="none" xmlns="http://www.w3.org/2000/svg">
<path d="M9.3335 57.3334C8.9917 57.3334 8.65051 57.2028 8.3905 56.9427C7.86926 56.4215 7.86926 55.5786 8.3905 55.0574L11.0571 52.3907C11.5771 51.8695 12.4225 51.8695 12.9425 52.3907C13.4637 52.912 13.4637 53.7549 12.9425 54.2761L10.2759 56.9427C10.0159 57.2028 9.67468 57.3334 9.3335 57.3334Z" fill="url(#paint0_linear)"/>
<path d="M9.3335 41.3336C8.9917 41.3336 8.65051 41.2024 8.3905 40.9424C7.86926 40.4211 7.86926 39.5789 8.3905 39.0576L11.0571 36.3904C11.5771 35.8691 12.4225 35.8691 12.9425 36.3904C13.4637 36.9122 13.4637 37.7545 12.9425 38.2758L10.2759 40.9424C10.0159 41.2024 9.67468 41.3336 9.3335 41.3336Z" fill="url(#paint1_linear)"/>
<path d="M9.3335 64.0002C8.9917 64.0002 8.65051 63.8696 8.3905 63.6096L5.72388 60.9424C5.20264 60.4211 5.20264 59.5789 5.72388 59.0576C6.2439 58.5358 7.08923 58.5358 7.60925 59.0576L10.2759 61.7242C10.7971 62.2455 10.7971 63.0878 10.2759 63.6096C10.0159 63.8696 9.67468 64.0002 9.3335 64.0002Z" fill="url(#paint2_linear)"/>
<path d="M9.3335 80C8.59741 80 7.99988 79.4043 7.99988 78.6664V29.3335C7.99988 28.5962 8.59741 27.9999 9.3335 27.9999C10.0696 27.9999 10.6665 28.5962 10.6665 29.3335V78.6664C10.6665 79.4043 10.0696 80 9.3335 80Z" fill="url(#paint3_linear)"/>
<path d="M9.3335 69.3335C4.1864 69.3335 0 65.1453 0 60V29.3335C0 24.1882 4.1864 20 9.3335 20C14.48 20 18.6664 24.1882 18.6664 29.3335V60C18.6664 65.1453 14.48 69.3335 9.3335 69.3335ZM9.3335 22.6666C5.65735 22.6666 2.66663 25.6573 2.66663 29.3335V60C2.66663 63.6761 5.65735 66.6669 9.3335 66.6669C13.009 66.6669 15.9998 63.6761 15.9998 60V29.3335C15.9998 25.6573 13.009 22.6666 9.3335 22.6666Z" fill="url(#paint4_linear)"/>
<path d="M9.3335 47.9999C8.9917 47.9999 8.65051 47.8693 8.3905 47.6093L5.72388 44.9426C5.20264 44.4214 5.20264 43.5785 5.72388 43.0573C6.2439 42.536 7.08923 42.536 7.60925 43.0573L10.2759 45.7239C10.7971 46.2451 10.7971 47.088 10.2759 47.6093C10.0159 47.8693 9.67468 47.9999 9.3335 47.9999Z" fill="url(#paint5_linear)"/>
<path d="M66.6669 37.3334C66.3251 37.3334 65.9839 37.2028 65.7239 36.9427C65.2026 36.4215 65.2026 35.5786 65.7239 35.0574L68.3905 32.3907C68.9105 31.8695 69.7559 31.8695 70.2759 32.3907C70.7971 32.912 70.7971 33.7549 70.2759 34.2761L67.6093 36.9427C67.3492 37.2028 67.0081 37.3334 66.6669 37.3334Z" fill="url(#paint6_linear)"/>
<path d="M66.6669 21.3336C66.3251 21.3336 65.9839 21.2024 65.7239 20.9424C65.2026 20.4211 65.2026 19.5789 65.7239 19.0576L68.3905 16.3904C68.9105 15.8691 69.7559 15.8691 70.2759 16.3904C70.7971 16.9122 70.7971 17.7545 70.2759 18.2758L67.6093 20.9424C67.3492 21.2024 67.0081 21.3336 66.6669 21.3336Z" fill="url(#paint7_linear)"/>
<path d="M66.6669 44.0002C66.3251 44.0002 65.9839 43.8696 65.7239 43.6096L63.0573 40.9424C62.536 40.4211 62.536 39.5789 63.0573 39.0576C63.5773 38.5358 64.4226 38.5358 64.9426 39.0576L67.6093 41.7242C68.1305 42.2455 68.1305 43.0878 67.6093 43.6096C67.3492 43.8696 67.0081 44.0002 66.6669 44.0002Z" fill="url(#paint8_linear)"/>
<path d="M66.6669 60.9998C65.9308 60.9998 65.3333 60.4041 65.3333 59.6667V9.3335C65.3333 8.59619 65.9308 7.99988 66.6669 7.99988C67.403 7.99988 67.9999 8.59619 67.9999 9.3335V59.6667C67.9999 60.4041 67.403 60.9998 66.6669 60.9998Z" fill="url(#paint9_linear)"/>
<path d="M66.6669 49.3335C61.5198 49.3335 57.3334 45.1453 57.3334 40V9.3335C57.3334 4.18823 61.5198 0 66.6669 0C71.8134 0 75.9998 4.18823 75.9998 9.3335V40C75.9998 45.1453 71.8134 49.3335 66.6669 49.3335ZM66.6669 2.66663C62.9907 2.66663 60 5.65735 60 9.3335V40C60 43.6761 62.9907 46.6669 66.6669 46.6669C70.3424 46.6669 73.3331 43.6761 73.3331 40V9.3335C73.3331 5.65735 70.3424 2.66663 66.6669 2.66663Z" fill="url(#paint10_linear)"/>
<path d="M66.6669 27.9999C66.3251 27.9999 65.9839 27.8693 65.7239 27.6093L63.0573 24.9426C62.536 24.4214 62.536 23.5785 63.0573 23.0573C63.5773 22.536 64.4226 22.536 64.9426 23.0573L67.6093 25.7239C68.1305 26.2451 68.1305 27.088 67.6093 27.6093C67.3492 27.8693 67.0081 27.9999 66.6669 27.9999Z" fill="url(#paint11_linear)"/>
<path d="M42.6666 80H15.9998C15.5334 80 15.1001 79.7546 14.8584 79.3561C14.6173 78.9563 14.6027 78.4589 14.8199 78.0469L28.1531 52.7136C28.6145 51.8384 30.0519 51.8384 30.5133 52.7136L43.8464 78.0469C44.0637 78.4601 44.0491 78.9575 43.808 79.3561C43.5669 79.7546 43.1335 80 42.6666 80ZM18.208 77.3334H40.4584L29.3335 56.1963L18.208 77.3334Z" fill="url(#paint12_linear)"/>
<path d="M78.6664 80H42.6666C42.1722 80 41.7175 79.7253 41.4868 79.2877L28.1531 53.9545C27.9358 53.5413 27.9504 53.0438 28.1921 52.6453C28.4332 52.2455 28.8666 52.0001 29.3335 52.0001H62.6666C63.1238 52.0001 63.5492 52.2345 63.7933 52.6215L79.7931 77.9547C80.0531 78.3667 80.0677 78.8855 79.8334 79.3109C79.6002 79.7357 79.1522 80 78.6664 80ZM43.4723 77.3334H76.2482L61.9318 54.6667H31.5411L43.4723 77.3334Z" fill="url(#paint13_linear)"/>
<path d="M29.3335 80C28.5974 80 27.9999 79.4043 27.9999 78.6664V53.3331C27.9999 52.5958 28.5974 52.0001 29.3335 52.0001C30.0696 52.0001 30.6665 52.5958 30.6665 53.3331V78.6664C30.6665 79.4043 30.0696 80 29.3335 80Z" fill="url(#paint14_linear)"/>
<path d="M67.9999 74.6667H47.9999C47.5122 74.6667 47.0624 74.4 46.8292 73.9722L38.8293 59.3054C38.6041 58.8922 38.6133 58.3905 38.8531 57.9865C39.0936 57.5824 39.5294 57.3334 40 57.3334H58.6664C59.1229 57.3334 59.5465 57.5665 59.7919 57.9504L69.1254 72.6172C69.3866 73.0292 69.4025 73.548 69.1693 73.9758C68.9349 74.4012 68.4869 74.6667 67.9999 74.6667ZM48.7921 72.0001H65.5707L57.9346 60H42.2467L48.7921 72.0001Z" fill="url(#paint15_linear)"/>
<path d="M29.3335 41.3336C28.5974 41.3336 27.9999 40.7373 27.9999 40C27.9999 38.5291 26.8042 37.3334 25.3333 37.3334C24.5972 37.3334 24.0002 36.7371 24.0002 35.9998C24.0002 35.2625 24.5972 34.6667 25.3333 34.6667C26.7517 34.6667 28.0426 35.224 29.0002 36.1304C30.3656 33.6694 32.9919 32.0001 35.9998 32.0001C36.7358 32.0001 37.3334 32.5958 37.3334 33.3331C37.3334 34.0704 36.7358 34.6667 35.9998 34.6667C33.0585 34.6667 30.6665 37.0587 30.6665 40C30.6665 40.7373 30.0696 41.3336 29.3335 41.3336Z" fill="url(#paint16_linear)"/>
<path d="M47.9999 24.0002H34.6667C31.7255 24.0002 29.3335 21.6083 29.3335 18.6664C29.3335 15.5426 32.0923 13.0225 35.2118 13.3624C36.2469 10.9656 38.6389 9.3335 41.3336 9.3335C44.0277 9.3335 46.4203 10.9656 47.4548 13.3624C50.5707 13.0267 53.3331 15.5426 53.3331 18.6664C53.3331 21.6083 50.9412 24.0002 47.9999 24.0002ZM34.6667 15.9998C33.1958 15.9998 32.0001 17.196 32.0001 18.6664C32.0001 20.1373 33.1958 21.3336 34.6667 21.3336H47.9999C49.4708 21.3336 50.6665 20.1373 50.6665 18.6664C50.6665 16.8829 48.8599 15.4865 47.0441 16.1877C46.6772 16.3336 46.2653 16.3068 45.9198 16.1145C45.575 15.9253 45.3308 15.5933 45.2533 15.2081C44.8798 13.3496 43.2318 12.0001 41.3336 12.0001C39.4348 12.0001 37.7869 13.3496 37.4133 15.2081C37.3358 15.5933 37.0923 15.9253 36.7468 16.1145C36.4014 16.3055 35.9906 16.3318 35.6226 16.1877C35.3027 16.0638 34.9811 15.9998 34.6667 15.9998Z" fill="url(#paint17_linear)"/>
<path d="M17.3334 18.6664C12.5104 18.6664 8.51868 15.0507 8.04688 10.2545C7.99988 9.78638 8.20557 9.32678 8.58643 9.04907C8.9679 8.77075 9.46655 8.71338 9.8999 8.90015C10.5695 9.18823 11.2762 9.3335 12.0001 9.3335C14.9414 9.3335 17.3334 6.94153 17.3334 4.00024C17.3334 3.27454 17.1881 2.56775 16.9012 1.90002C16.7145 1.4679 16.7719 0.968017 17.0508 0.587769C17.3279 0.206909 17.7869 0.00549315 18.2574 0.0482178C23.0505 0.517578 26.6669 4.50928 26.6669 9.3335C26.6669 14.4788 22.4799 18.6664 17.3334 18.6664ZM11.2 11.9598C12.2186 14.3597 14.588 15.9998 17.3334 15.9998C21.0095 15.9998 24.0002 13.009 24.0002 9.3335C24.0002 6.58691 22.3602 4.21753 19.9597 3.19885C19.9866 3.46558 20 3.7323 20 4.00024C20 8.41187 16.4105 12.0001 12.0001 12.0001C11.7322 12.0001 11.4642 11.9867 11.2 11.9598Z" fill="url(#paint18_linear)"/>
<defs>
<linearGradient id="paint0_linear" x1="-0.0488938" y1="80.2356" x2="84.8833" y2="73.4283" gradientUnits="userSpaceOnUse">
<stop stop-color="#D90017"/>
<stop offset="1" stop-color="#B4000D"/>
</linearGradient>
<linearGradient id="paint1_linear" x1="-0.0488938" y1="80.2356" x2="84.8833" y2="73.4283" gradientUnits="userSpaceOnUse">
<stop stop-color="#D90017"/>
<stop offset="1" stop-color="#B4000D"/>
</linearGradient>
<linearGradient id="paint2_linear" x1="-0.0488938" y1="80.2356" x2="84.8833" y2="73.4283" gradientUnits="userSpaceOnUse">
<stop stop-color="#D90017"/>
<stop offset="1" stop-color="#B4000D"/>
</linearGradient>
<linearGradient id="paint3_linear" x1="-0.0488938" y1="80.2356" x2="84.8833" y2="73.4283" gradientUnits="userSpaceOnUse">
<stop stop-color="#D90017"/>
<stop offset="1" stop-color="#B4000D"/>
</linearGradient>
<linearGradient id="paint4_linear" x1="-0.0488938" y1="80.2356" x2="84.8833" y2="73.4283" gradientUnits="userSpaceOnUse">
<stop stop-color="#D90017"/>
<stop offset="1" stop-color="#B4000D"/>
</linearGradient>
<linearGradient id="paint5_linear" x1="-0.0488938" y1="80.2356" x2="84.8833" y2="73.4283" gradientUnits="userSpaceOnUse">
<stop stop-color="#D90017"/>
<stop offset="1" stop-color="#B4000D"/>
</linearGradient>
<linearGradient id="paint6_linear" x1="-0.0488938" y1="80.2356" x2="84.8833" y2="73.4283" gradientUnits="userSpaceOnUse">
<stop stop-color="#D90017"/>
<stop offset="1" stop-color="#B4000D"/>
</linearGradient>
<linearGradient id="paint7_linear" x1="-0.0488938" y1="80.2356" x2="84.8833" y2="73.4283" gradientUnits="userSpaceOnUse">
<stop stop-color="#D90017"/>
<stop offset="1" stop-color="#B4000D"/>
</linearGradient>
<linearGradient id="paint8_linear" x1="-0.0488938" y1="80.2356" x2="84.8833" y2="73.4283" gradientUnits="userSpaceOnUse">
<stop stop-color="#D90017"/>
<stop offset="1" stop-color="#B4000D"/>
</linearGradient>
<linearGradient id="paint9_linear" x1="-0.0488938" y1="80.2356" x2="84.8833" y2="73.4283" gradientUnits="userSpaceOnUse">
<stop stop-color="#D90017"/>
<stop offset="1" stop-color="#B4000D"/>
</linearGradient>
<linearGradient id="paint10_linear" x1="-0.0488938" y1="80.2356" x2="84.8833" y2="73.4283" gradientUnits="userSpaceOnUse">
<stop stop-color="#D90017"/>
<stop offset="1" stop-color="#B4000D"/>
</linearGradient>
<linearGradient id="paint11_linear" x1="-0.0488938" y1="80.2356" x2="84.8833" y2="73.4283" gradientUnits="userSpaceOnUse">
<stop stop-color="#D90017"/>
<stop offset="1" stop-color="#B4000D"/>
</linearGradient>
<linearGradient id="paint12_linear" x1="-0.0488938" y1="80.2356" x2="84.8833" y2="73.4283" gradientUnits="userSpaceOnUse">
<stop stop-color="#D90017"/>
<stop offset="1" stop-color="#B4000D"/>
</linearGradient>
<linearGradient id="paint13_linear" x1="-0.0488938" y1="80.2356" x2="84.8833" y2="73.4283" gradientUnits="userSpaceOnUse">
<stop stop-color="#D90017"/>
<stop offset="1" stop-color="#B4000D"/>
</linearGradient>
<linearGradient id="paint14_linear" x1="-0.0488938" y1="80.2356" x2="84.8833" y2="73.4283" gradientUnits="userSpaceOnUse">
<stop stop-color="#D90017"/>
<stop offset="1" stop-color="#B4000D"/>
</linearGradient>
<linearGradient id="paint15_linear" x1="-0.0488938" y1="80.2356" x2="84.8833" y2="73.4283" gradientUnits="userSpaceOnUse">
<stop stop-color="#D90017"/>
<stop offset="1" stop-color="#B4000D"/>
</linearGradient>
<linearGradient id="paint16_linear" x1="-0.0488938" y1="80.2356" x2="84.8833" y2="73.4283" gradientUnits="userSpaceOnUse">
<stop stop-color="#D90017"/>
<stop offset="1" stop-color="#B4000D"/>
</linearGradient>
<linearGradient id="paint17_linear" x1="-0.0488938" y1="80.2356" x2="84.8833" y2="73.4283" gradientUnits="userSpaceOnUse">
<stop stop-color="#D90017"/>
<stop offset="1" stop-color="#B4000D"/>
</linearGradient>
<linearGradient id="paint18_linear" x1="-0.0488938" y1="80.2356" x2="84.8833" y2="73.4283" gradientUnits="userSpaceOnUse">
<stop stop-color="#D90017"/>
<stop offset="1" stop-color="#B4000D"/>
</linearGradient>
</defs>
</svg>
