<svg width="29" height="32" viewBox="0 0 29 32" fill="none" xmlns="http://www.w3.org/2000/svg">
<path d="M17.9163 23.3898C20.4449 19.1959 23.6408 13.3 23.6408 10.2694C23.6408 5.15714 19.4837 1 14.3714 1C9.25918 1 5.10204 5.15714 5.10204 10.2694C5.10204 13.3 8.29796 19.1959 10.8265 23.3898C7.82653 23.6163 1 24.4306 1 27.1306C1 29.7878 7.93061 31 14.3776 31C20.8184 31 27.7551 29.7878 27.7551 27.1306C27.749 24.4306 20.9163 23.6163 17.9163 23.3898ZM6.38163 10.2694C6.38163 5.86122 9.96939 2.27347 14.3714 2.27347C18.7796 2.27347 22.3673 5.86122 22.3673 10.2694C22.3673 14.1204 16.2327 23.7816 14.3714 26.6224C12.5102 23.7816 6.38163 14.1204 6.38163 10.2694ZM14.3714 29.7204C6.54082 29.7204 2.27347 28.0061 2.27347 27.1245C2.27347 26.4449 5.08979 24.9816 11.5796 24.6082C12.798 26.5735 13.7224 27.9633 13.8449 28.1286C14.0102 28.349 14.4939 28.6122 14.9041 28.1286C15.0327 27.9755 15.951 26.5735 17.1694 24.6082C23.6592 24.9816 26.4755 26.4388 26.4755 27.1245C26.4694 28.0122 22.202 29.7204 14.3714 29.7204Z" fill="#D90017"/>
<path d="M18.4061 10.2694C18.4061 8.04082 16.6 6.23469 14.3714 6.23469C12.1429 6.23469 10.3367 8.04082 10.3367 10.2694C10.3367 12.498 12.1429 14.3041 14.3714 14.3041C16.6 14.3041 18.4061 12.498 18.4061 10.2694ZM11.6102 10.2694C11.6102 8.7449 12.8469 7.50816 14.3714 7.50816C15.8959 7.50816 17.1327 8.7449 17.1327 10.2694C17.1327 11.7939 15.8959 13.0306 14.3714 13.0306C12.8469 13.0306 11.6102 11.7939 11.6102 10.2694Z" fill="#D90017"/>
<path d="M17.9163 23.3898C20.4449 19.1959 23.6408 13.3 23.6408 10.2694C23.6408 5.15714 19.4837 1 14.3714 1C9.25918 1 5.10204 5.15714 5.10204 10.2694C5.10204 13.3 8.29796 19.1959 10.8265 23.3898C7.82653 23.6163 1 24.4306 1 27.1306C1 29.7878 7.93061 31 14.3776 31C20.8184 31 27.7551 29.7878 27.7551 27.1306C27.749 24.4306 20.9163 23.6163 17.9163 23.3898ZM6.38163 10.2694C6.38163 5.86122 9.96939 2.27347 14.3714 2.27347C18.7796 2.27347 22.3673 5.86122 22.3673 10.2694C22.3673 14.1204 16.2327 23.7816 14.3714 26.6224C12.5102 23.7816 6.38163 14.1204 6.38163 10.2694ZM14.3714 29.7204C6.54082 29.7204 2.27347 28.0061 2.27347 27.1245C2.27347 26.4449 5.08979 24.9816 11.5796 24.6082C12.798 26.5735 13.7224 27.9633 13.8449 28.1286C14.0102 28.349 14.4939 28.6122 14.9041 28.1286C15.0327 27.9755 15.951 26.5735 17.1694 24.6082C23.6592 24.9816 26.4755 26.4388 26.4755 27.1245C26.4694 28.0122 22.202 29.7204 14.3714 29.7204Z" stroke="#D90017" stroke-width="0.5"/>
<path d="M18.4061 10.2694C18.4061 8.04082 16.6 6.23469 14.3714 6.23469C12.1429 6.23469 10.3367 8.04082 10.3367 10.2694C10.3367 12.498 12.1429 14.3041 14.3714 14.3041C16.6 14.3041 18.4061 12.498 18.4061 10.2694ZM11.6102 10.2694C11.6102 8.7449 12.8469 7.50816 14.3714 7.50816C15.8959 7.50816 17.1327 8.7449 17.1327 10.2694C17.1327 11.7939 15.8959 13.0306 14.3714 13.0306C12.8469 13.0306 11.6102 11.7939 11.6102 10.2694Z" stroke="#D90017" stroke-width="0.5"/>
</svg>
