<?xml version="1.0" encoding="utf-8"?>
<!-- Generator: Adobe Illustrator 21.1.0, SVG Export Plug-In . SVG Version: 6.00 Build 0)  -->
<svg version="1.1" id="Слой_1" xmlns="http://www.w3.org/2000/svg" xmlns:xlink="http://www.w3.org/1999/xlink" x="0px" y="0px"
	 width="26.5px" height="26.5px" viewBox="0 0 26.5 26.5" style="enable-background:new 0 0 26.5 26.5;" xml:space="preserve">
<style type="text/css">
	.st0{fill:#D90017;}
	.st1{fill:none;stroke:#D90017;stroke-width:0.5;}
</style>
<path class="st0" d="M20.2,13.2c0-0.2-0.1-0.3-0.2-0.4c-0.1-0.1-0.3-0.2-0.4-0.2c-8.6,0-4.8,0-13.1,0c-0.2,0-0.3,0.1-0.4,0.2
	c-0.1,0.1-0.2,0.3-0.2,0.4c0,0.2,0.1,0.3,0.2,0.4c0.1,0.1,0.3,0.2,0.4,0.2c16.3,0-14.7,0,13.1,0C20,13.8,20.2,13.6,20.2,13.2z"/>
<path class="st0" d="M22.4,4.1c-3.7-3.7-9.3-4.8-14.2-2.8c-4.9,2-8,6.8-8,12c0,7.2,5.8,13,13,13c7.2,0,13-5.8,13-13
	C26.3,9.8,24.9,6.5,22.4,4.1z M13.2,25C6.7,25,1.5,19.8,1.5,13.3c0-6.5,5.3-11.8,11.8-11.8C19.8,1.5,25,6.7,25,13.3
	C25,19.8,19.8,25,13.2,25z"/>
<path class="st1" d="M20.2,13.2c0-0.2-0.1-0.3-0.2-0.4c-0.1-0.1-0.3-0.2-0.4-0.2c-8.6,0-4.8,0-13.1,0c-0.2,0-0.3,0.1-0.4,0.2
	c-0.1,0.1-0.2,0.3-0.2,0.4c0,0.2,0.1,0.3,0.2,0.4c0.1,0.1,0.3,0.2,0.4,0.2c16.3,0-14.7,0,13.1,0C20,13.8,20.2,13.6,20.2,13.2z"/>
<path class="st1" d="M22.4,4.1c-3.7-3.7-9.3-4.8-14.2-2.8c-4.9,2-8,6.8-8,12c0,7.2,5.8,13,13,13c7.2,0,13-5.8,13-13
	C26.3,9.8,24.9,6.5,22.4,4.1z M13.2,25C6.7,25,1.5,19.8,1.5,13.3c0-6.5,5.3-11.8,11.8-11.8C19.8,1.5,25,6.7,25,13.3
	C25,19.8,19.8,25,13.2,25z"/>
</svg>
