<svg width="305" height="305" viewBox="0 0 305 305" fill="none" xmlns="http://www.w3.org/2000/svg">
<g clip-path="url(#clip0)">
<path d="M167.368 141.796L256.073 137.156L237.581 118.715L188.209 119.596L167.368 141.796Z" fill="url(#paint0_linear)"/>
<path d="M137.839 68.9723L167.368 141.795L188.209 119.596L161.145 53.7617L137.839 68.9723Z" fill="url(#paint1_linear)"/>
<path d="M137.839 68.9722L124.454 115.191L144.062 142.97L152.75 105.736L137.839 68.9722Z" fill="url(#paint2_linear)"/>
<path d="M124.454 115.191L49.1926 118.656L92.9287 144.379L144.062 142.97L124.454 115.191Z" fill="url(#paint3_linear)"/>
<path d="M128.563 165.346L49.1926 118.657L58.8791 146.553L96.6271 171.101L128.563 165.346Z" fill="url(#paint4_linear)"/>
<path d="M119.875 207.395L128.563 165.345L96.6271 171.101L79.485 241.868L119.875 207.395Z" fill="url(#paint5_linear)"/>
<path d="M79.4849 241.868L150.184 181.54L150.519 214.912L112.713 241.868H79.4849Z" fill="url(#paint6_linear)"/>
<path d="M150.184 181.54L220.38 224.191L214.568 250.325L150.519 214.912L150.184 181.54Z" fill="url(#paint7_linear)"/>
</g>
<path d="M278.777 154.633C278.845 154.028 278.996 153.484 279.228 153C279.461 152.516 279.707 152.149 279.964 151.897C280.432 151.822 281.056 151.828 281.836 151.916C282.768 152.021 283.526 152.195 284.111 152.439C283.821 153.427 283.64 154.248 283.566 154.902C283.482 155.658 283.612 156.31 283.959 156.859C284.33 157.41 285.085 157.954 286.224 158.49C287.409 159.057 289.082 159.601 291.242 160.124C293.399 160.672 295.868 161.166 298.649 161.606L299.778 161.771C300.407 161.842 300.882 161.818 301.201 161.701C301.542 161.612 301.811 161.374 302.007 160.988C302.204 160.603 302.388 159.986 302.559 159.138C303.105 159.046 303.781 159.046 304.587 159.136C304.316 160.865 303.915 164.097 303.384 168.831C302.861 173.489 302.552 176.578 302.458 178.098C301.577 177.999 300.918 177.848 300.482 177.646C300.511 176.936 300.444 176.393 300.282 176.018C300.12 175.642 299.809 175.352 299.347 175.148C298.886 174.943 298.189 174.788 297.257 174.684L282.564 173.034C281.607 172.927 280.881 172.922 280.385 173.019C279.89 173.117 279.522 173.33 279.281 173.66C279.04 173.99 278.854 174.505 278.725 175.204C278.229 175.302 277.554 175.302 276.698 175.206C276.929 173.83 277.153 172.172 277.371 170.233C277.605 168.143 277.765 166.376 277.851 164.932C278.732 165.031 279.39 165.194 279.823 165.421C279.794 166.132 279.861 166.675 280.023 167.05C280.185 167.425 280.498 167.702 280.962 167.882C281.424 168.087 282.133 168.243 283.09 168.35L297.783 170C298.841 170.119 299.591 170.139 300.033 170.061C300.497 170.011 300.852 169.809 301.095 169.454C301.429 168.981 301.654 168.229 301.77 167.196C301.871 166.29 301.811 165.582 301.587 165.072C301.428 164.672 301.165 164.4 300.799 164.257C300.433 164.114 299.662 163.938 298.487 163.73C293.261 162.811 289.239 161.952 286.422 161.151C283.605 160.351 281.579 159.435 280.343 158.404C279.13 157.4 278.608 156.143 278.777 154.633Z" fill="url(#paint8_linear)"/>
<path d="M273.426 204.595C272.522 204.263 271.818 204.086 271.314 204.063C270.809 204.04 270.401 204.16 270.089 204.423C269.776 204.686 269.474 205.142 269.182 205.791C268.678 205.768 268.021 205.608 267.212 205.312C267.763 204.029 268.375 202.472 269.047 200.64C269.771 198.666 270.346 196.987 270.771 195.605C271.485 195.867 272.085 196.181 272.571 196.548C272.374 197.232 272.31 197.775 272.378 198.178C272.447 198.581 272.685 198.925 273.093 199.209C273.493 199.518 274.145 199.838 275.049 200.169L286.576 204.396L277.872 190.152C276.879 189.842 276.143 189.788 275.664 189.991C275.185 190.193 274.76 190.725 274.39 191.588C273.957 191.591 273.3 191.431 272.42 191.109C272.971 189.826 273.578 188.281 274.241 186.473C274.974 184.475 275.549 182.796 275.966 181.438C276.775 181.734 277.379 182.037 277.779 182.345C277.582 183.029 277.518 183.572 277.586 183.975C277.655 184.378 277.889 184.734 278.288 185.042C278.688 185.351 279.34 185.671 280.244 186.002L294.126 191.092C295.006 191.415 295.698 191.588 296.203 191.611C296.707 191.634 297.115 191.514 297.428 191.251C297.74 190.987 298.043 190.531 298.334 189.883C298.886 189.923 299.543 190.083 300.304 190.362C299.762 191.621 299.129 193.237 298.404 195.212C297.759 196.972 297.21 198.579 296.758 200.033C296.401 199.902 296.061 199.764 295.736 199.618C295.412 199.472 295.148 199.308 294.945 199.125C295.142 198.442 295.206 197.898 295.138 197.496C295.07 197.093 294.836 196.737 294.436 196.429C294.036 196.12 293.396 195.804 292.516 195.482L280.99 191.255L289.729 205.512C290.666 205.828 291.366 205.869 291.83 205.634C292.309 205.432 292.741 204.916 293.126 204.086C293.663 204.094 294.324 204.242 295.109 204.529C294.567 205.788 293.929 207.416 293.196 209.415C292.551 211.175 292.002 212.782 291.55 214.236C290.717 213.931 290.113 213.628 289.737 213.328C289.934 212.645 289.998 212.102 289.93 211.699C289.862 211.296 289.628 210.94 289.228 210.632C288.828 210.323 288.188 210.008 287.308 209.685L273.426 204.595Z" fill="url(#paint9_linear)"/>
<path d="M276.741 239.843C274.189 238.52 272.293 237.629 271.053 237.17C271.075 236.523 271.344 235.793 271.861 234.981C273.161 235.628 274.395 235.813 275.563 235.535C276.752 235.27 277.912 234.251 279.041 232.476L280.632 229.975L265.72 220.487C264.801 219.902 264.024 219.543 263.388 219.409C262.76 219.31 262.203 219.406 261.718 219.697C261.253 220.002 260.755 220.526 260.222 221.269C259.777 221.166 259.17 220.869 258.4 220.38C259.131 219.373 260.142 217.854 261.435 215.823C262.89 213.535 263.905 211.869 264.481 210.823C265.272 211.327 265.804 211.74 266.078 212.065C265.74 212.691 265.561 213.208 265.542 213.616C265.509 214.045 265.655 214.454 265.979 214.84C266.304 215.227 266.872 215.679 267.685 216.196L280.159 224.133C280.951 224.636 281.59 224.953 282.078 225.083C282.566 225.213 282.99 225.183 283.352 224.993C283.713 224.802 284.106 224.421 284.529 223.85C285.06 224.007 285.667 224.304 286.351 224.739C285.281 226.28 283.922 228.344 282.276 230.931C280.114 234.33 278.268 237.301 276.741 239.843Z" fill="url(#paint10_linear)"/>
<path d="M236.803 248.975C236.244 248.677 235.702 248.27 235.177 247.757C235.922 247.103 237.066 245.989 238.608 244.413C240.256 242.729 241.389 241.516 242.008 240.774C242.624 241.377 243.033 241.919 243.236 242.401C242.847 242.906 242.619 243.321 242.55 243.644C242.465 243.986 242.548 244.281 242.802 244.529C243.074 244.794 243.614 245.075 244.424 245.371L247.42 246.548C250.167 243.741 252.372 241.396 254.036 239.514L253.155 237.589C252.788 236.768 252.405 236.163 252.006 235.773C251.644 235.419 251.257 235.253 250.845 235.275C250.451 235.316 250.015 235.544 249.536 235.962C248.959 235.681 248.408 235.284 247.883 234.77C248.54 234.208 249.471 233.31 250.676 232.079C251.19 231.554 251.925 230.748 252.881 229.663C253.442 230.212 253.842 230.745 254.081 231.262C253.71 231.822 253.582 232.405 253.697 233.013C253.811 233.657 254.19 234.737 254.834 236.253L263.487 255.78C263.205 256.249 262.816 256.737 262.32 257.244L241.701 249.513C240.603 249.113 239.758 248.836 239.165 248.681C238.59 248.544 238.132 248.486 237.792 248.508C237.452 248.565 237.123 248.721 236.803 248.975ZM249.391 247.306L255.248 249.581C256.813 250.155 258.298 250.793 259.704 251.494C258.972 250.14 258.258 248.714 257.561 247.217L254.973 241.601L249.391 247.306Z" fill="url(#paint11_linear)"/>
<path d="M216.929 276.56C214.844 277.384 212.994 277.586 211.379 277.168C209.763 276.749 208.495 275.651 207.574 273.874C206.466 271.737 206.39 269.664 207.347 267.655C208.304 265.647 210.177 263.919 212.967 262.473C215.959 260.923 218.683 260.396 221.138 260.892C221.531 262.201 222.054 263.486 222.707 264.746L223.3 265.808C222.855 266.381 222.093 266.919 221.012 267.422C219.91 265.682 218.777 264.57 217.614 264.089C216.44 263.641 215.145 263.785 213.728 264.519C212.333 265.242 211.468 266.162 211.133 267.277C210.809 268.415 211.003 269.671 211.715 271.043C213.475 274.44 216.561 274.996 220.97 272.71C221.177 272.945 221.363 273.22 221.526 273.535C221.759 273.985 221.878 274.38 221.883 274.72C219.971 275.711 218.763 276.822 218.26 278.054C217.768 279.307 217.878 280.62 218.589 281.993C219.207 283.185 220.006 283.955 220.986 284.304C221.966 284.652 223.007 284.541 224.109 283.969C226.426 282.768 227.046 280.549 225.967 277.312C226.09 277.22 226.265 277.115 226.49 276.999C227.142 276.66 227.814 276.469 228.504 276.425C228.858 277.383 229.239 278.256 229.647 279.044C229.997 279.718 230.369 280.353 230.763 280.948C229.129 283.137 227.086 284.867 224.634 286.138C222.204 287.397 220.103 287.887 218.331 287.607C216.536 287.338 215.214 286.383 214.362 284.74C213.628 283.323 213.493 281.88 213.959 280.411C214.437 278.965 215.427 277.681 216.929 276.56Z" fill="url(#paint12_linear)"/>
<path d="M178.203 281.479C177.958 280.547 177.701 279.868 177.432 279.441C177.162 279.014 176.83 278.748 176.436 278.642C176.041 278.536 175.494 278.549 174.795 278.68C174.525 278.253 174.281 277.623 174.062 276.79C175.429 276.509 177.057 276.121 178.944 275.625C180.978 275.09 182.684 274.602 184.061 274.161C184.254 274.897 184.339 275.569 184.316 276.177C183.643 276.407 183.16 276.665 182.869 276.951C182.577 277.237 182.431 277.629 182.431 278.127C182.406 278.631 182.517 279.349 182.761 280.28L184.472 286.787C189.496 285.466 192.831 284.498 194.476 283.882L192.834 277.633C192.589 276.701 192.332 276.022 192.062 275.595C191.793 275.168 191.461 274.902 191.066 274.796C190.672 274.69 190.125 274.703 189.426 274.834C189.176 274.481 188.931 273.851 188.693 272.944C190.06 272.663 191.675 272.278 193.538 271.788C195.596 271.247 197.302 270.759 198.655 270.325C198.874 271.158 198.971 271.827 198.947 272.332C198.273 272.561 197.791 272.819 197.499 273.105C197.208 273.391 197.05 273.786 197.025 274.291C197 274.795 197.111 275.513 197.355 276.444L201.114 290.744C201.353 291.651 201.606 292.318 201.876 292.745C202.145 293.172 202.477 293.438 202.872 293.544C203.267 293.65 203.814 293.637 204.513 293.506C204.795 293.982 205.039 294.612 205.245 295.396C203.903 295.67 202.214 296.075 200.18 296.61C198.367 297.086 196.734 297.555 195.283 298.015C195.187 297.647 195.105 297.289 195.04 296.939C194.974 296.589 194.958 296.279 194.992 296.008C195.665 295.779 196.147 295.521 196.439 295.235C196.73 294.949 196.889 294.553 196.913 294.049C196.938 293.545 196.831 292.839 196.593 291.933L195.056 286.088L184.984 288.735L186.52 294.58C186.759 295.487 187.013 296.154 187.282 296.581C187.527 297.014 187.847 297.284 188.241 297.39C188.636 297.496 189.183 297.483 189.882 297.352C190.182 297.797 190.439 298.424 190.651 299.232C189.309 299.507 187.608 299.914 185.549 300.456C183.736 300.932 182.104 301.401 180.652 301.861C180.427 301.003 180.33 300.334 180.361 299.854C181.034 299.625 181.517 299.367 181.808 299.081C182.1 298.795 182.258 298.399 182.282 297.895C182.307 297.391 182.2 296.685 181.962 295.778L178.203 281.479Z" fill="url(#paint13_linear)"/>
<path d="M144.184 280.332C143.997 279.727 143.898 279.056 143.887 278.322C144.876 278.382 146.473 278.396 148.677 278.362C151.033 278.325 152.692 278.262 153.654 278.171C153.667 279.032 153.576 279.705 153.381 280.19C152.749 280.276 152.295 280.409 152.019 280.591C151.717 280.773 151.569 281.041 151.575 281.396C151.581 281.776 151.767 282.356 152.134 283.136L153.434 286.081C157.361 286.021 160.578 285.908 163.084 285.742L163.814 283.754C164.13 282.913 164.284 282.214 164.276 281.656C164.268 281.15 164.11 280.759 163.801 280.485C163.493 280.236 163.022 280.092 162.388 280.051C162.176 279.446 162.064 278.776 162.053 278.041C162.916 278.104 164.208 278.122 165.931 278.095C166.666 278.084 167.755 278.029 169.198 277.931C169.21 278.716 169.119 279.377 168.924 279.912C168.268 280.049 167.766 280.373 167.419 280.885C167.047 281.423 166.556 282.457 165.946 283.987L158.347 303.948C157.817 304.083 157.198 304.156 156.488 304.167L147.284 284.161C146.786 283.105 146.381 282.313 146.069 281.785C145.757 281.283 145.473 280.92 145.216 280.696C144.934 280.498 144.59 280.376 144.184 280.332ZM154.3 288.007L156.859 293.745C157.567 295.255 158.173 296.753 158.677 298.241C159.111 296.764 159.607 295.249 160.166 293.694L162.281 287.883L154.3 288.007Z" fill="url(#paint14_linear)"/>
<path d="M115.012 278.638C115.228 277.699 115.316 276.979 115.276 276.475C115.236 275.972 115.066 275.582 114.766 275.304C114.466 275.027 113.976 274.784 113.296 274.575C113.256 274.072 113.333 273.401 113.526 272.561C114.867 272.948 116.488 273.361 118.39 273.8C120.439 274.272 122.176 274.634 123.601 274.884C123.43 275.625 123.192 276.259 122.889 276.787C122.186 276.677 121.639 276.681 121.248 276.799C120.856 276.917 120.545 277.196 120.313 277.637C120.057 278.072 119.821 278.758 119.604 279.697L118.093 286.252C123.154 287.42 126.557 288.113 128.301 288.333L129.753 282.037C129.969 281.099 130.057 280.378 130.017 279.874C129.977 279.371 129.807 278.981 129.507 278.704C129.207 278.426 128.717 278.183 128.037 277.975C127.98 277.545 128.057 276.874 128.267 275.96C129.608 276.348 131.217 276.757 133.094 277.19C135.168 277.668 136.905 278.03 138.304 278.275C138.111 279.114 137.886 279.752 137.63 280.186C136.927 280.076 136.38 280.08 135.989 280.198C135.597 280.316 135.274 280.592 135.017 281.027C134.761 281.462 134.525 282.149 134.308 283.087L130.986 297.495C130.775 298.409 130.69 299.117 130.73 299.62C130.77 300.124 130.94 300.514 131.24 300.791C131.54 301.068 132.03 301.311 132.71 301.52C132.739 302.073 132.662 302.744 132.48 303.534C131.164 303.153 129.481 302.726 127.431 302.253C125.604 301.832 123.941 301.487 122.443 301.22C122.528 300.85 122.623 300.494 122.727 300.154C122.832 299.814 122.962 299.532 123.118 299.308C123.82 299.418 124.367 299.414 124.759 299.296C125.15 299.179 125.474 298.902 125.73 298.467C125.986 298.032 126.22 297.358 126.43 296.444L127.788 290.555L117.64 288.215L116.282 294.104C116.071 295.018 115.986 295.726 116.026 296.23C116.041 296.727 116.199 297.115 116.499 297.392C116.799 297.669 117.289 297.912 117.969 298.121C118.028 298.655 117.964 299.329 117.776 300.144C116.46 299.762 114.764 299.332 112.69 298.854C110.863 298.433 109.2 298.088 107.702 297.821C107.901 296.957 108.126 296.319 108.377 295.909C109.079 296.019 109.626 296.015 110.018 295.897C110.409 295.78 110.733 295.503 110.989 295.068C111.245 294.633 111.479 293.959 111.689 293.045L115.012 278.638Z" fill="url(#paint15_linear)"/>
<path d="M85.1253 265.619C85.5653 264.762 85.8276 264.085 85.9124 263.587C85.9971 263.09 85.928 262.669 85.7051 262.327C85.4822 261.985 85.0667 261.629 84.4587 261.26C84.5435 260.762 84.7827 260.13 85.1763 259.363C86.3813 260.068 87.8516 260.866 89.5872 261.757C91.458 262.718 93.0531 263.495 94.3727 264.087C94.0253 264.763 93.6396 265.32 93.2155 265.758C92.5613 265.479 92.03 265.348 91.6218 265.366C91.2137 265.385 90.8432 265.579 90.5106 265.949C90.1553 266.308 89.7577 266.916 89.3178 267.772L83.7083 278.693L98.9126 271.803C99.3422 270.856 99.4861 270.132 99.3442 269.632C99.2023 269.132 98.7259 268.645 97.9151 268.172C97.9651 267.741 98.2043 267.109 98.6327 266.275C99.8377 266.98 101.297 267.772 103.01 268.652C104.903 269.625 106.498 270.401 107.795 270.982C107.402 271.748 107.027 272.311 106.672 272.67C106.018 272.391 105.486 272.26 105.078 272.278C104.67 272.297 104.288 272.485 103.933 272.844C103.578 273.203 103.18 273.81 102.74 274.667L95.9846 287.819C95.5562 288.653 95.2997 289.319 95.2149 289.816C95.1302 290.314 95.1993 290.734 95.4222 291.077C95.6452 291.419 96.0606 291.775 96.6686 292.144C96.5607 292.687 96.3215 293.319 95.951 294.04C94.7686 293.348 93.242 292.521 91.3711 291.56C89.7032 290.703 88.1756 289.961 86.7885 289.334C86.9622 288.996 87.1413 288.675 87.3259 288.371C87.5106 288.067 87.7059 287.825 87.9118 287.646C88.5661 287.925 89.0973 288.056 89.5055 288.037C89.9137 288.019 90.2954 287.831 90.6506 287.472C91.0058 287.113 91.3976 286.517 91.826 285.683L97.4355 274.762L82.2138 281.685C81.7848 282.576 81.6583 283.266 81.8343 283.755C81.9762 284.255 82.4355 284.748 83.2122 285.232C83.1384 285.764 82.9105 286.402 82.5284 287.146C81.346 286.453 79.8081 285.62 77.9148 284.648C76.2468 283.791 74.7193 283.049 73.3321 282.422C73.7373 281.633 74.1118 281.07 74.4554 280.734C75.1097 281.013 75.6409 281.144 76.0491 281.125C76.4573 281.107 76.839 280.919 77.1942 280.56C77.5494 280.201 77.9412 279.605 78.3696 278.771L85.1253 265.619Z" fill="url(#paint16_linear)"/>
<path d="M59.3377 245.623C59.9753 244.901 60.3965 244.31 60.6013 243.848C60.8061 243.387 60.8427 242.963 60.7111 242.576C60.5794 242.189 60.2645 241.742 59.7664 241.234C59.9712 240.773 60.3588 240.219 60.9293 239.573C61.9234 240.553 63.1516 241.689 64.6138 242.981C66.19 244.373 67.5444 245.519 68.6772 246.419C68.1739 246.988 67.6628 247.433 67.144 247.752C66.5787 247.32 66.096 247.063 65.696 246.98C65.2959 246.897 64.889 246.994 64.4753 247.271C64.0425 247.531 63.5074 248.022 62.8699 248.744L54.7412 257.944L71.1748 255.016C71.8247 254.204 72.1425 253.538 72.1283 253.018C72.1141 252.498 71.7725 251.909 71.1034 251.25C71.2579 250.846 71.6455 250.292 72.2663 249.589C73.2604 250.569 74.4791 251.697 75.9223 252.972C77.5175 254.381 78.8719 255.527 79.9857 256.409C79.4153 257.055 78.9137 257.508 78.481 257.768C77.9157 257.336 77.433 257.079 77.033 256.996C76.6329 256.913 76.2165 257.002 75.7838 257.262C75.3511 257.522 74.8159 258.013 74.1784 258.734L64.3888 269.815C63.768 270.518 63.3552 271.1 63.1504 271.561C62.9456 272.023 62.909 272.447 63.0406 272.834C63.1723 273.22 63.4872 273.668 63.9853 274.176C63.747 274.675 63.3593 275.229 62.8224 275.836C61.8473 274.873 60.5717 273.696 58.9955 272.303C57.5902 271.061 56.2928 269.966 55.103 269.016C55.3547 268.731 55.6074 268.464 55.8613 268.215C56.1152 267.966 56.364 267.78 56.6077 267.658C57.173 268.089 57.6557 268.347 58.0558 268.43C58.4558 268.513 58.8722 268.424 59.3049 268.164C59.7377 267.904 60.2644 267.422 60.8852 266.72L69.0138 257.519L52.5551 260.476C51.9198 261.233 51.6271 261.871 51.6771 262.388C51.6913 262.908 52.015 263.498 52.6483 264.159C52.4457 264.657 52.0676 265.219 51.5139 265.845C50.5388 264.882 49.2536 263.696 47.6585 262.287C46.2532 261.045 44.9557 259.95 43.766 259C44.3532 258.335 44.8548 257.883 45.2707 257.641C45.836 258.073 46.3187 258.331 46.7187 258.414C47.1188 258.496 47.5352 258.408 47.9679 258.148C48.4006 257.888 48.9274 257.406 49.5481 256.704L59.3377 245.623ZM52.1926 268.981C53.8827 270.474 54.9016 272 55.2493 273.558C55.5971 275.116 55.2005 276.541 54.0596 277.832C53.2316 277.507 52.4568 277.025 51.7352 276.387C51.5833 276.253 51.3532 276.016 51.0449 275.676C51.8136 274.462 52.1797 273.416 52.1434 272.538C52.1071 271.661 51.6426 270.828 50.7501 270.039C49.8576 269.251 48.9927 268.909 48.1555 269.015C47.3183 269.121 46.3824 269.663 45.3479 270.643C44.9726 270.379 44.6804 270.155 44.4715 269.97C43.7119 269.299 43.1586 268.624 42.8114 267.945C43.9523 266.654 45.3637 266.109 47.0457 266.31C48.7109 266.53 50.4265 267.421 52.1926 268.981Z" fill="url(#paint17_linear)"/>
<path d="M31.2879 243.479C36.6868 240.196 41.3 237.241 45.1276 234.613C45.6112 234.913 46.1601 235.467 46.7741 236.273C41.9547 240.484 37.7765 244.367 34.2395 247.92C33.7089 247.432 33.0665 246.902 32.3122 246.33C31.5378 245.773 30.8963 245.37 30.3876 245.12C30.2064 244.589 30.3577 244.139 30.8415 243.771C31.023 243.633 31.1718 243.535 31.2879 243.479ZM49.5288 229.35C50.1739 228.859 50.8516 228.662 51.5619 228.758C52.2519 228.869 52.8349 229.238 53.3108 229.863C53.8174 230.528 54.0351 231.19 53.9639 231.85C53.8773 232.489 53.5316 233.039 52.9268 233.499C52.322 233.96 51.6669 234.124 50.9614 233.992C50.2359 233.876 49.6275 233.495 49.1362 232.85C48.6757 232.245 48.5089 231.608 48.6357 230.938C48.7473 230.248 49.045 229.719 49.5288 229.35Z" fill="url(#paint18_linear)"/>
<path d="M27.3382 192.805C27.7987 194.281 27.7143 195.542 27.0851 196.587C26.4558 197.633 25.5123 198.352 24.2544 198.745C23.0692 199.115 21.9574 198.997 20.9191 198.392C19.8567 197.795 19.1179 196.831 18.7027 195.5C18.2724 194.121 18.3477 192.917 18.9286 191.886C19.5095 190.855 20.3805 190.159 21.5415 189.796C22.8477 189.389 24.0366 189.456 25.1082 189.997C26.1722 190.515 26.9155 191.451 27.3382 192.805Z" fill="url(#paint19_linear)"/>
<path d="M25.9212 152.912C25.8696 153.518 25.734 154.066 25.5143 154.556C25.2947 155.046 25.0594 155.42 24.8085 155.678C24.3433 155.766 23.7194 155.777 22.9366 155.71C22.0025 155.63 21.2399 155.477 20.649 155.248C20.9116 154.253 21.0708 153.428 21.1267 152.771C21.1911 152.014 21.0428 151.365 20.6818 150.826C20.2955 150.285 19.5262 149.761 18.3739 149.257C17.1732 148.722 15.4864 148.223 13.3134 147.758C11.1425 147.268 8.66116 146.841 5.86931 146.476L4.73635 146.342C4.10514 146.288 3.6316 146.324 3.31573 146.45C2.97676 146.548 2.71435 146.793 2.5285 147.184C2.34265 147.575 2.17534 148.197 2.02658 149.049C1.48348 149.155 0.807953 149.174 0 149.105C0.223921 147.369 0.537744 144.128 0.94147 139.382C1.33875 134.711 1.56395 131.614 1.61705 130.093C2.50075 130.168 3.16339 130.301 3.60498 130.491C3.59535 131.202 3.67649 131.743 3.84842 132.114C4.02034 132.485 4.33972 132.766 4.80656 132.958C5.2734 133.151 5.97391 133.286 6.90811 133.366L21.6406 134.619C22.6001 134.701 23.3261 134.686 23.8187 134.575C24.3113 134.465 24.6736 134.241 24.9057 133.905C25.1377 133.569 25.3091 133.049 25.4197 132.346C25.9123 132.236 26.5878 132.217 27.4463 132.29C27.2524 133.672 27.0728 135.335 26.9075 137.279C26.7292 139.375 26.6168 141.146 26.5701 142.591C25.6864 142.516 25.0249 142.371 24.5854 142.155C24.595 141.444 24.5139 140.903 24.342 140.533C24.1701 140.162 23.8496 139.893 23.3806 139.726C22.9138 139.534 22.2006 139.397 21.2412 139.315L6.50868 138.062C5.44824 137.972 4.69804 137.972 4.25808 138.061C3.79501 138.124 3.44638 138.336 3.21218 138.697C2.8915 139.179 2.68713 139.937 2.59909 140.972C2.52178 141.881 2.60159 142.587 2.83852 143.091C3.0083 143.486 3.27825 143.751 3.64839 143.884C4.01853 144.017 4.79372 144.172 5.97395 144.349C11.223 145.126 15.2663 145.877 18.1038 146.601C20.9413 147.326 22.9916 148.187 24.2546 149.184C25.4945 150.155 26.05 151.397 25.9212 152.912Z" fill="url(#paint20_linear)"/>
<path d="M29.9468 102.721C30.8592 103.029 31.5679 103.187 32.0727 103.197C32.5775 103.207 32.9826 103.076 33.288 102.804C33.5934 102.533 33.8834 102.069 34.1581 101.413C34.6629 101.423 35.3235 101.565 36.1399 101.841C35.6227 103.137 35.0525 104.71 34.4292 106.558C33.7574 108.552 33.2268 110.244 32.8375 111.637C32.1171 111.395 31.5091 111.096 31.0135 110.742C31.1921 110.053 31.242 109.509 31.1633 109.108C31.0845 108.707 30.8372 108.369 30.4214 108.096C30.0138 107.798 29.3537 107.495 28.4413 107.187L16.8074 103.266L25.8831 117.275C26.8837 117.559 27.6208 117.594 28.0943 117.379C28.5678 117.164 28.9783 116.621 29.3259 115.748C29.7586 115.734 30.4192 115.876 31.3077 116.176C30.7905 117.472 30.2243 119.033 29.6091 120.858C28.9292 122.875 28.3986 124.568 28.0174 125.937C27.201 125.662 26.5889 125.375 26.1813 125.077C26.3599 124.389 26.4098 123.844 26.331 123.443C26.2522 123.042 26.009 122.693 25.6013 122.395C25.1937 122.097 24.5336 121.794 23.6212 121.487L9.61006 116.764C8.72161 116.464 8.02499 116.31 7.52019 116.3C7.0154 116.29 6.61029 116.421 6.30488 116.692C5.99946 116.964 5.70942 117.428 5.43476 118.084C4.88194 118.058 4.22133 117.915 3.45295 117.656C3.96207 116.384 4.55254 114.751 5.22436 112.758C5.82333 110.981 6.32963 109.36 6.74324 107.895C7.10343 108.017 7.44755 108.146 7.77563 108.284C8.10371 108.421 8.37162 108.578 8.57936 108.755C8.40075 109.444 8.35083 109.988 8.42961 110.389C8.50838 110.79 8.75161 111.139 9.15927 111.437C9.56694 111.735 10.215 112.034 11.1034 112.333L22.7373 116.255L13.6256 102.233C12.6811 101.942 11.98 101.919 11.5224 102.166C11.0489 102.381 10.6304 102.908 10.267 103.748C9.7301 103.755 9.06545 103.624 8.27305 103.357C8.78217 102.085 9.37669 100.44 10.0566 98.423C10.6556 96.6461 11.1619 95.0251 11.5755 93.5601C12.4159 93.8434 13.028 94.13 13.4116 94.4197C13.233 95.1083 13.1831 95.653 13.2619 96.0539C13.3406 96.4548 13.5839 96.8042 13.9915 97.1021C14.3992 97.4 15.0472 97.6986 15.9357 97.9981L29.9468 102.721Z" fill="url(#paint21_linear)"/>
<path d="M25.616 67.7122C28.201 68.9695 30.1192 69.8114 31.3705 70.2379C31.3659 70.8855 31.1156 71.6219 30.6197 72.4473C29.3033 71.8339 28.0649 71.6812 26.9044 71.9891C25.7222 72.284 24.5896 73.3329 23.5066 75.1358L21.9799 77.6772L37.1308 86.7786C38.0649 87.3397 38.8513 87.6791 39.49 87.7967C40.1201 87.8796 40.6742 87.7691 41.1524 87.4652C41.6089 87.1482 42.0937 86.6117 42.6069 85.8558C43.0545 85.9473 43.6692 86.2279 44.4512 86.6977C43.7467 87.7229 42.7746 89.2673 41.535 91.3309C40.1388 93.6551 39.1667 95.3473 38.6185 96.4073C37.8148 95.9245 37.2718 95.5244 36.9895 95.2071C37.3114 94.5727 37.4768 94.0513 37.4857 93.6429C37.5077 93.2126 37.3515 92.8084 37.017 92.4302C36.6826 92.0519 36.1027 91.6148 35.2773 91.119L22.6026 83.5052C21.7989 83.0224 21.1516 82.7222 20.6606 82.6046C20.1695 82.487 19.7458 82.5281 19.3894 82.7278C19.0329 82.9275 18.6503 83.3184 18.2415 83.9005C17.707 83.7568 17.0923 83.4762 16.3972 83.0587C17.4279 81.4904 18.7327 79.3921 20.3116 76.7638C22.3863 73.31 24.1544 70.2928 25.616 67.7122Z" fill="url(#paint22_linear)"/>
<path d="M65.3149 57.4694C65.881 57.7536 66.4332 58.1459 66.9713 58.6463C66.2427 59.3183 65.1278 60.4615 63.6266 62.076C62.0219 63.8018 60.9195 65.0431 60.3195 65.8C59.6885 65.2134 59.2658 64.6819 59.0513 64.2056C59.427 63.6899 59.6448 63.2696 59.7047 62.9447C59.7818 62.6012 59.6905 62.3087 59.4307 62.0671C59.1524 61.8083 58.6048 61.5413 57.7879 61.2662L54.7626 60.1659C52.0881 63.0423 49.9431 65.4421 48.3276 67.3655L49.2574 69.2682C49.6455 70.0788 50.0436 70.674 50.4519 71.0536C50.823 71.3987 51.2142 71.5548 51.6254 71.5219C52.018 71.4718 52.4486 71.232 52.9171 70.8026C53.5005 71.0682 54.0612 71.4513 54.5994 71.9517C53.9571 72.5308 53.0492 73.4514 51.8759 74.7132C51.3755 75.2514 50.6613 76.0752 49.7335 77.1847C49.1582 76.6498 48.7447 76.127 48.4931 75.6161C48.8489 75.0474 48.9621 74.4606 48.8325 73.8557C48.7016 73.215 48.2952 72.145 47.6131 70.6458L38.4666 51.3452C38.7362 50.8693 39.1126 50.3715 39.5957 49.8519L60.405 57.0562C61.5123 57.4283 62.3643 57.6842 62.961 57.8239C63.5392 57.9463 63.9981 57.9924 64.3377 57.9621C64.6759 57.8961 65.0017 57.7318 65.3149 57.4694ZM52.7736 59.4583L46.8603 57.3334C45.281 56.7992 43.7799 56.1993 42.3572 55.5338C43.123 56.8686 43.8734 58.2757 44.6085 59.7551L47.3383 65.3037L52.7736 59.4583Z" fill="url(#paint23_linear)"/>
<path d="M84.542 29.2716C86.6046 28.3942 88.4488 28.1438 90.0746 28.5203C91.7003 28.8968 92.9966 29.9615 93.9635 31.7144C95.1263 33.8222 95.2554 35.8925 94.351 37.9252C93.4465 39.9579 91.6187 41.7331 88.8674 43.2508C85.9164 44.8786 83.2073 45.4759 80.74 45.0427C80.3132 43.7444 79.7571 42.474 79.0717 41.2315L78.4509 40.1848C78.8809 39.6003 79.6296 39.0427 80.6969 38.5118C81.8436 40.2233 83.0045 41.3048 84.1796 41.7563C85.3646 42.1733 86.6561 41.9963 88.0539 41.2252C89.4296 40.4664 90.2704 39.525 90.5765 38.4012C90.8704 37.2551 90.644 36.0054 89.8974 34.6519C88.0492 31.3016 84.9508 30.8259 80.602 33.2248C80.3885 32.9953 80.1962 32.7252 80.0248 32.4145C79.78 31.9708 79.6507 31.5791 79.637 31.2394C81.5229 30.199 82.7016 29.0569 83.173 27.8129C83.6321 26.5468 83.4884 25.237 82.7418 23.8835C82.0931 22.7076 81.2745 21.9581 80.2861 21.6352C79.2976 21.3123 78.2598 21.4507 77.1726 22.0504C74.8873 23.3111 74.3256 25.5454 75.4875 28.7534C75.3666 28.849 75.1952 28.958 74.9733 29.0804C74.3299 29.4354 73.6635 29.6438 72.9742 29.7057C72.5955 28.757 72.192 27.8944 71.7636 27.1178C71.3964 26.4522 71.0082 25.8271 70.5989 25.2425C72.1759 23.0125 74.1736 21.2304 76.5921 19.8963C78.9883 18.5745 81.0759 18.0306 82.8546 18.2649C84.6556 18.4869 86.0028 19.4077 86.8963 21.0274C87.6673 22.4253 87.839 23.8644 87.4112 25.3447C86.9712 26.8029 86.0148 28.1119 84.542 29.2716Z" fill="url(#paint24_linear)"/>
<path d="M122.413 23.5351C122.682 24.4596 122.957 25.1317 123.238 25.5513C123.519 25.971 123.858 26.2285 124.255 26.3239C124.652 26.4193 125.199 26.392 125.894 26.2421C126.175 26.6618 126.435 27.2852 126.676 28.1124C125.317 28.4293 123.701 28.8608 121.828 29.4067C119.809 29.9952 118.116 30.528 116.751 31.0051C116.538 30.2753 116.435 29.6058 116.443 28.9966C117.11 28.7494 117.585 28.4789 117.869 28.185C118.153 27.8912 118.288 27.4954 118.275 26.9977C118.286 26.4929 118.157 25.7783 117.888 24.8539L116.005 18.3949C111.018 19.8484 107.71 20.9048 106.081 21.5643L107.889 27.7679C108.159 28.6923 108.434 29.3644 108.714 29.7841C108.995 30.2038 109.334 30.4613 109.731 30.5566C110.129 30.652 110.675 30.6248 111.37 30.4749C111.63 30.8216 111.891 31.445 112.153 32.3451C110.794 32.6621 109.19 33.09 107.341 33.6288C105.297 34.2244 103.605 34.7572 102.264 35.2272C102.023 34.4001 101.908 33.7341 101.919 33.2294C102.586 32.9822 103.061 32.7117 103.345 32.4178C103.629 32.1239 103.777 31.7246 103.788 31.2198C103.799 30.715 103.67 30.0004 103.401 29.076L99.2637 14.8808C99.0014 13.9807 98.7299 13.3208 98.4492 12.9011C98.1686 12.4815 97.8296 12.2239 97.4323 12.1286C97.035 12.0332 96.4886 12.0605 95.7933 12.2103C95.4984 11.742 95.2375 11.1186 95.0107 10.3401C96.3456 10.0302 98.0227 9.58104 100.042 8.99257C101.842 8.46791 103.461 7.95639 104.9 7.458C105.006 7.82292 105.097 8.17921 105.172 8.52689C105.247 8.87456 105.271 9.18422 105.245 9.45586C104.578 9.70303 104.102 9.97356 103.818 10.2674C103.534 10.5613 103.387 10.9606 103.376 11.4654C103.364 11.9702 103.49 12.6726 103.752 13.5727L105.443 19.3749L115.442 16.4609L113.751 10.6587C113.488 9.75862 113.217 9.09871 112.936 8.67903C112.68 8.25226 112.353 7.99119 111.956 7.89583C111.559 7.80047 111.012 7.82772 110.317 7.97759C110.005 7.54067 109.732 6.9208 109.498 6.11799C110.833 5.80811 112.522 5.35539 114.565 4.75983C116.366 4.23517 117.985 3.72364 119.423 3.22526C119.672 4.07673 119.786 4.74268 119.768 5.22311C119.101 5.47029 118.626 5.74082 118.342 6.0347C118.058 6.32858 117.91 6.7279 117.899 7.23267C117.888 7.73743 118.013 8.43987 118.276 9.33999L122.413 23.5351Z" fill="url(#paint25_linear)"/>
<path d="M156.639 23.5973C156.842 24.1973 156.96 24.8645 156.991 25.5987C156 25.5646 154.404 25.5944 152.201 25.688C149.847 25.788 148.19 25.8964 147.231 26.0132C147.195 25.1524 147.267 24.4772 147.449 23.9876C148.079 23.8848 148.529 23.7388 148.8 23.5498C149.097 23.3597 149.237 23.0874 149.222 22.733C149.206 22.3532 149.004 21.7784 148.616 21.0087L147.237 18.0998C143.313 18.2665 140.101 18.4664 137.6 18.6994L136.924 20.7064C136.63 21.5558 136.495 22.259 136.519 22.816C136.541 23.3223 136.709 23.7083 137.025 23.9739C137.339 24.2141 137.814 24.3462 138.449 24.3699C138.678 24.9689 138.807 25.6355 138.839 26.3697C137.975 26.3303 136.682 26.3472 134.96 26.4203C134.226 26.4515 133.139 26.5357 131.699 26.6729C131.666 25.8881 131.739 25.2256 131.919 24.6853C132.572 24.5308 133.065 24.1928 133.398 23.6714C133.755 23.1236 134.218 22.0768 134.786 20.5309L141.843 0.372287C142.369 0.22312 142.987 0.133481 143.696 0.103371L153.437 19.8528C153.963 20.8957 154.389 21.6765 154.716 22.1953C155.041 22.6887 155.335 23.044 155.598 23.2611C155.885 23.4518 156.232 23.5638 156.639 23.5973ZM146.32 16.1986L143.606 10.5312C142.858 9.04121 142.212 7.55959 141.667 6.08632C141.274 7.57406 140.819 9.10246 140.302 10.6715L138.345 16.5373L146.32 16.1986Z" fill="url(#paint26_linear)"/>
<path d="M185.928 24.4216C185.736 25.3653 185.668 26.0882 185.721 26.5903C185.774 27.0923 185.955 27.4779 186.262 27.7471C186.57 28.0162 187.066 28.2461 187.751 28.4366C187.805 28.9387 187.746 29.6119 187.575 30.4563C186.224 30.105 184.592 29.7356 182.68 29.3481C180.619 28.9304 178.873 28.6154 177.442 28.403C177.593 27.658 177.813 27.0175 178.103 26.4815C178.808 26.5727 179.355 26.5542 179.743 26.426C180.131 26.2978 180.435 26.0103 180.655 25.5636C180.899 25.122 181.117 24.4293 181.308 23.4855L182.645 16.8919C177.553 15.8602 174.133 15.2576 172.385 15.0842L171.101 21.4171C170.91 22.3609 170.841 23.0838 170.894 23.5858C170.948 24.0879 171.128 24.4735 171.436 24.7426C171.743 25.0117 172.24 25.2416 172.925 25.4322C172.993 25.8597 172.934 26.533 172.748 27.4519C171.397 27.1006 169.778 26.7337 167.891 26.3512C165.805 25.9285 164.059 25.6134 162.653 25.4061C162.824 24.5617 163.032 23.9187 163.276 23.477C163.982 23.5683 164.529 23.5498 164.917 23.4216C165.305 23.2933 165.621 23.0084 165.865 22.5667C166.11 22.1251 166.328 21.4324 166.519 20.4886L169.456 5.99746C169.642 5.07857 169.708 4.36809 169.655 3.86604C169.602 3.36398 169.421 2.97838 169.114 2.70924C168.806 2.44011 168.31 2.21025 167.625 2.01967C167.581 1.46794 167.64 0.794717 167.801 0C169.127 0.346263 170.821 0.728247 172.882 1.14595C174.72 1.51836 176.391 1.81829 177.897 2.04574C177.821 2.41827 177.736 2.77586 177.64 3.11851C177.545 3.46117 177.423 3.74661 177.273 3.97483C176.568 3.88358 176.021 3.90207 175.633 4.0303C175.245 4.15852 174.929 4.44347 174.684 4.88513C174.439 5.3268 174.224 6.00708 174.038 6.92597L172.837 12.8491L183.045 14.9175L184.245 8.99436C184.431 8.07547 184.498 7.365 184.444 6.86294C184.416 6.36591 184.248 5.98283 183.94 5.7137C183.633 5.44456 183.136 5.2147 182.451 5.02412C182.378 4.49219 182.424 3.81645 182.59 2.9969C183.916 3.34317 185.622 3.72767 187.709 4.1504C189.546 4.52281 191.218 4.82275 192.723 5.0502C192.547 5.91942 192.339 6.56244 192.099 6.97928C191.394 6.88804 190.847 6.90653 190.459 7.03475C190.071 7.16297 189.755 7.44792 189.51 7.88959C189.266 8.33125 189.05 9.01153 188.864 9.93042L185.928 24.4216Z" fill="url(#paint27_linear)"/>
<path d="M215.984 36.4484C215.567 37.316 215.322 37.9997 215.25 38.4995C215.179 38.9992 215.259 39.4174 215.49 39.7539C215.722 40.0904 216.147 40.4353 216.764 40.7887C216.692 41.2884 216.469 41.9265 216.096 42.7028C214.873 42.0299 213.383 41.2704 211.624 40.4242C209.729 39.5122 208.114 38.7772 206.78 38.2193C207.11 37.5343 207.481 36.9677 207.893 36.5195C208.555 36.7815 209.089 36.8981 209.497 36.8693C209.904 36.8405 210.27 36.6366 210.592 36.2577C210.938 35.8898 211.32 35.2721 211.738 34.4044L217.062 23.3419L202.041 30.6237C201.636 31.5818 201.511 32.309 201.666 32.8054C201.821 33.3017 202.31 33.776 203.133 34.2283C203.094 34.6595 202.871 35.2976 202.465 36.1424C201.242 35.4695 199.763 34.7155 198.027 33.8803C196.109 32.9572 194.495 32.2223 193.183 31.6754C193.557 30.8991 193.916 30.327 194.262 29.9591C194.923 30.2211 195.458 30.3377 195.865 30.3089C196.273 30.2801 196.65 30.0817 196.995 29.7138C197.341 29.3459 197.723 28.7281 198.141 27.8605L204.553 14.5375C204.959 13.6927 205.198 13.0204 205.27 12.5206C205.342 12.0209 205.262 11.6027 205.03 11.2662C204.798 10.9297 204.374 10.5848 203.757 10.2314C203.85 9.68599 204.073 9.04795 204.425 8.3173C205.625 8.9792 207.172 9.76619 209.067 10.6783C210.757 11.4915 212.303 12.1935 213.706 12.7843C213.541 13.1268 213.371 13.4524 213.194 13.7611C213.017 14.0697 212.828 14.3163 212.627 14.5006C211.966 14.2386 211.431 14.122 211.024 14.1508C210.616 14.1796 210.24 14.378 209.894 14.7459C209.548 15.1138 209.172 15.7201 208.765 16.5649L203.441 27.6275L218.478 20.3114C218.884 19.41 218.992 18.717 218.804 18.2325C218.649 17.7362 218.177 17.2559 217.388 16.7918C217.448 16.2582 217.659 15.6147 218.022 14.8612C219.222 15.5231 220.781 16.3156 222.699 17.2387C224.388 18.0519 225.935 18.7539 227.338 19.3447C226.953 20.1439 226.593 20.716 226.258 21.061C225.597 20.799 225.063 20.6824 224.655 20.7112C224.248 20.7401 223.871 20.9384 223.525 21.3063C223.179 21.6742 222.803 22.2805 222.397 23.1254L215.984 36.4484Z" fill="url(#paint28_linear)"/>
<path d="M242.753 55.9398C242.134 56.6774 241.728 57.2795 241.535 57.746C241.342 58.2125 241.316 58.6375 241.458 59.0208C241.599 59.4041 241.925 59.8432 242.436 60.3381C242.243 60.8047 241.87 61.3679 241.316 62.0279C240.297 61.0738 239.041 59.9696 237.546 58.7154C235.935 57.3635 234.552 56.2524 233.396 55.3822C233.885 54.7999 234.384 54.3425 234.895 54.0101C235.471 54.4273 235.96 54.6723 236.362 54.7451C236.764 54.8178 237.169 54.7105 237.575 54.4231C238.001 54.1521 238.524 53.6477 239.142 52.9101L247.034 43.5055L230.681 46.8514C230.052 47.6799 229.751 48.3537 229.778 48.8729C229.806 49.3921 230.162 49.9724 230.848 50.6139C230.704 51.0222 230.33 51.5855 229.728 52.3037C228.709 51.3496 227.462 50.2536 225.987 49.0157C224.356 47.6474 222.973 46.5364 221.837 45.6825C222.391 45.0225 222.881 44.5569 223.307 44.2859C223.883 44.7031 224.372 44.9481 224.774 45.0209C225.176 45.0936 225.59 44.9945 226.016 44.7234C226.442 44.4523 226.964 43.948 227.583 43.2103L237.088 31.884C237.69 31.1658 238.088 30.5735 238.281 30.1069C238.474 29.6404 238.5 29.2154 238.358 28.8321C238.217 28.4488 237.891 28.0097 237.38 27.5148C237.605 27.0094 237.979 26.4462 238.5 25.825C239.499 26.7628 240.805 27.9077 242.416 29.2596C243.852 30.465 245.177 31.5272 246.391 32.4463C246.146 32.7374 245.9 33.0107 245.653 33.2662C245.406 33.5217 245.162 33.7139 244.921 33.8428C244.345 33.4256 243.856 33.1806 243.454 33.1078C243.052 33.0351 242.638 33.1342 242.212 33.4053C241.786 33.6764 241.272 34.171 240.669 34.8893L232.777 44.2939L249.155 40.9188C249.771 40.1455 250.047 39.5008 249.984 38.9847C249.957 38.4655 249.618 37.8836 248.968 37.239C249.158 36.7367 249.522 36.1653 250.059 35.5248C251.059 36.4626 252.374 37.6156 254.004 38.9838C255.441 40.1892 256.766 41.2514 257.979 42.1705C257.409 42.8498 256.919 43.3154 256.509 43.567C255.933 43.1498 255.444 42.9048 255.042 42.832C254.64 42.7593 254.226 42.8584 253.8 43.1295C253.374 43.4006 252.86 43.8952 252.257 44.6134L242.753 55.9398ZM249.301 32.4075C247.573 30.9579 246.516 29.4586 246.129 27.9096C245.741 26.3607 246.102 24.9263 247.209 23.6064C248.045 23.9109 248.832 24.3727 249.57 24.9917C249.725 25.122 249.961 25.3531 250.278 25.6852C249.54 26.9188 249.201 27.9737 249.26 28.8499C249.318 29.7261 249.804 30.5469 250.716 31.3125C251.628 32.0781 252.502 32.3974 253.336 32.2704C254.17 32.1435 255.092 31.5773 256.101 30.5717C256.483 30.8261 256.781 31.0428 256.994 31.222C257.771 31.8735 258.341 32.5341 258.706 33.2037C257.598 34.5237 256.201 35.1045 254.514 34.9463C252.844 34.7686 251.106 33.9224 249.301 32.4075Z" fill="url(#paint29_linear)"/>
<path d="M270.862 57.3032C265.549 60.7228 261.013 63.7949 257.253 66.5195C256.762 66.2314 256.199 65.6921 255.565 64.9016C260.276 60.5688 264.353 56.5813 267.798 52.939C268.341 53.4131 268.997 53.9265 269.766 54.4793C270.554 55.0163 271.206 55.4031 271.721 55.6398C271.915 56.1658 271.775 56.6191 271.301 56.9998C271.123 57.1425 270.977 57.2437 270.862 57.3032ZM252.988 71.8924C252.355 72.4 251.683 72.6147 250.971 72.5367C250.278 72.4428 249.686 72.0896 249.194 71.4769C248.671 70.8248 248.436 70.1682 248.491 69.5072C248.561 68.866 248.892 68.3075 249.485 67.8317C250.078 67.3559 250.729 67.1748 251.437 67.2885C252.166 67.3863 252.784 67.7514 253.291 68.3837C253.767 68.9766 253.95 69.6095 253.84 70.2824C253.746 70.9751 253.462 71.5118 252.988 71.8924Z" fill="url(#paint30_linear)"/>
<path d="M276.254 107.962C275.755 106.499 275.806 105.237 276.407 104.175C277.009 103.113 277.933 102.369 279.18 101.943C280.355 101.542 281.469 101.631 282.523 102.208C283.601 102.777 284.365 103.721 284.815 105.04C285.282 106.407 285.238 107.614 284.685 108.659C284.131 109.705 283.279 110.424 282.128 110.817C280.833 111.259 279.643 111.224 278.557 110.71C277.48 110.221 276.712 109.305 276.254 107.962Z" fill="url(#paint31_linear)"/>
<defs>
<linearGradient id="paint0_linear" x1="167.443" y1="141.901" x2="256.073" y2="141.901" gradientUnits="userSpaceOnUse">
<stop stop-color="#BD0705"/>
<stop offset="1" stop-color="#FD0302"/>
</linearGradient>
<linearGradient id="paint1_linear" x1="163.012" y1="53.7617" x2="163.012" y2="141.901" gradientUnits="userSpaceOnUse">
<stop stop-color="#B4000E"/>
<stop offset="1" stop-color="#D70016"/>
</linearGradient>
<linearGradient id="paint2_linear" x1="152.749" y1="103.544" x2="124.531" y2="117.074" gradientUnits="userSpaceOnUse">
<stop stop-color="#930105"/>
<stop offset="1" stop-color="#D30015"/>
</linearGradient>
<linearGradient id="paint3_linear" x1="144.12" y1="144.465" x2="49.196" y2="119.736" gradientUnits="userSpaceOnUse">
<stop stop-color="#D90017"/>
<stop offset="1" stop-color="#B4000D"/>
</linearGradient>
<linearGradient id="paint4_linear" x1="49.1926" y1="118.584" x2="128.481" y2="167.453" gradientUnits="userSpaceOnUse">
<stop stop-color="#D80118"/>
<stop offset="1" stop-color="#B3000D"/>
</linearGradient>
<linearGradient id="paint5_linear" x1="96.5094" y1="170.835" x2="119.468" y2="207.689" gradientUnits="userSpaceOnUse">
<stop stop-color="#D80016"/>
<stop offset="1" stop-color="#B4000D"/>
</linearGradient>
<linearGradient id="paint6_linear" x1="79.5132" y1="241.931" x2="150.4" y2="181.52" gradientUnits="userSpaceOnUse">
<stop stop-color="#B3000D"/>
<stop offset="1" stop-color="#D60016"/>
</linearGradient>
<linearGradient id="paint7_linear" x1="150.184" y1="181.54" x2="220.378" y2="223.644" gradientUnits="userSpaceOnUse">
<stop stop-color="#B3000D"/>
<stop offset="1" stop-color="#D90017"/>
</linearGradient>
<linearGradient id="paint8_linear" x1="262.639" y1="120.084" x2="258.083" y2="106.734" gradientUnits="userSpaceOnUse">
<stop stop-color="#BD0705"/>
<stop offset="1" stop-color="#FD0302"/>
</linearGradient>
<linearGradient id="paint9_linear" x1="262.639" y1="120.084" x2="258.083" y2="106.734" gradientUnits="userSpaceOnUse">
<stop stop-color="#BD0705"/>
<stop offset="1" stop-color="#FD0302"/>
</linearGradient>
<linearGradient id="paint10_linear" x1="262.639" y1="120.084" x2="258.083" y2="106.734" gradientUnits="userSpaceOnUse">
<stop stop-color="#BD0705"/>
<stop offset="1" stop-color="#FD0302"/>
</linearGradient>
<linearGradient id="paint11_linear" x1="262.639" y1="120.084" x2="258.083" y2="106.734" gradientUnits="userSpaceOnUse">
<stop stop-color="#BD0705"/>
<stop offset="1" stop-color="#FD0302"/>
</linearGradient>
<linearGradient id="paint12_linear" x1="262.639" y1="120.084" x2="258.083" y2="106.734" gradientUnits="userSpaceOnUse">
<stop stop-color="#BD0705"/>
<stop offset="1" stop-color="#FD0302"/>
</linearGradient>
<linearGradient id="paint13_linear" x1="262.639" y1="120.084" x2="258.083" y2="106.734" gradientUnits="userSpaceOnUse">
<stop stop-color="#BD0705"/>
<stop offset="1" stop-color="#FD0302"/>
</linearGradient>
<linearGradient id="paint14_linear" x1="262.639" y1="120.084" x2="258.083" y2="106.734" gradientUnits="userSpaceOnUse">
<stop stop-color="#BD0705"/>
<stop offset="1" stop-color="#FD0302"/>
</linearGradient>
<linearGradient id="paint15_linear" x1="262.639" y1="120.084" x2="258.083" y2="106.734" gradientUnits="userSpaceOnUse">
<stop stop-color="#BD0705"/>
<stop offset="1" stop-color="#FD0302"/>
</linearGradient>
<linearGradient id="paint16_linear" x1="262.639" y1="120.084" x2="258.083" y2="106.734" gradientUnits="userSpaceOnUse">
<stop stop-color="#BD0705"/>
<stop offset="1" stop-color="#FD0302"/>
</linearGradient>
<linearGradient id="paint17_linear" x1="262.639" y1="120.084" x2="258.083" y2="106.734" gradientUnits="userSpaceOnUse">
<stop stop-color="#BD0705"/>
<stop offset="1" stop-color="#FD0302"/>
</linearGradient>
<linearGradient id="paint18_linear" x1="262.639" y1="120.084" x2="258.083" y2="106.734" gradientUnits="userSpaceOnUse">
<stop stop-color="#BD0705"/>
<stop offset="1" stop-color="#FD0302"/>
</linearGradient>
<linearGradient id="paint19_linear" x1="262.639" y1="120.084" x2="258.083" y2="106.734" gradientUnits="userSpaceOnUse">
<stop stop-color="#BD0705"/>
<stop offset="1" stop-color="#FD0302"/>
</linearGradient>
<linearGradient id="paint20_linear" x1="262.639" y1="120.084" x2="258.083" y2="106.734" gradientUnits="userSpaceOnUse">
<stop stop-color="#BD0705"/>
<stop offset="1" stop-color="#FD0302"/>
</linearGradient>
<linearGradient id="paint21_linear" x1="262.639" y1="120.084" x2="258.083" y2="106.734" gradientUnits="userSpaceOnUse">
<stop stop-color="#BD0705"/>
<stop offset="1" stop-color="#FD0302"/>
</linearGradient>
<linearGradient id="paint22_linear" x1="262.639" y1="120.084" x2="258.083" y2="106.734" gradientUnits="userSpaceOnUse">
<stop stop-color="#BD0705"/>
<stop offset="1" stop-color="#FD0302"/>
</linearGradient>
<linearGradient id="paint23_linear" x1="262.639" y1="120.084" x2="258.083" y2="106.734" gradientUnits="userSpaceOnUse">
<stop stop-color="#BD0705"/>
<stop offset="1" stop-color="#FD0302"/>
</linearGradient>
<linearGradient id="paint24_linear" x1="262.639" y1="120.084" x2="258.083" y2="106.734" gradientUnits="userSpaceOnUse">
<stop stop-color="#BD0705"/>
<stop offset="1" stop-color="#FD0302"/>
</linearGradient>
<linearGradient id="paint25_linear" x1="262.639" y1="120.084" x2="258.083" y2="106.734" gradientUnits="userSpaceOnUse">
<stop stop-color="#BD0705"/>
<stop offset="1" stop-color="#FD0302"/>
</linearGradient>
<linearGradient id="paint26_linear" x1="262.639" y1="120.084" x2="258.083" y2="106.734" gradientUnits="userSpaceOnUse">
<stop stop-color="#BD0705"/>
<stop offset="1" stop-color="#FD0302"/>
</linearGradient>
<linearGradient id="paint27_linear" x1="262.639" y1="120.084" x2="258.083" y2="106.734" gradientUnits="userSpaceOnUse">
<stop stop-color="#BD0705"/>
<stop offset="1" stop-color="#FD0302"/>
</linearGradient>
<linearGradient id="paint28_linear" x1="262.639" y1="120.084" x2="258.083" y2="106.734" gradientUnits="userSpaceOnUse">
<stop stop-color="#BD0705"/>
<stop offset="1" stop-color="#FD0302"/>
</linearGradient>
<linearGradient id="paint29_linear" x1="262.639" y1="120.084" x2="258.083" y2="106.734" gradientUnits="userSpaceOnUse">
<stop stop-color="#BD0705"/>
<stop offset="1" stop-color="#FD0302"/>
</linearGradient>
<linearGradient id="paint30_linear" x1="262.639" y1="120.084" x2="258.083" y2="106.734" gradientUnits="userSpaceOnUse">
<stop stop-color="#BD0705"/>
<stop offset="1" stop-color="#FD0302"/>
</linearGradient>
<linearGradient id="paint31_linear" x1="262.639" y1="120.084" x2="258.083" y2="106.734" gradientUnits="userSpaceOnUse">
<stop stop-color="#BD0705"/>
<stop offset="1" stop-color="#FD0302"/>
</linearGradient>
<clipPath id="clip0">
<rect width="206.88" height="196.564" transform="matrix(-1 0 0 1 256.073 53.7617)" fill="white"/>
</clipPath>
</defs>
</svg>
