<svg width="526" height="500" viewBox="0 0 526 500" fill="none" xmlns="http://www.w3.org/2000/svg">
<g clip-path="url(#clip0)">
<path d="M225.321 223.932L0 212.13L46.973 165.223L172.383 167.463L225.321 223.932Z" fill="url(#paint0_linear)"/>
<path d="M300.329 38.6914L225.321 223.932L172.383 167.463L241.128 0L300.329 38.6914Z" fill="url(#paint1_linear)"/>
<path d="M300.329 38.6909L334.328 156.259L284.522 226.919L262.452 132.207L300.329 38.6909Z" fill="url(#paint2_linear)"/>
<path d="M334.328 156.26L525.501 165.074L414.406 230.505L284.522 226.92L334.328 156.26Z" fill="url(#paint3_linear)"/>
<path d="M323.89 283.836L525.501 165.073L500.896 236.032L405.012 298.476L323.89 283.836Z" fill="url(#paint4_linear)"/>
<path d="M345.96 390.798L323.89 283.837L405.011 298.477L448.555 478.489L345.96 390.798Z" fill="url(#paint5_linear)"/>
<path d="M448.555 478.488L268.971 325.03L268.119 409.919L364.152 478.488H448.555Z" fill="url(#paint6_linear)"/>
<path d="M268.971 325.029L90.6653 433.522L105.428 499.999L268.119 409.919L268.971 325.029Z" fill="url(#paint7_linear)"/>
</g>
<defs>
<linearGradient id="paint0_linear" x1="225.13" y1="224.199" x2="-1.31803e-08" y2="224.199" gradientUnits="userSpaceOnUse">
<stop stop-color="#BD0705"/>
<stop offset="1" stop-color="#FD0302"/>
</linearGradient>
<linearGradient id="paint1_linear" x1="236.386" y1="-3.88866e-05" x2="236.386" y2="224.199" gradientUnits="userSpaceOnUse">
<stop stop-color="#B4000E"/>
<stop offset="1" stop-color="#D70016"/>
</linearGradient>
<linearGradient id="paint2_linear" x1="262.454" y1="126.631" x2="334.171" y2="160.968" gradientUnits="userSpaceOnUse">
<stop stop-color="#930105"/>
<stop offset="1" stop-color="#D30015"/>
</linearGradient>
<linearGradient id="paint3_linear" x1="284.375" y1="230.724" x2="525.536" y2="167.987" gradientUnits="userSpaceOnUse">
<stop stop-color="#D90017"/>
<stop offset="1" stop-color="#B4000D"/>
</linearGradient>
<linearGradient id="paint4_linear" x1="525.501" y1="164.887" x2="323.943" y2="288.942" gradientUnits="userSpaceOnUse">
<stop stop-color="#D80118"/>
<stop offset="1" stop-color="#B3000D"/>
</linearGradient>
<linearGradient id="paint5_linear" x1="405.31" y1="297.8" x2="346.874" y2="391.473" gradientUnits="userSpaceOnUse">
<stop stop-color="#D80016"/>
<stop offset="1" stop-color="#B4000D"/>
</linearGradient>
<linearGradient id="paint6_linear" x1="448.483" y1="478.648" x2="268.207" y2="325.232" gradientUnits="userSpaceOnUse">
<stop stop-color="#B3000D"/>
<stop offset="1" stop-color="#D60016"/>
</linearGradient>
<linearGradient id="paint7_linear" x1="268.971" y1="325.029" x2="90.5375" y2="431.909" gradientUnits="userSpaceOnUse">
<stop stop-color="#B3000D"/>
<stop offset="1" stop-color="#D90017"/>
</linearGradient>
<clipPath id="clip0">
<rect width="525.501" height="500" fill="white"/>
</clipPath>
</defs>
</svg>
